<svg width="100" height="80" viewBox="0 0 100 100" fill="none" xmlns="http://www.w3.org/2000/svg">
<path d="M47.651 12.0313C48.0808 12.6266 48.3056 13.3454 48.2916 14.0795C48.2775 14.8136 48.0252 15.5233 47.5728 16.1016C44.9713 19.4297 39.4557 26.0938 33.9713 30.1407C27.2057 35.1407 21.0416 37.3829 17.901 38.2969C16.5103 38.7032 15.026 38.1641 14.19 36.9844C12.1275 34.086 8.84628 27.8751 10.1353 19.086C11.9557 6.586 26.276 0.554747 35.5572 3.55475C44.8385 6.55475 47.651 12.0313 47.651 12.0313Z" fill="#FFC107"/>
<path d="M19.1414 35.961C18.2273 36.3438 17.3992 35.2735 17.9851 34.4844C19.7039 32.1875 23.0398 28.4219 29.1258 23.5157C35.7273 18.1954 40.407 16.3125 42.9617 15.6485C43.8445 15.4219 44.5242 16.4141 43.9929 17.1563C42.2664 19.5782 38.6336 24 32.6883 28.2422C26.9226 32.3594 22.032 34.7422 19.1414 35.961Z" fill="url(#paint0_radial_4664_46236)"/>
<path d="M25.5714 6.82814C25.9308 8.37502 27.8839 8.91408 29.7746 8.59377C31.8214 8.25002 34.3996 7.96095 34.1574 5.88283C33.9074 3.73439 30.4855 3.82033 29.2199 3.89064C27.3683 4.00002 25.2511 5.46095 25.5714 6.82814Z" fill="#FFEE58"/>
<path d="M65.8171 2.90631C75.1609 0.390683 88.8796 3.60943 91.6296 19.7969C92.6765 25.9454 90.2312 31.3907 88.5203 34.2969C87.6765 35.7344 86.0281 36.5001 84.3953 36.1719C81.2078 35.5313 75.2703 33.7422 67.3171 28.7735C62.8953 26.0157 56.8796 20.6407 53.4734 17.4766C51.9343 16.0469 51.7859 13.6485 53.1687 12.0626C55.8718 8.96099 60.6296 4.30474 65.8171 2.90631Z" fill="#FFC107"/>
<path d="M57.3603 17.5781C56.8681 17.086 57.3369 16.2578 58.0166 16.4297C61.0009 17.1797 66.5087 18.8594 71.3994 21.9141C76.415 25.0547 81.4853 29.8281 84.0556 32.3828C84.5634 32.8828 84.0634 33.7266 83.3759 33.5235C80.2353 32.6094 74.4619 30.5781 68.7509 26.7266C62.9462 22.8125 59.2509 19.461 57.3603 17.5781Z" fill="url(#paint1_radial_4664_46236)"/>
<path d="M65.3053 9.25002C62.2193 10.2188 61.3521 8.03908 63.0006 6.38283C64.1881 5.18752 69.1959 3.05471 73.5396 3.96096C76.4068 4.56252 77.3053 8.69533 73.2662 8.64065C70.5162 8.60158 69.0865 8.06252 65.3053 9.25002Z" fill="#FFEE58"/>
<path d="M85.9533 93.7891C76.2267 87.6719 69.7111 75.7578 68.5236 61.9141C67.4533 49.4062 70.4846 36.7422 72.9221 26.5703L77.9221 28.8437C75.5939 38.5781 73.7658 49.875 74.7502 61.375C75.7658 73.2734 81.2033 83.4141 89.2814 88.4922L85.9533 93.7891ZM47.3283 91.6328L44.7502 85.9375C47.8049 84.5547 49.5705 80.5469 48.5236 77.3672C48.0158 75.8125 46.9221 74.3281 45.7736 72.7578C44.8361 71.4766 43.8596 70.1484 43.0627 68.625C40.9846 64.6406 40.4924 59.875 41.7267 55.5547C42.3517 53.375 43.3439 51.4453 44.3127 49.5781C45.4064 47.4688 46.4299 45.4844 46.6955 43.4844C46.9377 41.6328 46.5002 39.6719 45.4846 38.1016C44.5627 36.6875 43.1408 35.4687 41.633 34.1875C40.4924 33.2109 39.3049 32.2031 38.2189 31.0156C35.6486 28.2031 34.6486 24.8516 34.6642 21.1094L39.0158 19.4609C39.0158 19.4609 39.8049 23.7109 40.8674 25.4063C41.9846 27.1797 43.6486 28.3828 45.2267 29.7266C47.008 31.25 49.3127 32.5234 50.7267 34.7109C52.5392 37.5078 53.3283 41.0078 52.8908 44.3203C52.4846 47.3984 51.1486 49.9766 49.8596 52.4688C49.0002 54.1328 48.1877 55.7031 47.7346 57.2891C46.9377 60.0859 47.2502 63.1719 48.6017 65.75C49.1799 66.8594 49.9689 67.9375 50.8127 69.0859C52.2033 70.9844 53.6408 72.9375 54.4611 75.4375C56.5158 81.6484 53.3127 88.9297 47.3283 91.6328Z" fill="#03A9F4"/>
<path d="M8.21094 96.3359L4.51562 91.2969C28.2109 73.9375 30.7344 48.5156 29.0625 35.5625L33.7813 34.1172C35.6328 48.4375 34.4922 77.0859 8.21094 96.3359Z" fill="#F48FB1"/>
<path d="M74.1562 57.3125L74.5703 57.6328C74.5234 55.0625 74.6484 52.4766 74.8906 49.9141C72.7969 48.1719 70.8437 46.3047 69.4375 44.1172C69.3984 44.0547 69.3672 43.9922 69.3281 43.9297C68.9062 46.7422 68.5781 49.6172 68.4219 52.5156C70.2891 54.3047 72.2891 55.8672 74.1562 57.3125Z" fill="#0076C6"/>
<path d="M89.7891 74.4922L84.1172 71.8594C85.5625 68.75 84.3516 64.9922 82.7422 62.5156C80.6485 59.2969 77.3516 56.7344 74.1563 54.2578C70.7266 51.6016 66.8438 48.5937 64.1719 44.4297C59.2579 36.7812 60.125 27.2578 65.6641 20.0469L70.2032 22.5859C66.2188 27.7812 65.8985 35.5391 69.4297 41.0469C71.5157 44.3047 74.8047 46.8437 77.9844 49.3125C81.4219 51.9766 85.3125 54.9922 87.9844 59.1016C91.2032 64.0625 91.8985 69.9609 89.7891 74.4922ZM7.02348 72.3359C5.85161 65.7109 10.6954 62.2812 13.2969 60.4375C13.6094 60.2187 13.9922 59.9453 14.2579 59.7344C14.2344 59.1797 13.8594 58.4844 13.1563 57.3047C12 55.3594 10.4219 52.6875 11.6329 49.2891C12.6875 46.3359 15.75 45.3594 17.7813 44.2187C19.5157 43.2422 20.7735 42.0547 21.3985 40.0703C22.125 37.7578 21.6172 31.9453 21.6172 31.9453L25.4297 29.7188C25.4297 29.7188 26.6329 35.2734 26.6329 38.1016C26.6329 46.1172 22.1875 48.1641 20.3125 49.2187C19.0157 49.9453 17.7891 50.6328 17.5235 51.3828C17.3282 51.9297 17.6016 52.5469 18.5391 54.125C19.6641 56.0156 21.1954 58.6172 20.1954 61.9375C19.711 63.5547 18.3516 64.5234 16.9141 65.5391C14.3672 67.3437 12.7266 68.7187 13.1797 71.25L7.02348 72.3359ZM58.6329 64.2656C55.8516 63.6016 53.9532 61.9453 52.25 60.5391L56.2344 55.7187C56.2344 55.7187 57.6485 57.8203 60.75 58.7891L58.6329 64.2656ZM53.6172 29.0938L49 26.3828L52.3438 21.0938L56.9688 23.8047L53.6172 29.0938ZM65.6016 88.7187L59.375 84.8516L64.1797 79.5078L68.9844 84.0703L65.6016 88.7187Z" fill="#F44336"/>
<path d="M85.3203 47.0046L88.9844 41.9421L94.4219 45.8765L90.757 50.939L85.3203 47.0046Z" fill="#FB8C00"/>
<path d="M41.3203 44.5781L35.8047 40.7656L38.6719 36.9609L44.1797 40.7734L41.3203 44.5781Z" fill="#F44336"/>
<path d="M47.9922 51.2422C47.9922 51.2422 49.0547 51.2031 50.375 51.461C51.3281 49.586 52.2344 47.6328 52.7031 45.4375C51.0781 45.0703 49.7734 45.25 49.7734 45.25L47.9922 51.2422Z" fill="#0076C6"/>
<path d="M55.4055 51.9765C53.2258 50.1172 49.5852 50.25 49.5852 50.25L51.3586 44.2578C51.3586 44.2578 55.3898 43.6953 58.1086 46.5312L55.4055 51.9765ZM3.625 76.8046L9.29453 76.4578L9.675 82.6968L4.00625 83.0422L3.625 76.8046ZM33.7258 75.7109L30.1242 70.6015C31.718 69.4765 33.1789 68.1406 34.4445 66.6484L39.2102 70.6953C37.5982 72.5891 35.7558 74.2741 33.7258 75.7109Z" fill="#FB8C00"/>
<path d="M33.7734 90.1484C31.8984 88.6016 29.9141 87.1641 27.8672 85.8672L31.2109 80.5859C33.4766 82.0156 35.6719 83.6094 37.75 85.3203L33.7734 90.1484Z" fill="#F44336"/>
<path d="M68.6328 62.5703C68.8516 65.1562 69.1563 67.0156 69.7344 69.4375L73.8516 66.1328L69.8438 61.125L68.6328 62.5703Z" fill="#0076C6"/>
<path d="M62.0078 66.5578L68.3047 61.5101L72.2133 66.3859L65.9164 71.4343L62.0078 66.5578Z" fill="#FFC107"/>
<path d="M59.8594 97.8594C58.7656 95.8516 57.5391 93.8906 56.2109 92.0313L61.2969 88.3984C62.7782 90.4717 64.1298 92.6347 65.3438 94.875L59.8594 97.8594Z" fill="#FB8C00"/>
<defs>
<radialGradient id="paint0_radial_4664_46236" cx="0" cy="0" r="1" gradientUnits="userSpaceOnUse" gradientTransform="translate(30.9867 25.8329) scale(11.7984 11.7984)">
<stop offset="0.376" stop-color="#AF5700"/>
<stop offset="1" stop-color="#8F4700"/>
</radialGradient>
<radialGradient id="paint1_radial_4664_46236" cx="0" cy="0" r="1" gradientUnits="userSpaceOnUse" gradientTransform="translate(70.7048 24.9766) scale(16.5812)">
<stop offset="0.376" stop-color="#AF5700"/>
<stop offset="1" stop-color="#8F4700"/>
</radialGradient>
</defs>
</svg>
