<svg width="300" height="300" viewBox="0 0 300 300" fill="none" xmlns="http://www.w3.org/2000/svg">
<path d="M150 289.884C224.002 289.884 283.992 255.247 283.992 212.52C283.992 169.793 224.002 135.156 150 135.156C75.9981 135.156 16.0078 169.793 16.0078 212.52C16.0078 255.247 75.9981 289.884 150 289.884Z" fill="#F5F5F5"/>
<path d="M202.733 187.104L247.865 213.156C248.434 213.486 249.08 213.66 249.737 213.66C250.395 213.66 251.041 213.486 251.609 213.156L276.719 198.648C276.889 198.55 277.029 198.409 277.127 198.239C277.225 198.07 277.276 197.877 277.276 197.682C277.276 197.486 277.225 197.294 277.127 197.124C277.029 196.954 276.889 196.814 276.719 196.716L231.599 170.73C231.032 170.403 230.388 170.23 229.733 170.23C229.078 170.23 228.435 170.403 227.867 170.73L202.739 185.166C202.569 185.264 202.429 185.405 202.33 185.575C202.232 185.744 202.18 185.937 202.18 186.133C202.179 186.329 202.23 186.522 202.327 186.692C202.424 186.862 202.564 187.004 202.733 187.104Z" fill="#E0E0E0"/>
<path d="M167.22 177.414L58.6617 240.24C57.7777 240.753 56.7748 241.026 55.7527 241.031C54.7307 241.036 53.725 240.774 52.8357 240.27L24.6358 224.31C24.3428 224.142 24.0995 223.899 23.9302 223.607C23.761 223.314 23.6719 222.983 23.6719 222.645C23.6719 222.307 23.761 221.975 23.9302 221.683C24.0995 221.391 24.3428 221.148 24.6358 220.98L132.99 158.4C133.871 157.893 134.869 157.624 135.886 157.617C136.903 157.611 137.904 157.868 138.792 158.364L167.196 174.282C167.474 174.437 167.706 174.663 167.869 174.937C168.031 175.21 168.118 175.522 168.12 175.841C168.123 176.159 168.041 176.473 167.882 176.749C167.724 177.025 167.496 177.255 167.22 177.414Z" fill="#E0E0E0"/>
<path d="M184.595 240.468C201.047 240.468 214.385 232.767 214.385 223.266C214.385 213.766 201.047 206.064 184.595 206.064C168.142 206.064 154.805 213.766 154.805 223.266C154.805 232.767 168.142 240.468 184.595 240.468Z" fill="#E0E0E0"/>
<path d="M249.027 233.16C254.763 233.16 259.413 230.474 259.413 227.16C259.413 223.846 254.763 221.16 249.027 221.16C243.291 221.16 238.641 223.846 238.641 227.16C238.641 230.474 243.291 233.16 249.027 233.16Z" fill="#E0E0E0"/>
<path d="M249.367 132.625L249.379 211.807L275.023 196.987V117.883L249.367 132.625Z" fill="#E6E6E6"/>
<path d="M205.812 186.655L249.379 211.807V132.697L205.825 107.623L205.812 186.655Z" fill="#EBEBEB"/>
<path d="M205.812 107.545L249.379 132.697L275.023 117.883L231.475 92.8027L205.812 107.545Z" fill="#F5F5F5"/>
<path d="M210.92 136.501L244.022 155.617C244.166 155.7 244.33 155.743 244.497 155.743C244.663 155.743 244.827 155.699 244.972 155.616C245.116 155.533 245.236 155.413 245.32 155.269C245.404 155.125 245.449 154.962 245.45 154.795V138.001C245.447 137.586 245.335 137.179 245.124 136.822C244.913 136.465 244.612 136.17 244.25 135.967L211.202 116.923C211.056 116.84 210.892 116.796 210.725 116.797C210.558 116.797 210.394 116.842 210.249 116.926C210.104 117.009 209.984 117.13 209.901 117.275C209.817 117.42 209.774 117.584 209.774 117.751V134.467C209.77 134.877 209.874 135.28 210.075 135.637C210.276 135.994 210.567 136.292 210.92 136.501Z" fill="#FAFAFA"/>
<path d="M230.518 132.294C230.404 132.293 230.292 132.262 230.194 132.204L224.35 128.844C224.216 128.749 224.121 128.608 224.086 128.447C224.05 128.287 224.076 128.119 224.158 127.976C224.24 127.833 224.372 127.727 224.528 127.676C224.685 127.626 224.854 127.636 225.004 127.704L230.848 131.07C230.964 131.146 231.052 131.256 231.101 131.386C231.15 131.515 231.156 131.657 231.12 131.79C231.083 131.923 231.005 132.042 230.897 132.128C230.789 132.214 230.656 132.264 230.518 132.27V132.294Z" fill="#E0E0E0"/>
<path d="M210.919 159.949L244.021 179.059C244.166 179.142 244.33 179.186 244.497 179.186C244.663 179.185 244.827 179.142 244.971 179.058C245.116 178.975 245.236 178.856 245.32 178.712C245.404 178.568 245.448 178.404 245.449 178.237V161.437C245.447 161.023 245.334 160.616 245.123 160.259C244.912 159.902 244.611 159.607 244.249 159.403L211.201 140.401C211.057 140.319 210.893 140.275 210.726 140.275C210.56 140.276 210.396 140.319 210.251 140.403C210.107 140.486 209.987 140.605 209.903 140.749C209.819 140.893 209.774 141.057 209.773 141.223V157.939C209.774 158.345 209.881 158.743 210.081 159.096C210.282 159.448 210.571 159.742 210.919 159.949Z" fill="#FAFAFA"/>
<path d="M230.518 155.737C230.405 155.736 230.294 155.707 230.194 155.653L224.35 152.287C224.216 152.193 224.121 152.051 224.086 151.891C224.05 151.73 224.076 151.562 224.158 151.419C224.24 151.277 224.372 151.17 224.528 151.12C224.685 151.069 224.854 151.079 225.004 151.147L230.848 154.513C230.964 154.589 231.052 154.7 231.101 154.829C231.15 154.959 231.156 155.1 231.12 155.233C231.083 155.367 231.005 155.485 230.897 155.571C230.789 155.657 230.656 155.707 230.518 155.713V155.737Z" fill="#E0E0E0"/>
<path d="M210.92 183.39L244.022 202.5C244.166 202.583 244.33 202.626 244.497 202.626C244.663 202.626 244.827 202.582 244.972 202.499C245.116 202.416 245.236 202.296 245.32 202.152C245.404 202.008 245.449 201.845 245.45 201.678V184.878C245.447 184.463 245.334 184.057 245.123 183.699C244.913 183.342 244.611 183.047 244.25 182.844L211.202 163.8C211.057 163.717 210.893 163.674 210.727 163.674C210.56 163.674 210.396 163.718 210.252 163.801C210.107 163.884 209.987 164.004 209.903 164.148C209.819 164.292 209.775 164.455 209.774 164.622V181.344C209.768 181.756 209.871 182.161 210.073 182.52C210.274 182.88 210.566 183.179 210.92 183.39Z" fill="#FAFAFA"/>
<path d="M230.511 179.179C230.398 179.181 230.286 179.152 230.187 179.095L224.343 175.729C224.269 175.686 224.204 175.629 224.151 175.561C224.099 175.493 224.06 175.415 224.038 175.332C224.016 175.249 224.01 175.162 224.021 175.077C224.032 174.992 224.06 174.91 224.103 174.835C224.146 174.761 224.203 174.695 224.272 174.643C224.34 174.591 224.418 174.553 224.501 174.531C224.585 174.509 224.671 174.504 224.756 174.516C224.842 174.528 224.923 174.557 224.997 174.601L230.841 177.961C230.916 178.004 230.981 178.061 231.034 178.129C231.086 178.198 231.124 178.275 231.147 178.358C231.169 178.442 231.175 178.528 231.164 178.613C231.152 178.699 231.124 178.781 231.081 178.855C231.024 178.955 230.941 179.038 230.841 179.096C230.741 179.153 230.627 179.181 230.511 179.179Z" fill="#E0E0E0"/>
<path d="M233.047 52.8906V74.0526L251.377 84.6306V63.4686L233.047 52.8906Z" fill="#FAFAFA"/>
<path d="M235.032 54.0305L251.4 63.4685V82.3384L235.056 72.9065V54.0305M234.06 52.3145L233.07 52.9145V74.0765L251.4 84.6305L252.39 84.0305V62.8985L234.036 52.3145H234.06Z" fill="#E0E0E0"/>
<path d="M234.037 54.6008L250.381 64.0388V82.9088L234.037 73.4708V54.6008ZM233.047 52.8848V74.0468L251.401 84.6308V63.4688L233.047 52.8908V52.8848Z" fill="#EBEBEB"/>
<path d="M235.734 69.2109L249.6 77.2149L245.502 66.5589L242.67 69.9249L239.766 65.7969L235.734 69.2109Z" fill="#E0E0E0"/>
<path d="M240.547 62.5626C240.57 63.0016 240.697 63.4288 240.917 63.8093C241.137 64.1899 241.444 64.5131 241.813 64.7526C242.509 65.1546 243.079 64.8246 243.079 64.0206C243.054 63.5819 242.927 63.1551 242.707 62.7746C242.487 62.3942 242.181 62.0708 241.813 61.8306C241.111 61.4286 240.547 61.7526 240.547 62.5626Z" fill="#E0E0E0"/>
<path d="M256.867 78.5039V95.3639L271.465 103.794V86.9339L256.867 78.5039Z" fill="#FAFAFA"/>
<path d="M258.445 79.422L271.465 86.934V102L258.445 94.482V79.482M257.653 78.108L256.867 78.564V95.424L271.465 103.8L272.257 103.344V86.484L257.653 78.084V78.108Z" fill="#E0E0E0"/>
<path d="M257.653 79.8779L270.673 87.3899V102.426L257.653 94.9079V79.8779ZM256.867 78.5039V95.3639L271.465 103.8V86.9399L256.867 78.5399V78.5039Z" fill="#EBEBEB"/>
<path d="M259.008 91.5071L270.048 97.8851L266.79 89.3951L264.528 92.0831L262.218 88.7891L259.008 91.5071Z" fill="#E0E0E0"/>
<path d="M262.836 86.2135C262.855 86.5632 262.956 86.9035 263.132 87.2068C263.307 87.5101 263.551 87.768 263.844 87.9595C264.402 88.2775 264.852 88.0195 264.852 87.3595C264.834 87.0096 264.733 86.669 264.558 86.3655C264.382 86.062 264.138 85.8043 263.844 85.6135C263.286 85.3075 262.836 85.5715 262.836 86.2135Z" fill="#E0E0E0"/>
<path d="M249.641 211.873C249.641 211.873 243.257 205.639 246.893 195.199C248.927 189.349 255.671 185.053 259.493 184.645C258.221 186.156 257.208 187.867 256.493 189.709L251.657 192.925L256.103 191.533L255.155 195.337C255.155 195.337 251.021 197.839 250.409 198.385L254.867 197.221C254.867 197.221 254.543 207.997 249.641 211.873Z" fill="#3DA755"/>
<path opacity="0.4" d="M249.641 211.873C249.641 211.873 243.257 205.639 246.893 195.199C248.927 189.349 255.671 185.053 259.493 184.645C258.221 186.156 257.208 187.867 256.493 189.709L251.657 192.925L256.103 191.533L255.155 195.337C255.155 195.337 251.021 197.839 250.409 198.385L254.867 197.221C254.867 197.221 254.543 207.997 249.641 211.873Z" fill="black"/>
<path d="M249.639 211.873C249.639 211.873 246.333 198.829 251.223 191.221C251.223 191.221 245.493 197.935 249.639 211.873Z" fill="white"/>
<path d="M256.944 213.637L249.144 213.541H249.066L241.266 213.637C241.266 213.637 241.176 223.237 244.14 227.173C244.962 228.217 246.876 228.973 249.114 228.973C251.352 228.973 253.278 228.235 254.094 227.173C257.034 223.249 256.944 213.637 256.944 213.637Z" fill="#37474F"/>
<path d="M256.938 213.637C256.938 215.965 253.428 217.837 249.09 217.837C244.752 217.837 241.242 215.947 241.242 213.637C241.242 211.327 244.758 209.438 249.09 209.438C253.422 209.438 256.938 211.309 256.938 213.637Z" fill="#455A64"/>
<path d="M249.092 212.521C251.792 212.521 254.078 213.385 254.888 214.585C255.086 214.307 255.194 213.977 255.2 213.637C255.2 211.975 252.464 210.637 249.092 210.637C245.72 210.637 242.984 211.987 242.984 213.637C242.99 213.978 243.101 214.309 243.302 214.585C244.106 213.385 246.392 212.521 249.092 212.521Z" fill="#263238"/>
<path d="M249.095 212.521C246.395 212.521 244.109 213.385 243.305 214.585C244.109 215.785 246.395 216.655 249.095 216.655C251.795 216.655 254.081 215.785 254.891 214.585C254.081 213.385 251.795 212.521 249.095 212.521Z" fill="#E0E0E0"/>
<path d="M249.189 215.107C249.189 215.107 246.189 214.993 243.573 210.973C242.499 209.317 241.983 208.447 241.983 208.447L246.183 208.129L241.461 206.929L239.229 203.515L243.147 203.221C241.531 202.658 239.849 202.309 238.143 202.183C238.143 202.183 234.543 195.799 233.469 194.887C236.212 195.054 238.894 195.77 241.356 196.994C243.817 198.217 246.007 199.923 247.797 202.009C253.719 209.035 250.071 215.287 249.189 215.107Z" fill="#3DA755"/>
<path d="M249.192 215.107C249.192 215.107 251.088 203.707 238.992 196.855C239.01 196.855 251.544 202.879 249.192 215.107Z" fill="white"/>
<path d="M249.19 215.106C249.19 215.106 251.932 215.286 254.65 211.908C255.772 210.51 256.318 209.772 256.318 209.772L252.544 209.094L256.918 208.494L259.252 205.62L255.742 204.99C257.253 204.633 258.805 204.477 260.356 204.528C260.356 204.528 264.22 199.128 265.258 198.384C262.779 198.273 260.302 198.66 257.974 199.521C255.646 200.383 253.514 201.702 251.704 203.4C245.68 209.202 248.398 215.184 249.19 215.106Z" fill="#3DA755"/>
<path opacity="0.2" d="M249.19 215.106C249.19 215.106 251.932 215.286 254.65 211.908C255.772 210.51 256.318 209.772 256.318 209.772L252.544 209.094L256.918 208.494L259.252 205.62L255.742 204.99C257.253 204.633 258.805 204.477 260.356 204.528C260.356 204.528 264.22 199.128 265.258 198.384C262.779 198.273 260.302 198.66 257.974 199.521C255.646 200.383 253.514 201.702 251.704 203.4C245.68 209.202 248.398 215.184 249.19 215.106Z" fill="black"/>
<path d="M249.189 215.106C249.189 215.106 248.553 204.648 260.097 199.596C260.097 199.596 248.223 203.85 249.189 215.106Z" fill="white"/>
<path d="M130.077 69.5101L127.347 68.4001L127.071 68.2861H127.041C126.551 68.1093 126.029 68.0419 125.511 68.0886C124.993 68.1352 124.491 68.2948 124.041 68.5561L30.3568 122.628C28.388 123.763 26.753 125.396 25.6164 127.364C24.4799 129.331 23.8819 131.564 23.8828 133.836V215.4C23.8833 216.267 24.112 217.118 24.5458 217.869C24.9797 218.619 25.6035 219.242 26.3545 219.675C27.1055 220.108 27.9572 220.336 28.8241 220.335C29.691 220.335 30.5424 220.106 31.2928 219.672L125.067 165.534C126.405 164.761 127.516 163.649 128.288 162.31C129.06 160.972 129.466 159.453 129.465 157.908V71.7001C129.467 71.0827 129.31 70.4752 129.009 69.9361L130.077 69.5101Z" fill="#A2185A"/>
<path opacity="0.3" d="M130.077 69.5101L127.347 68.4001L127.071 68.2861H127.041C126.551 68.1093 126.029 68.0419 125.511 68.0886C124.993 68.1352 124.491 68.2948 124.041 68.5561L30.3568 122.628C28.388 123.763 26.753 125.396 25.6164 127.364C24.4799 129.331 23.8819 131.564 23.8828 133.836V215.4C23.8833 216.267 24.112 217.118 24.5458 217.869C24.9797 218.619 25.6035 219.242 26.3545 219.675C27.1055 220.108 27.9572 220.336 28.8241 220.335C29.691 220.335 30.5424 220.106 31.2928 219.672L125.067 165.534C126.405 164.761 127.516 163.649 128.288 162.31C129.06 160.972 129.466 159.453 129.465 157.908V71.7001C129.467 71.0827 129.31 70.4752 129.009 69.9361L130.077 69.5101Z" fill="black"/>
<path d="M131.947 72.6847V158.923C131.948 160.468 131.542 161.986 130.769 163.324C129.995 164.662 128.883 165.772 127.543 166.543L33.7694 220.687C33.0182 221.119 32.1666 221.346 31.3 221.346C30.4333 221.345 29.582 221.117 28.8314 220.683C28.0809 220.25 27.4574 219.627 27.0235 218.877C26.5897 218.126 26.3606 217.275 26.3594 216.409V134.809C26.3599 132.573 26.9408 130.375 28.0454 128.431C28.882 126.989 30.0899 125.797 31.5434 124.981L128.401 69.0547C129.341 69.084 130.233 69.4747 130.891 70.1454C131.549 70.816 131.923 71.7149 131.935 72.6547L131.947 72.6847Z" fill="#A2185A"/>
<path opacity="0.1" d="M131.947 72.6847V158.923C131.948 160.468 131.542 161.986 130.769 163.324C129.995 164.662 128.883 165.772 127.543 166.543L33.7694 220.687C33.0182 221.119 32.1666 221.346 31.3 221.346C30.4333 221.345 29.582 221.117 28.8314 220.683C28.0809 220.25 27.4574 219.627 27.0235 218.877C26.5897 218.126 26.3606 217.275 26.3594 216.409V134.809C26.3599 132.573 26.9408 130.375 28.0454 128.431C28.882 126.989 30.0899 125.797 31.5434 124.981L128.401 69.0547C129.341 69.084 130.233 69.4747 130.891 70.1454C131.549 70.816 131.923 71.7149 131.935 72.6547L131.947 72.6847Z" fill="black"/>
<path d="M127.543 166.542L33.7688 220.686C33.0429 221.111 32.2198 221.341 31.379 221.355C30.5382 221.368 29.708 221.165 28.9688 220.764L84.9608 136.494L131.947 158.916C131.947 160.462 131.54 161.981 130.767 163.32C129.994 164.658 128.882 165.77 127.543 166.542Z" fill="#A2185A"/>
<path opacity="0.2" d="M127.543 166.542L33.7688 220.686C33.0429 221.111 32.2198 221.341 31.379 221.355C30.5382 221.368 29.708 221.165 28.9688 220.764L84.9608 136.494L131.947 158.916C131.947 160.462 131.54 161.981 130.767 163.32C129.994 164.658 128.882 165.77 127.543 166.542Z" fill="black"/>
<path d="M130.371 69.6967L92.1329 149.683C91.3797 151.254 90.3103 152.653 88.9914 153.792C87.6726 154.931 86.1328 155.786 84.4684 156.302C82.8041 156.819 81.051 156.986 79.319 156.794C77.587 156.602 75.9134 156.054 74.4029 155.185L28.0469 128.449C28.8381 127.044 29.9924 125.877 31.3889 125.071L128.403 69.0547C129.108 69.0714 129.792 69.2946 130.371 69.6967Z" fill="#A2185A"/>
<path d="M37.6719 102.768L65.1399 86.9042V67.2422L45.1779 78.2462C42.9043 79.4976 41.0083 81.3365 39.688 83.5708C38.3677 85.8051 37.6714 88.3529 37.6719 90.9482V102.768Z" fill="#BD668D"/>
<path opacity="0.5" d="M37.6719 102.768L65.1399 86.9042V67.2422L45.1779 78.2462C42.9043 79.4976 41.0083 81.3365 39.688 83.5708C38.3677 85.8051 37.6714 88.3529 37.6719 90.9482V102.768Z" fill="white"/>
<path d="M151.204 26.622L148.69 25.2C145.497 23.3538 141.872 22.3852 138.184 22.3926C134.496 22.4 130.875 23.3831 127.69 25.242L49.1319 71.01C45.6448 73.0408 42.7514 75.9507 40.7405 79.4493C38.7295 82.9479 37.6715 86.9127 37.6719 90.948C37.6716 88.875 38.2188 86.8387 39.258 85.045C40.2972 83.2513 41.7917 81.7638 43.5903 80.733C45.3889 79.7022 47.4278 79.1646 49.5008 79.1746C51.5738 79.1846 53.6073 79.7419 55.3959 80.79L58.6839 82.716C62.1072 84.7198 64.9467 87.5844 66.9203 91.0252C68.8939 94.466 69.9328 98.3634 69.9339 102.33V219.054L64.5759 232.656L74.6379 226.53L155.524 179.598C158.397 177.932 160.781 175.54 162.438 172.662C164.094 169.784 164.965 166.521 164.962 163.2V50.496C164.961 45.6601 163.69 40.9093 161.275 36.7193C158.861 32.5293 155.388 29.0473 151.204 26.622Z" fill="#BD668D"/>
<path opacity="0.7" d="M151.204 26.622L148.69 25.2C145.497 23.3538 141.872 22.3852 138.184 22.3926C134.496 22.4 130.875 23.3831 127.69 25.242L49.1319 71.01C45.6448 73.0408 42.7514 75.9507 40.7405 79.4493C38.7295 82.9479 37.6715 86.9127 37.6719 90.948C37.6716 88.875 38.2188 86.8387 39.258 85.045C40.2972 83.2513 41.7917 81.7638 43.5903 80.733C45.3889 79.7022 47.4278 79.1646 49.5008 79.1746C51.5738 79.1846 53.6073 79.7419 55.3959 80.79L58.6839 82.716C62.1072 84.7198 64.9467 87.5844 66.9203 91.0252C68.8939 94.466 69.9328 98.3634 69.9339 102.33V219.054L64.5759 232.656L74.6379 226.53L155.524 179.598C158.397 177.932 160.781 175.54 162.438 172.662C164.094 169.784 164.965 166.521 164.962 163.2V50.496C164.961 45.6601 163.69 40.9093 161.275 36.7193C158.861 32.5293 155.388 29.0473 151.204 26.622Z" fill="white"/>
<path d="M40.9297 222.047C40.9297 222.047 46.5637 230.285 55.6177 233.015C65.3557 235.949 69.9337 229.493 69.9337 220.931V205.445L40.9297 222.047Z" fill="#BD668D"/>
<path opacity="0.5" d="M40.9297 222.047C40.9297 222.047 46.5637 230.285 55.6177 233.015C65.3557 235.949 69.9337 229.493 69.9337 220.931V205.445L40.9297 222.047Z" fill="white"/>
<path d="M87.4352 139.2C87.2407 139.197 87.0523 139.131 86.8989 139.011C86.7454 138.892 86.6352 138.725 86.585 138.537C86.5347 138.349 86.5472 138.15 86.6206 137.97C86.6939 137.789 86.824 137.638 86.9912 137.538L146.991 102.882C147.196 102.765 147.439 102.733 147.666 102.794C147.894 102.856 148.088 103.005 148.206 103.209C148.324 103.414 148.356 103.657 148.294 103.885C148.233 104.112 148.084 104.307 147.879 104.424L87.8792 139.08C87.7439 139.158 87.5911 139.199 87.4352 139.2Z" fill="white"/>
<path d="M87.4331 152.489C87.2379 152.489 87.0484 152.424 86.8936 152.305C86.7389 152.187 86.6277 152.02 86.5772 151.831C86.5266 151.643 86.5396 151.443 86.614 151.263C86.6885 151.082 86.8203 150.931 86.9891 150.833L146.989 116.171C147.194 116.054 147.436 116.022 147.664 116.083C147.892 116.145 148.086 116.294 148.204 116.498C148.322 116.703 148.354 116.946 148.292 117.174C148.231 117.402 148.082 117.596 147.877 117.713L87.8771 152.399C87.739 152.466 87.5863 152.497 87.4331 152.489Z" fill="white"/>
<path d="M87.4331 165.773C87.2379 165.773 87.0484 165.708 86.8936 165.589C86.7389 165.47 86.6277 165.304 86.5772 165.115C86.5266 164.927 86.5396 164.727 86.614 164.547C86.6885 164.366 86.8203 164.215 86.9891 164.117L146.989 129.461C147.192 129.356 147.428 129.333 147.647 129.397C147.867 129.461 148.053 129.607 148.167 129.805C148.282 130.003 148.316 130.237 148.261 130.459C148.207 130.682 148.07 130.874 147.877 130.997L87.8771 165.653C87.7418 165.731 87.5889 165.772 87.4331 165.773Z" fill="white"/>
<path d="M87.4331 179.059C87.2379 179.058 87.0484 178.993 86.8936 178.875C86.7389 178.756 86.6277 178.589 86.5772 178.401C86.5266 178.212 86.5396 178.012 86.614 177.832C86.6885 177.651 86.8203 177.501 86.9891 177.403L146.989 142.747C147.192 142.641 147.428 142.618 147.647 142.682C147.867 142.746 148.053 142.892 148.167 143.09C148.282 143.288 148.316 143.522 148.261 143.745C148.207 143.967 148.07 144.159 147.877 144.283L87.8771 178.939C87.7429 179.019 87.5893 179.06 87.4331 179.059Z" fill="white"/>
<path d="M87.4331 192.342C87.2379 192.341 87.0484 192.277 86.8936 192.158C86.7389 192.039 86.6277 191.872 86.5772 191.684C86.5266 191.495 86.5396 191.295 86.614 191.115C86.6885 190.935 86.8203 190.784 86.9891 190.686L146.989 156.03C147.192 155.924 147.428 155.901 147.647 155.965C147.867 156.029 148.053 156.175 148.167 156.373C148.282 156.571 148.316 156.806 148.261 157.028C148.207 157.25 148.07 157.443 147.877 157.566L87.8771 192.222C87.7429 192.302 87.5893 192.343 87.4331 192.342Z" fill="white"/>
<path d="M126.835 182.875C126.679 182.876 126.525 182.835 126.39 182.757C126.255 182.679 126.144 182.567 126.067 182.431C125.953 182.228 125.923 181.989 125.984 181.765C126.044 181.54 126.19 181.349 126.391 181.231L147.001 169.315C147.204 169.209 147.439 169.186 147.659 169.25C147.878 169.314 148.065 169.46 148.179 169.658C148.294 169.856 148.327 170.091 148.273 170.313C148.219 170.535 148.081 170.728 147.889 170.851L127.279 182.761C127.143 182.836 126.99 182.876 126.835 182.875Z" fill="white"/>
<path d="M129.222 89.1841L111.93 99.1681V90.6481C111.93 84.7261 115.53 77.8441 119.976 75.2761L121.176 74.586C125.616 72.018 129.222 74.7421 129.222 80.6641V89.1841Z" fill="#BD668D"/>
<path d="M133.242 92.0099L107.898 106.644L111.924 97.3199L129.216 87.3359L133.242 92.0099Z" fill="#BD668D"/>
<path d="M120.606 77.7428C119.856 78.1748 119.25 77.8268 119.25 76.9628V73.6448C119.276 73.1748 119.412 72.7175 119.648 72.31C119.884 71.9024 120.212 71.556 120.606 71.2988C121.35 70.8668 121.956 71.2148 121.956 72.0788V75.4028C121.93 75.8712 121.794 76.3269 121.559 76.7333C121.325 77.1397 120.998 77.4855 120.606 77.7428Z" fill="#BD668D"/>
<path d="M117.695 102.239C117.767 103.961 119.027 104.639 120.575 103.745C121.386 103.215 122.067 102.507 122.564 101.676C123.062 100.844 123.365 99.9107 123.449 98.9453L117.695 102.239Z" fill="#BD668D"/>
<path d="M205.813 76.2966C212.782 76.2966 218.431 70.6473 218.431 63.6785C218.431 56.7098 212.782 51.0605 205.813 51.0605C198.845 51.0605 193.195 56.7098 193.195 63.6785C193.195 70.6473 198.845 76.2966 205.813 76.2966Z" fill="#FFC94F"/>
<path d="M203.563 73.4883C203.563 73.4883 204.691 77.4963 200.125 81.2163C200.125 81.2163 207.157 80.5083 207.541 73.8243L203.563 73.4883Z" fill="#FFC94F"/>
<path d="M207.054 64.842H204.342L203.664 58.332H207.732L207.054 64.842ZM205.698 69.042C205.448 69.0591 205.198 69.0256 204.961 68.9436C204.725 68.8615 204.508 68.7326 204.322 68.5645C204.137 68.3965 203.987 68.1927 203.882 67.9655C203.777 67.7382 203.72 67.4922 203.712 67.242C203.766 66.7529 203.998 66.3009 204.365 65.9726C204.731 65.6442 205.206 65.4627 205.698 65.4627C206.19 65.4627 206.665 65.6442 207.031 65.9726C207.398 66.3009 207.63 66.7529 207.684 67.242C207.675 67.4911 207.616 67.7359 207.51 67.9617C207.405 68.1876 207.255 68.3899 207.07 68.5567C206.885 68.7235 206.668 68.8513 206.432 68.9327C206.196 69.014 205.947 69.0471 205.698 69.03V69.042Z" fill="white"/>
<path d="M180.903 112.452C179.604 112.352 178.301 112.573 177.108 113.096C175.915 113.619 174.869 114.429 174.063 115.452C171.393 118.968 165.741 127.284 165.741 127.284C165.741 127.284 163.377 124.662 161.829 122.82C160.281 120.978 158.829 119.418 158.829 119.418C158.626 118.427 158.473 117.426 158.373 116.418C158.241 114.99 158.049 114.018 157.005 113.04C155.961 112.062 155.163 111.144 155.079 110.4C154.995 109.656 154.479 108.912 153.819 109.674C153.159 110.436 153.219 112.776 154.599 114.336C154.599 114.336 152.133 113.19 150.999 111.846C149.865 110.502 148.401 108.162 147.753 108.81C147.105 109.458 145.863 116.436 147.753 117.99C149.643 119.544 154.317 122.19 154.317 122.19C154.317 122.19 160.425 137.142 164.721 137.142C169.017 137.142 176.121 126.09 176.121 126.09L180.903 112.452Z" fill="#FFA8A7"/>
<path d="M173.273 190.512L174.599 210.798C174.599 210.798 175.799 212.946 178.109 212.946L180.209 210.654C180.181 207.941 180.408 205.231 180.887 202.56C181.667 198.462 183.179 192.468 183.617 189.006L173.273 190.512Z" fill="#FFA8A7"/>
<path d="M174.47 144.685C174.47 144.685 173.414 151.507 172.892 158.143C172.478 163.435 172.208 170.773 172.112 173.527C172.089 174.247 172.105 174.968 172.16 175.687L173.276 190.513C173.276 190.513 179.834 193.393 183.632 189.007C183.632 189.007 184.094 184.759 183.434 181.807C183.047 179.943 183.094 178.016 183.572 176.173L187.682 159.661V144.541L174.47 144.685Z" fill="#37474F"/>
<path d="M177.656 150.342C177.934 151.554 178.538 152.668 179.403 153.561C180.268 154.455 181.361 155.095 182.564 155.412L185.018 170.352L188.618 157.26V150.342H177.656Z" fill="#263238"/>
<path d="M190.414 193.537L194.56 216.403H199.042C199.042 216.403 200.74 197.137 200.65 191.881L190.414 193.537Z" fill="#FFA8A7"/>
<path d="M176.568 144.534C176.568 144.534 175.692 153.36 183.588 154.134L187.686 180.42L190.416 193.53C190.416 193.53 196.812 197.7 200.652 191.874C200.652 191.874 201.042 185.274 199.452 180.726C199.037 179.544 198.866 178.291 198.948 177.042C199.392 170.598 200.616 151.692 200.016 147.504L196.068 142.338L176.568 144.534Z" fill="#37474F"/>
<path d="M190.937 113.401H194.945L197.627 126.787L195.863 132.517C195.491 133.705 195.576 134.989 196.103 136.117C197.303 138.733 199.529 143.845 200.015 147.517C198.893 147.599 197.77 147.375 196.765 146.869C195.76 146.363 194.911 145.593 194.309 144.643C194.309 144.643 190.943 149.077 182.753 149.077C178.781 149.077 175.553 146.155 174.467 144.691L175.937 138.055C176.059 137.516 176.104 136.962 176.069 136.411C175.991 135.037 175.841 132.211 175.877 130.063C175.877 130.063 172.073 128.551 173.051 123.871C174.029 119.191 180.899 112.471 180.899 112.471L183.845 112.585L190.937 113.401Z" fill="#DFDFDB"/>
<path d="M181.275 87.5999C181.275 87.5999 176.415 85.9139 175.227 90.8879C174.039 95.8619 177.699 100.692 172.227 102.348C172.227 102.348 175.455 105.036 178.299 100.014L180.699 110.214C180.699 110.214 180.699 110.772 179.847 111.198C179.847 111.198 193.647 114.27 196.305 107.382C196.671 107.778 196.921 108.268 197.027 108.798C197.132 109.327 197.09 109.875 196.905 110.382C196.905 110.382 200.979 108.732 199.833 103.458C199.833 103.458 203.055 103.368 203.823 100.746C203.823 100.746 198.669 100.992 198.699 95.3039C198.735 88.7339 195.279 89.6879 195.279 89.6879C195.279 89.6879 191.049 83.3999 181.275 87.5999Z" fill="#455A64"/>
<path d="M183.85 108.181V112.567C183.85 112.567 179.308 117.619 183.736 118.021C188.164 118.423 190.936 113.401 190.936 113.401V104.125L183.85 108.181Z" fill="#FFA8A7"/>
<path d="M190.867 102.661V102.913C189.289 109.153 185.179 110.509 183.853 110.827L183.805 101.173L190.669 101.137L190.867 102.661Z" fill="#F28F8F"/>
<path d="M184.3 88.7992C181.678 89.0152 176.23 90.9292 176.152 97.8352C176.074 104.741 177.124 110.009 180.706 110.225C184.288 110.441 192.286 107.225 192.658 98.2252C193.03 89.2252 186.85 88.5592 184.3 88.7992Z" fill="#FFA8A7"/>
<path d="M180.978 100.578L181.044 104.634L178.656 103.944L180.978 100.578Z" fill="#F28F8F"/>
<path d="M184.546 100.47C184.55 100.635 184.505 100.796 184.416 100.935C184.328 101.073 184.2 101.182 184.049 101.247C183.899 101.313 183.732 101.332 183.57 101.303C183.409 101.274 183.26 101.197 183.142 101.082C183.024 100.968 182.943 100.821 182.909 100.66C182.875 100.5 182.889 100.332 182.95 100.18C183.011 100.027 183.117 99.8967 183.252 99.8042C183.388 99.7116 183.548 99.6616 183.712 99.6604C183.821 99.658 183.928 99.6771 184.029 99.7167C184.13 99.7562 184.221 99.8154 184.299 99.8908C184.377 99.9662 184.438 100.056 184.481 100.156C184.523 100.255 184.546 100.362 184.546 100.47Z" fill="#263238"/>
<path d="M179.101 99.9721C179.104 100.081 179.085 100.188 179.045 100.289C179.006 100.39 178.946 100.483 178.871 100.561C178.796 100.639 178.706 100.701 178.606 100.744C178.507 100.787 178.4 100.811 178.291 100.812C178.127 100.816 177.966 100.77 177.828 100.682C177.689 100.594 177.581 100.467 177.515 100.316C177.449 100.166 177.429 99.9996 177.458 99.8382C177.487 99.6768 177.563 99.5276 177.677 99.4095C177.791 99.2914 177.937 99.2099 178.098 99.1751C178.258 99.1403 178.425 99.1539 178.578 99.2142C178.73 99.2744 178.861 99.3786 178.955 99.5136C179.048 99.6485 179.099 99.8081 179.101 99.9721Z" fill="#263238"/>
<path d="M183.213 105.949C182.313 106.178 181.428 106.459 180.561 106.789C180.561 106.789 180.315 105.379 181.485 105.055C181.832 104.981 182.193 105.03 182.508 105.193C182.823 105.356 183.072 105.623 183.213 105.949Z" fill="#F28F8F"/>
<path d="M178.805 96.918L177.203 97.896C177.203 97.896 177.803 98.532 178.439 98.136C178.616 97.9933 178.745 97.8008 178.81 97.5835C178.875 97.3662 178.874 97.1342 178.805 96.918Z" fill="#263238"/>
<path d="M188.514 100.445C188.514 100.445 188.454 103.001 190.128 103.001H193.41V97.4633C193.41 91.2473 188.694 84.7553 178.662 89.8913C178.662 89.8913 178.074 98.5373 188.514 100.445Z" fill="#455A64"/>
<path d="M177.457 102.864C175.897 102.864 174.625 101.784 174.625 100.464C174.625 99.1445 175.897 98.0645 177.457 98.0645C179.017 98.0645 180.289 99.1445 180.289 100.464C180.289 101.784 179.017 102.864 177.457 102.864ZM177.457 98.5265C176.167 98.5265 175.117 99.3905 175.117 100.446C175.117 101.502 176.167 102.372 177.457 102.372C178.747 102.372 179.797 101.508 179.797 100.446C179.797 99.3845 178.747 98.5265 177.457 98.5265Z" fill="#DFDFDB"/>
<path d="M184.416 102.883C182.67 102.883 181.242 101.791 181.242 100.447C181.242 99.1029 182.67 98.0469 184.416 98.0469C186.162 98.0469 187.59 99.1389 187.59 100.447C187.59 101.755 186.168 102.883 184.416 102.883ZM184.416 98.5389C182.958 98.5389 181.764 99.3969 181.764 100.447C181.764 101.497 182.964 102.361 184.416 102.361C185.868 102.361 187.068 101.503 187.068 100.447C187.068 99.3909 185.88 98.5389 184.416 98.5389Z" fill="#DFDFDB"/>
<path d="M181.509 100.188H180.039V100.71H181.509V100.188Z" fill="#DFDFDB"/>
<path d="M191.128 100.188H187.336V100.71H191.128V100.188Z" fill="#DFDFDB"/>
<path d="M190.112 102.666C190.091 102.033 190.214 101.403 190.472 100.824C190.597 100.463 190.825 100.148 191.128 99.9151C191.431 99.6827 191.795 99.544 192.176 99.516C194.132 99.486 194.372 101.37 194.342 102.036C194.252 103.794 192.812 105.678 190.142 105.72L190.112 102.666Z" fill="#FFA8A7"/>
<path d="M194.947 113.4C194.947 113.4 190.375 124.332 197.629 126.786L199.219 123.39C199.219 123.39 212.491 111.234 215.737 108.57C218.983 105.906 214.819 101.97 210.793 98.2801C206.767 94.5901 202.729 91.0201 202.729 91.0201L200.713 87.4501C200.491 87.0602 200.189 86.7217 199.827 86.457C199.465 86.1922 199.051 86.0072 198.613 85.9141C196.501 85.4761 192.523 84.714 190.375 84.84C187.375 85.002 191.905 88.74 192.667 88.74C193.353 88.7605 194.023 88.9566 194.612 89.3095C195.201 89.6624 195.69 90.1604 196.033 90.756C196.945 92.382 197.107 95.3101 200.017 95.1781L206.761 105.252L194.947 113.4Z" fill="#FFA8A7"/>
<path d="M206.761 105.252L209.101 108.246L205.453 106.158L206.761 105.252Z" fill="#F28F8F"/>
<path d="M165.742 127.29L167.824 129.696L166.618 126.012L165.742 127.29Z" fill="#F28F8F"/>
<path opacity="0.2" d="M183.727 130.278C183.727 130.278 189.727 130.764 191.587 125.064C191.587 125.064 191.659 132.33 183.727 130.278Z" fill="black"/>
<path d="M174.03 211.674C174.03 211.674 173.196 209.058 174.486 208.92C175.776 208.782 178.056 209.466 178.284 210.15C178.423 210.602 178.48 211.076 178.452 211.548C179.081 211.335 179.677 211.034 180.222 210.654V209.688C180.222 209.688 181.566 209.82 181.668 210.828C181.77 211.836 181.788 213.066 181.83 214.212C181.908 216.528 182.25 218.076 179.616 218.76C177.738 219.232 176.042 220.251 174.744 221.688C173.844 222.639 172.722 223.352 171.48 223.766C170.238 224.179 168.912 224.28 167.622 224.058C163.656 223.506 163.884 220.158 165.282 219.084C166.626 218.095 168.062 217.239 169.572 216.528L174.03 211.674Z" fill="#DFDFDB"/>
<path d="M172.618 219.072C172.559 219.073 172.5 219.058 172.449 219.027C172.398 218.996 172.357 218.951 172.33 218.898C171.694 217.873 170.682 217.139 169.51 216.852C169.468 216.842 169.427 216.825 169.391 216.8C169.356 216.775 169.325 216.743 169.302 216.706C169.278 216.669 169.262 216.628 169.255 216.585C169.247 216.542 169.249 216.498 169.258 216.456C169.267 216.414 169.285 216.374 169.31 216.339C169.334 216.304 169.366 216.274 169.402 216.251C169.438 216.228 169.479 216.213 169.521 216.206C169.563 216.199 169.607 216.2 169.648 216.21C170.324 216.373 170.96 216.669 171.519 217.081C172.079 217.493 172.55 218.013 172.906 218.61C172.934 218.659 172.947 218.715 172.946 218.772C172.945 218.828 172.929 218.884 172.9 218.932C172.871 218.981 172.83 219.021 172.78 219.049C172.731 219.076 172.675 219.09 172.618 219.09V219.072Z" fill="#FAFAFA"/>
<path d="M174.133 217.452C174.073 217.454 174.014 217.438 173.963 217.407C173.912 217.377 173.871 217.332 173.845 217.278C173.208 216.254 172.196 215.519 171.025 215.232C170.94 215.214 170.866 215.162 170.818 215.089C170.771 215.016 170.755 214.927 170.773 214.842C170.781 214.8 170.798 214.759 170.822 214.724C170.847 214.688 170.878 214.657 170.914 214.634C170.951 214.61 170.992 214.594 171.034 214.587C171.077 214.579 171.12 214.581 171.163 214.59C171.838 214.752 172.475 215.048 173.035 215.46C173.594 215.873 174.065 216.393 174.421 216.99C174.461 217.067 174.47 217.156 174.446 217.239C174.421 217.322 174.365 217.392 174.289 217.434C174.239 217.451 174.185 217.457 174.133 217.452Z" fill="#FAFAFA"/>
<path d="M175.65 215.833C175.591 215.833 175.533 215.817 175.482 215.786C175.431 215.756 175.39 215.712 175.362 215.659C174.723 214.638 173.712 213.904 172.542 213.613C172.459 213.593 172.386 213.541 172.34 213.468C172.294 213.395 172.278 213.307 172.296 213.223C172.304 213.181 172.32 213.141 172.344 213.105C172.368 213.069 172.399 213.039 172.435 213.015C172.47 212.991 172.511 212.975 172.553 212.968C172.595 212.96 172.639 212.961 172.68 212.971C173.357 213.134 173.994 213.43 174.554 213.842C175.115 214.254 175.587 214.774 175.944 215.371C175.985 215.448 175.993 215.538 175.967 215.621C175.941 215.705 175.883 215.774 175.806 215.815C175.756 215.833 175.703 215.839 175.65 215.833Z" fill="#FAFAFA"/>
<path d="M194.557 216.402C194.508 216.146 194.519 215.882 194.589 215.631C194.659 215.38 194.786 215.148 194.96 214.954C195.134 214.76 195.351 214.609 195.593 214.512C195.836 214.416 196.097 214.377 196.357 214.398C198.457 214.398 199.957 214.458 199.771 216.018V217.134C199.771 217.134 199.771 222.696 200.191 224.496C200.611 226.296 201.643 231.996 197.359 232.83C193.075 233.664 191.515 230.01 192.295 226.548C192.778 224.597 193.072 222.604 193.171 220.596C193.267 219.33 192.781 214.698 194.173 214.398L194.557 216.402Z" fill="#DFDFDB"/>
<path d="M198.484 223.29C198.428 223.289 198.374 223.272 198.328 223.242C197.24 222.72 195.991 222.645 194.848 223.032C194.808 223.047 194.765 223.055 194.722 223.053C194.679 223.052 194.637 223.042 194.598 223.024C194.558 223.006 194.523 222.981 194.494 222.949C194.465 222.917 194.442 222.88 194.428 222.84C194.412 222.799 194.405 222.756 194.406 222.713C194.408 222.669 194.418 222.627 194.435 222.587C194.453 222.548 194.479 222.512 194.51 222.482C194.542 222.453 194.579 222.429 194.62 222.414C195.276 222.189 195.97 222.095 196.662 222.14C197.354 222.184 198.03 222.365 198.652 222.672C198.727 222.716 198.782 222.788 198.805 222.872C198.827 222.957 198.815 223.046 198.772 223.122C198.744 223.173 198.702 223.216 198.651 223.246C198.6 223.275 198.542 223.291 198.484 223.29Z" fill="#FAFAFA"/>
<path d="M198.709 220.8C198.653 220.798 198.598 220.783 198.547 220.758C197.463 220.233 196.215 220.155 195.073 220.542C195.033 220.564 194.988 220.578 194.942 220.581C194.895 220.585 194.849 220.578 194.806 220.562C194.762 220.546 194.723 220.521 194.69 220.488C194.657 220.456 194.631 220.416 194.615 220.373C194.598 220.33 194.591 220.283 194.594 220.237C194.597 220.191 194.61 220.146 194.632 220.105C194.654 220.064 194.684 220.029 194.721 220.001C194.758 219.972 194.8 219.953 194.845 219.942C195.5 219.714 196.193 219.619 196.885 219.663C197.576 219.707 198.252 219.89 198.871 220.2C198.909 220.221 198.942 220.249 198.969 220.282C198.996 220.316 199.016 220.354 199.027 220.396C199.039 220.437 199.042 220.48 199.037 220.523C199.032 220.566 199.019 220.607 198.997 220.644C198.967 220.693 198.925 220.733 198.874 220.76C198.824 220.788 198.767 220.801 198.709 220.8Z" fill="#FAFAFA"/>
<path d="M198.938 218.346C198.882 218.343 198.826 218.329 198.776 218.304C197.688 217.782 196.44 217.705 195.296 218.088C195.255 218.111 195.21 218.125 195.163 218.128C195.116 218.132 195.069 218.126 195.025 218.11C194.981 218.094 194.941 218.068 194.908 218.035C194.875 218.002 194.849 217.962 194.833 217.918C194.816 217.874 194.81 217.827 194.813 217.78C194.817 217.733 194.831 217.688 194.854 217.647C194.877 217.606 194.908 217.571 194.946 217.543C194.984 217.516 195.028 217.497 195.074 217.488C195.728 217.259 196.421 217.164 197.113 217.208C197.805 217.252 198.48 217.435 199.1 217.746C199.137 217.766 199.171 217.794 199.197 217.828C199.224 217.861 199.244 217.9 199.256 217.941C199.267 217.983 199.271 218.026 199.266 218.068C199.261 218.111 199.247 218.152 199.226 218.19C199.196 218.238 199.153 218.278 199.103 218.306C199.052 218.333 198.995 218.347 198.938 218.346Z" fill="#FAFAFA"/>
<path d="M168.072 217.297C167.099 217.828 166.167 218.43 165.282 219.097C163.884 220.171 163.656 223.519 167.622 224.071C169.292 224.346 171.006 224.092 172.524 223.345C172.338 222.048 171.834 220.817 171.057 219.762C170.28 218.707 169.255 217.86 168.072 217.297Z" fill="white"/>
<path d="M179.617 218.25C177.739 218.722 176.044 219.741 174.745 221.178C173.845 222.129 172.724 222.842 171.482 223.256C170.239 223.669 168.914 223.77 167.623 223.548C165.403 223.242 164.497 222.054 164.377 220.878C164.263 222.198 165.079 223.704 167.623 224.058C168.914 224.28 170.239 224.179 171.482 223.766C172.724 223.352 173.845 222.639 174.745 221.688C176.044 220.251 177.739 219.232 179.617 218.76C181.693 218.226 181.922 217.146 181.886 215.58C181.844 216.87 181.459 217.8 179.617 218.25Z" fill="#37474F"/>
<path d="M200.58 226.685C199.497 225.582 198.024 224.949 196.478 224.923C194.932 224.897 193.437 225.48 192.318 226.547C191.538 230.009 193.098 233.663 197.382 232.829C200.49 232.199 200.808 229.067 200.58 226.685Z" fill="#F5F5F5"/>
<path d="M197.407 232.152C193.963 232.824 192.283 230.592 192.157 227.892C192.013 230.892 193.675 233.556 197.407 232.83C200.173 232.29 200.725 229.734 200.659 227.502C200.569 229.548 199.867 231.666 197.407 232.152Z" fill="#455A64"/>
</svg>
