<svg width="240" height="240" viewBox="0 0 240 240" fill="none" xmlns="http://www.w3.org/2000/svg">
<path d="M240 183.553H0V183.673H240V183.553Z" fill="#EBEBEB"/>
<path d="M215.952 191.275H200.055V191.395H215.952V191.275Z" fill="#EBEBEB"/>
<path d="M158.984 192.581H154.812V192.701H158.984V192.581Z" fill="#EBEBEB"/>
<path d="M199.571 186.821H190.359V186.941H199.571V186.821Z" fill="#EBEBEB"/>
<path d="M45.9109 187.628H25.1797V187.748H45.9109V187.628Z" fill="#EBEBEB"/>
<path d="M53.2259 187.628H50.1875V187.748H53.2259V187.628Z" fill="#EBEBEB"/>
<path d="M108.076 189.653H63.1094V189.773H108.076V189.653Z" fill="#EBEBEB"/>
<path d="M113.763 162.144H21.0798C20.3537 162.143 19.6578 161.854 19.1448 161.34C18.6319 160.826 18.3437 160.13 18.3438 159.404V29.1172C18.3501 28.3953 18.641 27.705 19.1532 27.1963C19.6655 26.6877 20.3578 26.4016 21.0798 26.4004H113.763C114.49 26.4004 115.187 26.6892 115.701 27.2032C116.215 27.7172 116.504 28.4143 116.504 29.1412V159.404C116.504 160.13 116.215 160.828 115.701 161.342C115.187 161.856 114.49 162.144 113.763 162.144ZM21.0798 26.4964C20.3855 26.4977 19.7201 26.7743 19.2297 27.2657C18.7392 27.7571 18.4637 28.4229 18.4637 29.1172V159.404C18.4637 160.098 18.7392 160.764 19.2297 161.255C19.7201 161.746 20.3855 162.023 21.0798 162.024H113.763C114.458 162.023 115.124 161.747 115.615 161.255C116.106 160.764 116.382 160.098 116.384 159.404V29.1172C116.382 28.4225 116.106 27.7566 115.615 27.2654C115.124 26.7742 114.458 26.4977 113.763 26.4964H21.0798Z" fill="#EBEBEB"/>
<path d="M217.585 162.144H124.897C124.171 162.143 123.474 161.854 122.96 161.34C122.447 160.827 122.158 160.13 122.156 159.404V29.1172C122.164 28.3948 122.456 27.7046 122.969 27.196C123.482 26.6875 124.175 26.4016 124.897 26.4004H217.585C218.306 26.4029 218.997 26.6895 219.508 27.198C220.02 27.7066 220.31 28.3961 220.316 29.1172V159.404C220.316 160.129 220.029 160.825 219.517 161.338C219.005 161.852 218.31 162.142 217.585 162.144ZM124.897 26.4964C124.202 26.4977 123.536 26.7742 123.045 27.2654C122.554 27.7566 122.278 28.4225 122.276 29.1172V159.404C122.278 160.098 122.554 160.764 123.045 161.255C123.536 161.747 124.202 162.023 124.897 162.024H217.585C218.28 162.023 218.946 161.747 219.437 161.255C219.928 160.764 220.205 160.098 220.206 159.404V29.1172C220.205 28.4225 219.928 27.7566 219.437 27.2654C218.946 26.7742 218.28 26.4977 217.585 26.4964H124.897Z" fill="#EBEBEB"/>
<path d="M78.9578 31.5605H44.7578V147.581H78.9578V31.5605Z" fill="#FAFAFA"/>
<path d="M73.8623 31.5605H71.8655L59.9375 147.581H61.9343L73.8623 31.5605Z" fill="#F5F5F5"/>
<path d="M78.3472 32.0068H44.5312V33.0292H78.3472V32.0068Z" fill="#E0E0E0"/>
<path d="M78.3472 146.563H44.5312V148.752H78.3472V146.563Z" fill="#EBEBEB"/>
<path d="M77.7895 148.656H45.8359V148.752H77.7895V148.656Z" fill="#EBEBEB"/>
<path d="M45.8371 32.0065H77.7907V148.656H79.7059V30.5713H43.9219V148.656H45.8371V32.0065Z" fill="#EBEBEB"/>
<path d="M117.013 31.5605H82.8125V147.581H117.013V31.5605Z" fill="#FAFAFA"/>
<path d="M107.524 31.5605H96.6233L84.6953 147.581H95.5961L107.524 31.5605Z" fill="#F5F5F5"/>
<path d="M117.37 32.0068H82.5938V33.0292H117.37V32.0068Z" fill="#E0E0E0"/>
<path d="M117.37 146.563H82.5938V148.752H117.37V146.563Z" fill="#EBEBEB"/>
<path d="M115.844 148.656H83.8906V148.752H115.844V148.656Z" fill="#EBEBEB"/>
<path d="M83.8918 32.0065H115.845V148.656H117.756V30.5713H81.9766V148.656H83.8918V32.0065Z" fill="#EBEBEB"/>
<path d="M154.107 31.5605H120.867V147.581H154.107V31.5605Z" fill="#FAFAFA"/>
<path d="M139.706 31.5605H137.709L125.781 147.581H127.778L139.706 31.5605Z" fill="#F5F5F5"/>
<path d="M154.472 32.0068H120.656V33.0292H154.472V32.0068Z" fill="#E0E0E0"/>
<path d="M154.472 146.563H120.656V148.752H154.472V146.563Z" fill="#EBEBEB"/>
<path d="M153.907 148.656H121.953V148.752H153.907V148.656Z" fill="#EBEBEB"/>
<path d="M121.954 32.0065H153.903V148.656H155.818V30.5713H120.039V148.656H121.954V32.0065Z" fill="#EBEBEB"/>
<path d="M193.13 31.5605H158.93V147.581H193.13V31.5605Z" fill="#FAFAFA"/>
<path d="M189.779 31.5605H178.878L166.945 147.581H177.851L189.779 31.5605Z" fill="#F5F5F5"/>
<path d="M192.527 32.0068H158.711V33.0292H192.527V32.0068Z" fill="#E0E0E0"/>
<path d="M192.527 146.563H158.711V148.752H192.527V146.563Z" fill="#EBEBEB"/>
<path d="M160.004 32.0065H191.958V148.656H193.873V30.5713H158.094V148.656H160.004V32.0065Z" fill="#EBEBEB"/>
<path d="M191.961 148.656H160.008V148.752H191.961V148.656Z" fill="#EBEBEB"/>
<path d="M70.7683 120.894H55.9219V146.569H70.7683V120.894Z" fill="#EBEBEB"/>
<path d="M67.9174 117.303V123.744H66.751H59.9446H58.7734V117.303H67.9174Z" fill="#EBEBEB"/>
<path d="M67.9195 123.744H69.8203V121.843H67.9195V123.744Z" fill="#FAFAFA"/>
<path d="M64.2398 123.744H66.1406V121.843H64.2398V123.744Z" fill="#FAFAFA"/>
<path d="M60.5601 123.744H62.4609V121.843H60.5601V123.744Z" fill="#FAFAFA"/>
<path d="M56.8805 123.744H58.7812V121.843H56.8805V123.744Z" fill="#F0F0F0"/>
<path d="M67.9195 127.195H69.8203V125.295H67.9195V127.195Z" fill="#F0F0F0"/>
<path d="M64.2398 127.195H66.1406V125.295H64.2398V127.195Z" fill="#F0F0F0"/>
<path d="M60.5601 127.195H62.4609V125.295H60.5601V127.195Z" fill="#FAFAFA"/>
<path d="M56.8805 127.195H58.7812V125.295H56.8805V127.195Z" fill="#FAFAFA"/>
<path d="M67.9195 130.651H69.8203V128.751H67.9195V130.651Z" fill="#F0F0F0"/>
<path d="M64.2398 130.651H66.1406V128.751H64.2398V130.651Z" fill="#FAFAFA"/>
<path d="M60.5601 130.651H62.4609V128.751H60.5601V130.651Z" fill="#FAFAFA"/>
<path d="M64.2398 120.759H66.1406V118.858H64.2398V120.759Z" fill="#FAFAFA"/>
<path d="M60.5601 120.759H62.4609V118.858H60.5601V120.759Z" fill="#F0F0F0"/>
<path d="M56.8805 130.651H58.7812V128.751H56.8805V130.651Z" fill="#F0F0F0"/>
<path d="M67.9195 134.107H69.8203V132.207H67.9195V134.107Z" fill="#FAFAFA"/>
<path d="M64.2398 134.107H66.1406V132.207H64.2398V134.107Z" fill="#F0F0F0"/>
<path d="M60.5601 134.107H62.4609V132.207H60.5601V134.107Z" fill="#F0F0F0"/>
<path d="M56.8805 134.107H58.7812V132.207H56.8805V134.107Z" fill="#FAFAFA"/>
<path d="M67.9195 137.563H69.8203V135.663H67.9195V137.563Z" fill="#F0F0F0"/>
<path d="M64.2398 137.563H66.1406V135.663H64.2398V137.563Z" fill="#FAFAFA"/>
<path d="M60.5601 137.563H62.4609V135.663H60.5601V137.563Z" fill="#FAFAFA"/>
<path d="M56.8805 137.563H58.7812V135.663H56.8805V137.563Z" fill="#F0F0F0"/>
<path d="M67.9195 141.015H69.8203V139.114H67.9195V141.015Z" fill="#F0F0F0"/>
<path d="M64.2398 141.015H66.1406V139.114H64.2398V141.015Z" fill="#FAFAFA"/>
<path d="M60.5601 141.015H62.4609V139.114H60.5601V141.015Z" fill="#F0F0F0"/>
<path d="M56.8805 141.015H58.7812V139.114H56.8805V141.015Z" fill="#FAFAFA"/>
<path d="M67.9195 144.471H69.8203V142.57H67.9195V144.471Z" fill="#FAFAFA"/>
<path d="M64.2398 144.471H66.1406V142.57H64.2398V144.471Z" fill="#FAFAFA"/>
<path d="M60.5601 144.471H62.4609V142.57H60.5601V144.471Z" fill="#F0F0F0"/>
<path d="M56.8805 144.471H58.7812V142.57H56.8805V144.471Z" fill="#F0F0F0"/>
<path d="M175.363 130.243H162.062V146.563H175.363V130.243Z" fill="#F0F0F0"/>
<path d="M163.219 132.058H166.31H167.164H168.014V133.757H167.164H166.31H163.219V132.058Z" fill="#E6E6E6"/>
<path d="M163.219 135.355H166.31H167.164H168.014V137.059H167.164H166.31H163.219V135.355Z" fill="#FAFAFA"/>
<path d="M163.219 138.653H166.31H167.164H168.014V140.357H167.164H166.31H163.219V138.653Z" fill="#E6E6E6"/>
<path d="M163.219 141.951H166.31H167.625H168.014V143.655H167.625H166.31H163.219V141.951Z" fill="#FAFAFA"/>
<path d="M169.406 132.058H172.502H173.352H174.201V133.757H173.352H172.502H169.406V132.058Z" fill="#FAFAFA"/>
<path d="M169.406 135.355H172.502H173.702H174.201V137.059H173.702H172.502H169.406V135.355Z" fill="#FAFAFA"/>
<path d="M169.406 138.653H172.502H173.352H174.201V140.357H173.352H172.502H169.406V138.653Z" fill="#E6E6E6"/>
<path d="M169.406 141.951H172.502H173.352H174.201V143.655H173.352H172.502H169.406V141.951Z" fill="#FAFAFA"/>
<path d="M111.266 136.426H99.1797V146.568H111.266V136.426Z" fill="#F0F0F0"/>
<path d="M108.947 139.239H110.492V137.694H108.947V139.239Z" fill="#FAFAFA"/>
<path d="M105.954 139.239H107.5V137.694H105.954V139.239Z" fill="#FAFAFA"/>
<path d="M102.954 139.239H104.5V137.694H102.954V139.239Z" fill="#FAFAFA"/>
<path d="M99.9622 139.239H101.508V137.694H99.9622V139.239Z" fill="#FAFAFA"/>
<path d="M108.947 142.047H110.492V140.501H108.947V142.047Z" fill="#FAFAFA"/>
<path d="M105.954 142.047H107.5V140.501H105.954V142.047Z" fill="#FAFAFA"/>
<path d="M102.954 142.047H104.5V140.501H102.954V142.047Z" fill="#FAFAFA"/>
<path d="M99.9622 142.047H101.508V140.501H99.9622V142.047Z" fill="#E6E6E6"/>
<path d="M108.947 144.859H110.492V143.314H108.947V144.859Z" fill="#E6E6E6"/>
<path d="M105.954 144.859H107.5V143.314H105.954V144.859Z" fill="#E6E6E6"/>
<path d="M102.954 144.859H104.5V143.314H102.954V144.859Z" fill="#FAFAFA"/>
<path d="M99.9622 144.859H101.508V143.314H99.9622V144.859Z" fill="#E6E6E6"/>
<path d="M97.5473 128.929H85.4609V146.569H97.5473V128.929Z" fill="#F0F0F0"/>
<path d="M96.7722 129.701H92.2266V134.06H96.7722V129.701Z" fill="#FAFAFA"/>
<path d="M90.78 129.701H86.2344V134.06H90.78V129.701Z" fill="#FAFAFA"/>
<path d="M96.7722 135.322H92.2266V139.681H96.7722V135.322Z" fill="#FAFAFA"/>
<path d="M90.78 135.322H86.2344V139.681H90.78V135.322Z" fill="#FAFAFA"/>
<path d="M96.7722 140.942H92.2266V145.301H96.7722V140.942Z" fill="#FAFAFA"/>
<path d="M90.78 140.942H86.2344V145.301H90.78V140.942Z" fill="#FAFAFA"/>
<path d="M119.997 205.229C171.396 205.229 213.064 202.796 213.064 199.795C213.064 196.794 171.396 194.361 119.997 194.361C68.5973 194.361 26.9297 196.794 26.9297 199.795C26.9297 202.796 68.5973 205.229 119.997 205.229Z" fill="#F5F5F5"/>
<path d="M213.396 38.2129V143.928L200.676 156.648H127.039V38.2129H213.396Z" fill="#A2185A"/>
<path opacity="0.8" d="M213.396 38.2129V143.928L200.676 156.648H127.039V38.2129H213.396Z" fill="white"/>
<path opacity="0.2" d="M200.68 156.648V144.303H213.4L200.929 156.773" fill="black"/>
<path opacity="0.1" d="M159.721 48.4798H135.903C135.568 48.4798 135.247 48.3468 135.01 48.11C134.774 47.8733 134.641 47.5522 134.641 47.2174C134.64 47.0512 134.672 46.8865 134.735 46.7328C134.799 46.5791 134.891 46.4394 135.009 46.3216C135.126 46.2039 135.265 46.1105 135.419 46.0467C135.572 45.983 135.737 45.9502 135.903 45.9502H159.721C160.056 45.9515 160.377 46.0855 160.614 46.323C160.85 46.5606 160.983 46.8821 160.983 47.2174C160.983 47.5522 160.85 47.8733 160.613 48.11C160.377 48.3468 160.055 48.4798 159.721 48.4798Z" fill="black"/>
<path opacity="0.1" d="M202.914 58.723H145.497C145.331 58.723 145.166 58.6901 145.013 58.6264C144.859 58.5627 144.72 58.4693 144.602 58.3515C144.485 58.2338 144.392 58.094 144.329 57.9403C144.266 57.7866 144.234 57.6219 144.234 57.4558C144.234 57.1209 144.367 56.7999 144.604 56.5631C144.841 56.3264 145.162 56.1934 145.497 56.1934H202.914C203.249 56.1934 203.57 56.3264 203.807 56.5631C204.044 56.7999 204.177 57.1209 204.177 57.4558C204.177 57.791 204.044 58.1126 203.807 58.3501C203.571 58.5876 203.25 58.7217 202.914 58.723Z" fill="black"/>
<path opacity="0.1" d="M202.921 63.7005H135.903C135.568 63.7005 135.247 63.5675 135.01 63.3308C134.774 63.094 134.641 62.7729 134.641 62.4381C134.64 62.2719 134.672 62.1072 134.735 61.9535C134.799 61.7998 134.891 61.6601 135.009 61.5423C135.126 61.4246 135.265 61.3312 135.419 61.2674C135.572 61.2037 135.737 61.1709 135.903 61.1709H202.921C203.256 61.1722 203.577 61.3062 203.814 61.5437C204.05 61.7813 204.183 62.1028 204.183 62.4381C204.183 62.7729 204.05 63.094 203.813 63.3308C203.577 63.5675 203.255 63.7005 202.921 63.7005Z" fill="black"/>
<path opacity="0.1" d="M202.921 69.3265H135.903C135.737 69.3265 135.572 69.2937 135.419 69.2299C135.265 69.1662 135.126 69.0728 135.009 68.955C134.891 68.8373 134.799 68.6976 134.735 68.5438C134.672 68.3901 134.64 68.2255 134.641 68.0593C134.641 67.7245 134.774 67.4034 135.01 67.1666C135.247 66.9299 135.568 66.7969 135.903 66.7969H202.921C203.255 66.7969 203.577 66.9299 203.813 67.1666C204.05 67.4034 204.183 67.7245 204.183 68.0593C204.183 68.3945 204.05 68.7161 203.814 68.9536C203.577 69.1911 203.256 69.3252 202.921 69.3265Z" fill="black"/>
<path opacity="0.1" d="M202.921 74.9476H135.903C135.568 74.9476 135.247 74.8146 135.01 74.5779C134.774 74.3412 134.641 74.0201 134.641 73.6852C134.641 73.3504 134.774 73.0293 135.01 72.7926C135.247 72.5559 135.568 72.4229 135.903 72.4229H202.921C203.255 72.4229 203.577 72.5559 203.813 72.7926C204.05 73.0293 204.183 73.3504 204.183 73.6852C204.183 74.0201 204.05 74.3412 203.813 74.5779C203.577 74.8146 203.255 74.9476 202.921 74.9476Z" fill="black"/>
<path opacity="0.1" d="M202.921 80.5727H135.903C135.568 80.5727 135.247 80.4397 135.01 80.2029C134.774 79.9662 134.641 79.6451 134.641 79.3103C134.64 79.1443 134.672 78.9799 134.735 78.8264C134.799 78.673 134.892 78.5335 135.009 78.4162C135.126 78.2988 135.266 78.2059 135.419 78.1427C135.573 78.0794 135.737 78.0472 135.903 78.0479H202.921C203.255 78.0479 203.577 78.1809 203.813 78.4176C204.05 78.6544 204.183 78.9754 204.183 79.3103C204.183 79.6451 204.05 79.9662 203.813 80.2029C203.577 80.4397 203.255 80.5727 202.921 80.5727Z" fill="black"/>
<path opacity="0.1" d="M202.921 86.1985H135.903C135.568 86.1985 135.247 86.0655 135.01 85.8288C134.774 85.5921 134.641 85.271 134.641 84.9361C134.64 84.77 134.672 84.6053 134.735 84.4516C134.799 84.2979 134.891 84.1581 135.009 84.0404C135.126 83.9227 135.265 83.8292 135.419 83.7655C135.572 83.7018 135.737 83.6689 135.903 83.6689H202.921C203.256 83.6702 203.577 83.8043 203.814 84.0418C204.05 84.2793 204.183 84.6009 204.183 84.9361C204.183 85.271 204.05 85.5921 203.813 85.8288C203.577 86.0655 203.255 86.1985 202.921 86.1985Z" fill="black"/>
<path opacity="0.1" d="M202.925 89.2949H135.903C135.206 89.2949 134.641 89.8601 134.641 90.5573V90.5621C134.641 91.2593 135.206 91.8245 135.903 91.8245H202.925C203.623 91.8245 204.188 91.2593 204.188 90.5621V90.5573C204.188 89.8601 203.623 89.2949 202.925 89.2949Z" fill="black"/>
<path opacity="0.1" d="M202.921 97.4398H135.903C135.568 97.4398 135.247 97.3068 135.01 97.0701C134.774 96.8333 134.641 96.5122 134.641 96.1774C134.641 95.8426 134.774 95.5215 135.01 95.2848C135.247 95.048 135.568 94.915 135.903 94.915H202.921C203.255 94.915 203.577 95.048 203.813 95.2848C204.05 95.5215 204.183 95.8426 204.183 96.1774C204.183 96.5122 204.05 96.8333 203.813 97.0701C203.577 97.3068 203.255 97.4398 202.921 97.4398Z" fill="black"/>
<path opacity="0.1" d="M202.921 103.071H135.903C135.568 103.071 135.247 102.938 135.01 102.701C134.774 102.464 134.641 102.143 134.641 101.808C134.64 101.642 134.672 101.478 134.735 101.324C134.799 101.171 134.892 101.032 135.009 100.914C135.126 100.797 135.266 100.704 135.419 100.641C135.573 100.577 135.737 100.545 135.903 100.546H202.921C203.255 100.546 203.577 100.679 203.813 100.916C204.05 101.152 204.183 101.474 204.183 101.808C204.183 102.143 204.05 102.464 203.813 102.701C203.577 102.938 203.255 103.071 202.921 103.071Z" fill="black"/>
<path opacity="0.1" d="M202.921 108.696H135.903C135.568 108.696 135.247 108.563 135.01 108.326C134.774 108.089 134.641 107.768 134.641 107.433C134.64 107.267 134.672 107.102 134.735 106.949C134.799 106.795 134.891 106.655 135.009 106.537C135.126 106.42 135.265 106.326 135.419 106.263C135.572 106.199 135.737 106.166 135.903 106.166H202.921C203.256 106.167 203.577 106.301 203.814 106.539C204.05 106.776 204.183 107.098 204.183 107.433C204.183 107.768 204.05 108.089 203.813 108.326C203.577 108.563 203.255 108.696 202.921 108.696Z" fill="black"/>
<path opacity="0.1" d="M202.921 114.322H135.903C135.737 114.322 135.572 114.289 135.419 114.225C135.265 114.161 135.126 114.068 135.009 113.95C134.891 113.832 134.799 113.693 134.735 113.539C134.672 113.385 134.64 113.221 134.641 113.054C134.641 112.72 134.774 112.398 135.01 112.162C135.247 111.925 135.568 111.792 135.903 111.792H202.921C203.255 111.792 203.577 111.925 203.813 112.162C204.05 112.398 204.183 112.72 204.183 113.054C204.183 113.39 204.05 113.711 203.814 113.949C203.577 114.186 203.256 114.32 202.921 114.322Z" fill="black"/>
<path opacity="0.1" d="M164.521 119.943H135.903C135.568 119.943 135.247 119.81 135.01 119.573C134.774 119.336 134.641 119.015 134.641 118.68C134.641 118.346 134.774 118.024 135.01 117.788C135.247 117.551 135.568 117.418 135.903 117.418H164.521C164.855 117.418 165.177 117.551 165.413 117.788C165.65 118.024 165.783 118.346 165.783 118.68C165.783 119.015 165.65 119.336 165.413 119.573C165.177 119.81 164.855 119.943 164.521 119.943Z" fill="black"/>
<path d="M197.761 64.1184L197.669 64.0416C197.41 63.8448 197.261 63.912 197.141 63.5328C197.055 63.2592 197.141 62.952 197.041 62.6688C196.812 62.1813 196.551 61.7099 196.258 61.2576L195.077 59.1312C194.814 58.6604 194.374 58.3132 193.855 58.1656C193.336 58.0181 192.78 58.0822 192.308 58.344L181.436 64.4016C181.393 64.7664 181.09 65.016 181.028 65.3616C181.006 65.4637 181.012 65.5697 181.044 65.669C181.076 65.7684 181.133 65.8576 181.21 65.928C181.088 65.9256 180.97 65.8835 180.874 65.808C180.226 65.448 180.053 65.16 179.386 65.5248C179.098 65.6784 178.815 65.8416 178.532 66.0048L175.652 67.6128L166.628 72.6384L156.068 78.5328L147.269 83.4336C146.069 84.1008 144.615 84.6864 143.545 85.536C143.842 85.6896 143.895 85.9248 143.631 86.1552L143.151 86.592C143.151 86.712 143.324 86.712 143.434 86.664L144.029 86.4096C143.616 86.9347 143.118 87.3873 142.556 87.7488C141.612 88.2968 140.598 88.7134 139.541 88.9872L140.05 88.3488C140.089 88.296 140.137 88.2288 140.103 88.1664C140.069 88.104 140.007 88.0992 139.949 88.0944C139.695 88.0656 139.441 88.0944 139.253 87.9072C137.612 88.8672 135.893 89.7792 134.223 90.7104C133.752 90.9741 133.405 91.4136 133.257 91.9326C133.11 92.4517 133.174 93.0081 133.436 93.48L144.399 113.16C144.529 113.393 144.703 113.599 144.912 113.765C145.121 113.931 145.361 114.054 145.618 114.127C145.875 114.2 146.144 114.222 146.409 114.191C146.674 114.16 146.931 114.077 147.164 113.947L150.049 112.32C150.049 111.979 150.317 111.6 150.116 111.288C150.087 111.25 150.069 111.205 150.063 111.158C150.063 111.096 150.121 111.048 150.173 111.014C150.469 110.827 150.808 110.718 151.157 110.698C151.277 110.698 151.436 110.75 151.417 110.866C151.417 110.76 152.036 110.539 152.137 110.506C152.185 110.765 152.007 111.043 152.309 111.096C152.612 111.149 153.073 110.616 153.269 110.52L156.149 108.912L165.269 103.838L175.273 98.2656L181.921 94.56C182.161 94.4208 182.444 94.2576 182.674 94.1424C182.758 93.7022 182.972 93.2974 183.289 92.9808C183.769 92.6496 184.527 93.0144 184.925 92.544C185.002 92.4528 185.05 92.3424 185.117 92.2464C185.252 92.0903 185.415 91.9615 185.597 91.8672C185.713 91.7761 185.854 91.721 186.001 91.7088C186.145 91.7088 186.298 91.8288 186.279 91.9728C187.268 91.7424 188.161 91.0752 189.034 90.5808C189.351 90.4032 192.13 89.0976 192.121 88.8912C192.082 88.2528 192.471 87.7056 192.452 87.048C192.452 86.9232 192.207 86.088 192.317 86.0256C189.821 87.5136 187.229 88.8672 184.685 90.2784C184.599 90.3312 184.273 90.4416 184.205 90.5376C184.205 90.5376 184.181 90.5808 184.172 90.6048L184.1 90.7632V90.8016C183.997 91.1283 183.875 91.4488 183.735 91.7616C183.735 91.8048 183.193 92.4768 183.149 92.3184C182.938 91.5456 182.669 91.4256 182.079 91.7424L181.234 92.2224L178.551 93.7152L169.513 98.7552L158.861 104.688L149.986 109.632L146.266 111.701C145.524 110.357 144.777 109.014 144.025 107.674L142.585 105.086C142.439 104.728 142.224 104.401 141.951 104.126C141.745 103.973 141.394 104.011 141.212 103.872C140.765 103.531 140.444 102.912 140.021 102.514C139.733 102.245 139.297 101.438 139.417 100.992C139.561 101.05 139.705 101.112 139.849 101.155C139.773 100.86 139.79 100.548 139.897 100.262C138.457 97.8384 137.132 95.304 135.754 92.8272L135.663 92.6688L139.023 90.7968L141.476 89.4288C141.98 89.212 142.463 88.9467 142.916 88.6368C143.228 88.368 143.545 88.032 143.876 87.744C144.098 87.575 144.34 87.4331 144.596 87.3216L145.503 86.88C145.55 86.852 145.602 86.8355 145.657 86.832C145.711 86.8379 145.764 86.8509 145.815 86.8704C146.295 86.9712 147.485 86.0832 147.917 85.8432L150.711 84.288L159.14 79.5888L169.642 73.7424L180.154 67.8816L188.612 63.1728L192.932 60.7728L193.133 60.6624L197.804 69.048C198.093 69.6133 198.555 70.0709 199.124 70.3536C199.316 70.416 199.532 70.5504 199.508 70.7472C199.484 70.944 199.196 71.1072 199.263 71.3088C199.33 71.5104 199.7 71.4336 199.786 71.616C199.873 71.7984 199.637 72.096 199.666 72.3456C199.765 72.6444 199.913 72.925 200.103 73.176L201.461 75.6192C202.22 76.9728 202.973 78.3312 203.737 79.6992L195.433 84.3264C195.474 84.3595 195.508 84.4003 195.533 84.4464L195.577 84.5568C195.742 84.6152 195.902 84.6858 196.057 84.768C196.123 84.805 196.178 84.8595 196.215 84.9256C196.252 84.9916 196.27 85.0666 196.268 85.1424C196.267 85.2173 196.246 85.2906 196.207 85.3547C196.168 85.4188 196.113 85.4715 196.047 85.5072L195.538 85.7952C195.52 85.9065 195.469 86.0097 195.391 86.0911C195.313 86.1726 195.212 86.2284 195.101 86.2512C195.042 86.2562 194.983 86.2562 194.924 86.2512C194.873 86.2882 194.815 86.3138 194.754 86.3263C194.693 86.3387 194.63 86.3377 194.569 86.3232C194.46 86.2898 194.368 86.2157 194.313 86.1165C194.258 86.0173 194.243 85.9005 194.271 85.7904C194.291 85.741 194.317 85.6943 194.348 85.6512C194.311 85.5813 194.295 85.5027 194.3 85.424C194.305 85.3453 194.332 85.2695 194.377 85.2048H194.223C194.137 85.2048 194.06 85.1568 193.978 85.1328C193.547 85.3994 193.21 85.796 193.018 86.2656C192.997 86.2912 192.987 86.3239 192.989 86.3568C192.989 86.424 193.095 86.4288 193.157 86.4576C193.301 86.5248 193.268 86.736 193.196 86.8752C193.124 87.0144 193.037 87.192 193.133 87.3168C193.17 87.3588 193.21 87.3974 193.253 87.432C193.46 87.6672 193.143 88.3488 193.647 88.0704C193.612 87.9222 193.634 87.766 193.709 87.6336C193.795 87.5 193.926 87.4026 194.079 87.36C194.452 87.2695 194.833 87.2148 195.217 87.1968L205.225 81.6C205.695 81.3364 206.043 80.8969 206.19 80.3778C206.338 79.8587 206.274 79.3023 206.012 78.8304L205.954 78.7296L201.433 70.6128L198.821 65.9184C198.567 65.472 198.341 65.0064 198.063 64.5648C197.986 64.401 197.884 64.2503 197.761 64.1184Z" fill="#A2185A"/>
<path d="M151.518 90.6384C151.186 90.2352 151.287 90.2256 151.225 89.7936C151.225 89.7936 151.225 89.7936 151.225 89.7648L151.186 89.7216L151.129 89.6544C150.903 89.7552 150.678 89.8656 150.452 89.9904L146.031 92.4528L147.812 95.6448C147.562 95.2032 148.446 95.3328 148.479 95.328C148.573 95.3003 148.67 95.2842 148.767 95.28C148.863 95.3004 148.947 95.3571 149.002 95.4384C149.187 95.7612 149.242 96.1421 149.156 96.504C149.103 96.984 149.358 97.464 149.084 97.944C149.319 98.328 151.446 102.197 151.455 102.192L155.876 99.7296C156.13 99.5856 156.735 99.3312 156.884 99.0768C157.033 98.8224 156.798 98.424 157.062 98.304C157.161 98.2675 157.267 98.2537 157.373 98.2637C157.478 98.2737 157.58 98.3071 157.671 98.3616C158.513 97.5279 159.054 96.4382 159.21 95.2636C159.365 94.089 159.126 92.896 158.53 91.872C157.287 89.64 154.465 88.3104 151.993 89.3472C151.82 89.4192 152.05 90.192 151.638 90.2784C151.717 90.1236 151.83 89.9889 151.969 89.8848M154.724 97.92L152.665 99.0672C152.497 98.7648 152.334 98.4624 152.161 98.1696C152.377 98.5344 151.782 98.4192 151.657 98.3376C151.354 98.136 151.273 97.5552 151.263 97.2288C151.256 96.669 151.09 96.1229 150.783 95.6544C150.3 94.7808 149.82 93.9072 149.343 93.0336L151.402 91.8864C153.322 90.8112 155.242 91.2576 156.279 93.12C157.316 94.9824 156.658 96.8592 154.724 97.92Z" fill="#A2185A"/>
<path d="M166.138 82.4639C166.243 82.6919 166.273 82.9473 166.224 83.1935C166.2 83.3279 165.984 83.6735 166.013 83.7599C166.09 83.9519 166.166 84.1439 166.238 84.3359C166.251 84.3673 166.269 84.3965 166.291 84.4223C166.328 84.4472 166.371 84.4605 166.416 84.4607C167.179 84.5279 167.146 84.6047 167.194 85.2479C167.237 85.7999 167.712 86.1167 167.981 86.5967C168.342 87.2274 168.499 87.9544 168.43 88.6778C168.361 89.4012 168.07 90.0855 167.596 90.6368C167.123 91.1881 166.49 91.5793 165.786 91.7566C165.081 91.9339 164.339 91.8887 163.661 91.6271C163.643 91.6445 163.623 91.6606 163.603 91.6751C163.502 91.7259 163.387 91.7395 163.277 91.7135C163.027 91.6429 162.801 91.5061 162.623 91.3177C162.445 91.1293 162.321 90.8962 162.264 90.6431C162.257 90.6051 162.257 90.566 162.264 90.5279C162.128 90.3598 162.008 90.1799 161.904 89.9903C161.657 89.5937 161.495 89.1505 161.428 88.6883C161.36 88.2261 161.389 87.755 161.512 87.3044C161.635 86.8539 161.85 86.4335 162.143 86.0698C162.436 85.706 162.8 85.4066 163.214 85.1903C163.815 84.848 164.503 84.691 165.192 84.7391L165.154 84.6815C164.741 84.1343 166.229 83.9135 165.557 83.5439C165.274 83.3903 165.322 82.6943 165.25 82.4111C164.159 82.4358 163.092 82.731 162.144 83.2703C159.072 84.9839 158.011 88.3775 159.624 91.2719C160.303 92.5172 161.425 93.4614 162.768 93.9167C163.084 94.0542 163.422 94.1323 163.766 94.1471C164.16 94.1135 163.968 94.1471 164.136 93.9119C164.304 93.6767 164.203 93.5759 164.458 93.3263C164.712 93.0767 165.01 92.9279 165.062 92.5439C165.062 92.7167 165.254 92.8415 165.254 93.0239C165.254 93.0767 165.254 93.1295 165.254 93.1775C165.265 93.2403 165.293 93.2987 165.336 93.3455C165.499 93.5663 165.773 93.8255 165.778 94.0799C166.48 93.9634 167.154 93.7159 167.765 93.3503C170.822 91.6463 171.907 88.2575 170.285 85.3535C169.445 83.8703 167.866 82.5599 166.138 82.4639Z" fill="#A2185A"/>
<path d="M175.951 75.782L179.244 81.6908L171.112 78.4748L169.25 79.5164C170.508 81.7724 171.842 84.0044 173.023 86.3036C173.104 86.054 173.296 86.006 173.527 85.9724C173.959 85.9148 173.944 86.1308 174.18 86.558C174.208 86.6108 174.242 86.6636 174.295 86.6732C174.348 86.6828 174.453 86.5964 174.54 86.606C174.626 86.6156 174.66 86.7212 174.636 86.8028C174.605 86.8828 174.565 86.9586 174.516 87.0284C174.376 87.2924 174.607 87.4604 174.578 87.7004C174.578 87.8252 174.16 88.334 174.208 88.4204L174.688 89.246L176.916 88.0076L176.32 86.942H176.21C175.562 87.0284 175.85 86.1788 175.706 85.8284C175.473 85.332 175.208 84.8511 174.914 84.3884L173.604 82.0796L180.213 84.6812C180.196 84.4914 180.219 84.3001 180.28 84.1196C180.333 84.0188 180.76 83.8316 180.76 83.7356C180.785 84.0452 180.93 84.3328 181.164 84.5372C181.418 84.7628 181.418 84.7292 181.37 85.1276L181.764 85.286L183.616 84.254L178.192 74.5244L175.951 75.782Z" fill="#A2185A"/>
<path d="M187.136 79.9342L185.878 77.683L190.4 75.163L189.44 73.411L184.923 75.931L183.747 73.8142L186.8 72.115C186.929 71.9487 187.093 71.8127 187.28 71.7166C187.375 71.6679 187.484 71.6559 187.587 71.683L188.878 70.9678C188.878 70.9678 187.962 69.331 187.875 69.1582C187.434 69.3598 187.875 69.9166 187.429 70.1854C187.52 70.2814 187.654 70.6222 187.429 70.6654C187.299 70.6654 187.203 70.5022 187.074 70.5166C186.944 70.531 186.939 70.5934 186.872 70.5742C186.852 70.5684 186.833 70.5581 186.817 70.544C186.801 70.5298 186.789 70.5123 186.781 70.4926C186.719 70.3478 186.64 70.2109 186.546 70.0846C186.243 69.7918 183.483 71.6302 183.099 71.8462L180.531 73.2862L185.95 83.0158L188.115 81.811L188.158 81.7534C188.317 81.5518 188.47 81.3454 188.638 81.1582C188.707 81.0934 188.794 81.0523 188.887 81.041C188.981 81.0298 189.075 81.049 189.157 81.0958C189.196 81.116 189.23 81.1437 189.258 81.1774L193.486 78.8206L192.478 77.011L187.136 79.9342Z" fill="#A2185A"/>
<path d="M192.914 183.461C192.914 183.461 189.756 176.577 193.361 169.785C196.966 162.993 198.017 161.395 195.718 160.008C193.418 158.621 192.358 165.437 192.358 165.437C192.358 165.437 190.438 160.742 192.017 155.837C193.596 150.931 194.623 142.925 192.439 142.065C190.255 141.206 192.022 152.045 190.126 155.741C189.159 153.146 188.534 150.437 188.268 147.681C188.009 143.736 188.417 137.438 186.689 135.821C184.961 134.203 183.862 135.341 185.556 144.029C186.574 149.232 187.138 154.514 187.241 159.816C187.241 159.816 183.492 148.392 181.001 148.061C178.51 147.729 178.49 151.421 180.646 154.632C182.801 157.843 186.929 163.584 187.606 166.56C187.606 166.56 183.497 157.968 179.796 160.598C176.095 163.229 183.017 168.427 186.098 170.304C189.18 172.181 191.326 183.936 191.326 183.936L192.914 183.461Z" fill="#FFC94F"/>
<path opacity="0.2" d="M192.914 183.461C192.914 183.461 189.756 176.577 193.361 169.785C196.966 162.993 198.017 161.395 195.718 160.008C193.418 158.621 192.358 165.437 192.358 165.437C192.358 165.437 190.438 160.742 192.017 155.837C193.596 150.931 194.623 142.925 192.439 142.065C190.255 141.206 192.022 152.045 190.126 155.741C189.159 153.146 188.534 150.437 188.268 147.681C188.009 143.736 188.417 137.438 186.689 135.821C184.961 134.203 183.862 135.341 185.556 144.029C186.574 149.232 187.138 154.514 187.241 159.816C187.241 159.816 183.492 148.392 181.001 148.061C178.51 147.729 178.49 151.421 180.646 154.632C182.801 157.843 186.929 163.584 187.606 166.56C187.606 166.56 183.497 157.968 179.796 160.598C176.095 163.229 183.017 168.427 186.098 170.304C189.18 172.181 191.326 183.936 191.326 183.936L192.914 183.461Z" fill="black"/>
<path d="M190.42 186.288C190.42 186.288 193.497 179.352 189.81 172.617C186.124 165.883 185.054 164.299 187.338 162.873C189.623 161.448 190.756 168.254 190.756 168.254C190.756 168.254 192.638 163.536 190.982 158.654C189.326 153.772 188.222 145.78 190.396 144.892C192.57 144.004 190.934 154.867 192.873 158.529C193.809 155.923 194.4 153.206 194.63 150.446C194.846 146.496 194.361 140.203 196.07 138.561C197.778 136.92 198.897 138.024 197.303 146.755C196.348 151.97 195.849 157.259 195.81 162.561C195.81 162.561 199.42 151.084 201.93 150.715C204.441 150.345 204.479 154.041 202.367 157.281C200.255 160.521 196.175 166.329 195.527 169.281C195.527 169.281 199.535 160.641 203.265 163.209C206.994 165.777 200.14 171.081 197.082 173.001C194.025 174.921 192.004 186.72 192.004 186.72L190.42 186.288Z" fill="#FFC94F"/>
<path d="M204.595 181.344H179.203L181.258 199.517H202.541L204.595 181.344Z" fill="#263238"/>
<path d="M74.706 67.0801H57.9492C57.3038 67.0801 56.6848 67.3365 56.2284 67.7929C55.772 68.2493 55.5156 68.8683 55.5156 69.5137V85.8049C55.5156 86.4503 55.772 87.0693 56.2284 87.5257C56.6848 87.9821 57.3038 88.2385 57.9492 88.2385H63.3108L59.7012 93.1441L65.9412 88.2385H74.7012C75.3467 88.2385 75.9657 87.9821 76.422 87.5257C76.8784 87.0693 77.1348 86.4503 77.1348 85.8049V69.5137C77.1348 68.8691 76.8791 68.2508 76.4237 67.7946C75.9684 67.3383 75.3506 67.0813 74.706 67.0801Z" fill="#FFC94F"/>
<path opacity="0.6" d="M74.706 67.0801H57.9492C57.3038 67.0801 56.6848 67.3365 56.2284 67.7929C55.772 68.2493 55.5156 68.8683 55.5156 69.5137V85.8049C55.5156 86.4503 55.772 87.0693 56.2284 87.5257C56.6848 87.9821 57.3038 88.2385 57.9492 88.2385H63.3108L59.7012 93.1441L65.9412 88.2385H74.7012C75.3467 88.2385 75.9657 87.9821 76.422 87.5257C76.8784 87.0693 77.1348 86.4503 77.1348 85.8049V69.5137C77.1348 68.8691 76.8791 68.2508 76.4237 67.7946C75.9684 67.3383 75.3506 67.0813 74.706 67.0801Z" fill="white"/>
<path d="M66.3267 85.2678C70.5285 85.2678 73.9347 81.8615 73.9347 77.6598C73.9347 73.458 70.5285 70.0518 66.3267 70.0518C62.125 70.0518 58.7188 73.458 58.7188 77.6598C58.7188 81.8615 62.125 85.2678 66.3267 85.2678Z" fill="#FFC94F"/>
<path opacity="0.2" d="M72.6725 79.153C73.5001 75.6467 71.3285 72.1334 67.8222 71.3058C64.3159 70.4782 60.8026 72.6498 59.975 76.1561C59.1474 79.6624 61.319 83.1758 64.8253 84.0033C68.3316 84.8309 71.845 82.6593 72.6725 79.153Z" fill="black"/>
<path d="M65.5152 80.7741C65.4268 80.776 65.3389 80.7604 65.2566 80.7283C65.1742 80.6962 65.099 80.6481 65.0352 80.5869L62.2656 77.8749C62.1383 77.7514 62.0653 77.5824 62.0626 77.4051C62.0599 77.2277 62.1277 77.0566 62.2512 76.9293C62.3747 76.802 62.5437 76.7289 62.721 76.7262C62.8984 76.7235 63.0695 76.7914 63.1968 76.9149L65.4672 79.1373L69.3936 74.7549C69.514 74.6335 69.6764 74.563 69.8472 74.5579C70.0181 74.5528 70.1844 74.6134 70.3118 74.7273C70.4393 74.8412 70.5182 74.9997 70.5322 75.1701C70.5462 75.3404 70.4943 75.5097 70.3872 75.6429L65.9952 80.5437C65.9346 80.6115 65.8608 80.666 65.7782 80.704C65.6956 80.742 65.6061 80.7626 65.5152 80.7645V80.7741Z" fill="white"/>
<path d="M44.5929 188.601L58.4217 187.238V171.643H63.9033V187.233L77.7897 188.601C78.4551 188.665 79.0726 188.976 79.5217 189.471C79.9708 189.966 80.2192 190.611 80.2185 191.279V193.358H42.1641V191.279C42.1633 190.611 42.4118 189.966 42.8608 189.471C43.3099 188.976 43.9274 188.665 44.5929 188.601Z" fill="#263238"/>
<path opacity="0.1" d="M44.5929 188.601L58.4217 187.238V171.643H63.9033V187.233L77.7897 188.601C78.4551 188.665 79.0726 188.976 79.5217 189.471C79.9708 189.966 80.2192 190.611 80.2185 191.279V193.358H42.1641V191.279C42.1633 190.611 42.4118 189.966 42.8608 189.471C43.3099 188.976 43.9274 188.665 44.5929 188.601Z" fill="white"/>
<path d="M78.7497 199.517C80.7299 199.517 82.3353 197.912 82.3353 195.931C82.3353 193.951 80.7299 192.346 78.7497 192.346C76.7694 192.346 75.1641 193.951 75.1641 195.931C75.1641 197.912 76.7694 199.517 78.7497 199.517Z" fill="#263238"/>
<path d="M43.6247 199.517C45.6049 199.517 47.2103 197.912 47.2103 195.931C47.2103 193.951 45.6049 192.346 43.6247 192.346C41.6444 192.346 40.0391 193.951 40.0391 195.931C40.0391 197.912 41.6444 199.517 43.6247 199.517Z" fill="#263238"/>
<path d="M62.8614 175.819H59.4437C58.918 175.819 58.4138 175.61 58.042 175.239C57.6702 174.867 57.4613 174.363 57.4613 173.837V158.506H64.8438V173.837C64.8438 174.363 64.6349 174.867 64.2631 175.239C63.8913 175.61 63.3871 175.819 62.8614 175.819Z" fill="#263238"/>
<path opacity="0.2" d="M62.8614 175.819H59.4437C58.918 175.819 58.4138 175.61 58.042 175.239C57.6702 174.867 57.4613 174.363 57.4613 173.837V158.506H64.8438V173.837C64.8438 174.363 64.6349 174.867 64.2631 175.239C63.8913 175.61 63.3871 175.819 62.8614 175.819Z" fill="white"/>
<path d="M42.0182 128.457C42.0182 128.457 46.127 154.079 54.239 158.51H45.9926C45.9926 158.51 37.8326 149.774 35.375 128.457H42.0182Z" fill="#263238"/>
<path opacity="0.1" d="M42.0182 128.457C42.0182 128.457 46.127 154.079 54.239 158.51H45.9926C45.9926 158.51 37.8326 149.774 35.375 128.457H42.0182Z" fill="white"/>
<path d="M45.5953 154.886H77.7169C78.3534 154.886 78.9639 155.139 79.414 155.589C79.8641 156.039 80.1169 156.649 80.1169 157.286V160.497H43.1953V157.286C43.1953 156.649 43.4482 156.039 43.8983 155.589C44.3483 155.139 44.9588 154.886 45.5953 154.886Z" fill="#A2185A"/>
<path d="M80.6742 157.689H42.6054C42.0726 157.689 41.6406 158.121 41.6406 158.654V159.528C41.6406 160.061 42.0726 160.493 42.6054 160.493H80.6742C81.2071 160.493 81.639 160.061 81.639 159.528V158.654C81.639 158.121 81.2071 157.689 80.6742 157.689Z" fill="#263238"/>
<path opacity="0.6" d="M80.6742 157.689H42.6054C42.0726 157.689 41.6406 158.121 41.6406 158.654V159.528C41.6406 160.061 42.0726 160.493 42.6054 160.493H80.6742C81.2071 160.493 81.639 160.061 81.639 159.528V158.654C81.639 158.121 81.2071 157.689 80.6742 157.689Z" fill="white"/>
<path d="M34.3995 133.67H47.5947C51.4635 133.67 53.9739 130.569 53.2059 126.744L52.1787 121.636C51.4107 117.796 47.6523 114.715 43.7883 114.715H30.5931C26.7243 114.715 24.2139 117.816 24.9819 121.636L26.0091 126.744C26.7771 130.56 30.5307 133.67 34.3995 133.67Z" fill="#A2185A"/>
<path d="M104.418 176.587L101.394 177.773L99.2198 173.674L97.2422 169.944L100.593 167.938L102.618 172.512L104.418 176.587Z" fill="#E4897B"/>
<path opacity="0.2" d="M102.618 172.512L99.2198 173.674L97.2422 169.944L100.593 167.938L102.618 172.512Z" fill="black"/>
<path d="M101.99 170.275L97.8764 172.483C97.8764 172.483 82.3291 145.147 79.9387 145.377C77.5483 145.608 54.8684 160.056 47.9516 154.718C41.0348 149.381 47.7644 133.31 47.7644 133.31C47.7644 133.31 62.0731 129.221 63.6043 132.35C64.0079 133.287 64.351 134.249 64.6315 135.23C64.9339 136.214 65.1643 137.045 65.1643 137.045C65.6011 136.867 79.7323 131.073 86.0396 134.165C92.4764 137.342 101.99 170.275 101.99 170.275Z" fill="#263238"/>
<path opacity="0.3" d="M101.99 170.275L97.8764 172.483C97.8764 172.483 82.3291 145.147 79.9387 145.377C77.5483 145.608 54.8684 160.056 47.9516 154.718C41.0348 149.381 47.7644 133.31 47.7644 133.31C47.7644 133.31 62.0731 129.221 63.6043 132.35C64.0079 133.287 64.351 134.249 64.6315 135.23C64.9339 136.214 65.1643 137.045 65.1643 137.045C65.6011 136.867 79.7323 131.073 86.0396 134.165C92.4764 137.342 101.99 170.275 101.99 170.275Z" fill="white"/>
<path d="M79.6402 192.566L76.4146 192.197L76.3954 187.646L76.3906 183.47L80.293 183.288L79.9474 188.198L79.6402 192.566Z" fill="#E4897B"/>
<path opacity="0.2" d="M79.9348 188.299L76.3828 187.732V183.513L80.2852 183.307L79.9348 188.299Z" fill="black"/>
<path d="M95.8672 171.125L101.886 168.11L102.515 170.664L97.9552 173.016L95.8672 171.125Z" fill="#A2185A"/>
<path d="M58.6328 154.762C58.6328 154.762 59.6216 154.651 74.8328 151.834C74.8328 151.834 75.1784 171.283 75.8984 185.784L80.5832 185.933C80.5832 185.933 87.3032 153.773 86.5112 148.896C85.7192 144.019 79.94 143.381 79.94 143.381C79.94 143.381 69.9032 151.2 58.6328 154.762Z" fill="#263238"/>
<path opacity="0.4" d="M58.6328 154.762C58.6328 154.762 59.6216 154.651 74.8328 151.834C74.8328 151.834 75.1784 171.283 75.8984 185.784L80.5832 185.933C80.5832 185.933 87.3032 153.773 86.5112 148.896C85.7192 144.019 79.94 143.381 79.94 143.381C79.94 143.381 69.9032 151.2 58.6328 154.762Z" fill="white"/>
<path opacity="0.3" d="M58.6328 154.762C58.6328 154.762 59.6216 154.651 74.8328 151.834C74.8328 151.834 75.1784 171.283 75.8984 185.784L80.5832 185.933C80.5832 185.933 87.3032 153.773 86.5112 148.896C85.7192 144.019 79.94 143.381 79.94 143.381C79.94 143.381 69.9032 151.2 58.6328 154.762Z" fill="black"/>
<path d="M75.0391 184.488L81.4279 184.339L80.5543 186.969L75.3703 187.017L75.0391 184.488Z" fill="#A2185A"/>
<path opacity="0.3" d="M65.1802 137.055L56.8906 140.007C56.8906 140.007 61.249 136.752 64.6474 135.24C64.9498 136.224 65.1802 137.055 65.1802 137.055Z" fill="black"/>
<path d="M46.8047 132.322L47.1119 134.621L62.6495 131.323L62.2895 128.606L46.8047 132.322Z" fill="#263238"/>
<path opacity="0.2" d="M46.8047 132.322L47.1119 134.621L62.6495 131.323L62.2895 128.606L46.8047 132.322Z" fill="black"/>
<path d="M51.9537 130.651L51.1797 130.795L51.9108 134.736L52.6848 134.592L51.9537 130.651Z" fill="#263238"/>
<path d="M58.7261 129.654L55.3359 130.418L55.9153 132.989L59.3055 132.225L58.7261 129.654Z" fill="white"/>
<path d="M60.9043 128.048L60.1328 128.189L60.8543 132.117L61.6257 131.976L60.9043 128.048Z" fill="#263238"/>
<path opacity="0.3" d="M51.9537 130.651L51.1797 130.795L51.9108 134.736L52.6848 134.592L51.9537 130.651Z" fill="white"/>
<path opacity="0.3" d="M60.9043 128.048L60.1328 128.189L60.8543 132.117L61.6257 131.976L60.9043 128.048Z" fill="white"/>
<path d="M110.424 181.953C109.919 181.798 109.39 181.738 108.864 181.775C108.864 181.775 106.91 180.959 104.544 177.076L102.528 177.34C102.189 177.391 101.873 177.545 101.624 177.781C101.375 178.017 101.205 178.324 101.136 178.66C101.121 178.756 101.121 178.853 101.136 178.948C101.223 179.435 101.341 179.916 101.491 180.388C102.008 181.948 102.619 183.476 103.32 184.963L103.646 184.828L102.605 181.919C102.259 180.926 103.464 181.766 104.102 182.726C104.741 183.686 105.648 184.617 107.803 183.801C110.309 182.822 111.302 182.303 110.424 181.953Z" fill="#263238"/>
<path d="M104.041 176.045C104.041 176.045 107.276 180.96 108.865 181.776C108.865 181.776 107.084 183.216 104.708 180.903C101.641 177.931 101.127 178.949 101.127 178.949C101.1 178.367 101.127 177.783 101.209 177.207C101.454 176.079 104.041 176.045 104.041 176.045Z" fill="#E4897B"/>
<path d="M84.4752 198.288C84.0154 198.023 83.5112 197.844 82.9872 197.76C82.9872 197.76 81.2832 196.507 79.9152 192.177L77.8944 191.957C77.5515 191.924 77.207 191.999 76.9086 192.171C76.6101 192.343 76.3726 192.604 76.2288 192.917C76.1857 193.003 76.1566 193.095 76.1424 193.19C76.1088 193.681 76.1088 194.173 76.1424 194.664C76.2726 196.302 76.5034 197.931 76.8336 199.541L77.184 199.488L76.872 196.406C76.7712 195.36 77.7456 196.464 78.1392 197.549C78.5328 198.633 79.1904 199.752 81.4752 199.469C84.144 199.109 85.2288 198.84 84.4752 198.288Z" fill="#263238"/>
<path d="M79.6764 191.04C79.6764 191.04 81.654 196.584 83.0028 197.76C83.0028 197.76 80.934 198.72 79.1628 195.926C76.8828 192.312 76.1484 193.181 76.1484 193.181C76.2558 192.61 76.4165 192.051 76.6284 191.51C77.1372 190.454 79.6764 191.04 79.6764 191.04Z" fill="#E4897B"/>
<path d="M43.4181 93.1197L39.3573 93.9357C39.1986 94.0694 39.0112 94.1645 38.8097 94.2136C38.6082 94.2627 38.398 94.2646 38.1957 94.2189C36.9861 93.7389 35.2437 92.3325 35.0229 91.8189C34.6965 91.0941 35.0229 88.9677 35.8773 88.5837C36.7317 88.1997 39.6741 91.7517 39.6741 91.7517L44.0373 90.7677L43.4181 93.1197Z" fill="#E4897B"/>
<path d="M56.2233 106.618C56.2233 106.618 55.8537 93.4608 54.3321 92.8992C52.8105 92.3376 41.3721 93.9072 41.3721 93.9072L41.0938 90.9024C41.0938 90.9024 54.4041 88.8528 56.9817 90.0672C59.5593 91.2816 60.4089 110.89 59.9385 114.667L56.2233 106.618Z" fill="#A2185A"/>
<path opacity="0.6" d="M56.2233 106.618C56.2233 106.618 55.8537 93.4608 54.3321 92.8992C52.8105 92.3376 41.3721 93.9072 41.3721 93.9072L41.0938 90.9024C41.0938 90.9024 54.4041 88.8528 56.9817 90.0672C59.5593 91.2816 60.4089 110.89 59.9385 114.667L56.2233 106.618Z" fill="white"/>
<path d="M41.5702 94.1947L40.7734 90.8923L41.9158 90.4795L42.6406 94.2955L41.5702 94.1947Z" fill="#A2185A"/>
<path opacity="0.7" d="M41.5702 94.1947L40.7734 90.8923L41.9158 90.4795L42.6406 94.2955L41.5702 94.1947Z" fill="white"/>
<path d="M56.1559 104.976C56.1559 104.976 55.1335 108.979 50.2087 110.256C45.2839 111.532 39.8359 108.196 39.8359 108.196L40.9207 117.748L46.9495 132.796L62.3575 128.779C62.3575 128.779 61.4359 111.273 56.1559 104.976Z" fill="#A2185A"/>
<path opacity="0.7" d="M56.1559 104.976C56.1559 104.976 55.1335 108.979 50.2087 110.256C45.2839 111.532 39.8359 108.196 39.8359 108.196L40.9207 117.748L46.9495 132.796L62.3575 128.779C62.3575 128.779 61.4359 111.273 56.1559 104.976Z" fill="white"/>
<path opacity="0.6" d="M58.8348 120.849L60.6384 120.28C60.8381 120.217 60.9489 120.004 60.8859 119.804L59.8114 116.399C59.7484 116.199 59.5354 116.088 59.3357 116.151L57.5321 116.72C57.3324 116.783 57.2216 116.996 57.2846 117.196L58.3591 120.602C58.4221 120.801 58.6351 120.912 58.8348 120.849Z" fill="#A2185A"/>
<path opacity="0.2" d="M58.4649 119.811L60.5156 119.164L59.6303 116.358L57.5796 117.005L58.4649 119.811Z" fill="black"/>
<path d="M58.3985 115.343L57.9453 115.486L58.4667 117.139L58.9198 116.996L58.3985 115.343Z" fill="#263238"/>
<path d="M45.6874 90.0234C41.8906 90.0234 39.385 94.0458 40.273 100.425C41.161 106.804 44.7178 108.643 44.7178 108.643L44.4922 107.102C48.4408 107.998 52.5117 108.225 56.5354 107.774C56.5354 107.774 54.7018 102.571 55.297 97.257C55.297 97.257 56.5018 90.0138 45.6874 90.0234Z" fill="#263238"/>
<path opacity="0.2" d="M53.2241 108.959L54.7745 114.719L52.0481 112.641C52.0481 112.641 54.7025 118.708 55.4081 122.241C55.4081 122.241 53.1137 116.227 51.1361 112.929L49.9793 116.231L45.3281 111.494C45.3281 111.494 49.4369 108.345 53.2241 108.959Z" fill="black"/>
<path d="M50.9584 110.817L46.2256 110.961C48.3232 108.278 44.5312 103.603 44.5312 103.603L49.2064 104.615C50.32 109.243 52.2448 109.382 52.2448 109.382L50.9584 110.817Z" fill="#E4897B"/>
<path opacity="0.2" d="M50.512 107.937C48.7061 107.786 47.0265 106.95 45.8177 105.6C45.4442 104.906 45.0139 104.245 44.5312 103.622L49.2064 104.64C49.454 105.804 49.8954 106.919 50.512 107.937Z" fill="black"/>
<path d="M49.2031 91.9774C53.2783 92.3182 54.4111 94.6078 54.3583 98.8366C54.2959 104.117 52.8175 107.75 47.8159 106.205C41.0191 104.107 42.4303 91.411 49.2031 91.9774Z" fill="#E4897B"/>
<path d="M51.7391 98.3994C52.015 99.0359 52.3663 99.637 52.7855 100.19C52.6513 100.347 52.4766 100.465 52.2803 100.53C52.0839 100.595 51.8735 100.605 51.6719 100.559L51.7391 98.3994Z" fill="#DE5753"/>
<path d="M48.9844 97.7187L49.8676 97.4307C49.8676 97.4307 49.3972 98.1315 48.9844 97.7187Z" fill="#263238"/>
<path d="M49.2881 97.6173C49.1239 97.5366 48.9359 97.5184 48.7593 97.5661C48.5827 97.6138 48.4294 97.7241 48.3281 97.8765C48.4788 97.8078 48.6425 97.7722 48.8081 97.7722C48.9737 97.7722 49.1374 97.8078 49.2881 97.8765V97.6173Z" fill="#263238"/>
<path d="M47.6495 95.6736C47.6041 95.6725 47.561 95.6535 47.5295 95.6208C47.5128 95.6051 47.4995 95.5862 47.4904 95.5651C47.4813 95.5441 47.4766 95.5214 47.4766 95.4984C47.4766 95.4755 47.4813 95.4528 47.4904 95.4318C47.4995 95.4107 47.5128 95.3917 47.5295 95.376C47.7971 95.1419 48.1156 94.9732 48.4596 94.8832C48.8036 94.7933 49.1639 94.7845 49.5119 94.8576C49.5571 94.8672 49.5966 94.8943 49.6218 94.933C49.647 94.9717 49.6558 95.0188 49.6463 95.064C49.6367 95.1092 49.6096 95.1488 49.5709 95.174C49.5322 95.1992 49.4851 95.208 49.4399 95.1984C49.1495 95.1391 48.8494 95.1459 48.5619 95.2181C48.2745 95.2904 48.0069 95.4264 47.7791 95.616C47.763 95.6345 47.7431 95.6492 47.7207 95.6592C47.6983 95.6691 47.674 95.6741 47.6495 95.6736Z" fill="#263238"/>
<path d="M54.0387 95.7452C54.0007 95.7467 53.9633 95.7348 53.9331 95.7116C53.741 95.5356 53.5121 95.4046 53.263 95.3282C53.0139 95.2518 52.7509 95.2319 52.4931 95.27C52.4711 95.276 52.448 95.2776 52.4254 95.2747C52.4027 95.2718 52.3808 95.2644 52.361 95.2531C52.3411 95.2417 52.3237 95.2265 52.3098 95.2084C52.2958 95.1904 52.2855 95.1697 52.2795 95.1476C52.2735 95.1256 52.2719 95.1025 52.2749 95.0799C52.2778 95.0572 52.2851 95.0353 52.2965 95.0155C52.3078 94.9956 52.323 94.9782 52.3411 94.9643C52.3592 94.9503 52.3799 94.94 52.4019 94.934C52.713 94.879 53.0326 94.8958 53.3363 94.9832C53.6399 95.0705 53.9196 95.2261 54.1539 95.438C54.1895 95.4672 54.2123 95.509 54.2177 95.5546C54.2231 95.6003 54.2105 95.6462 54.1827 95.6828C54.1653 95.7039 54.1432 95.7205 54.1182 95.7313C54.0932 95.7422 54.0659 95.7469 54.0387 95.7452Z" fill="#263238"/>
<path d="M44.157 98.4768C44.157 98.4768 46.341 95.2896 46.269 92.6784C46.269 92.6784 54.6258 90.048 54.3426 98.2848C54.3426 98.2848 55.7346 91.0848 48.741 90.3216C41.7474 89.5584 40.9362 99.84 44.301 103.2C44.301 103.2 42.8178 100.474 44.157 98.4768Z" fill="#263238"/>
<path d="M44.7659 99.3938C44.7659 98.9185 44.5774 98.4627 44.2418 98.1261C43.9061 97.7896 43.4507 97.5999 42.9755 97.5986C41.6987 97.6322 40.8827 100.176 43.9739 101.064C44.4155 101.189 44.7083 100.771 44.7659 99.3938Z" fill="#E4897B"/>
<path d="M51.7102 101.76C51.4113 102.161 51.1433 102.585 50.9086 103.027C50.827 102.998 50.7406 102.974 50.659 102.94C49.531 102.542 49.1374 101.98 49.0462 101.5C49.0032 101.256 49.0213 101.006 49.099 100.771C49.139 100.635 49.1971 100.506 49.2718 100.387C49.8583 100.944 50.5594 101.367 51.3262 101.625C51.5566 101.712 51.7102 101.76 51.7102 101.76Z" fill="#263238"/>
<path d="M51.3209 101.615L51.0761 101.985C50.0105 101.606 49.3146 101.198 49.0938 100.761C49.1337 100.626 49.1919 100.497 49.2666 100.377C49.8531 100.934 50.5542 101.357 51.3209 101.615Z" fill="white"/>
<path d="M50.6597 102.941C49.5317 102.543 49.1381 101.981 49.0469 101.501C49.4736 101.658 49.8687 101.891 50.2133 102.187C50.4367 102.386 50.5927 102.65 50.6597 102.941Z" fill="#DE5753"/>
<path d="M49.0893 92.2794C49.0893 92.2794 46.8861 98.8506 42.6717 98.3994C38.4573 97.9482 45.6813 90.009 45.6813 90.009C45.6813 90.009 52.7901 87.9786 55.8861 91.929C58.9821 95.8794 54.3549 98.2746 54.3549 98.2746C54.3549 98.2746 55.0461 93.1194 49.0893 92.2794Z" fill="#263238"/>
<path d="M45.7319 97.8718C45.7076 97.8707 45.684 97.8629 45.6637 97.8494C45.6434 97.8359 45.6271 97.8171 45.6167 97.795C45.6057 97.7644 45.6071 97.7308 45.6206 97.7012C45.634 97.6716 45.6585 97.6484 45.6887 97.6366C49.0487 96.355 48.9719 91.8478 48.9719 91.7998C48.9705 91.7841 48.9725 91.7683 48.9777 91.7534C48.983 91.7386 48.9913 91.725 49.0022 91.7136C49.0132 91.7023 49.0264 91.6934 49.041 91.6875C49.0557 91.6817 49.0714 91.6791 49.0871 91.6798C49.1183 91.6808 49.1481 91.693 49.171 91.7141C49.1939 91.7353 49.2085 91.764 49.2119 91.795C49.2119 91.843 49.2887 96.5182 45.7751 97.8622L45.7319 97.8718Z" fill="#263238"/>
<path d="M53.1172 98.1162L54.0004 97.833C54.0004 97.833 53.5252 98.529 53.1172 98.1162Z" fill="#263238"/>
<path d="M53.4287 98.0159C53.2642 97.9346 53.0755 97.9166 52.8985 97.9653C52.7215 98.014 52.5686 98.1259 52.4688 98.2799C52.6172 98.2061 52.7799 98.1652 52.9456 98.1602C53.1113 98.1553 53.2762 98.1863 53.4287 98.2511V98.0159Z" fill="#263238"/>
<path d="M46.8935 109.022L50.4599 110.837L50.4023 114.451L45.3047 111.48L46.8935 109.022Z" fill="#A2185A"/>
<path d="M51 108.341L51.2112 110.534L53.5392 112.997L53.2224 108.946L51 108.341Z" fill="#A2185A"/>
<path d="M34.5253 83.5198L33.0373 79.6798C33.0645 79.4745 33.0435 79.2657 32.976 79.0699C32.9085 78.8742 32.7964 78.6968 32.6485 78.5518C31.6117 77.779 29.4709 77.0782 28.9333 77.1598C28.1509 77.275 26.5333 78.691 26.6725 79.6174C26.8117 80.5438 31.3813 81.115 31.3813 81.115L32.8981 85.3246L34.5253 83.5198Z" fill="#E4897B"/>
<path d="M40.9316 117.749C40.9316 117.749 43.8116 115.459 42.6644 110.4L39.5684 96.4029L34.25 81.9453L31.6484 83.2605C31.6484 83.2605 36.0164 97.3869 36.4196 98.3421C36.626 98.8221 37.4468 106.152 38.5652 111.062C39.5924 115.584 40.9316 117.749 40.9316 117.749Z" fill="#A2185A"/>
<path opacity="0.6" d="M40.9316 117.749C40.9316 117.749 43.8116 115.459 42.6644 110.4L39.5684 96.4029L34.25 81.9453L31.6484 83.2605C31.6484 83.2605 36.0164 97.3869 36.4196 98.3421C36.626 98.8221 37.4468 106.152 38.5652 111.062C39.5924 115.584 40.9316 117.749 40.9316 117.749Z" fill="white"/>
<path d="M31.1953 82.8478L34.2337 81.3262L34.8961 82.339L31.3441 83.9134L31.1953 82.8478Z" fill="#A2185A"/>
<path opacity="0.7" d="M31.1953 82.8478L34.2337 81.3262L34.8961 82.339L31.3441 83.9134L31.1953 82.8478Z" fill="white"/>
<path opacity="0.6" d="M46.8935 109.022L50.4599 110.837L50.4023 114.451L45.3047 111.48L46.8935 109.022Z" fill="white"/>
<path opacity="0.6" d="M51 108.341L51.2112 110.534L53.5392 112.997L53.2224 108.946L51 108.341Z" fill="white"/>
<path d="M152.287 101.477H137.906V112.651H152.287V101.477Z" fill="white"/>
<path opacity="0.1" d="M152.288 101.477H148.602V112.651H152.288V101.477Z" fill="black"/>
<path d="M137.078 122.52H153.336V102.24H148.099L137.078 107.515V122.52Z" fill="#864600"/>
<path opacity="0.2" d="M153.338 102.24H148.102V122.52H153.338V102.24Z" fill="black"/>
<path opacity="0.7" d="M146.371 111.514H138.758V115.162H146.371V111.514Z" fill="white"/>
<path opacity="0.7" d="M146.371 116.381H138.758V116.904H146.371V116.381Z" fill="white"/>
<path opacity="0.7" d="M152.83 117.912H148.602V121.008H152.83V117.912Z" fill="white"/>
<path d="M146.178 100.867H131.797V112.651H146.178V100.867Z" fill="white"/>
<path opacity="0.1" d="M146.179 100.867H142.492V112.651H146.179V100.867Z" fill="black"/>
<path d="M130.969 122.52H147.226V102.24H141.99L130.969 107.515V122.52Z" fill="#864600"/>
<path opacity="0.2" d="M147.229 102.24H141.992V122.52H147.229V102.24Z" fill="black"/>
<path opacity="0.7" d="M140.253 111.514H132.641V115.162H140.253V111.514Z" fill="white"/>
<path opacity="0.7" d="M140.253 116.381H132.641V116.904H140.253V116.381Z" fill="white"/>
<path opacity="0.7" d="M146.721 117.912H142.492V121.008H146.721V117.912Z" fill="white"/>
<path d="M120.867 199.517H123.81L129.09 125.957H125.187L120.867 199.517Z" fill="#263238"/>
<path opacity="0.1" d="M120.867 199.517H123.81L128.83 129.61L129.09 126.077H125.187L124.981 129.61L120.867 199.517Z" fill="white"/>
<path opacity="0.2" d="M124.984 129.437H128.834L129.093 126.077H125.191L124.984 129.437Z" fill="black"/>
<path d="M99.2925 199.517H102.235L102.715 125.957H98.8125L99.2925 199.517Z" fill="#263238"/>
<path opacity="0.1" d="M98.8047 126.077L98.8863 137.943L99.2847 199.517H102.227L102.63 137.943L102.707 126.077H98.8047Z" fill="white"/>
<path opacity="0.2" d="M98.8047 126.077L98.8863 138.077H102.63L102.707 126.077H98.8047Z" fill="black"/>
<path d="M68.0703 199.517H71.0127L76.2927 125.957H72.3903L68.0703 199.517Z" fill="#263238"/>
<path opacity="0.1" d="M68.0703 199.517H71.0127L76.0383 129.61L76.2927 126.077H72.3903L72.1839 129.61L68.0703 199.517Z" fill="white"/>
<path opacity="0.2" d="M72.1797 129.437H76.0341L76.2885 126.077H72.3861L72.1797 129.437Z" fill="black"/>
<path d="M154.511 199.517H157.454L153.129 125.957H149.227L154.511 199.517Z" fill="#263238"/>
<path opacity="0.1" d="M149.227 126.077L149.491 129.61L154.511 199.517H157.449L153.34 129.61L153.129 126.077H149.227Z" fill="white"/>
<path opacity="0.2" d="M153.129 126.077H149.227L149.491 129.437H153.34L153.129 126.077Z" fill="black"/>
<path d="M155.182 127.8L70.3371 127.8C70.201 127.8 70.0662 127.773 69.9404 127.721C69.8146 127.669 69.7003 127.592 69.604 127.496C69.5077 127.4 69.4314 127.286 69.3793 127.16C69.3272 127.034 69.3003 126.899 69.3003 126.763V124.118L156.219 124.118V126.763C156.219 126.899 156.192 127.034 156.14 127.16C156.088 127.286 156.011 127.4 155.915 127.496C155.819 127.592 155.705 127.669 155.579 127.721C155.453 127.773 155.318 127.8 155.182 127.8Z" fill="#864600"/>
<path opacity="0.4" d="M155.182 127.8L70.3371 127.8C70.201 127.8 70.0662 127.773 69.9404 127.721C69.8146 127.669 69.7003 127.592 69.604 127.496C69.5077 127.4 69.4314 127.286 69.3793 127.16C69.3272 127.034 69.3003 126.899 69.3003 126.763V124.118L156.219 124.118V126.763C156.219 126.899 156.192 127.034 156.14 127.16C156.088 127.286 156.011 127.4 155.915 127.496C155.819 127.592 155.705 127.669 155.579 127.721C155.453 127.773 155.318 127.8 155.182 127.8Z" fill="white"/>
<path opacity="0.2" d="M69.3003 125.957L156.219 125.957V124.114L69.3003 124.114V125.957Z" fill="black"/>
<path d="M67.4791 124.593H158.041C158.177 124.594 158.312 124.567 158.438 124.515C158.564 124.464 158.679 124.387 158.775 124.291C158.872 124.194 158.948 124.08 159 123.954C159.052 123.828 159.078 123.693 159.077 123.556C159.077 123.281 158.968 123.018 158.774 122.823C158.579 122.629 158.316 122.52 158.041 122.52H67.4791C67.2037 122.52 66.9395 122.629 66.7443 122.823C66.5491 123.017 66.4388 123.281 66.4375 123.556C66.4375 123.693 66.4645 123.828 66.5169 123.954C66.5693 124.08 66.6461 124.195 66.7429 124.291C66.8397 124.387 66.9545 124.464 67.0809 124.516C67.2072 124.567 67.3425 124.594 67.4791 124.593Z" fill="#864600"/>
<path opacity="0.4" d="M67.4791 124.593H158.041C158.177 124.594 158.312 124.567 158.438 124.515C158.564 124.464 158.679 124.387 158.775 124.291C158.872 124.194 158.948 124.08 159 123.954C159.052 123.828 159.078 123.693 159.077 123.556C159.077 123.281 158.968 123.018 158.774 122.823C158.579 122.629 158.316 122.52 158.041 122.52H67.4791C67.2037 122.52 66.9395 122.629 66.7443 122.823C66.5491 123.017 66.4388 123.281 66.4375 123.556C66.4375 123.693 66.4645 123.828 66.5169 123.954C66.5693 124.08 66.6461 124.195 66.7429 124.291C66.8397 124.387 66.9545 124.464 67.0809 124.516C67.2072 124.567 67.3425 124.594 67.4791 124.593Z" fill="white"/>
<path d="M138.582 122.51V120.888H139.672L138.582 120.254H139.398L138.309 119.544H137.277V118.728H138.477L137.277 118.252V116.481H138.477V115.324H139.672L138.477 114.921V114.096H139.331L138.63 113.4L138.025 112.79H119.478V113.62H118.254L119.617 114.235V114.921H117.117V116.198H116.008L117.117 116.755V118.18H117.904V118.862H119.478V120.888H118.595L119.32 121.612V122.52L138.582 122.51Z" fill="#864600"/>
<path opacity="0.7" d="M138.582 122.51V120.888H139.672L138.582 120.254H139.398L138.309 119.544H137.277V118.728H138.477L137.277 118.252V116.481H138.477V115.324H139.672L138.477 114.921V114.096H139.331L138.63 113.4L138.025 112.79H119.478V113.62H118.254L119.617 114.235V114.921H117.117V116.198H116.008L117.117 116.755V118.18H117.904V118.862H119.478V120.888H118.595L119.32 121.612V122.52L138.582 122.51Z" fill="white"/>
<path opacity="0.1" d="M138.581 122.51V120.888H139.671L138.581 120.254H139.397L138.308 119.544H137.276V118.728H138.476L137.276 118.252V116.481H138.476V115.324H139.671L138.476 114.921V114.096H139.33L138.629 113.4L138.024 112.79H128.256V113.62H127.032L128.391 114.235V114.921H125.89V116.198H124.781L125.89 116.755V118.18H126.677V118.862H128.256V120.888H127.373L128.093 121.612V122.52L138.581 122.51Z" fill="black"/>
<path opacity="0.1" d="M119.617 114.921H128.392L119.617 114.604V114.921Z" fill="black"/>
<path opacity="0.1" d="M119.477 118.862H128.256L128.294 119.477L119.477 118.862Z" fill="black"/>
<path opacity="0.1" d="M117.906 118.181H126.681L117.906 118.488V118.181Z" fill="black"/>
<path opacity="0.1" d="M119.477 120.888H128.256L119.477 120.566V120.888Z" fill="black"/>
<path opacity="0.1" d="M119.32 121.612H128.095V121.948L119.32 121.612Z" fill="black"/>
<path opacity="0.1" d="M117.117 116.198H125.892L117.117 115.92V116.198Z" fill="black"/>
<path opacity="0.1" d="M119.477 113.621H128.256L119.477 113.313V113.621Z" fill="black"/>
<path opacity="0.1" d="M138.474 114.096H129.57L138.474 114.369V114.096Z" fill="black"/>
<path opacity="0.1" d="M128.391 114.922H138.475L129.331 115.219L128.391 114.922Z" fill="black"/>
<path opacity="0.1" d="M125.891 116.198L138.476 116.481V116.198H125.891Z" fill="black"/>
<path opacity="0.1" d="M125.891 116.755H132.116L125.891 117.057V116.755Z" fill="black"/>
<path opacity="0.1" d="M137.277 118.253L128.258 118.181L137.277 117.979V118.253Z" fill="black"/>
<path opacity="0.1" d="M137.276 118.728H128.094L137.276 119.035V118.728Z" fill="black"/>
<path opacity="0.1" d="M138.581 120.254H128.391V120.566L138.581 120.254Z" fill="black"/>
<path opacity="0.1" d="M138.578 120.888H131.195L138.578 121.094V120.888Z" fill="black"/>
<path d="M114.967 120.418V121.959C114.967 122.352 114.487 122.516 114.107 122.516H83.3297C82.9361 122.516 82.4609 122.352 82.4609 121.959V120.418H114.967Z" fill="#263238"/>
<path opacity="0.4" d="M114.967 120.418V121.959C114.967 122.352 114.487 122.516 114.107 122.516H83.3297C82.9361 122.516 82.4609 122.352 82.4609 121.959V120.418H114.967Z" fill="white"/>
<path opacity="0.2" d="M114.968 120.418V121.959C114.968 122.352 114.488 122.516 114.109 122.516H93.8093C93.4157 122.516 92.9453 122.352 92.9453 121.959V120.418H114.968Z" fill="black"/>
<path d="M120.118 104.424L116.451 121.046C116.388 121.316 116.237 121.557 116.021 121.731C115.805 121.905 115.538 122.002 115.261 122.006H95.2497C95.1251 122.004 95.003 121.972 94.8927 121.914C94.7824 121.856 94.687 121.774 94.614 121.673C94.541 121.572 94.4924 121.455 94.4719 121.333C94.4514 121.21 94.4597 121.084 94.4961 120.965L98.1537 104.472C98.2287 104.22 98.3878 104.002 98.6045 103.853C98.8211 103.705 99.0822 103.635 99.3441 103.656H119.36C119.898 103.637 120.234 103.882 120.118 104.424Z" fill="#263238"/>
<path opacity="0.4" d="M120.114 104.424L116.446 121.047C116.383 121.316 116.232 121.557 116.016 121.731C115.801 121.905 115.533 122.002 115.256 122.007H95.9215C95.797 122.004 95.6748 121.972 95.5645 121.915C95.4543 121.857 95.3589 121.774 95.2859 121.673C95.2129 121.572 95.1642 121.456 95.1438 121.333C95.1233 121.21 95.1316 121.084 95.1679 120.965L98.8303 104.472C98.9045 104.22 99.0635 104.001 99.2804 103.852C99.4972 103.704 99.7587 103.635 100.021 103.656H119.355C119.893 103.637 120.229 103.882 120.114 104.424Z" fill="white"/>
<path opacity="0.2" d="M110.245 112.872C110.245 114.312 108.718 115.449 107.6 115.449C106.482 115.449 105.819 114.292 106.16 112.872C106.501 111.451 107.6 110.342 108.685 110.299C108.368 111.739 109.05 112.872 110.163 112.872H110.245Z" fill="black"/>
</svg>
