<svg width="240" height="240" viewBox="0 0 240 240" fill="none" xmlns="http://www.w3.org/2000/svg">
<path d="M240 183.551H0V183.671H240V183.551Z" fill="#EBEBEB"/>
<path d="M41.0773 188.121H25.1797V188.241H41.0773V188.121Z" fill="#EBEBEB"/>
<path d="M102.563 186.82H82.1484V186.94H102.563V186.82Z" fill="#EBEBEB"/>
<path d="M54.0784 189.805H44.8672V189.925H54.0784V189.805Z" fill="#EBEBEB"/>
<path d="M215.951 191.773H208.641V191.893H215.951V191.773Z" fill="#EBEBEB"/>
<path d="M204.365 191.773H187.906V191.893H204.365V191.773Z" fill="#EBEBEB"/>
<path d="M159.282 188.316H147.844V188.436H159.282V188.316Z" fill="#EBEBEB"/>
<path d="M113.763 162.142H21.0845C20.3576 162.142 19.6605 161.854 19.1465 161.34C18.6325 160.826 18.3438 160.129 18.3438 159.402V29.1152C18.3501 28.3925 18.6416 27.7015 19.1549 27.1927C19.6683 26.6839 20.3618 26.3984 21.0845 26.3984H113.763C114.49 26.3984 115.187 26.6872 115.701 27.2012C116.215 27.7152 116.504 28.4123 116.504 29.1392V159.402C116.504 160.129 116.215 160.826 115.701 161.34C115.187 161.854 114.49 162.142 113.763 162.142ZM21.0845 26.4944C20.3899 26.4957 19.724 26.7722 19.2328 27.2635C18.7415 27.7547 18.465 28.4205 18.4637 29.1152V159.402C18.465 160.096 18.7415 160.762 19.2328 161.253C19.724 161.745 20.3899 162.021 21.0845 162.022H113.763C114.458 162.021 115.124 161.745 115.615 161.253C116.106 160.762 116.382 160.096 116.384 159.402V29.1152C116.382 28.4205 116.106 27.7547 115.615 27.2635C115.124 26.7722 114.458 26.4957 113.763 26.4944H21.0845Z" fill="#EBEBEB"/>
<path d="M217.585 162.142H124.897C124.171 162.141 123.474 161.852 122.96 161.338C122.447 160.825 122.158 160.128 122.156 159.402V29.1152C122.164 28.3929 122.456 27.7026 122.969 27.1941C123.482 26.6855 124.175 26.3997 124.897 26.3984H217.585C218.306 26.4009 218.997 26.6875 219.508 27.1961C220.02 27.7046 220.31 28.3942 220.316 29.1152V159.402C220.316 160.127 220.029 160.823 219.517 161.336C219.005 161.85 218.31 162.14 217.585 162.142ZM124.897 26.4944C124.202 26.4957 123.536 26.7722 123.045 27.2635C122.554 27.7547 122.278 28.4205 122.276 29.1152V159.402C122.278 160.096 122.554 160.762 123.045 161.253C123.536 161.745 124.202 162.021 124.897 162.022H217.585C218.28 162.021 218.946 161.745 219.437 161.253C219.928 160.762 220.205 160.096 220.206 159.402V29.1152C220.205 28.4205 219.928 27.7547 219.437 27.2635C218.946 26.7722 218.28 26.4957 217.585 26.4944H124.897Z" fill="#EBEBEB"/>
<path d="M147.597 94.2578H199.375V42.341L147.597 42.341V94.2578Z" fill="#F0F0F0"/>
<path d="M147.604 42.3438H146.711V94.2606H147.604V42.3438Z" fill="#E0E0E0"/>
<path d="M152.171 90.9766H194.805V45.6166L152.171 45.6166V90.9766Z" fill="#FAFAFA"/>
<path d="M168.961 81.1179H182.463C185.391 81.1179 187.349 78.7467 186.836 75.8379L184.21 60.7995C183.919 59.3444 183.143 58.0308 182.01 57.0722C180.877 56.1136 179.454 55.5664 177.97 55.5195H164.501C161.573 55.5195 159.615 57.8907 160.129 60.7995L162.754 75.8379C163.044 77.288 163.814 78.5979 164.94 79.5561C166.067 80.5142 167.483 81.0645 168.961 81.1179Z" fill="#F0F0F0"/>
<path d="M50.3872 110.023H38.8672V181.087H50.3872V110.023Z" fill="#F0F0F0"/>
<path d="M100.932 181.094H40.0391V183.547H100.932V181.094Z" fill="#F0F0F0"/>
<path d="M50.3837 181.094H101.945L101.945 110.03H50.3837L50.3837 181.094Z" fill="#F5F5F5"/>
<path d="M52.4606 159.719H99.875V147.028H52.4606V159.719Z" fill="#F0F0F0"/>
<path d="M52.4606 176.328H99.875V163.637H52.4606V176.328Z" fill="#F0F0F0"/>
<path d="M94.2662 146.25H58.0742C57.7614 146.25 57.5078 146.504 57.5078 146.816V147.426C57.5078 147.739 57.7614 147.992 58.0742 147.992H94.2662C94.579 147.992 94.8326 147.739 94.8326 147.426V146.816C94.8326 146.504 94.579 146.25 94.2662 146.25Z" fill="#F5F5F5"/>
<path d="M94.2662 162.863H58.0742C57.7614 162.863 57.5078 163.117 57.5078 163.43V164.039C57.5078 164.352 57.7614 164.606 58.0742 164.606H94.2662C94.579 164.606 94.8326 164.352 94.8326 164.039V163.43C94.8326 163.117 94.579 162.863 94.2662 162.863Z" fill="#F5F5F5"/>
<path d="M52.4606 126.633H99.875V113.942H52.4606V126.633Z" fill="#F0F0F0"/>
<path d="M52.4606 143.117H99.875V130.426H52.4606V143.117Z" fill="#F0F0F0"/>
<path d="M94.2662 113.168H58.0742C57.7614 113.168 57.5078 113.422 57.5078 113.734V114.344C57.5078 114.657 57.7614 114.91 58.0742 114.91H94.2662C94.579 114.91 94.8326 114.657 94.8326 114.344V113.734C94.8326 113.422 94.579 113.168 94.2662 113.168Z" fill="#F5F5F5"/>
<path d="M94.2662 129.641H58.0742C57.7614 129.641 57.5078 129.894 57.5078 130.207V130.817C57.5078 131.129 57.7614 131.383 58.0742 131.383H94.2662C94.579 131.383 94.8326 131.129 94.8326 130.817V130.207C94.8326 129.894 94.579 129.641 94.2662 129.641Z" fill="#F5F5F5"/>
<path d="M100.083 38.4258H35.4219V95.1906H100.083V38.4258Z" fill="#E6E6E6"/>
<path d="M107.01 36.2188H31.2322C31.1479 36.2187 31.0645 36.2354 30.9867 36.2678C30.909 36.3002 30.8384 36.3476 30.779 36.4074C30.7197 36.4672 30.6728 36.5382 30.641 36.6162C30.6092 36.6942 30.5931 36.7777 30.5938 36.862C30.5938 37.0313 30.661 37.1936 30.7807 37.3134C30.9005 37.4331 31.0629 37.5003 31.2322 37.5003H107.01C107.18 37.5004 107.342 37.4332 107.463 37.3137C107.583 37.1941 107.652 37.0317 107.653 36.862C107.653 36.6914 107.585 36.5278 107.465 36.4071C107.344 36.2865 107.18 36.2188 107.01 36.2188Z" fill="#E6E6E6"/>
<path d="M102.828 38.4258H36.7031V95.1906H102.828V38.4258Z" fill="#F0F0F0"/>
<path d="M100.083 95.1914H35.4219V97.0106H101.974L100.083 95.1914Z" fill="#E6E6E6"/>
<path d="M107.393 95.1914H41.2734L43.1598 97.0106H109.285L107.393 95.1914Z" fill="#F0F0F0"/>
<path d="M98.9844 91.3504V42.2656L40.5444 42.2656V91.3504H98.9844Z" fill="#FAFAFA"/>
<path d="M53.8125 91.3504L76.3533 42.2656H86.9997L64.4541 91.3504H53.8125Z" fill="white"/>
<path d="M66.7422 91.3504L89.2878 42.2656H93.435L70.8942 91.3504H66.7422Z" fill="white"/>
<path d="M98.9844 91.3504V42.2656H98.4948V91.3504H98.9844Z" fill="#E6E6E6"/>
<g opacity="0.4">
<path d="M40.5862 35.0703H33.9766V81.9135H40.5862V35.0703Z" fill="#F0F0F0"/>
<path d="M43.166 35.0703H38.0156V81.9135H43.166V35.0703Z" fill="#E6E6E6"/>
<path d="M47.1955 35.0703H40.5859V81.9135H47.1955V35.0703Z" fill="#F0F0F0"/>
<path d="M49.7754 35.0703H44.625V81.9135H49.7754V35.0703Z" fill="#E6E6E6"/>
<path d="M53.8049 35.0703H47.1953V81.9135H53.8049V35.0703Z" fill="#F0F0F0"/>
</g>
<g opacity="0.4">
<path d="M96.53 35.0703H92.7188V81.9135H96.53V35.0703Z" fill="#F0F0F0"/>
<path d="M98.0055 35.0703H95.0391V81.9135H98.0055V35.0703Z" fill="#E6E6E6"/>
<path d="M100.335 35.0703H96.5234V81.9135H100.335V35.0703Z" fill="#F0F0F0"/>
<path d="M101.818 35.0703H98.8516V81.9135H101.818V35.0703Z" fill="#E6E6E6"/>
<path d="M104.147 35.0703H100.336V81.9135H104.147V35.0703Z" fill="#F0F0F0"/>
</g>
<path d="M171.285 129.218C171.229 129.912 171.379 130.608 171.718 131.216C172.057 131.825 172.568 132.32 173.188 132.638C173.808 132.956 174.508 133.083 175.2 133.003C175.892 132.924 176.545 132.64 177.076 132.19C177.607 131.739 177.993 131.141 178.184 130.471C178.376 129.801 178.364 129.09 178.151 128.426C177.938 127.763 177.534 127.178 176.988 126.745C176.443 126.311 175.781 126.049 175.087 125.992C174.155 125.916 173.231 126.214 172.518 126.818C171.806 127.423 171.362 128.286 171.285 129.218Z" fill="#E0E0E0"/>
<path d="M181.088 134.831C183.016 134.547 184.348 132.754 184.065 130.827C183.781 128.899 181.988 127.566 180.061 127.85C178.133 128.133 176.8 129.926 177.084 131.854C177.367 133.781 179.16 135.114 181.088 134.831Z" fill="#E0E0E0"/>
<path d="M183.223 131.781C183.166 132.475 183.317 133.171 183.655 133.78C183.994 134.388 184.506 134.883 185.125 135.201C185.745 135.519 186.445 135.646 187.137 135.567C187.829 135.487 188.482 135.204 189.014 134.753C189.545 134.302 189.93 133.704 190.122 133.034C190.313 132.365 190.302 131.653 190.089 130.99C189.876 130.326 189.471 129.741 188.926 129.308C188.38 128.875 187.718 128.613 187.024 128.555C186.563 128.517 186.098 128.569 185.657 128.711C185.216 128.852 184.807 129.079 184.453 129.379C184.1 129.678 183.81 130.045 183.598 130.457C183.387 130.869 183.259 131.319 183.223 131.781Z" fill="#E0E0E0"/>
<path d="M164.738 131.065C164.682 131.76 164.832 132.455 165.171 133.064C165.51 133.673 166.021 134.167 166.641 134.485C167.261 134.804 167.961 134.931 168.653 134.851C169.345 134.771 169.998 134.488 170.529 134.037C171.06 133.587 171.446 132.989 171.637 132.319C171.829 131.649 171.817 130.937 171.604 130.274C171.391 129.611 170.987 129.026 170.441 128.592C169.896 128.159 169.234 127.897 168.54 127.84C167.608 127.764 166.684 128.061 165.972 128.666C165.259 129.271 164.815 130.134 164.738 131.065Z" fill="#E0E0E0"/>
<path d="M192.346 134.827C194.273 134.543 195.606 132.75 195.323 130.823C195.039 128.895 193.246 127.562 191.319 127.846C189.391 128.129 188.058 129.922 188.342 131.85C188.625 133.778 190.418 135.11 192.346 134.827Z" fill="#E0E0E0"/>
<path d="M165.791 131.054C167.272 129.787 167.446 127.56 166.179 126.079C164.913 124.598 162.686 124.425 161.205 125.691C159.724 126.958 159.55 129.185 160.817 130.666C162.083 132.146 164.31 132.32 165.791 131.054Z" fill="#E0E0E0"/>
<path d="M155.004 130.265C154.947 130.959 155.098 131.654 155.437 132.263C155.775 132.872 156.287 133.367 156.907 133.685C157.526 134.003 158.227 134.13 158.919 134.05C159.611 133.97 160.264 133.687 160.795 133.237C161.326 132.786 161.712 132.188 161.903 131.518C162.094 130.848 162.083 130.137 161.87 129.473C161.657 128.81 161.252 128.225 160.707 127.791C160.161 127.358 159.5 127.096 158.805 127.039C157.874 126.963 156.95 127.26 156.237 127.865C155.524 128.47 155.081 129.333 155.004 130.265Z" fill="#E0E0E0"/>
<path d="M150.977 131.215C150.977 131.215 151.581 145.648 174.775 145.648C197.969 145.648 198.573 131.215 198.573 131.215H150.977Z" fill="#F0F0F0"/>
<path d="M211.802 145.648H207.391V183.544H211.802V145.648Z" fill="#E6E6E6"/>
<path d="M212.98 145.648H210.383V183.544H212.98V145.648Z" fill="#F0F0F0"/>
<path d="M193.036 145.648H188.625V183.544H193.036V145.648Z" fill="#E6E6E6"/>
<path d="M193.862 145.648H191.266V183.544H193.862V145.648Z" fill="#F0F0F0"/>
<path d="M151.168 150.246H213.789V145.652H151.168V150.246Z" fill="#F0F0F0"/>
<path d="M132.028 145.648H127.617V183.544H132.028V145.648Z" fill="#E6E6E6"/>
<path d="M132.855 145.648H130.258V183.544H132.855V145.648Z" fill="#F0F0F0"/>
<path d="M126.832 150.246H149.281V145.652H126.832V150.246Z" fill="#E6E6E6"/>
<path d="M150.794 145.648H146.383V183.544H150.794V145.648Z" fill="#E6E6E6"/>
<path d="M151.972 145.648H149.375V183.544H151.972V145.648Z" fill="#F0F0F0"/>
<path d="M119.997 205.23C171.396 205.23 213.064 202.798 213.064 199.797C213.064 196.796 171.396 194.363 119.997 194.363C68.5973 194.363 26.9297 196.796 26.9297 199.797C26.9297 202.798 68.5973 205.23 119.997 205.23Z" fill="#F5F5F5"/>
<path d="M170.631 195.028C170.632 195.988 170.292 196.916 169.672 197.648C169.053 198.38 168.193 198.869 167.247 199.027C155.601 200.992 143.709 200.992 132.063 199.027C131.121 198.865 130.267 198.374 129.652 197.642C129.037 196.91 128.701 195.984 128.703 195.028V156.148H170.65L170.631 195.028Z" fill="#FF4747"/>
<path opacity="0.3" d="M128.68 156.852V162.309C131.204 163.245 139.494 163.932 149.656 163.932C159.817 163.932 168.121 163.245 170.632 162.309V156.852H128.68Z" fill="black"/>
<path d="M171.417 161.012C171.417 162.246 161.894 163.244 149.654 163.244C137.414 163.244 127.891 162.246 127.891 161.012L127.492 156.164H171.839L171.417 161.012Z" fill="#FF4747"/>
<path d="M149.654 158.392C161.893 158.392 171.815 157.395 171.815 156.165C171.815 154.935 161.893 153.938 149.654 153.938C137.414 153.938 127.492 154.935 127.492 156.165C127.492 157.395 137.414 158.392 149.654 158.392Z" fill="#FF4747"/>
<path opacity="0.3" d="M149.654 158.392C161.893 158.392 171.815 157.395 171.815 156.165C171.815 154.935 161.893 153.938 149.654 153.938C137.414 153.938 127.492 154.935 127.492 156.165C127.492 157.395 137.414 158.392 149.654 158.392Z" fill="black"/>
<path opacity="0.2" d="M134.307 192.296C133.876 192.294 133.463 192.122 133.158 191.818C132.853 191.513 132.681 191.1 132.68 190.668V168.377C132.681 167.946 132.853 167.533 133.158 167.228C133.463 166.923 133.876 166.751 134.307 166.75C134.738 166.753 135.15 166.925 135.455 167.229C135.759 167.534 135.932 167.946 135.934 168.377V190.668C135.932 191.099 135.759 191.512 135.455 191.816C135.15 192.121 134.738 192.293 134.307 192.296Z" fill="black"/>
<path opacity="0.2" d="M165.01 192.296C164.579 192.294 164.166 192.122 163.861 191.818C163.556 191.513 163.384 191.1 163.383 190.668V168.377C163.384 167.946 163.556 167.533 163.861 167.228C164.166 166.923 164.579 166.751 165.01 166.75C165.441 166.753 165.853 166.925 166.158 167.229C166.462 167.534 166.635 167.946 166.637 168.377V190.668C166.635 191.099 166.462 191.512 166.158 191.816C165.853 192.121 165.441 192.293 165.01 192.296Z" fill="black"/>
<path opacity="0.2" d="M154.768 192.296C154.337 192.293 153.925 192.121 153.62 191.816C153.315 191.512 153.143 191.099 153.141 190.668V168.377C153.143 167.946 153.315 167.534 153.62 167.229C153.925 166.925 154.337 166.753 154.768 166.75C155.199 166.751 155.612 166.923 155.917 167.228C156.222 167.533 156.394 167.946 156.395 168.377V190.668C156.394 191.1 156.222 191.513 155.917 191.818C155.612 192.122 155.199 192.294 154.768 192.296Z" fill="black"/>
<path opacity="0.2" d="M144.533 192.296C144.103 192.293 143.69 192.121 143.386 191.816C143.081 191.512 142.909 191.099 142.906 190.668V168.377C142.909 167.946 143.081 167.534 143.386 167.229C143.69 166.925 144.103 166.753 144.533 166.75C144.965 166.751 145.378 166.923 145.683 167.228C145.988 167.533 146.159 167.946 146.161 168.377V190.668C146.159 191.1 145.988 191.513 145.683 191.818C145.378 192.122 144.965 192.294 144.533 192.296Z" fill="black"/>
<path d="M92.5872 66.7975C92.5872 67.238 92.4566 67.6686 92.2119 68.0349C91.9671 68.4011 91.6193 68.6866 91.2123 68.8552C90.8054 69.0237 90.3575 69.0679 89.9255 68.9819C89.4935 68.896 89.0966 68.6839 88.7851 68.3724C88.4737 68.0609 88.2615 67.664 88.1756 67.232C88.0897 66.8 88.1338 66.3522 88.3023 65.9452C88.4709 65.5382 88.7564 65.1904 89.1226 64.9457C89.4889 64.7009 89.9195 64.5703 90.36 64.5703C90.9507 64.5703 91.5172 64.805 91.9349 65.2226C92.3526 65.6403 92.5872 66.2068 92.5872 66.7975Z" fill="#263238"/>
<path d="M88.5627 67.1175C88.541 67.1181 88.5196 67.1126 88.5009 67.1015C88.4823 67.0905 88.4671 67.0744 88.4571 67.0551C88.3099 66.7847 88.2175 66.4879 88.185 66.1818C88.1525 65.8756 88.1806 65.566 88.2677 65.2708C88.3549 64.9755 88.4993 64.7002 88.6928 64.4608C88.8863 64.2213 89.1251 64.0223 89.3955 63.8751C89.666 63.7279 89.9627 63.6354 90.2689 63.6029C90.575 63.5704 90.8846 63.5986 91.1799 63.6857C91.4752 63.7728 91.7504 63.9173 91.9899 64.1108C92.2293 64.3043 92.4283 64.5431 92.5755 64.8135C92.5897 64.8417 92.5926 64.8743 92.5836 64.9045C92.5747 64.9348 92.5547 64.9606 92.5275 64.9767C92.5137 64.9843 92.4985 64.9891 92.4827 64.9908C92.467 64.9925 92.4511 64.9911 92.436 64.9866C92.4208 64.9822 92.4067 64.9747 92.3944 64.9648C92.3821 64.9549 92.3719 64.9426 92.3643 64.9287C92.0976 64.4386 91.6472 64.0745 91.112 63.9165C90.5768 63.7585 90.0009 63.8196 89.5107 64.0863C89.0206 64.353 88.6565 64.8035 88.4985 65.3386C88.3406 65.8738 88.4016 66.4498 88.6683 66.9399C88.6759 66.9538 88.6807 66.969 88.6824 66.9847C88.6841 67.0004 88.6827 67.0163 88.6783 67.0315C88.6738 67.0466 88.6664 67.0608 88.6564 67.0731C88.6465 67.0854 88.6342 67.0956 88.6203 67.1031C88.6025 67.1123 88.5828 67.1172 88.5627 67.1175Z" fill="#263238"/>
<path d="M86.4002 76.975C85.9663 76.9733 85.5414 76.8513 85.1727 76.6226C84.8039 76.394 84.5058 76.0676 84.3114 75.6797C84.1169 75.2918 84.0338 74.8577 84.0712 74.4254C84.1087 73.9931 84.2652 73.5797 84.5234 73.231C84.7074 72.9845 84.9382 72.7767 85.2026 72.6194C85.467 72.4621 85.7597 72.3584 86.0642 72.3142C86.0797 72.3115 86.0956 72.312 86.1109 72.3157C86.1262 72.3193 86.1406 72.3261 86.1532 72.3355C86.1658 72.345 86.1763 72.3569 86.1841 72.3706C86.1919 72.3843 86.1968 72.3994 86.1986 72.415C86.2027 72.4462 86.1945 72.4777 86.1756 72.5028C86.1568 72.5279 86.1288 72.5447 86.0978 72.5494C85.5459 72.6303 85.0488 72.927 84.7157 73.3744C84.3826 73.8218 84.2409 74.3832 84.3218 74.935C84.4026 75.4869 84.6994 75.984 85.1468 76.3171C85.5941 76.6502 86.1555 76.7919 86.7074 76.711C86.7392 76.7059 86.7717 76.7137 86.7978 76.7326C86.824 76.7515 86.8415 76.78 86.8466 76.8118C86.8517 76.8437 86.8439 76.8762 86.825 76.9023C86.8061 76.9284 86.7776 76.9459 86.7458 76.951C86.6312 76.9662 86.5158 76.9742 86.4002 76.975Z" fill="#263238"/>
<path d="M98.5029 80.6028C98.0526 80.6022 97.6123 80.4704 97.2357 80.2236C97.2089 80.206 97.19 80.1786 97.1828 80.1473C97.1757 80.116 97.1809 80.0832 97.1973 80.0556C97.2157 80.0297 97.2434 80.0117 97.2746 80.0055C97.3058 79.9992 97.3383 80.0051 97.3653 80.022C97.8331 80.3257 98.4024 80.431 98.9479 80.3149C99.4934 80.1988 99.9705 79.8707 100.274 79.4028C100.578 78.935 100.683 78.3657 100.567 77.8202C100.451 77.2747 100.123 76.7977 99.6549 76.494C99.6281 76.4763 99.6092 76.449 99.602 76.4177C99.5949 76.3864 99.6001 76.3536 99.6165 76.326C99.6349 76.3001 99.6626 76.2821 99.6938 76.2759C99.725 76.2696 99.7575 76.2755 99.7845 76.2924C100.305 76.6313 100.67 77.1624 100.799 77.7697C100.929 78.3769 100.812 79.0108 100.476 79.5324C100.309 79.792 100.093 80.0157 99.8392 80.1904C99.5853 80.3652 99.2991 80.4874 98.9973 80.55C98.8347 80.5842 98.669 80.6019 98.5029 80.6028Z" fill="#263238"/>
<path d="M89.1097 73.7429C90.8488 73.7429 92.2585 72.3332 92.2585 70.5941C92.2585 68.8551 90.8488 67.4453 89.1097 67.4453C87.3707 67.4453 85.9609 68.8551 85.9609 70.5941C85.9609 72.3332 87.3707 73.7429 89.1097 73.7429Z" fill="#263238"/>
<path d="M92.0618 77.7849C93.6926 76.1541 93.6926 73.51 92.0618 71.8792C90.4309 70.2483 87.7868 70.2483 86.156 71.8792C84.5252 73.51 84.5252 76.1541 86.156 77.7849C87.7868 79.4157 90.4309 79.4157 92.0618 77.7849Z" fill="#263238"/>
<path d="M89.5473 84.7586C92.0975 84.7586 94.1649 82.6913 94.1649 80.141C94.1649 77.5908 92.0975 75.5234 89.5473 75.5234C86.9971 75.5234 84.9297 77.5908 84.9297 80.141C84.9297 82.6913 86.9971 84.7586 89.5473 84.7586Z" fill="#263238"/>
<path d="M98.6661 81.514C99.252 79.032 97.7148 76.545 95.2327 75.9592C92.7507 75.3734 90.2637 76.9106 89.6779 79.3926C89.0921 81.8746 90.6293 84.3616 93.1113 84.9474C95.5933 85.5332 98.0803 83.9961 98.6661 81.514Z" fill="#263238"/>
<path d="M109.481 89.9824C109.481 90.3568 109.481 90.832 109.515 91.264C109.549 91.696 109.549 92.1568 109.577 92.6032C109.64 93.496 109.702 94.3984 109.798 95.296C109.971 97.0976 110.213 98.8912 110.523 100.677C110.605 101.118 110.677 101.57 110.768 102.011L110.979 103.101C111.032 103.274 110.979 103.24 110.912 103.235C110.845 103.23 110.912 103.322 111.195 103.322C111.92 103.249 112.626 103.046 113.278 102.722C113.662 102.549 114.056 102.362 114.449 102.16C114.843 101.958 115.241 101.728 115.601 101.526L117.003 103.144C116.669 103.527 116.313 103.891 115.937 104.234C115.568 104.586 115.177 104.914 114.766 105.218C114.336 105.541 113.882 105.832 113.408 106.086C112.868 106.381 112.29 106.597 111.689 106.73C111.319 106.81 110.94 106.843 110.561 106.826C110.099 106.799 109.647 106.685 109.227 106.49C108.781 106.28 108.383 105.979 108.061 105.606C107.783 105.282 107.557 104.918 107.389 104.526C107.258 104.227 107.152 103.917 107.072 103.6L106.885 102.899C106.75 102.419 106.64 101.963 106.525 101.493C106.076 99.6058 105.729 97.6958 105.488 95.7712C105.368 94.8112 105.272 93.8512 105.214 92.8672C105.185 92.3872 105.161 91.9072 105.147 91.3984C105.133 90.8896 105.147 90.4384 105.147 89.8672L109.481 89.9824Z" fill="#FFB573"/>
<path d="M107.157 84.8058C111.251 87.9402 111.088 93.849 111.088 93.849L103.763 95.601C103.763 95.601 101.517 89.6586 102.429 87.4842C103.379 85.2186 104.853 83.0394 107.157 84.8058Z" fill="#BD668D"/>
<path opacity="0.7" d="M107.157 84.8058C111.251 87.9402 111.088 93.849 111.088 93.849L103.763 95.601C103.763 95.601 101.517 89.6586 102.429 87.4842C103.379 85.2186 104.853 83.0394 107.157 84.8058Z" fill="white"/>
<path d="M115.328 102.078L116.537 100.043L119.571 103.288C119.571 103.288 117.397 104.68 115.141 103.686L115.328 102.078Z" fill="#FFB573"/>
<path d="M118.032 99.0664L121.925 101.361L119.573 103.286L116.539 100.041L118.032 99.0664Z" fill="#FFB573"/>
<path d="M84.2344 196.252L88.42 196.655L91.0216 186.849L86.8312 186.445L84.2344 196.252Z" fill="#FFB573"/>
<path d="M62.7812 188.013L66.5397 189.981L71.0084 181.12L67.2501 179.152L62.7812 188.013Z" fill="#FFB573"/>
<path d="M67.5426 188.256L64.1826 184.843C64.1267 184.784 64.0507 184.747 63.9691 184.74C63.8876 184.732 63.8063 184.756 63.7409 184.805L60.6545 187.075C60.5797 187.136 60.5183 187.211 60.4744 187.296C60.4305 187.382 60.405 187.476 60.3995 187.571C60.3941 187.667 60.4089 187.763 60.4429 187.853C60.4769 187.943 60.5294 188.025 60.5969 188.093C61.7873 189.264 62.4209 189.768 63.8993 191.271C64.8113 192.192 66.6833 194.367 67.9409 195.643C69.1985 196.92 70.5234 195.744 70.1154 195.101C68.2818 192.221 67.9745 190.411 67.8593 188.947C67.8385 188.687 67.7263 188.442 67.5426 188.256Z" fill="#263238"/>
<path d="M89.0732 195.383H83.9996C83.9089 195.384 83.8209 195.415 83.749 195.47C83.6771 195.526 83.6252 195.603 83.6012 195.69L82.5164 199.679C82.4893 199.774 82.4849 199.874 82.5034 199.971C82.522 200.068 82.5631 200.159 82.6234 200.237C82.6836 200.315 82.7614 200.377 82.8504 200.42C82.9394 200.462 83.0371 200.483 83.1356 200.481C84.9164 200.481 85.7612 200.481 87.9836 200.481H94.7852C96.6332 200.481 97.022 198.614 96.254 198.441C92.8268 197.682 90.8492 196.636 89.7932 195.638C89.5931 195.466 89.3365 195.376 89.0732 195.383Z" fill="#263238"/>
<path opacity="0.2" d="M91.018 186.856L89.6788 191.911H85.3828L86.8276 186.453L91.018 186.856Z" fill="black"/>
<path opacity="0.2" d="M67.2415 179.152L71.0047 181.125L68.7007 185.69L64.9375 183.717L67.2415 179.152Z" fill="black"/>
<path d="M105.917 84.2003C105.917 84.2003 107.769 85.0115 101.558 109.588L84.307 108.095C85.2046 101.101 85.5838 96.7715 83.4766 82.0691C85.9358 81.7811 88.4126 81.6704 90.8878 81.7379C93.5117 81.7776 96.1295 82.0038 98.7214 82.4147C101.148 82.888 103.55 83.484 105.917 84.2003Z" fill="#BD668D"/>
<path opacity="0.7" d="M105.917 84.2003C105.917 84.2003 107.769 85.0115 101.558 109.588L84.307 108.095C85.2046 101.101 85.5838 96.7715 83.4766 82.0691C85.9358 81.7811 88.4126 81.6704 90.8878 81.7379C93.5117 81.7776 96.1295 82.0038 98.7214 82.4147C101.148 82.888 103.55 83.484 105.917 84.2003Z" fill="white"/>
<path d="M90.8871 81.6016C90.8871 81.6016 89.9271 81.6016 88.7511 81.6016C88.0551 82.672 90.9927 85.7968 94.7271 88.8688C95.6295 86.0704 97.0503 86.08 97.0503 86.08L90.8871 81.6016Z" fill="white"/>
<path d="M98.7155 82.3555C98.7155 82.3555 99.1523 82.4179 100.199 82.6579C100.89 83.7283 101.279 86.4067 99.2387 88.7395C98.4371 85.8595 97.0547 86.1187 97.0547 86.1187L98.7155 82.3555Z" fill="white"/>
<path d="M92.4266 72.9844C92.705 75.5476 92.7962 80.1844 90.8906 81.7396C90.8906 81.7396 92.9258 83.8228 97.0538 86.1172C100.049 84.0436 98.7242 82.4164 98.7242 82.4164C95.969 81.5044 96.2234 79.426 96.881 77.506L92.4266 72.9844Z" fill="#FFB573"/>
<path opacity="0.2" d="M94.247 74.832L96.8822 77.5056C96.7205 77.95 96.5985 78.4078 96.5175 78.8736C95.4615 78.6288 93.9255 77.5248 93.9062 76.392C93.9246 75.8557 94.0401 75.3272 94.247 74.832Z" fill="black"/>
<path d="M102.323 64.6211C104.089 66.1859 104.608 69.9971 102.928 72.5843C102.423 69.9616 102.22 67.2899 102.323 64.6211Z" fill="#263238"/>
<path d="M91.8852 67.6038C91.578 71.823 91.362 73.6038 93.186 76.0374C95.9316 79.6998 101.183 79.1478 102.743 75.1062C104.149 71.463 104.413 65.175 100.54 62.9574C99.6884 62.4605 98.724 62.1904 97.7385 62.1728C96.7531 62.1552 95.7796 62.3908 94.9112 62.857C94.0429 63.3232 93.3087 64.0045 92.7789 64.8355C92.249 65.6666 91.9413 66.6198 91.8852 67.6038Z" fill="#FFB573"/>
<path d="M91.3266 71.0019C94.4466 70.8819 96.1746 66.8019 95.3922 65.0787C98.9298 66.9219 104.287 68.3715 103.691 66.0003C102.89 62.7987 99.0162 60.4515 94.2498 62.1603C91.4898 63.3603 89.1282 66.0003 91.3266 71.0019Z" fill="#263238"/>
<path d="M90.3788 70.9978C90.5121 71.8045 90.9568 72.5268 91.6172 73.009C92.5004 73.6378 93.3068 72.937 93.3692 71.9146C93.4268 70.9882 93.038 69.5482 92.0012 69.3274C91.7741 69.2823 91.5394 69.2947 91.3184 69.3635C91.0974 69.4324 90.8971 69.5554 90.7359 69.7215C90.5746 69.8875 90.4574 70.0913 90.3951 70.3142C90.3327 70.5371 90.3271 70.7721 90.3788 70.9978Z" fill="#FFB573"/>
<path d="M101.563 109.591C101.563 109.591 105.466 135.055 103.291 151.413C101.645 163.773 91.0226 190.442 91.0226 190.442L84.125 190.255C84.125 190.255 91.2482 164.407 92.7218 154.255C95.2418 136.869 88.9298 108.516 88.9298 108.516L101.563 109.591Z" fill="#263238"/>
<path opacity="0.2" d="M94.83 114.809L91.1484 120.612C92.257 127.493 92.9607 134.433 93.2556 141.396C98.43 132.132 96.0012 119.709 94.83 114.809Z" fill="black"/>
<path d="M92.0907 190.825L83.4219 190.59L83.9499 187.801L92.9067 187.854L92.0907 190.825Z" fill="#BD668D"/>
<path d="M97.7862 109.317C97.7862 109.317 94.9062 137.512 88.3254 152.853C83.0022 165.237 70.311 185.047 70.311 185.047L65.2422 182.08C65.2422 182.08 73.4022 160.053 77.4294 151.797C87.255 131.556 78.1158 115.317 84.3078 108.117L97.7862 109.317Z" fill="#263238"/>
<path d="M70.864 185.476L64.3984 181.929L65.4496 179.164L72.3376 183.052L70.864 185.476Z" fill="#BD668D"/>
<path d="M84.133 107.062L83.221 108.541C83.1538 108.651 83.2834 108.79 83.485 108.805L101.576 110.37C101.73 110.37 101.869 110.317 101.883 110.221L102.176 108.69C102.176 108.584 102.066 108.483 101.898 108.469L84.4258 106.957C84.3721 106.949 84.3171 106.954 84.266 106.972C84.2149 106.991 84.1692 107.022 84.133 107.062Z" fill="#BD668D"/>
<path d="M86.3172 109.219L85.8372 109.18C85.746 109.18 85.6788 109.118 85.6884 109.06L86.082 107.073C86.082 107.011 86.1828 106.972 86.274 106.982L86.754 107.02C86.85 107.02 86.9172 107.083 86.9028 107.14L86.514 109.128C86.4948 109.185 86.4036 109.228 86.3172 109.219Z" fill="#263238"/>
<path d="M100.248 110.426L99.7679 110.387C99.6719 110.387 99.6047 110.325 99.6191 110.267L100.013 108.28C100.013 108.222 100.109 108.179 100.2 108.189L100.68 108.227C100.771 108.227 100.838 108.29 100.829 108.347L100.435 110.334C100.426 110.402 100.32 110.435 100.248 110.426Z" fill="#263238"/>
<path d="M93.2781 109.825L92.7981 109.782C92.7069 109.782 92.6398 109.719 92.6494 109.662L93.0429 107.675C93.0429 107.617 93.139 107.574 93.235 107.583L93.715 107.627C93.8062 107.627 93.8734 107.689 93.8638 107.747L93.4701 109.734C93.4605 109.791 93.3741 109.83 93.2781 109.825Z" fill="#263238"/>
<path d="M98.5014 69.7006C98.4534 70.0414 98.5974 70.3438 98.8182 70.3726C99.039 70.4014 99.2598 70.1518 99.2982 69.811C99.3366 69.4702 99.1974 69.1678 98.9766 69.139C98.7558 69.1102 98.5446 69.3598 98.5014 69.7006Z" fill="#263238"/>
<path d="M102.344 70.2201C102.3 70.5609 102.444 70.8633 102.665 70.8921C102.886 70.9209 103.107 70.6713 103.145 70.3305C103.184 69.9897 103.049 69.6873 102.828 69.6585C102.608 69.6297 102.392 69.8793 102.344 70.2201Z" fill="#263238"/>
<path d="M102.719 69.6639L103.573 69.5391C103.573 69.5391 103.074 70.1199 102.719 69.6639Z" fill="#263238"/>
<path d="M100.837 70.5938C101.037 71.411 101.347 72.1974 101.759 72.9313C101.569 73.0323 101.359 73.0906 101.145 73.1022C100.93 73.1138 100.715 73.0784 100.516 72.9985L100.837 70.5938Z" fill="#ED893E"/>
<path d="M98.5208 74.0156C97.8457 73.7956 97.2794 73.3272 96.9368 72.7052C96.9282 72.6854 96.9274 72.663 96.9345 72.6425C96.9416 72.6221 96.9561 72.6051 96.9752 72.5948C96.9956 72.5848 97.0191 72.5832 97.0407 72.5904C97.0622 72.5976 97.0801 72.613 97.0904 72.6332C97.3037 73.0072 97.6022 73.3255 97.9616 73.5624C98.3211 73.7993 98.7314 73.948 99.1592 73.9964C99.1808 73.9964 99.2016 74.005 99.2169 74.0203C99.2322 74.0356 99.2408 74.0564 99.2408 74.078C99.2408 74.0997 99.2322 74.1204 99.2169 74.1357C99.2016 74.151 99.1808 74.1596 99.1592 74.1596C98.9417 74.1356 98.7275 74.0873 98.5208 74.0156Z" fill="#263238"/>
<path d="M96.747 67.7294C96.7191 67.7179 96.6944 67.6998 96.675 67.6766C96.6592 67.6614 96.6466 67.6431 96.638 67.6229C96.6294 67.6027 96.625 67.581 96.625 67.559C96.625 67.5371 96.6294 67.5153 96.638 67.4951C96.6466 67.4749 96.6592 67.4567 96.675 67.4414C96.9102 67.2311 97.193 67.081 97.499 67.0041C97.805 66.9272 98.1251 66.9257 98.4318 66.9998C98.4528 67.0059 98.4724 67.016 98.4893 67.0298C98.5063 67.0435 98.5204 67.0605 98.5307 67.0797C98.5409 67.099 98.5473 67.1201 98.5493 67.1418C98.5513 67.1635 98.5489 67.1854 98.5422 67.2062C98.5299 67.2488 98.5014 67.2847 98.4627 67.3063C98.4241 67.3278 98.3785 67.3333 98.3358 67.3214C98.0833 67.2652 97.8211 67.2699 97.5707 67.335C97.3203 67.4001 97.089 67.5238 96.8958 67.6958C96.8749 67.7118 96.8508 67.7231 96.8251 67.7289C96.7994 67.7347 96.7728 67.7349 96.747 67.7294Z" fill="#263238"/>
<path d="M103.967 68.7513C103.942 68.7415 103.919 68.7268 103.9 68.7081C103.732 68.5106 103.519 68.3556 103.28 68.2555C103.04 68.1554 102.781 68.1132 102.522 68.1321C102.5 68.137 102.478 68.1371 102.456 68.1326C102.434 68.128 102.413 68.1189 102.395 68.1057C102.377 68.0926 102.362 68.0757 102.35 68.0563C102.339 68.0368 102.332 68.0152 102.33 67.9929C102.323 67.949 102.334 67.9041 102.36 67.8682C102.386 67.8322 102.425 67.808 102.469 67.8009C102.783 67.7727 103.098 67.8199 103.39 67.9384C103.681 68.057 103.94 68.2436 104.145 68.4825C104.168 68.5102 104.182 68.5448 104.184 68.5809C104.186 68.6171 104.176 68.653 104.156 68.6832C104.136 68.7135 104.107 68.7364 104.073 68.7487C104.039 68.761 104.002 68.7619 103.967 68.7513Z" fill="#263238"/>
<path d="M107.759 104.967C108.07 103.998 108.568 103.101 109.226 102.325C109.883 101.55 110.687 100.911 111.592 100.446C112.496 99.9816 113.483 99.6994 114.497 99.6159C115.51 99.5325 116.53 99.6495 117.498 99.9603C118.466 100.271 119.364 100.769 120.14 101.427C120.915 102.085 121.554 102.889 122.018 103.793C122.483 104.697 122.766 105.684 122.849 106.698C122.932 107.711 122.815 108.731 122.505 109.699L119.519 119.04L104.773 114.303L107.759 104.967Z" fill="#BD668D"/>
<path opacity="0.3" d="M107.759 104.967C108.07 103.998 108.568 103.101 109.226 102.325C109.883 101.55 110.687 100.911 111.592 100.446C112.496 99.9816 113.483 99.6994 114.497 99.6159C115.51 99.5325 116.53 99.6495 117.498 99.9603C118.466 100.271 119.364 100.769 120.14 101.427C120.915 102.085 121.554 102.889 122.018 103.793C122.483 104.697 122.766 105.684 122.849 106.698C122.932 107.711 122.815 108.731 122.505 109.699L119.519 119.04L104.773 114.303L107.759 104.967Z" fill="black"/>
<path d="M93.214 100.293L90.5164 108.693C90.4769 108.813 90.4617 108.941 90.4718 109.067C90.4818 109.194 90.5168 109.317 90.5749 109.43C90.6329 109.543 90.7128 109.643 90.8099 109.725C90.9069 109.807 91.0193 109.869 91.1404 109.907L104.772 114.285L107.768 104.963C108.396 103.009 109.774 101.385 111.6 100.447C113.425 99.5097 115.548 99.3348 117.502 99.9614L102.953 95.2862C100.998 94.661 98.8742 94.837 97.0484 95.7755C95.2226 96.7141 93.8436 98.3386 93.214 100.293Z" fill="#BD668D"/>
<path d="M100.528 106.662L104.286 94.9639C104.299 94.9219 104.303 94.8776 104.297 94.8341C104.291 94.7905 104.276 94.7487 104.253 94.7114C104.23 94.6741 104.199 94.6422 104.162 94.6178C104.126 94.5935 104.085 94.5773 104.041 94.5703L100.201 94.0039L99.7212 95.5207L102.52 96.4183L99.3516 106.278L100.528 106.662Z" fill="#263238"/>
<path d="M98.5295 106.017C98.4427 106.288 98.4382 106.578 98.5166 106.852C98.5949 107.126 98.7526 107.37 98.9697 107.554C99.1868 107.738 99.4536 107.854 99.7364 107.886C100.019 107.919 100.305 107.867 100.558 107.737C100.812 107.607 101.021 107.405 101.159 107.156C101.298 106.907 101.359 106.623 101.336 106.339C101.313 106.056 101.207 105.785 101.03 105.562C100.854 105.339 100.615 105.173 100.344 105.085C100.164 105.027 99.9736 105.005 99.7848 105.02C99.5959 105.036 99.412 105.088 99.2434 105.175C99.0749 105.261 98.925 105.38 98.8025 105.524C98.68 105.669 98.5872 105.836 98.5295 106.017Z" fill="#263238"/>
<path d="M105.482 115.679L124.394 121.751C124.462 121.774 124.535 121.782 124.607 121.776C124.679 121.771 124.749 121.751 124.813 121.718C124.878 121.685 124.935 121.639 124.981 121.584C125.028 121.529 125.063 121.465 125.085 121.396C125.108 121.327 125.117 121.255 125.112 121.183C125.106 121.11 125.086 121.04 125.053 120.976C125.02 120.911 124.974 120.854 124.919 120.807C124.863 120.761 124.799 120.726 124.73 120.705L104.771 114.297C104.682 114.574 104.707 114.876 104.84 115.135C104.974 115.394 105.204 115.59 105.482 115.679Z" fill="#BD668D"/>
<path opacity="0.2" d="M105.482 115.679L113.21 118.161C113.279 118.183 113.352 118.192 113.424 118.186C113.496 118.181 113.567 118.161 113.631 118.128C113.696 118.095 113.754 118.049 113.801 117.994C113.848 117.939 113.883 117.875 113.906 117.806C113.95 117.667 113.937 117.516 113.87 117.387C113.804 117.258 113.689 117.16 113.551 117.114L104.771 114.297C104.682 114.574 104.707 114.876 104.84 115.135C104.974 115.394 105.204 115.59 105.482 115.679Z" fill="black"/>
<path d="M85.5107 88.8493L85.2467 89.1421L84.9491 89.4829C84.7475 89.7133 84.5459 89.9629 84.3539 90.1981C83.9603 90.6781 83.5859 91.1917 83.2355 91.7101C81.7852 93.7631 80.6435 96.0174 79.8467 98.4013C79.6547 98.9965 79.4771 99.5917 79.3379 100.201C79.2899 100.379 79.2851 100.451 79.2611 100.533C79.2574 100.603 79.2574 100.673 79.2611 100.744C79.2534 100.819 79.2534 100.894 79.2611 100.969C79.2611 101.056 79.4243 101.257 79.8179 101.449C80.2911 101.662 80.7896 101.814 81.3011 101.901C82.5358 102.097 83.7859 102.179 85.0355 102.145C86.3411 102.145 87.6659 102.03 88.9907 101.891C90.3155 101.752 91.6595 101.579 92.9603 101.382L93.4835 103.461C90.8045 104.333 88.0478 104.945 85.2515 105.289C83.7793 105.481 82.2907 105.513 80.8115 105.385C79.9659 105.306 79.1355 105.109 78.3443 104.8C77.8698 104.609 77.4239 104.354 77.0195 104.041C76.5433 103.668 76.1508 103.199 75.8675 102.664C75.3799 101.66 75.2495 100.521 75.4979 99.4333C75.6131 98.6989 75.7811 97.9933 75.9779 97.2541C76.3546 95.8352 76.8558 94.4522 77.4755 93.1213C78.0969 91.7874 78.8207 90.5036 79.6403 89.2813C80.0531 88.6717 80.4947 88.0813 80.9555 87.5005C81.1907 87.2125 81.4355 86.9293 81.6755 86.6461L82.0643 86.2285C82.2035 86.0797 82.3139 85.9597 82.5059 85.7773L85.5107 88.8493Z" fill="#FFB573"/>
<path d="M91.9124 101.824L95.2724 100.043L95.4212 103.653C95.4212 103.653 93.0212 104.646 91.6484 103.552L91.9124 101.824Z" fill="#FFB573"/>
<path d="M98.0382 99.7695L97.5342 103.096L95.4222 103.653L95.2734 100.043L98.0382 99.7695Z" fill="#FFB573"/>
<path d="M83.4768 82.0793C81.36 82.4537 78.3984 88.5209 78.3984 88.5209L83.7312 93.3209C83.7312 93.3209 87.9696 88.6937 87.744 85.9385C87.552 83.6105 86.1696 81.5993 83.4768 82.0793Z" fill="#BD668D"/>
<path opacity="0.7" d="M83.4768 82.0793C81.36 82.4537 78.3984 88.5209 78.3984 88.5209L83.7312 93.3209C83.7312 93.3209 87.9696 88.6937 87.744 85.9385C87.552 83.6105 86.1696 81.5993 83.4768 82.0793Z" fill="white"/>
<path d="M69.1911 190.109C69.1354 190.116 69.0789 190.116 69.0231 190.109C68.4903 190.08 67.9239 189.264 67.6311 188.784C67.622 188.77 67.6172 188.755 67.6172 188.738C67.6172 188.722 67.622 188.706 67.6311 188.693C67.6399 188.679 67.6531 188.668 67.6687 188.661C67.6843 188.655 67.7014 188.655 67.7175 188.659C67.8903 188.693 69.3831 189.029 69.5703 189.533C69.5898 189.588 69.5947 189.646 69.5846 189.704C69.5745 189.761 69.5497 189.814 69.5127 189.859C69.4359 189.975 69.3229 190.063 69.1911 190.109ZM67.8807 188.89C68.3079 189.547 68.7303 189.941 69.0327 189.96C69.1016 189.961 69.1696 189.945 69.2302 189.912C69.2908 189.879 69.3418 189.831 69.3783 189.773C69.399 189.752 69.4132 189.725 69.4192 189.696C69.4251 189.667 69.4226 189.637 69.4119 189.61C69.2967 189.302 68.3991 189.014 67.8807 188.89Z" fill="#BD668D"/>
<path d="M69.0434 188.784C68.6008 188.906 68.1364 188.926 67.685 188.842C67.6709 188.837 67.6581 188.829 67.648 188.818C67.6379 188.807 67.6308 188.794 67.6274 188.78C67.6207 188.767 67.6172 188.753 67.6172 188.739C67.6172 188.725 67.6207 188.711 67.6274 188.698C67.6658 188.664 68.5394 187.81 69.149 187.853C69.2244 187.854 69.2984 187.873 69.3651 187.908C69.4318 187.943 69.4893 187.993 69.533 188.055C69.5855 188.111 69.6177 188.183 69.6246 188.259C69.6316 188.336 69.6129 188.412 69.5714 188.477C69.4336 188.634 69.2482 188.742 69.0434 188.784ZM67.8866 188.708C68.3666 188.775 69.2642 188.655 69.4514 188.381C69.4802 188.338 69.5042 188.271 69.4178 188.16C69.3888 188.118 69.3502 188.084 69.3051 188.059C69.26 188.035 69.2098 188.022 69.1586 188.021C68.741 187.992 68.1362 188.482 67.8866 188.708Z" fill="#BD668D"/>
<path d="M90.8691 196.027C90.405 196.016 89.9433 195.956 89.4915 195.849C89.4757 195.843 89.462 195.833 89.4524 195.819C89.4427 195.805 89.4375 195.789 89.4375 195.772C89.4375 195.755 89.4427 195.739 89.4524 195.725C89.462 195.712 89.4757 195.701 89.4915 195.695C89.6979 195.595 91.5363 194.735 91.9971 195.062C92.0387 195.09 92.0718 195.129 92.0929 195.175C92.114 195.221 92.1224 195.271 92.1171 195.321C92.1149 195.415 92.0913 195.507 92.048 195.59C92.0047 195.673 91.943 195.745 91.8675 195.801C91.5664 195.979 91.2173 196.057 90.8691 196.027ZM89.7795 195.739C90.3219 195.839 91.3299 195.974 91.7475 195.662C91.8011 195.62 91.845 195.567 91.8764 195.506C91.9079 195.446 91.9261 195.379 91.9299 195.311C91.9341 195.29 91.9318 195.268 91.9232 195.249C91.9146 195.229 91.9002 195.212 91.8819 195.201C91.6227 195.023 90.5379 195.403 89.7651 195.739H89.7795Z" fill="#BD668D"/>
<path d="M89.5049 195.839C89.4876 195.844 89.4694 195.844 89.4521 195.839C89.4405 195.829 89.4318 195.815 89.4268 195.8C89.4218 195.785 89.4206 195.769 89.4233 195.753C89.4233 195.676 89.8601 193.867 90.8633 193.982C91.1129 194.015 91.1801 194.135 91.1945 194.236C91.2569 194.716 90.1001 195.623 89.5481 195.854L89.5049 195.839ZM90.7625 194.126C90.1289 194.126 89.7593 195.182 89.6345 195.604C90.2345 195.287 91.0745 194.534 91.0217 194.241C91.0217 194.217 91.0217 194.15 90.8345 194.131L90.7625 194.126Z" fill="#BD668D"/>
<path d="M98.8828 69.1443L99.7324 69.0195C99.7324 69.0195 99.2284 69.6003 98.8828 69.1443Z" fill="#263238"/>
<path d="M128.417 109.298L109.832 113.138C109.514 113.197 109.185 113.13 108.916 112.951C108.647 112.771 108.459 112.494 108.392 112.178L107.523 108.146L107.211 106.658L107.758 104.958C107.834 104.714 107.926 104.476 108.032 104.243C108.044 104.206 108.06 104.171 108.08 104.138C108.386 103.438 108.799 102.791 109.304 102.218L110.264 102.016L126.2 98.7088C126.518 98.6491 126.846 98.7161 127.115 98.8955C127.384 99.0749 127.573 99.3524 127.64 99.6688L129.334 107.829C129.404 108.145 129.346 108.476 129.175 108.75C129.004 109.025 128.732 109.221 128.417 109.298Z" fill="#FFD780"/>
<path opacity="0.3" d="M127.492 99.2384L118.526 108.358L116.606 107.581L109.137 104.552L108.086 104.125C108.393 103.425 108.805 102.778 109.31 102.205L110.27 102.003L126.206 98.696C126.45 98.6472 126.703 98.6728 126.932 98.7695C127.162 98.8662 127.357 99.0296 127.492 99.2384Z" fill="black"/>
<path d="M127.493 99.2399L116.607 107.597L115.897 108.144L109.057 104.75L108.039 104.27C108.051 104.233 108.067 104.198 108.087 104.165C108.394 103.465 108.807 102.818 109.311 102.245L110.271 102.043L126.207 98.7359C126.447 98.6832 126.698 98.703 126.927 98.7927C127.156 98.8824 127.353 99.038 127.493 99.2399Z" fill="#FFD780"/>
<path opacity="0.2" d="M127.493 99.2399L116.607 107.597L115.897 108.144L109.057 104.75L108.039 104.27C108.051 104.233 108.067 104.198 108.087 104.165C108.394 103.465 108.807 102.818 109.311 102.245L110.271 102.043L126.207 98.7359C126.447 98.6832 126.698 98.703 126.927 98.7927C127.156 98.8824 127.353 99.038 127.493 99.2399Z" fill="white"/>
<path d="M151.104 126.134L145.44 132.24C145.217 132.478 144.908 132.618 144.582 132.629C144.256 132.641 143.938 132.523 143.698 132.302L129.807 119.366C129.567 119.143 129.427 118.834 129.415 118.508C129.403 118.181 129.522 117.863 129.744 117.624L135.427 111.518C135.537 111.398 135.67 111.302 135.818 111.234C135.966 111.166 136.125 111.128 136.288 111.122C136.45 111.116 136.613 111.143 136.765 111.2C136.917 111.257 137.056 111.344 137.175 111.456L151.061 124.392C151.241 124.559 151.367 124.776 151.422 125.016C151.478 125.255 151.461 125.506 151.373 125.736C151.313 125.886 151.221 126.022 151.104 126.134Z" fill="#FFD780"/>
<path opacity="0.3" d="M151.355 125.759L138.722 123.7L135.789 111.22C136.013 111.117 136.262 111.082 136.506 111.121C136.749 111.159 136.976 111.269 137.157 111.436L151.043 124.372C151.232 124.543 151.364 124.768 151.419 125.016C151.475 125.264 151.453 125.524 151.355 125.759Z" fill="black"/>
<path d="M151.355 125.759L139.053 122.092L135.789 111.263C136.013 111.16 136.262 111.125 136.506 111.164C136.749 111.202 136.976 111.312 137.157 111.479L151.043 124.415C151.223 124.582 151.349 124.8 151.405 125.039C151.461 125.279 151.443 125.529 151.355 125.759Z" fill="#FFD780"/>
<path opacity="0.2" d="M151.355 125.759L139.053 122.092L135.789 111.263C136.013 111.16 136.262 111.125 136.506 111.164C136.749 111.202 136.976 111.312 137.157 111.479L151.043 124.415C151.223 124.582 151.349 124.8 151.405 125.039C151.461 125.279 151.443 125.529 151.355 125.759Z" fill="white"/>
<path d="M156.044 136.191L162.284 143.477C162.404 143.616 162.493 143.779 162.548 143.954C162.602 144.129 162.62 144.313 162.601 144.496C162.582 144.678 162.525 144.855 162.435 145.015C162.345 145.175 162.224 145.314 162.078 145.426L148.523 155.986C148.295 156.123 148.024 156.17 147.764 156.119C147.503 156.067 147.27 155.921 147.112 155.707L142.23 150.139C142.138 150.032 142.062 149.913 142.004 149.784C141.914 149.608 141.876 149.409 141.896 149.211C141.915 149.014 141.991 148.826 142.115 148.671L154.115 136.138C154.302 135.935 154.55 135.797 154.821 135.746C155.092 135.694 155.373 135.73 155.622 135.85C155.783 135.936 155.927 136.051 156.044 136.191Z" fill="#FFD780"/>
<path opacity="0.3" d="M155.626 135.863L152.646 149.121L142.028 149.797C141.937 149.621 141.9 149.422 141.919 149.224C141.939 149.027 142.015 148.839 142.138 148.684L154.138 136.151C154.324 135.952 154.568 135.817 154.836 135.766C155.103 135.714 155.38 135.748 155.626 135.863Z" fill="black"/>
<path d="M155.62 135.862L150.624 149.931L142.012 149.797C141.922 149.62 141.884 149.421 141.903 149.224C141.923 149.026 141.999 148.838 142.123 148.683L154.123 136.15C154.309 135.949 154.555 135.813 154.824 135.762C155.094 135.71 155.372 135.745 155.62 135.862Z" fill="#FFD780"/>
<path opacity="0.2" d="M155.62 135.862L150.624 149.931L142.012 149.797C141.922 149.62 141.884 149.421 141.903 149.224C141.923 149.026 141.999 148.838 142.123 148.683L154.123 136.15C154.309 135.949 154.555 135.813 154.824 135.762C155.094 135.71 155.372 135.745 155.62 135.862Z" fill="white"/>
</svg>
