<svg width="290" height="291" viewBox="0 0 290 291" fill="none" xmlns="http://www.w3.org/2000/svg">
<path d="M58.8892 251.28C106.71 276.272 184.25 276.272 232.071 251.28C279.892 226.288 279.892 185.74 232.071 160.765C184.25 135.79 106.71 135.767 58.8892 160.765C11.0682 185.763 11.0682 226.282 58.8892 251.28Z" fill="#F5F5F5"/>
<path d="M142.598 224.895L144.802 226.165C145.191 226.362 145.621 226.465 146.057 226.465C146.494 226.465 146.924 226.362 147.313 226.165L206.056 192.247C206.207 192.195 206.339 192.098 206.432 191.968C206.525 191.838 206.575 191.682 206.575 191.522C206.575 191.362 206.525 191.206 206.432 191.076C206.339 190.946 206.207 190.848 206.056 190.797L203.857 189.527C203.468 189.329 203.038 189.227 202.602 189.227C202.165 189.227 201.735 189.329 201.346 189.527L142.598 223.445C142.446 223.496 142.315 223.594 142.221 223.724C142.128 223.854 142.078 224.01 142.078 224.17C142.078 224.33 142.128 224.486 142.221 224.616C142.315 224.746 142.446 224.844 142.598 224.895Z" fill="#E0E0E0"/>
<path d="M238.306 220.12C231.033 224.012 219.236 224.012 211.963 220.12C204.69 216.229 204.69 209.924 211.963 206.032C219.236 202.14 231.033 202.14 238.306 206.032C245.58 209.924 245.58 216.258 238.306 220.12Z" fill="#E0E0E0"/>
<path d="M233.805 196.83C233.805 196.83 234.477 190.931 237.412 186.355C240.347 181.779 244.372 178.925 248.131 178.629C251.889 178.333 254.928 181.79 250.909 184.162C246.889 186.535 239.738 188.965 236.45 197.85L233.805 196.83Z" fill="#AF4A73"/>
<path opacity="0.1" d="M233.805 196.83C233.805 196.83 234.477 190.931 237.412 186.355C240.347 181.779 244.372 178.925 248.131 178.629C251.889 178.333 254.928 181.79 250.909 184.162C246.889 186.535 239.738 188.965 236.45 197.85L233.805 196.83Z" fill="black"/>
<path d="M234.901 195.298H234.86C234.836 195.289 234.813 195.274 234.794 195.256C234.775 195.237 234.76 195.215 234.75 195.191C234.74 195.167 234.734 195.141 234.734 195.114C234.734 195.088 234.74 195.062 234.75 195.037C238.717 185.264 246.269 181.181 249.708 180.392C249.734 180.386 249.76 180.385 249.786 180.389C249.812 180.393 249.837 180.403 249.859 180.416C249.882 180.43 249.901 180.448 249.916 180.469C249.932 180.49 249.943 180.515 249.949 180.54C249.955 180.566 249.956 180.592 249.952 180.618C249.948 180.644 249.939 180.669 249.925 180.691C249.911 180.713 249.893 180.733 249.872 180.748C249.851 180.764 249.827 180.775 249.801 180.781C246.431 181.558 239.025 185.566 235.121 195.188C235.102 195.228 235.07 195.26 235.03 195.28C234.99 195.3 234.945 195.307 234.901 195.298Z" fill="white"/>
<path d="M254.999 195.414C254.657 196.18 253.839 196.574 253.039 196.893C252.239 197.212 251.415 197.543 250.992 198.274C250.145 199.735 251.537 201.8 250.626 203.227C250.413 203.512 250.144 203.75 249.836 203.929C249.528 204.107 249.187 204.222 248.834 204.265C248.254 204.375 247.674 204.37 247.094 204.422C246.815 204.415 246.536 204.394 246.259 204.358C245.445 204.176 244.593 204.265 243.834 204.613C242.674 205.269 242.309 206.742 241.601 207.873C241.165 208.544 240.587 209.112 239.909 209.537C239.231 209.963 238.469 210.236 237.675 210.338C236.998 210.476 236.297 210.43 235.645 210.204L235.535 210.135C235.461 210.057 235.391 209.976 235.326 209.891V209.856C235.117 209.097 235.454 208.302 235.471 207.536C235.474 207.49 235.474 207.443 235.471 207.397C235.442 206.481 235.413 205.576 235.396 204.665C235.349 202.989 235.332 201.307 235.343 199.631C235.343 198.546 235.222 197.352 235.686 196.325C236.196 195.2 237.466 195.165 237.942 194.069C238.133 193.622 238.238 193.152 238.423 192.706C238.711 192.051 239.173 191.489 239.76 191.08C240.346 190.671 241.033 190.431 241.746 190.386C243.962 190.276 245.946 192.068 248.161 191.905C248.731 191.826 249.296 191.717 249.855 191.581C251.647 191.244 253.723 191.755 254.733 193.274C254.947 193.583 255.083 193.939 255.13 194.311C255.176 194.684 255.132 195.063 254.999 195.414Z" fill="#AF4A73"/>
<path d="M235.094 206.353C235.07 206.347 235.047 206.336 235.027 206.321C235.007 206.306 234.99 206.287 234.978 206.266C234.965 206.244 234.957 206.22 234.954 206.195C234.951 206.17 234.954 206.145 234.961 206.121C238.017 194.637 250.116 192.979 252.941 193.182C252.965 193.183 252.99 193.189 253.012 193.201C253.035 193.212 253.054 193.227 253.071 193.246C253.087 193.265 253.099 193.287 253.107 193.311C253.114 193.335 253.117 193.36 253.115 193.385C253.114 193.409 253.108 193.433 253.098 193.456C253.087 193.478 253.072 193.498 253.054 193.514C253.035 193.531 253.014 193.543 252.99 193.551C252.967 193.558 252.942 193.561 252.917 193.559C250.145 193.361 238.313 194.985 235.32 206.22C235.307 206.267 235.276 206.307 235.234 206.332C235.191 206.356 235.142 206.364 235.094 206.353Z" fill="white"/>
<path d="M248.535 200.535C248.498 200.529 248.463 200.51 248.437 200.483C247.318 199.515 246.001 198.806 244.577 198.405C243.154 198.004 241.66 197.921 240.201 198.163C240.176 198.167 240.151 198.167 240.127 198.161C240.103 198.155 240.08 198.145 240.06 198.13C240.04 198.116 240.023 198.097 240.011 198.076C239.998 198.055 239.99 198.031 239.986 198.007C239.979 197.957 239.993 197.906 240.023 197.866C240.054 197.826 240.099 197.799 240.148 197.792C241.665 197.541 243.218 197.629 244.697 198.048C246.176 198.467 247.544 199.207 248.703 200.216C248.73 200.245 248.747 200.282 248.752 200.321C248.757 200.361 248.75 200.4 248.732 200.435C248.713 200.47 248.685 200.499 248.649 200.517C248.614 200.534 248.574 200.541 248.535 200.535Z" fill="white"/>
<path d="M154.463 142.247V148.047L54.3721 205.82L51.2923 207.56C50.5931 207.086 50.0156 206.453 49.6065 205.713C49.1974 204.973 48.9682 204.148 48.9375 203.303V106.008C48.9442 105.834 48.9941 105.665 49.0825 105.515C49.1696 105.362 49.2931 105.232 49.4421 105.138L72.2535 91.9665C72.5319 91.8099 74.1559 92.4885 74.4227 92.6509L74.5967 92.7495C74.7475 92.8461 74.8825 92.9654 74.9969 93.1033C75.1247 93.2428 75.2232 93.4065 75.2869 93.5847L77.3517 99.5471L151.592 55.3163C151.744 55.2456 151.911 55.209 152.079 55.209C152.247 55.209 152.413 55.2456 152.566 55.3163L153.946 56.1167C154.094 56.2089 154.215 56.3365 154.3 56.4879C154.391 56.6386 154.441 56.8106 154.445 56.9867V142.247H154.463Z" fill="#263238"/>
<path d="M154.467 148.024L51.2969 207.561V106.786L75.0015 93.1035C75.1292 93.2431 75.2278 93.4067 75.2915 93.5849L77.3563 99.5473L77.7507 100.678L154.311 56.4707C154.402 56.6215 154.452 56.7934 154.456 56.9695L154.467 148.024Z" fill="#37474F"/>
<path d="M75.0003 93.1045L51.2957 106.787L49.0859 105.516C49.173 105.363 49.2965 105.234 49.4455 105.139L72.2569 91.9677C72.4103 91.8888 72.5803 91.8477 72.7528 91.8477C72.9253 91.8477 73.0953 91.8888 73.2487 91.9677L74.6001 92.7449C74.7514 92.8433 74.8864 92.9646 75.0003 93.1045Z" fill="#455A64"/>
<path d="M154.314 56.4705L77.7538 100.678L77.3594 99.5471L151.599 55.3163C151.752 55.2456 151.918 55.209 152.087 55.209C152.255 55.209 152.421 55.2456 152.574 55.3163L153.954 56.1167C154.101 56.2032 154.225 56.3248 154.314 56.4705Z" fill="#455A64"/>
<path d="M82.9949 166.595C82.6765 166.381 82.4133 166.094 82.2268 165.758C82.0403 165.423 81.9359 165.048 81.9219 164.664V68.8132C81.9448 68.416 82.0619 68.0299 82.2637 67.687C82.4654 67.3441 82.7458 67.0541 83.0819 66.8411L139.701 34.1872C140.031 33.9802 140.411 33.867 140.8 33.8598C141.189 33.8525 141.572 33.9514 141.909 34.1458C142.246 34.3403 142.524 34.6229 142.712 34.9633C142.901 35.3038 142.993 35.6891 142.978 36.078V131.929C142.955 132.326 142.837 132.711 142.635 133.054C142.434 133.397 142.154 133.687 141.818 133.901L85.2047 166.555C84.8656 166.735 84.4887 166.833 84.1046 166.84C83.7206 166.847 83.3403 166.763 82.9949 166.595Z" fill="#FAFAFA"/>
<path d="M85.2049 166.555L141.824 133.901C142.16 133.687 142.44 133.397 142.641 133.054C142.843 132.711 142.961 132.326 142.984 131.929V36.0779C142.984 35.3529 142.474 35.0571 141.824 35.4167L85.1991 68.0765C84.8637 68.2902 84.5837 68.5803 84.3821 68.9231C84.1804 69.2659 84.0629 69.6515 84.0391 70.0485V165.899C84.0623 166.624 84.5727 166.92 85.2049 166.555Z" fill="#F0F0F0"/>
<path d="M91.4018 71.8806L134.159 47.1958C134.71 46.8768 135.163 47.132 135.163 47.7758V48.176C135.143 48.5242 135.042 48.863 134.868 49.1652C134.694 49.4673 134.451 49.7245 134.159 49.916L91.4018 74.6008C90.8218 74.9198 90.3984 74.6588 90.3984 74.0208V73.6206C90.4173 73.2721 90.5179 72.933 90.6922 72.6307C90.8666 72.3284 91.1097 72.0714 91.4018 71.8806Z" fill="#E0E0E0"/>
<path d="M91.4018 78.6725L134.159 53.9877C134.71 53.6687 135.163 53.9297 135.163 54.5677V54.9679C135.144 55.3164 135.043 55.6555 134.869 55.9578C134.695 56.2601 134.452 56.5171 134.159 56.7079L91.4018 81.3927C90.8218 81.7117 90.3984 81.4507 90.3984 80.8127V80.4125C90.4182 80.0643 90.5192 79.7255 90.6935 79.4233C90.8677 79.1212 91.1103 78.864 91.4018 78.6725Z" fill="#E0E0E0"/>
<path d="M91.4018 85.4655L134.159 60.7807C134.71 60.4617 135.163 60.7227 135.163 61.3607V61.7609C135.144 62.1093 135.043 62.4485 134.869 62.7508C134.695 63.0531 134.452 63.31 134.159 63.5009L91.4018 88.1857C90.8218 88.5105 90.3984 88.2495 90.3984 87.6057V87.2055C90.4182 86.8572 90.5192 86.5185 90.6935 86.2163C90.8677 85.9141 91.1103 85.657 91.4018 85.4655Z" fill="#E0E0E0"/>
<path d="M91.4018 92.2562L134.159 67.5772C134.71 67.2524 135.163 67.5134 135.163 68.1572V68.5574C135.143 68.9056 135.041 69.2442 134.867 69.5463C134.693 69.8484 134.451 70.1056 134.159 70.2974L91.4018 94.9822C90.8218 95.3012 90.3984 95.0402 90.3984 94.4022V93.9962C90.4186 93.6481 90.5199 93.3095 90.6941 93.0074C90.8683 92.7053 91.1106 92.4481 91.4018 92.2562Z" fill="#E0E0E0"/>
<path d="M91.4018 99.0544L134.159 74.3696C134.71 74.0506 135.163 74.3058 135.163 74.9496V75.3498C135.143 75.6981 135.042 76.0368 134.868 76.339C134.694 76.6412 134.451 76.8983 134.159 77.0898L91.4018 101.775C90.8218 102.094 90.3984 101.833 90.3984 101.195V100.794C90.4173 100.446 90.5179 100.107 90.6922 99.8045C90.8666 99.5022 91.1097 99.2452 91.4018 99.0544Z" fill="#E0E0E0"/>
<path d="M91.4018 105.899L134.159 81.214C134.71 80.8892 135.163 81.1502 135.163 81.794V82.1942C135.143 82.5423 135.041 82.8809 134.867 83.183C134.693 83.4851 134.451 83.7423 134.159 83.9342L91.4018 108.619C90.8218 108.938 90.3984 108.677 90.3984 108.039V107.639C90.4173 107.29 90.5179 106.951 90.6922 106.649C90.8666 106.347 91.1097 106.09 91.4018 105.899Z" fill="#E0E0E0"/>
<path d="M91.4018 112.689L134.159 88.0044C134.71 87.6854 135.163 87.9406 135.163 88.5844V88.9846C135.143 89.3328 135.042 89.6716 134.868 89.9738C134.694 90.2759 134.451 90.5331 134.159 90.7246L91.4018 115.409C90.8218 115.728 90.3984 115.467 90.3984 114.829V114.429C90.4173 114.081 90.5179 113.742 90.6922 113.439C90.8666 113.137 91.1097 112.88 91.4018 112.689Z" fill="#E0E0E0"/>
<path d="M91.4018 119.481L134.159 94.7963C134.71 94.4773 135.163 94.7383 135.163 95.3763V95.7765C135.144 96.125 135.043 96.4641 134.869 96.7664C134.695 97.0687 134.452 97.3257 134.159 97.5165L91.4018 122.201C90.8218 122.52 90.3984 122.265 90.3984 121.621V121.221C90.4182 120.873 90.5192 120.534 90.6935 120.232C90.8677 119.93 91.1103 119.673 91.4018 119.481Z" fill="#E0E0E0"/>
<path d="M91.4018 126.274L134.159 101.589C134.71 101.27 135.163 101.531 135.163 102.169V102.581C135.144 102.93 135.043 103.269 134.869 103.571C134.695 103.873 134.452 104.13 134.159 104.321L91.4018 129.006C90.8218 129.331 90.3984 129.07 90.3984 128.426V128.026C90.4168 127.676 90.5172 127.335 90.6915 127.03C90.8658 126.726 91.1091 126.467 91.4018 126.274Z" fill="#E0E0E0"/>
<path d="M91.4018 133.073L134.159 108.382C134.71 108.057 135.163 108.318 135.163 108.962V109.362C135.143 109.71 135.041 110.049 134.867 110.351C134.693 110.653 134.451 110.91 134.159 111.102L91.4018 135.787C90.8218 136.106 90.3984 135.845 90.3984 135.207V134.807C90.4182 134.459 90.5192 134.121 90.6935 133.82C90.8678 133.519 91.1104 133.263 91.4018 133.073Z" fill="#E0E0E0"/>
<path d="M91.4018 139.891L134.159 115.206C134.71 114.887 135.163 115.148 135.163 115.786V116.187C135.143 116.535 135.042 116.874 134.868 117.176C134.694 117.478 134.451 117.735 134.159 117.927L91.4018 142.6C90.8218 142.919 90.3984 142.658 90.3984 142.02V141.62C90.419 141.273 90.5205 140.936 90.6948 140.636C90.869 140.336 91.1112 140.081 91.4018 139.891Z" fill="#E0E0E0"/>
<path d="M91.4018 146.661L134.159 121.976C134.71 121.657 135.163 121.918 135.163 122.556V122.956C135.144 123.305 135.043 123.644 134.869 123.946C134.695 124.248 134.452 124.505 134.159 124.696L91.4018 149.381C90.8218 149.7 90.3984 149.445 90.3984 148.801V148.401C90.4182 148.053 90.5192 147.714 90.6935 147.412C90.8677 147.109 91.1103 146.852 91.4018 146.661Z" fill="#E0E0E0"/>
<path d="M91.4018 153.477L134.159 128.792C134.71 128.473 135.163 128.734 135.163 129.372V129.778C135.143 130.127 135.041 130.465 134.867 130.767C134.693 131.069 134.451 131.327 134.159 131.518L91.4018 156.197C90.8218 156.522 90.3984 156.261 90.3984 155.617V155.217C90.4186 154.869 90.5199 154.53 90.6941 154.228C90.8683 153.926 91.1106 153.669 91.4018 153.477Z" fill="#E0E0E0"/>
<path d="M85.0577 166.63C84.7268 166.806 84.3554 166.891 83.9809 166.878C83.6065 166.864 83.2422 166.752 82.925 166.552C82.6078 166.353 82.3489 166.073 82.1745 165.741C82 165.41 81.9162 165.038 81.9315 164.664V68.8186C81.9455 68.4217 82.0592 68.0347 82.2621 67.6934L84.4023 68.9288C84.1964 69.2671 84.0806 69.6524 84.0659 70.0482V165.899C84.0659 166.566 84.5009 166.868 85.0577 166.63Z" fill="#E0E0E0"/>
<path d="M91.0105 171.142C90.6921 170.928 90.4289 170.641 90.2424 170.305C90.056 169.97 89.9515 169.595 89.9375 169.211V73.36C89.9604 72.9628 90.0776 72.5768 90.2793 72.2339C90.481 71.891 90.7615 71.601 91.0975 71.388L147.717 38.734C148.047 38.5271 148.426 38.4139 148.815 38.4066C149.204 38.3993 149.588 38.4982 149.925 38.6927C150.262 38.8871 150.54 39.1698 150.728 39.5102C150.916 39.8507 151.008 40.236 150.994 40.6248V136.476C150.97 136.873 150.853 137.258 150.651 137.601C150.449 137.944 150.169 138.234 149.834 138.448L93.2145 171.102C92.8762 171.281 92.5003 171.378 92.1174 171.385C91.7344 171.393 91.3552 171.309 91.0105 171.142Z" fill="#FAFAFA"/>
<path d="M93.2205 171.102L149.84 138.448C150.175 138.234 150.455 137.944 150.657 137.601C150.859 137.258 150.976 136.873 151 136.476V40.6248C151 39.8998 150.49 39.604 149.84 39.9636L93.2147 72.6234C92.8793 72.8371 92.5993 73.1272 92.3977 73.47C92.1961 73.8127 92.0785 74.1984 92.0547 74.5954V170.44C92.0779 171.171 92.5883 171.467 93.2205 171.102Z" fill="#F0F0F0"/>
<path d="M99.4175 76.4275L142.175 51.7427C142.755 51.4237 143.178 51.6789 143.178 52.3227V52.6997C143.159 53.0479 143.058 53.3867 142.883 53.6888C142.709 53.991 142.467 54.2481 142.175 54.4397L99.4175 79.1477C98.8375 79.4667 98.4141 79.2057 98.4141 78.5677V78.1675C98.4329 77.819 98.5335 77.4799 98.7079 77.1776C98.8822 76.8753 99.1253 76.6183 99.4175 76.4275Z" fill="#E0E0E0"/>
<path d="M99.4175 83.2194L142.175 58.5346C142.755 58.2156 143.178 58.4766 143.178 59.1146V59.5148C143.16 59.8632 143.059 60.2024 142.885 60.5047C142.71 60.807 142.467 61.064 142.175 61.2548L99.4175 85.9396C98.8375 86.2586 98.4141 86.0034 98.4141 85.3596V84.9594C98.4338 84.6111 98.5348 84.2724 98.7091 83.9702C98.8833 83.668 99.1259 83.4109 99.4175 83.2194Z" fill="#E0E0E0"/>
<path d="M99.4175 90.0124L142.175 65.3276C142.755 65.0086 143.178 65.2696 143.178 65.9076V66.3078C143.16 66.6562 143.059 66.9953 142.885 67.2976C142.71 67.5999 142.467 67.8569 142.175 68.0478L99.4175 92.721C98.8375 93.0458 98.4141 92.7848 98.4141 92.141V91.7408C98.4356 91.3945 98.5374 91.058 98.7116 90.758C98.8858 90.458 99.1275 90.2027 99.4175 90.0124Z" fill="#E0E0E0"/>
<path d="M99.4175 96.8089L142.175 72.1241C142.755 71.7993 143.178 72.0603 143.178 72.7041V73.1043C143.158 73.4525 143.057 73.7911 142.883 74.0932C142.709 74.3952 142.466 74.6525 142.175 74.8443L99.4175 99.5291C98.8375 99.8481 98.4141 99.5871 98.4141 98.9491V98.5489C98.4329 98.2005 98.5335 97.8613 98.7079 97.559C98.8822 97.2567 99.1253 96.9997 99.4175 96.8089Z" fill="#E0E0E0"/>
<path d="M99.4175 103.601L142.175 78.9165C142.755 78.5975 143.178 78.8527 143.178 79.4965V79.8967C143.159 80.2449 143.058 80.5837 142.883 80.8859C142.709 81.188 142.467 81.4452 142.175 81.6367L99.4175 106.321C98.8375 106.64 98.4141 106.379 98.4141 105.741V105.341C98.4329 104.993 98.5335 104.654 98.7079 104.351C98.8822 104.049 99.1253 103.792 99.4175 103.601Z" fill="#E0E0E0"/>
<path d="M99.4175 110.446L142.175 85.7608C142.755 85.436 143.178 85.697 143.178 86.3408V86.741C143.158 87.0892 143.057 87.4278 142.883 87.7299C142.709 88.032 142.466 88.2892 142.175 88.481L99.4175 113.166C98.8375 113.485 98.4141 113.224 98.4141 112.586V112.186C98.4329 111.837 98.5335 111.498 98.7079 111.196C98.8822 110.893 99.1253 110.636 99.4175 110.446Z" fill="#E0E0E0"/>
<path d="M99.4175 117.236L142.175 92.5513C142.755 92.2323 143.178 92.4875 143.178 93.1313V93.5314C143.159 93.8797 143.058 94.2185 142.883 94.5206C142.709 94.8228 142.467 95.0799 142.175 95.2714L99.4175 119.979C98.8375 120.298 98.4141 120.037 98.4141 119.399V118.999C98.4293 118.647 98.5282 118.303 98.7027 117.996C98.8772 117.69 99.1222 117.429 99.4175 117.236Z" fill="#E0E0E0"/>
<path d="M99.4175 124.04L142.175 99.3549C142.755 99.0359 143.178 99.2969 143.178 99.9349V100.335C143.16 100.684 143.059 101.023 142.885 101.325C142.71 101.627 142.467 101.884 142.175 102.075L99.4175 126.76C98.8375 127.079 98.4141 126.824 98.4141 126.18V125.78C98.4338 125.431 98.5348 125.093 98.7091 124.791C98.8833 124.488 99.1259 124.231 99.4175 124.04Z" fill="#E0E0E0"/>
<path d="M99.4175 130.821L142.175 106.136C142.755 105.817 143.178 106.078 143.178 106.716V107.116C143.16 107.465 143.059 107.804 142.885 108.106C142.71 108.409 142.467 108.666 142.175 108.856L99.4175 133.541C98.8375 133.866 98.4141 133.605 98.4141 132.961V132.561C98.4342 132.213 98.5355 131.874 98.7097 131.572C98.8839 131.27 99.1263 131.013 99.4175 130.821Z" fill="#E0E0E0"/>
<path d="M99.4175 137.618L142.175 112.933C142.755 112.608 143.178 112.869 143.178 113.513V113.913C143.158 114.261 143.057 114.6 142.883 114.902C142.709 115.204 142.466 115.461 142.175 115.653L99.4175 140.338C98.8375 140.657 98.4141 140.396 98.4141 139.758V139.358C98.4329 139.009 98.5335 138.67 98.7079 138.368C98.8822 138.065 99.1253 137.808 99.4175 137.618Z" fill="#E0E0E0"/>
<path d="M99.4175 144.438L142.175 119.753C142.755 119.434 143.178 119.695 143.178 120.333V120.734C143.16 121.082 143.059 121.421 142.885 121.723C142.71 122.026 142.467 122.283 142.175 122.474L99.4175 147.158C98.8375 147.477 98.4141 147.216 98.4141 146.578V146.178C98.4329 145.83 98.5335 145.491 98.7079 145.188C98.8822 144.886 99.1253 144.629 99.4175 144.438Z" fill="#E0E0E0"/>
<path d="M99.4175 151.231L142.175 126.546C142.755 126.227 143.178 126.488 143.178 127.126V127.521C143.16 127.869 143.059 128.208 142.885 128.511C142.71 128.813 142.467 129.07 142.175 129.261L99.4175 153.945C98.8375 154.264 98.4141 154.009 98.4141 153.365V152.965C98.4347 152.618 98.5361 152.28 98.7103 151.979C98.8846 151.678 99.1267 151.422 99.4175 151.231Z" fill="#E0E0E0"/>
<path d="M99.4175 158.022L142.175 133.32C142.755 133.001 143.178 133.262 143.178 133.9V134.306C143.158 134.654 143.057 134.992 142.883 135.295C142.709 135.597 142.466 135.854 142.175 136.046L99.4175 160.725C98.8375 161.05 98.4141 160.789 98.4141 160.145V159.745C98.4369 159.399 98.5394 159.064 98.7135 158.765C98.8875 158.467 99.1285 158.212 99.4175 158.022Z" fill="#E0E0E0"/>
<path d="M93.0733 171.177C92.7424 171.353 92.371 171.438 91.9965 171.424C91.6221 171.411 91.2578 171.299 90.9406 171.099C90.6235 170.9 90.3645 170.62 90.1901 170.288C90.0156 169.957 89.9318 169.585 89.9471 169.21V73.3654C89.9611 72.9686 90.0748 72.5816 90.2777 72.2402L92.4179 73.4756C92.212 73.8139 92.0962 74.1993 92.0815 74.595V170.44C92.0815 171.113 92.5165 171.414 93.0733 171.177Z" fill="#E0E0E0"/>
<path d="M175.539 68.3605L158.997 139.99L157.472 146.579C156.966 148.338 155.844 149.855 154.311 150.854L56.1631 207.497C55.4495 207.884 54.6545 208.096 53.8431 208.117C52.9613 208.179 52.0797 207.994 51.2969 207.584L51.8015 205.397L51.8537 205.182L52.4047 202.787L54.8059 192.393L70.0135 126.54C70.0342 126.456 70.0653 126.374 70.1063 126.297C70.1469 126.221 70.1933 126.146 70.2397 126.076V126.041C70.3447 125.9 70.4744 125.778 70.6225 125.682L154.461 77.2925L172.807 66.7017C172.963 66.6218 173.136 66.5801 173.311 66.5801C173.487 66.5801 173.66 66.6218 173.816 66.7017L175.167 67.4789C175.31 67.5719 175.422 67.7056 175.488 67.8627C175.555 68.0199 175.572 68.1933 175.539 68.3605Z" fill="#37474F"/>
<path d="M175.559 68.1923C175.559 67.9893 175.396 67.9255 175.17 68.0589L73.0032 127.045C72.8527 127.138 72.7225 127.26 72.6204 127.404L70.2656 126.041C70.3707 125.9 70.5003 125.778 70.6484 125.682L172.81 66.7017C172.966 66.6218 173.139 66.5801 173.314 66.5801C173.49 66.5801 173.663 66.6218 173.819 66.7017L175.17 67.4789C175.289 67.5568 175.386 67.6627 175.454 67.7871C175.521 67.9115 175.557 68.0506 175.559 68.1923Z" fill="#455A64"/>
<path d="M72.6177 127.406C72.5513 127.496 72.4931 127.591 72.4437 127.69C72.4127 127.758 72.3875 127.828 72.3683 127.899L57.8277 190.876L54.7653 204.146L54.3767 205.822L53.8431 208.142C52.9613 208.204 52.0797 208.019 51.2969 207.609L51.8015 205.422L51.8537 205.207L52.4047 202.812L54.8059 192.418L70.0135 126.565C70.0342 126.48 70.0653 126.399 70.1063 126.322C70.1469 126.246 70.1933 126.171 70.2397 126.101V126.066L72.6177 127.406Z" fill="#263238"/>
<path d="M54.8904 201.506C55.0121 201.576 55.1082 201.683 55.1645 201.811C55.2209 201.94 55.2346 202.083 55.2036 202.22L54.3742 205.822L53.9392 207.614C53.9041 207.763 53.8174 207.896 53.6944 207.988C53.5714 208.08 53.4199 208.127 53.2664 208.118C52.5701 208.103 51.8878 207.92 51.277 207.585C50.5778 207.11 50.0003 206.477 49.5912 205.737C49.1821 204.998 48.9529 204.172 48.9222 203.328V199.198C48.9184 199.082 48.946 198.966 49.002 198.864C49.0581 198.762 49.1405 198.677 49.2407 198.618C49.3409 198.559 49.4551 198.527 49.5716 198.527C49.688 198.527 49.8022 198.559 49.9024 198.618L50.9522 199.198C51.0523 199.258 51.135 199.343 51.192 199.445C51.249 199.546 51.2783 199.661 51.277 199.778V201.831C51.2706 201.995 51.3265 202.155 51.4334 202.28C51.5403 202.404 51.6904 202.484 51.8534 202.502C52.0165 202.52 52.1804 202.476 52.3124 202.379C52.4443 202.281 52.5344 202.137 52.5646 201.976L52.7386 201.216C52.7622 201.117 52.8085 201.025 52.8739 200.947C52.9393 200.869 53.022 200.807 53.1155 200.767C53.2089 200.726 53.3105 200.708 53.4123 200.713C53.514 200.719 53.613 200.748 53.7014 200.799L54.8904 201.506Z" fill="#263238"/>
<path d="M76.561 186.199L70.9756 182.974L70.9176 182.94C68.1394 181.368 64.3288 181.6 60.1122 184.036C56.1624 186.309 52.5722 190.108 49.852 194.476C46.7142 199.533 44.7422 205.391 44.7422 210.64C44.7422 215.536 46.4822 218.975 49.2256 220.582L54.898 223.818C57.6994 225.604 61.655 225.448 66.0398 222.913C74.531 218.012 81.4156 206.093 81.4156 196.285C81.4156 191.228 79.548 187.713 76.561 186.199Z" fill="#FFC94F"/>
<path opacity="0.1" d="M54.7878 223.8L49.2256 220.621C46.4532 219.015 44.7422 215.575 44.7422 210.68C44.7422 205.431 46.7142 199.579 49.852 194.521L55.7854 197.943C52.6476 203.001 50.6814 208.847 50.6814 214.091C50.664 218.765 52.23 222.112 54.7878 223.8Z" fill="black"/>
<path opacity="0.4" d="M76.4463 186.135C73.7087 184.807 70.0663 185.143 66.0411 187.457C62.0159 189.772 58.5011 193.542 55.7693 197.938L49.8359 194.516C52.5503 190.12 56.1521 186.327 60.0961 184.076C64.3127 181.64 68.1233 181.408 70.9015 182.974L70.9595 183.009L76.4463 186.135Z" fill="white"/>
<path d="M68.16 206.791V212.202C68.16 212.478 68.0965 212.75 67.9744 212.997C67.8899 213.232 67.7337 213.435 67.5278 213.577L64.564 215.288C64.4978 215.336 64.4162 215.36 64.3342 215.353C64.2522 215.347 64.1752 215.311 64.1174 215.253C64.0496 215.173 63.9982 215.081 63.9664 214.981C63.9345 214.882 63.9228 214.777 63.9318 214.673V209.285L60.2836 211.384C60.2186 211.435 60.1371 211.46 60.0548 211.455C59.9724 211.449 59.8949 211.414 59.837 211.355C59.7692 211.276 59.7178 211.183 59.686 211.084C59.6541 210.984 59.6424 210.879 59.6514 210.775V207.121C59.6548 206.844 59.7181 206.571 59.837 206.321C59.9303 206.1 60.0854 205.911 60.2836 205.776L63.9318 203.67V198.282C63.9352 198.005 63.9985 197.732 64.1174 197.482C64.2087 197.26 64.3642 197.07 64.564 196.936L67.5278 195.196C67.5938 195.148 67.6747 195.124 67.7564 195.13C67.8381 195.135 67.9152 195.169 67.9744 195.225C68.0428 195.305 68.0945 195.397 68.1264 195.497C68.1583 195.596 68.1697 195.701 68.16 195.805V201.182L71.785 199.094C71.85 199.043 71.9315 199.018 72.0138 199.024C72.0962 199.029 72.1737 199.064 72.2316 199.123C72.2994 199.203 72.3508 199.295 72.3826 199.394C72.4145 199.494 72.4262 199.599 72.4172 199.703V203.357C72.4138 203.634 72.3505 203.907 72.2316 204.157C72.1382 204.378 71.9832 204.568 71.785 204.703L68.16 206.791Z" fill="white"/>
<path d="M217.243 122.992L210.462 122.801C210.01 122.412 202.893 114.379 202.893 114.379C202.893 114.379 200.33 118.439 200.289 118.677C200.249 118.915 207.249 126.443 207.963 127.203C208.158 127.455 208.409 127.659 208.695 127.8C208.982 127.94 209.297 128.014 209.616 128.015C211.454 128.125 218.316 128.595 218.316 128.595L217.243 122.992Z" fill="#B16668"/>
<path d="M144.88 224.793C144.563 224.578 144.301 224.291 144.115 223.955C143.93 223.619 143.826 223.245 143.812 222.862V132.742C143.836 132.345 143.954 131.959 144.156 131.616C144.357 131.273 144.637 130.983 144.972 130.77L201.592 98.1097C201.932 97.9318 202.309 97.8356 202.692 97.8285C203.076 97.8215 203.456 97.9039 203.802 98.0691C204.12 98.2852 204.382 98.5733 204.567 98.9099C204.753 99.2466 204.856 99.6222 204.869 100.006V190.121C204.846 190.519 204.729 190.906 204.527 191.25C204.326 191.593 204.045 191.884 203.709 192.099L147.09 224.753C146.75 224.932 146.373 225.029 145.989 225.036C145.606 225.043 145.226 224.96 144.88 224.793Z" fill="#AF4A73"/>
<path opacity="0.15" d="M146.769 224.879L146.885 224.844C146.861 224.862 146.833 224.874 146.804 224.879C146.735 224.907 146.666 224.93 146.595 224.949H146.479C146.393 224.968 146.306 224.981 146.218 224.989C146.117 224.995 146.017 224.995 145.916 224.989C145.555 224.997 145.198 224.914 144.878 224.746C144.645 224.596 144.448 224.398 144.298 224.166C144.009 223.771 143.845 223.298 143.828 222.808V132.74C143.827 132.544 143.857 132.348 143.915 132.16C143.944 132.063 143.979 131.968 144.02 131.876C144.06 131.78 144.107 131.687 144.159 131.598L146.293 132.833L146.241 132.92C146.067 133.237 145.97 133.591 145.957 133.952V224.096C145.956 224.212 145.971 224.327 146.003 224.438C146.04 224.574 146.117 224.695 146.224 224.786C146.293 224.838 146.372 224.875 146.456 224.896H146.589C146.641 224.905 146.694 224.905 146.746 224.896C146.755 224.894 146.763 224.888 146.769 224.879Z" fill="black"/>
<path opacity="0.3" d="M204.826 99.7623C204.733 99.1823 204.246 98.9909 203.707 99.3157L147.081 131.97C146.747 132.184 146.47 132.477 146.275 132.822L144.141 131.581C144.331 131.233 144.609 130.941 144.947 130.734L201.566 98.0745C201.906 97.8967 202.283 97.8004 202.667 97.7934C203.05 97.7863 203.43 97.8687 203.776 98.0339C204.065 98.2298 204.308 98.4855 204.489 98.7838C204.671 99.082 204.785 99.4158 204.826 99.7623Z" fill="white"/>
<path d="M153.296 135.782L196.042 111.097C196.622 110.772 197.046 111.033 197.046 111.677V112.077C197.026 112.425 196.926 112.764 196.751 113.067C196.577 113.369 196.334 113.626 196.042 113.817L153.285 138.502C152.705 138.821 152.281 138.56 152.281 137.922V137.522C152.301 137.172 152.403 136.832 152.58 136.53C152.756 136.227 153.002 135.971 153.296 135.782Z" fill="#FAFAFA"/>
<path d="M153.296 144.092L196.042 119.401C196.622 119.077 197.046 119.338 197.046 119.981V120.382C197.027 120.73 196.927 121.07 196.752 121.372C196.578 121.674 196.335 121.931 196.042 122.122L153.285 146.806C152.705 147.125 152.281 146.864 152.281 146.226V145.826C152.302 145.478 152.404 145.139 152.581 144.837C152.757 144.536 153.002 144.281 153.296 144.092Z" fill="#FAFAFA"/>
<path d="M153.296 152.404L196.042 127.719C196.622 127.4 197.046 127.655 197.046 128.299V128.682C197.027 129.031 196.927 129.37 196.752 129.672C196.578 129.975 196.335 130.232 196.042 130.422L153.285 155.107C152.705 155.426 152.281 155.165 152.281 154.527V154.127C152.304 153.78 152.407 153.444 152.583 153.144C152.76 152.845 153.004 152.592 153.296 152.404Z" fill="#FAFAFA"/>
<path d="M153.296 160.715L196.042 136.03C196.622 135.711 197.046 135.966 197.046 136.61V137.01C197.027 137.359 196.927 137.698 196.752 138C196.578 138.303 196.335 138.559 196.042 138.75L153.285 163.435C152.705 163.754 152.281 163.493 152.281 162.855V162.455C152.301 162.105 152.403 161.765 152.58 161.463C152.756 161.16 153.002 160.904 153.296 160.715Z" fill="#FAFAFA"/>
<path d="M153.296 169.025L196.042 144.34C196.622 144.021 197.046 144.277 197.046 144.92V145.321C197.027 145.669 196.927 146.008 196.752 146.311C196.578 146.613 196.335 146.87 196.042 147.061L153.285 171.745C152.705 172.064 152.281 171.803 152.281 171.165V170.765C152.301 170.416 152.403 170.076 152.58 169.773C152.756 169.471 153.002 169.214 153.296 169.025Z" fill="#FAFAFA"/>
<path d="M153.296 177.338L196.042 152.653C196.622 152.334 197.046 152.589 197.046 153.233V153.621C197.027 153.97 196.927 154.309 196.752 154.612C196.578 154.914 196.335 155.171 196.042 155.361L153.285 180.046C152.705 180.365 152.281 180.104 152.281 179.466V179.066C152.303 178.718 152.406 178.381 152.582 178.08C152.758 177.78 153.003 177.526 153.296 177.338Z" fill="#FAFAFA"/>
<path d="M153.296 185.65L196.042 160.965C196.622 160.646 197.046 160.902 197.046 161.545V161.946C197.027 162.294 196.927 162.633 196.752 162.936C196.578 163.238 196.335 163.495 196.042 163.686L153.285 188.37C152.705 188.689 152.281 188.428 152.281 187.79V187.39C152.301 187.041 152.403 186.701 152.58 186.398C152.756 186.096 153.002 185.839 153.296 185.65Z" fill="#FAFAFA"/>
<path d="M153.296 193.96L196.042 169.281C196.622 168.962 197.046 169.223 197.046 169.861V170.261C197.027 170.609 196.927 170.949 196.752 171.251C196.578 171.553 196.335 171.81 196.042 172.001L153.285 196.686C152.705 197.005 152.281 196.744 152.281 196.106V195.705C152.3 195.355 152.402 195.014 152.578 194.71C152.755 194.407 153.001 194.149 153.296 193.96Z" fill="#FAFAFA"/>
<path d="M153.296 202.27L196.042 177.585C196.622 177.266 197.046 177.527 197.046 178.165V178.56C197.028 178.908 196.927 179.248 196.753 179.55C196.579 179.853 196.335 180.11 196.042 180.3L153.285 204.985C152.705 205.304 152.281 205.043 152.281 204.405V204.004C152.302 203.656 152.404 203.317 152.581 203.016C152.757 202.714 153.002 202.459 153.296 202.27Z" fill="#FAFAFA"/>
<path d="M153.298 210.583L196.044 185.898C196.624 185.579 197.048 185.84 197.048 186.478V186.878C197.03 187.227 196.929 187.566 196.755 187.869C196.581 188.171 196.337 188.428 196.044 188.618L153.292 213.303C152.712 213.622 152.289 213.361 152.289 212.723V212.323C152.309 211.974 152.41 211.634 152.585 211.332C152.761 211.03 153.005 210.773 153.298 210.583Z" fill="#FAFAFA"/>
<path d="M218.508 121.813H226.558C229.318 121.813 231.964 120.716 233.916 118.765C235.867 116.814 236.963 114.167 236.963 111.407C236.963 108.96 235.991 106.613 234.261 104.882C232.53 103.152 230.183 102.18 227.736 102.18C225.288 102.18 222.941 103.152 221.211 104.882C219.48 106.613 218.508 108.96 218.508 111.407V121.813Z" fill="#263238"/>
<path d="M234.9 105.819L237.133 104.618C237.064 104.466 236.964 104.33 236.84 104.218C236.717 104.105 236.572 104.019 236.414 103.965C236.256 103.911 236.088 103.889 235.922 103.902C235.755 103.914 235.593 103.961 235.445 104.038C235.139 104.204 234.91 104.484 234.808 104.817C234.706 105.15 234.739 105.51 234.9 105.819Z" fill="#263238"/>
<path d="M234.742 106.06L237.12 106.947C237.186 106.794 237.22 106.629 237.22 106.463C237.22 106.296 237.187 106.132 237.122 105.978C237.057 105.825 236.962 105.686 236.842 105.571C236.722 105.455 236.58 105.365 236.424 105.306C236.101 105.192 235.746 105.207 235.433 105.348C235.12 105.488 234.873 105.743 234.742 106.06Z" fill="#263238"/>
<path d="M226.783 129.487L215.572 129.006C214.603 127.643 214.603 124.041 215.624 122.881L228.03 123.217L226.783 129.487Z" fill="#AF4A73"/>
<path d="M219.969 199.041C220.038 199.791 220.069 200.544 220.062 201.297V205.711H223.884V203.124C223.885 201.958 223.982 200.794 224.174 199.644L219.969 199.041Z" fill="#B16668"/>
<path d="M220.055 203.82V203.269C219.951 204.105 217.561 207.248 216.041 208.634C214.829 209.742 213.176 211.018 212.753 212.254C212.329 213.489 214.707 214.04 216.273 213.883C217.794 213.695 219.196 212.961 220.217 211.819C220.851 211.023 221.419 210.177 221.917 209.29C222.381 208.663 224.469 207.376 224.724 206.645C224.796 205.966 224.721 205.28 224.504 204.632C224.324 203.954 224.132 203.206 223.924 203.269V203.687C223.376 204.116 222.699 204.345 222.004 204.337C221.418 204.36 220.055 204.25 220.055 203.82Z" fill="#263238"/>
<path d="M223.879 203.687C223.332 204.116 222.654 204.345 221.959 204.337C221.379 204.337 220.034 204.25 220.034 203.821V203.27C219.929 204.105 217.54 207.248 216.02 208.635C215.73 208.901 215.411 209.174 215.092 209.458C214.448 210.177 214.634 210.804 216.148 210.931C217.661 211.059 218.995 210.148 220.144 208.739C221.292 207.33 223.879 203.687 223.879 203.687Z" fill="#B16668"/>
<path d="M231.703 205.549C231.779 206.477 231.779 207.445 231.796 207.869V212.283H235.636V209.696C235.635 208.53 235.73 207.366 235.92 206.216L231.703 205.549Z" fill="#B16668"/>
<path d="M231.788 210.387V209.836C231.678 210.671 229.294 213.815 227.769 215.201C226.557 216.309 224.904 217.585 224.486 218.814C224.069 220.044 226.435 220.606 228.007 220.45C229.526 220.261 230.926 219.527 231.945 218.385C232.58 217.589 233.15 216.743 233.65 215.856C234.114 215.23 236.202 213.942 236.452 213.211C236.53 212.533 236.455 211.845 236.231 211.199C236.057 210.52 235.86 209.772 235.651 209.836V210.253C235.104 210.682 234.427 210.912 233.731 210.903C233.163 210.926 231.783 210.816 231.788 210.387Z" fill="#263238"/>
<path d="M235.623 210.254C235.076 210.683 234.399 210.912 233.703 210.903C233.123 210.903 231.778 210.816 231.784 210.387V209.836C231.673 210.671 229.29 213.815 227.764 215.201C227.474 215.468 227.184 215.74 226.842 216.025C226.198 216.744 226.384 217.37 227.898 217.498C229.411 217.625 230.74 216.715 231.888 215.305C233.036 213.896 235.623 210.254 235.623 210.254Z" fill="#B16668"/>
<path d="M219.968 200.861C219.144 194.092 217.798 182.388 217.404 179.83C217.039 177.464 217.955 157.21 218.518 150.761L238.528 149.688C240.047 156.207 238.562 164.999 238.046 170.492C237.536 175.834 236.886 182.092 236.886 182.092C236.886 182.092 238.446 187.538 238.046 191.871C237.779 194.603 236.556 202.845 235.976 206.371C235.293 206.717 234.538 206.892 233.773 206.882C233.008 206.872 232.258 206.677 231.585 206.313C231.649 207.061 230.872 197.184 230.425 193.193C229.787 187.654 229.543 183.618 228.975 180.381C228.262 176.321 228.018 160.534 228.018 160.534L225.698 178.473C225.949 180.396 226.071 182.334 226.063 184.273C226.063 188.281 224.584 197.387 224.12 200.791C223.117 201.505 221.075 201.719 219.968 200.861Z" fill="#455A64"/>
<path d="M228.008 160.524C228.008 160.524 224.348 159.242 222.266 157.328C223.313 158.957 224.799 160.258 226.552 161.081L226.587 171.579L228.008 160.524Z" fill="#37474F"/>
<path d="M230.922 123.311C230.922 123.311 236.356 123.937 237.006 124.227C233.694 127.852 237.221 130.857 237.221 130.857L234.698 141.958C236.873 144.736 238.114 146.882 238.636 150.194C236.316 154.3 223.225 154.869 218.429 151.812C218.846 146.087 219.78 141.987 219.467 140.264C217.187 133.235 217.895 131.761 218.11 130.155C218.527 127.017 221.642 124.285 223.422 123.137H225.081L230.922 123.311Z" fill="#F0F0F0"/>
<path d="M221.56 106.699C220.585 107.279 219.379 109.727 219.501 114.866C219.599 119.221 221.015 120.294 221.722 120.608C222.43 120.921 223.799 120.729 225.127 120.503V123.119C225.127 123.119 223.288 125.253 223.387 126.454C223.485 127.655 226.037 127.933 227.76 126.761C229.002 125.798 230.073 124.631 230.927 123.31L230.898 117.302C230.898 117.302 231.675 118.061 233.003 116.901C234.099 115.944 234.465 114.326 233.583 113.462C233.364 113.256 233.098 113.105 232.809 113.021C232.52 112.937 232.214 112.922 231.919 112.979C231.623 113.035 231.344 113.161 231.106 113.346C230.869 113.531 230.678 113.769 230.55 114.042C230.55 114.042 229.813 111.995 226.751 110.991C224.007 110.121 222.505 109.071 221.56 106.699Z" fill="#B16668"/>
<path d="M224.633 113.768C224.632 113.911 224.685 114.05 224.78 114.157C224.875 114.264 225.007 114.332 225.15 114.348C225.298 114.348 225.44 114.292 225.548 114.191C225.656 114.089 225.721 113.951 225.73 113.803C225.74 113.727 225.735 113.65 225.714 113.576C225.693 113.502 225.657 113.434 225.608 113.375C225.559 113.316 225.498 113.268 225.43 113.234C225.361 113.2 225.287 113.18 225.21 113.176C225.134 113.173 225.057 113.185 224.986 113.213C224.914 113.24 224.849 113.282 224.795 113.336C224.741 113.39 224.698 113.455 224.671 113.526C224.643 113.598 224.63 113.674 224.633 113.751V113.768Z" fill="#263238"/>
<path d="M224.489 117.465L223.219 117.871C223.241 117.956 223.281 118.035 223.335 118.104C223.389 118.173 223.457 118.231 223.534 118.273C223.611 118.316 223.696 118.342 223.783 118.35C223.87 118.359 223.959 118.35 224.042 118.323C224.214 118.266 224.356 118.145 224.439 117.984C224.523 117.824 224.54 117.638 224.489 117.465Z" fill="#9A4A4D"/>
<path d="M220.148 112.088L221.256 111.323C221.21 111.248 221.148 111.183 221.076 111.133C221.004 111.082 220.922 111.047 220.836 111.029C220.75 111.011 220.661 111.011 220.574 111.029C220.488 111.046 220.406 111.081 220.334 111.131C220.187 111.238 220.087 111.396 220.052 111.573C220.018 111.751 220.052 111.935 220.148 112.088Z" fill="#263238"/>
<path d="M226.233 112.495L225.125 111.729C225.171 111.654 225.233 111.59 225.305 111.539C225.377 111.489 225.459 111.453 225.545 111.435C225.631 111.418 225.72 111.417 225.807 111.435C225.893 111.453 225.975 111.487 226.047 111.538C226.194 111.644 226.294 111.802 226.329 111.98C226.363 112.157 226.329 112.341 226.233 112.495Z" fill="#263238"/>
<path d="M220.399 113.376C220.398 113.519 220.45 113.658 220.546 113.765C220.641 113.872 220.773 113.94 220.915 113.956C221.062 113.956 221.204 113.9 221.312 113.8C221.419 113.7 221.485 113.563 221.495 113.416C221.506 113.34 221.5 113.263 221.479 113.189C221.459 113.116 221.422 113.047 221.374 112.988C221.325 112.929 221.264 112.881 221.196 112.847C221.127 112.813 221.052 112.793 220.976 112.79C220.899 112.786 220.823 112.798 220.751 112.826C220.68 112.853 220.615 112.896 220.561 112.95C220.506 113.004 220.464 113.068 220.436 113.14C220.408 113.211 220.396 113.287 220.399 113.364V113.376Z" fill="#263238"/>
<path d="M222.985 113.062L222.898 116.357L221.164 115.823L222.985 113.062Z" fill="#9A4A4D"/>
<path d="M225.102 120.503C226.499 120.324 229.382 119.494 229.834 118.357C229.653 118.933 229.298 119.44 228.819 119.807C227.961 120.544 225.102 121.379 225.102 121.379V120.503Z" fill="#9A4A4D"/>
<path d="M235.822 136.998L231.188 143.767L234.696 141.957L235.822 136.998Z" fill="#E0E0E0"/>
<path d="M233.677 125.705L222.802 136.952C222.802 136.952 212.124 135.902 208.499 134.864C207.339 134.533 206.434 132.967 206.179 131.65C206.147 131.305 206.007 130.979 205.779 130.718C205.551 130.456 205.246 130.273 204.909 130.195V132.834C204.816 133.501 204.491 133.843 203.54 133.866C199.874 133.947 198.175 132.834 197.74 134.823C197.456 136.093 198.007 137.537 200.425 138.204C203.824 139.132 205.703 138.668 207.768 139.185C209.363 139.579 220.493 141.696 222.68 142.172C223.84 142.427 224.716 142.346 225.974 141.104C227.233 139.863 236.641 131.047 236.641 131.047C239.541 128.147 238.682 125.172 237.07 124.284C236.061 123.733 234.959 124.383 233.677 125.705Z" fill="#B16668"/>
<path d="M237.004 124.228C237.705 124.512 238.564 125.26 238.633 127.198C238.703 129.135 237.27 130.898 235.583 132.916C233.895 134.935 233.384 135.468 233.384 135.468C233.384 135.468 229.116 133.914 228.391 130.741C228.391 130.741 231.61 127.331 232.572 126.241C233.535 125.15 235.31 123.462 237.004 124.228Z" fill="#AF4A73"/>
<path d="M214.966 50.8324L218.997 53.1524C218.974 52.9755 218.962 52.7972 218.962 52.6188V51.4588C218.962 49.3824 220.424 48.5588 222.222 49.5796C222.995 50.0567 223.657 50.6934 224.165 51.4472C224.46 48.8314 226.485 47.8628 229.002 49.2954C231.693 50.8556 233.88 54.6372 233.88 57.746V59.486C233.897 60.1838 233.755 60.8764 233.462 61.5102L236.814 63.4416C237.34 63.7856 237.778 64.2482 238.092 64.7922C238.406 65.3362 238.589 65.9464 238.624 66.5736C238.624 67.7336 237.812 68.1976 236.814 67.6176L214.966 55.02C214.439 54.677 214.001 54.2147 213.686 53.6705C213.372 53.1263 213.19 52.5156 213.156 51.888C213.156 50.7222 213.968 50.2524 214.966 50.8324Z" fill="#EBEBEB"/>
<path d="M197.713 62.5614L200.753 64.3014C200.753 64.1622 200.753 64.0288 200.753 63.8954V63.0138C200.753 61.4478 201.855 60.8098 203.212 61.5986C203.798 61.9554 204.299 62.4365 204.679 63.008C204.9 61.036 206.419 60.2994 208.327 61.384C209.401 62.0818 210.294 63.0235 210.934 64.1323C211.574 65.241 211.943 66.4855 212.01 67.764V69.0806C212.023 69.6081 211.916 70.1317 211.697 70.6118L214.226 72.0676C214.623 72.3273 214.953 72.6769 215.19 73.088C215.427 73.4991 215.564 73.9602 215.589 74.434C215.589 75.304 214.98 75.6578 214.226 75.2228L197.737 65.6992C197.339 65.441 197.008 65.0927 196.77 64.6825C196.532 64.2724 196.394 63.8119 196.368 63.3386C196.345 62.4976 196.959 62.1438 197.713 62.5614Z" fill="#EBEBEB"/>
</svg>
