<svg width="292" height="292" viewBox="0 0 292 292" fill="none" xmlns="http://www.w3.org/2000/svg">
<path d="M153.224 265.551C217.887 265.551 270.307 262.137 270.307 257.925C270.307 253.713 217.887 250.299 153.224 250.299C88.5606 250.299 36.1406 253.713 36.1406 257.925C36.1406 262.137 88.5606 265.551 153.224 265.551Z" fill="#C9B5A9"/>
<path d="M99.8073 29.0277L102.337 29.8481L99.8073 30.6681C98.776 31.0023 97.9677 31.8106 97.6335 32.8419L96.813 35.3715L95.9925 32.8419C95.6582 31.8106 94.85 31.0023 93.8187 30.6681L91.2891 29.8481L93.8187 29.0277C94.85 28.6934 95.6582 27.8851 95.9925 26.8538L96.813 24.3242L97.6335 26.8538C97.9677 27.8851 98.776 28.6934 99.8073 29.0277Z" fill="white"/>
<path d="M254.932 193.02L257.461 193.84L254.932 194.661C253.9 194.995 253.092 195.803 252.758 196.835L251.938 199.364L251.117 196.835C250.783 195.803 249.975 194.995 248.944 194.661L246.414 193.84L248.944 193.02C249.975 192.686 250.783 191.877 251.117 190.846L251.938 188.316L252.758 190.846C253.092 191.877 253.9 192.685 254.932 193.02Z" fill="white"/>
<path d="M35.502 171.293L38.0316 172.114L35.502 172.934C34.4707 173.269 33.6625 174.077 33.3282 175.108L32.5077 177.638L31.6878 175.108C31.3536 174.077 30.5453 173.269 29.514 172.934L26.9844 172.114L29.514 171.293C30.5453 170.959 31.3536 170.151 31.6878 169.119L32.5077 166.59L33.3282 169.119C33.6625 170.151 34.4707 170.959 35.502 171.293Z" fill="white"/>
<path d="M149.126 94.3483L150.595 94.8246L149.126 95.301C148.527 95.4949 148.058 95.9642 147.863 96.5629L147.387 98.0315L146.911 96.5629C146.717 95.9642 146.247 95.4949 145.648 95.301L144.18 94.8246L145.648 94.3483C146.247 94.1544 146.716 93.685 146.911 93.0858L147.387 91.6172L147.863 93.0858C148.058 93.685 148.527 94.1544 149.126 94.3483Z" fill="white"/>
<path d="M59.4384 62.7409L60.9071 63.2172L59.4384 63.6935C58.8398 63.8875 58.3705 64.3568 58.176 64.9554L57.6996 66.4241L57.2233 64.9554C57.0294 64.3568 56.56 63.8875 55.9608 63.6935L54.4922 63.2172L55.9608 62.7409C56.5594 62.5469 57.0288 62.0776 57.2233 61.4784L57.6996 60.0098L58.176 61.4784C58.3705 62.077 58.8398 62.5464 59.4384 62.7409Z" fill="white"/>
<path d="M40.9619 158.506L42.4305 158.983L40.9619 159.459C40.3633 159.653 39.8939 160.122 39.6994 160.722L39.2231 162.19L38.7467 160.722C38.5528 160.123 38.0835 159.654 37.4842 159.459L36.0156 158.983L37.4842 158.506C38.0829 158.313 38.5522 157.843 38.7467 157.244L39.2231 155.775L39.6994 157.244C39.8939 157.843 40.3633 158.312 40.9619 158.506Z" fill="white"/>
<path d="M230.92 195.509C230.92 195.509 225.778 196.071 223.769 197.196C221.761 198.321 220.796 202.097 224.332 202.097C227.867 202.097 233.491 202.097 235.902 202.097C238.313 202.097 237.348 196.713 236.063 195.268L230.92 195.509Z" fill="#2E344B"/>
<path d="M228.562 187.377C228.562 187.377 229.871 194.399 230.234 195.551C230.792 197.316 235.738 197.224 236.179 195.273C236.83 192.393 236.83 186.541 236.83 186.541L228.562 187.377Z" fill="#D8877B"/>
<path d="M227.652 197.341C227.54 197.138 227.394 196.946 227.224 196.788C227.046 196.623 226.848 196.477 226.644 196.346C226.429 196.208 226.181 196.038 225.916 196.056C225.743 196.068 225.561 196.236 225.633 196.427C225.664 196.507 225.694 196.582 225.751 196.648C225.785 196.687 225.824 196.724 225.861 196.761C225.896 196.795 225.936 196.824 225.975 196.854C225.982 196.859 225.996 196.869 226.006 196.875C226 196.872 225.997 196.869 225.985 196.861C226.028 196.89 226.068 196.928 226.109 196.961C226.269 197.093 226.423 197.234 226.559 197.391C226.588 197.424 226.614 197.459 226.644 197.493C226.543 197.381 226.668 197.526 226.687 197.549C226.736 197.628 226.795 197.7 226.84 197.783C226.864 197.825 226.885 197.868 226.906 197.912C226.912 197.924 226.913 197.928 226.915 197.93C226.931 197.969 226.945 198.007 226.965 198.044C226.985 198.081 227.005 198.119 227.025 198.156C227.075 198.247 227.153 198.303 227.237 198.356C227.415 198.467 227.638 198.386 227.747 198.223C227.929 197.947 227.797 197.602 227.652 197.341Z" fill="white"/>
<path d="M229.689 197.147C229.649 197.018 229.601 196.89 229.534 196.773C229.415 196.569 229.269 196.376 229.106 196.205C228.779 195.862 228.338 195.557 227.857 195.511C227.732 195.499 227.609 195.601 227.564 195.708C227.519 195.815 227.532 195.979 227.631 196.058C227.721 196.129 227.812 196.195 227.907 196.259C227.929 196.274 227.95 196.289 227.972 196.304C227.975 196.306 227.979 196.308 227.982 196.31C228.015 196.327 228.048 196.364 228.076 196.388C228.225 196.514 228.359 196.645 228.482 196.795C228.495 196.813 228.509 196.832 228.522 196.851C228.549 196.89 228.575 196.93 228.6 196.971C228.649 197.053 228.694 197.138 228.735 197.225C228.775 197.311 228.816 197.397 228.857 197.483C228.863 197.496 228.863 197.495 228.862 197.492C228.869 197.509 228.876 197.526 228.883 197.542C228.908 197.588 228.945 197.633 228.983 197.668C229.016 197.699 229.053 197.728 229.086 197.759C229.28 197.941 229.582 197.857 229.663 197.607C229.714 197.453 229.739 197.308 229.689 197.147Z" fill="white"/>
<path d="M235.295 198.53C235.242 198.339 235.146 198.174 235.006 198.033C234.93 197.975 234.855 197.916 234.778 197.858C234.603 197.756 234.414 197.704 234.21 197.704C234.056 197.698 233.911 197.73 233.777 197.8C233.638 197.846 233.518 197.923 233.416 198.033C233.306 198.135 233.229 198.255 233.183 198.394C233.113 198.528 233.081 198.673 233.087 198.828C233.1 198.927 233.113 199.027 233.127 199.126C233.18 199.317 233.276 199.482 233.416 199.623C233.491 199.681 233.568 199.74 233.643 199.798C233.819 199.9 234.008 199.951 234.21 199.952C234.365 199.957 234.51 199.925 234.644 199.855C234.783 199.809 234.904 199.732 235.005 199.623C235.115 199.521 235.192 199.4 235.238 199.261C235.308 199.127 235.34 198.983 235.334 198.828C235.322 198.729 235.309 198.629 235.295 198.53Z" fill="white"/>
<path d="M228.811 188.69C229.958 189.202 232.915 190.17 236.742 189.972C236.83 188.082 236.83 186.541 236.83 186.541L228.562 187.377C228.562 187.377 228.661 187.904 228.811 188.69Z" fill="#B44E50"/>
<path d="M210.662 195.509C210.662 195.509 205.52 196.071 203.511 197.196C201.503 198.321 200.539 202.097 204.074 202.097C207.609 202.097 213.234 202.097 215.644 202.097C218.054 202.097 217.091 196.713 215.805 195.268L210.662 195.509Z" fill="#2E344B"/>
<path d="M208.305 187.377C208.305 187.377 209.613 194.399 209.977 195.551C210.534 197.316 215.481 197.224 215.921 195.273C216.572 192.393 216.572 186.541 216.572 186.541L208.305 187.377Z" fill="#D8877B"/>
<path d="M207.403 197.341C207.29 197.138 207.145 196.946 206.974 196.788C206.796 196.623 206.598 196.477 206.394 196.346C206.18 196.208 205.931 196.038 205.666 196.056C205.493 196.068 205.312 196.236 205.383 196.427C205.414 196.507 205.444 196.582 205.501 196.648C205.535 196.687 205.574 196.724 205.611 196.761C205.646 196.795 205.686 196.824 205.725 196.854C205.731 196.859 205.745 196.869 205.755 196.875C205.751 196.872 205.747 196.869 205.734 196.861C205.778 196.89 205.818 196.928 205.859 196.961C206.02 197.093 206.173 197.234 206.309 197.391C206.338 197.424 206.364 197.459 206.394 197.493C206.293 197.381 206.418 197.526 206.437 197.549C206.486 197.628 206.544 197.7 206.59 197.783C206.614 197.825 206.635 197.868 206.656 197.912C206.661 197.924 206.663 197.928 206.665 197.93C206.681 197.969 206.695 198.007 206.714 198.044C206.735 198.081 206.754 198.119 206.774 198.156C206.825 198.247 206.902 198.303 206.986 198.356C207.164 198.467 207.387 198.386 207.496 198.223C207.679 197.947 207.548 197.602 207.403 197.341Z" fill="white"/>
<path d="M209.446 197.147C209.407 197.018 209.358 196.89 209.291 196.773C209.173 196.569 209.026 196.376 208.863 196.205C208.537 195.862 208.096 195.557 207.615 195.511C207.49 195.499 207.367 195.601 207.322 195.708C207.277 195.815 207.289 195.979 207.388 196.058C207.479 196.129 207.569 196.195 207.665 196.259C207.687 196.274 207.708 196.289 207.73 196.304C207.733 196.306 207.737 196.308 207.74 196.31C207.773 196.327 207.806 196.364 207.834 196.388C207.982 196.514 208.117 196.645 208.24 196.795C208.253 196.813 208.267 196.832 208.28 196.851C208.307 196.89 208.333 196.93 208.357 196.971C208.407 197.053 208.452 197.138 208.492 197.225C208.532 197.311 208.574 197.397 208.615 197.483C208.621 197.496 208.621 197.495 208.619 197.492C208.626 197.509 208.633 197.526 208.64 197.542C208.665 197.588 208.703 197.633 208.741 197.668C208.774 197.699 208.81 197.728 208.844 197.759C209.038 197.941 209.34 197.857 209.421 197.607C209.471 197.453 209.496 197.308 209.446 197.147Z" fill="white"/>
<path d="M215.045 198.53C214.991 198.339 214.895 198.174 214.755 198.033C214.68 197.975 214.604 197.916 214.528 197.858C214.352 197.756 214.163 197.704 213.96 197.704C213.806 197.698 213.661 197.73 213.527 197.8C213.388 197.846 213.268 197.923 213.166 198.033C213.056 198.135 212.979 198.255 212.933 198.394C212.863 198.528 212.831 198.673 212.837 198.828C212.85 198.927 212.863 199.027 212.877 199.126C212.93 199.317 213.026 199.482 213.166 199.623C213.241 199.681 213.317 199.74 213.393 199.798C213.569 199.9 213.758 199.951 213.96 199.952C214.115 199.957 214.26 199.925 214.394 199.855C214.533 199.809 214.653 199.732 214.755 199.623C214.865 199.521 214.942 199.4 214.988 199.261C215.058 199.127 215.09 198.983 215.084 198.828C215.072 198.729 215.058 198.629 215.045 198.53Z" fill="white"/>
<path d="M208.553 188.69C209.701 189.202 212.658 190.17 216.484 189.972C216.572 188.082 216.572 186.541 216.572 186.541L208.305 187.377C208.305 187.377 208.403 187.904 208.553 188.69Z" fill="#B44E50"/>
<path d="M233.483 131.455C234.133 133.591 236.177 139.165 236.363 145.668C236.548 152.17 237.291 183.475 237.57 188.305H227.631C227.631 188.305 221.035 164.339 220.664 146.225C220.664 146.225 218.271 160.706 217.413 167.033C216.391 174.557 217.784 188.399 217.784 188.399H207.195C207.195 188.399 203.758 165.361 205.337 153.285C206.916 141.209 209.61 130.619 209.61 130.619L233.483 131.455Z" fill="#2E344B"/>
<path d="M234.234 133.806C233.931 132.818 233.664 132.017 233.493 131.456L221.527 131.037L219.188 131.735L219.234 134.104C219.234 134.104 226.293 136.12 234.234 133.806Z" fill="#2E344B"/>
<path d="M203.531 110.008C203.531 110.008 206.527 111.471 209.697 111.227C212.867 110.983 209.488 108.789 209.488 108.789L203.531 110.008Z" fill="#2E344B"/>
<path d="M210.685 110.276C210.93 110.208 209.802 114.502 208.827 116.592C208.22 117.894 203.532 124.07 203.532 124.07L199.398 121.562C199.398 121.562 203.532 114.571 203.881 113.735C204.229 112.899 205.065 106.838 205.065 106.838L209.385 106.211L210.685 110.276Z" fill="#D8877B"/>
<path d="M205.055 106.838C205.055 106.838 204.824 108.512 204.555 110.223C205.36 110.394 208.512 111.107 210.339 112.131C210.628 111.046 210.782 110.245 210.676 110.275L209.553 106.766L208.421 106.35L205.055 106.838Z" fill="#B44E50"/>
<path d="M226.836 94.6055C230.145 95.0626 232.792 96.1073 234.325 97.7098C235.858 99.3124 236.276 114.222 235.579 116.242L234.79 115.8L233.002 117.495C233.002 117.495 232.932 126.552 234.395 131.638C234.395 131.638 222.83 136.933 209.035 130.663C209.035 130.663 211.753 125.995 210.986 118.123C210.864 116.872 209.523 113.594 209.593 110.459C209.593 110.459 205.552 109.693 203.531 110.006C203.531 110.006 205.343 100.635 207.015 98.4762C208.687 96.3163 212.379 95.2018 213.773 94.8535C215.166 94.5053 217.743 95.3409 217.743 95.3409L223.387 95.062L226.836 94.6055Z" fill="#6779B7"/>
<path d="M234.094 130.499C234.056 130.333 234.021 130.166 233.986 129.996C232.852 130.37 231.711 130.715 230.545 130.992C228.817 131.404 227.069 131.692 225.301 131.862C221.762 132.201 218.179 132.083 214.652 131.669C212.936 131.467 211.232 131.183 209.531 130.884C209.984 131.081 210.434 131.266 210.882 131.44C213.629 132.035 216.455 132.34 219.247 132.451C222.855 132.595 226.496 132.322 230.035 131.602C231.402 131.323 232.768 130.962 234.094 130.499Z" fill="#2E344B"/>
<path d="M193.539 121.887L218.458 142.484C219.798 143.591 221.771 143.455 222.946 142.174L223.369 141.713C224.555 140.42 224.508 138.419 223.261 137.184L200.32 114.455L193.539 121.887Z" fill="#2E344B"/>
<path d="M223.648 75.0664C223.648 75.0664 224.297 70.7229 229.432 70.4742C234.568 70.2256 236.615 74.1039 237.038 77.9501C237.461 81.7964 237.979 83.8141 239.214 84.5985C239.214 84.5985 234.235 88.8349 230.201 83.8508C226.168 78.8667 223.648 75.0664 223.648 75.0664Z" fill="#5F2A3D"/>
<path d="M227.263 70.8867C224.104 72.0246 223.648 75.0661 223.648 75.0661C223.648 75.0661 226.067 78.7126 229.954 83.543C230.657 83.4288 231.202 82.7958 231.479 81.4099C232.662 75.4859 228.822 72.0228 227.263 70.8867Z" fill="#2E344B"/>
<path d="M215.428 91.8894C212.205 89.6597 210.685 90.0679 210.039 81.6632C209.392 73.2586 222.564 66.1886 228.928 74.2526C232.93 79.3235 233.281 88.42 226.839 90.6398C219.625 93.1257 215.428 91.8894 215.428 91.8894Z" fill="#5F2A3D"/>
<path d="M182.398 126.022C194.595 126.022 204.483 116.134 204.483 103.937C204.483 91.7395 194.595 81.8516 182.398 81.8516C170.2 81.8516 160.312 91.7395 160.312 103.937C160.312 116.134 170.2 126.022 182.398 126.022Z" fill="#2E344B"/>
<path d="M182.394 120.579C191.586 120.579 199.038 113.127 199.038 103.935C199.038 94.7428 191.586 87.291 182.394 87.291C173.202 87.291 165.75 94.7428 165.75 103.935C165.75 113.127 173.202 120.579 182.394 120.579Z" fill="#B9CFE6"/>
<path d="M216.351 91.2789C216.351 91.2789 216.305 92.4866 216.072 93.462C215.84 94.4374 213.773 94.8555 213.773 94.8555C213.773 94.8555 215.19 98.339 218.441 98.9894L219.556 103.681L221.135 99.1752C221.135 99.1752 224.933 98.6022 226.837 94.6074C226.837 94.6074 226.105 94.5306 225.129 94.1124C224.154 93.6943 224.201 90.8613 224.201 90.8613L216.351 91.2789Z" fill="#D8877B"/>
<path d="M196.427 127.368C195.818 125.186 196.427 123.745 196.937 123.048C197.448 122.351 197.866 123.234 197.913 123.513C197.959 123.792 197.82 125.649 197.82 125.649C197.82 125.649 198.191 124.488 198.934 123.188C199.677 121.887 200.513 121.469 201.024 122.445C201.024 122.445 201.767 122.026 202.232 123.141C202.232 123.141 203.207 123.327 203.022 124.627C203.022 124.627 203.672 125.184 203.44 126.113C203.207 127.042 202.185 128.111 201.768 129.55C201.35 130.991 197.254 130.328 196.427 127.368Z" fill="#D8877B"/>
<path d="M235.571 116.244C234.142 116.627 227.942 115.094 227.141 114.641C227.141 114.641 227.576 114.206 228.186 114.084L231.948 115.042L233.481 115.408L234.781 115.802L235.571 116.244Z" fill="#2E344B"/>
<path d="M228.191 114.084C228.191 114.084 227.541 116.476 226.519 117.915C225.497 119.356 215.976 129.086 215.465 129.504C214.954 129.922 211.61 129.783 210.635 130.386C209.659 130.99 210.449 131.641 211.192 131.594C211.935 131.548 213.189 131.733 213.189 131.733C213.189 131.733 212.4 133.127 211.935 133.591C211.47 134.056 210.077 134.752 209.566 134.891C209.055 135.031 209.148 136.192 209.752 136.146C209.752 136.146 209.148 137.214 210.402 137.632C210.402 137.632 210.123 138.328 211.331 138.421C211.331 138.421 211.378 138.746 212.678 138.654C213.978 138.561 215.604 136.889 216.301 136.192C216.997 135.496 218.205 133.313 218.53 133.08C218.855 132.848 229.537 124.07 231.163 122.212C232.789 120.354 234.786 115.802 234.786 115.802C234.786 115.802 231.396 113.433 228.191 114.084Z" fill="#D8877B"/>
<path d="M225.687 94.3207C225.515 94.2619 225.332 94.1949 225.135 94.1105C224.159 93.6924 224.206 90.8594 224.206 90.8594L219.988 91.0842L217.411 91.4953L216.267 92.3525C216.249 92.4975 216.228 92.65 216.203 92.8043C217.073 93.5934 220.356 96.0729 225.687 94.3207Z" fill="#B44E50"/>
<path d="M227.44 82.5477C227.44 82.5477 229.411 81.3801 230.65 83.3478C231.89 85.3155 229.869 86.9902 228.209 86.9896C228.209 86.9896 226.642 93.9333 220.642 94.1918C214.67 94.4492 212.101 88.3336 211.617 83.8078C211.617 83.8078 214.305 82.5372 214.603 81.0808C214.901 79.6244 218.575 79.466 220.409 76.7891C220.409 76.7891 221.823 79.4707 223.561 79.6122C225.299 79.7531 227.037 81.5548 227.44 82.5477Z" fill="#D8877B"/>
<path d="M223.561 79.6102C221.822 79.4687 220.408 76.7871 220.408 76.7871C218.575 79.4641 214.901 79.6224 214.603 81.0788C214.305 82.5352 211.617 83.8059 211.617 83.8059C211.633 83.9578 211.652 84.1116 211.673 84.2665C212.717 84.0254 214.601 82.6994 215.037 81.7037C215.524 80.5891 218.503 80.0836 220.244 78.0636C220.244 78.0636 221.533 80.0493 223.414 80.2583C224.881 80.4214 226.398 81.6175 227.197 82.0921C226.551 81.0841 225.058 79.7325 223.561 79.6102Z" fill="#B44E50"/>
<path d="M229.867 83.673C229.931 83.517 229.783 83.3516 229.675 83.2596C229.546 83.1507 229.408 83.0633 229.246 83.0133C228.95 82.9224 228.594 82.9806 228.384 83.2223C228.191 83.4447 228.154 83.7528 228.166 84.0376C228.183 84.3968 228.229 84.7579 228.286 85.1125C228.318 85.3094 228.617 85.3816 228.742 85.2325C228.862 85.0892 229.143 84.9 229.306 85.1044C229.375 85.1911 229.332 85.3245 229.287 85.4107C229.248 85.4846 229.192 85.5475 229.152 85.6209C229.108 85.7018 229.081 85.7886 229.061 85.8777C229.033 85.9982 229.141 86.1258 229.269 86.0856C229.549 85.9982 229.721 85.7921 229.815 85.5172C229.906 85.2534 229.861 84.9652 229.68 84.7515C229.442 84.4702 229.082 84.437 228.77 84.557C228.756 84.419 228.734 84.2815 228.728 84.1418C228.72 83.9688 228.699 83.7347 228.815 83.5979C229.088 83.28 229.679 84.1331 229.867 83.673Z" fill="#B44E50"/>
<path d="M228.201 114.084C228.201 114.084 228.163 114.221 228.094 114.445C228.623 114.614 231.85 115.151 234.29 116.899C234.604 116.241 234.796 115.802 234.796 115.802C234.796 115.802 231.405 113.433 228.201 114.084Z" fill="#B44E50"/>
<path d="M214.044 133.625C213.861 133.71 213.732 133.915 213.603 134.066C213.457 134.236 213.311 134.408 213.153 134.568C212.86 134.863 212.53 135.124 212.173 135.339C211.468 135.763 210.692 136.066 209.877 136.185C209.789 136.198 209.809 136.346 209.898 136.34C210.751 136.283 211.59 136.041 212.313 135.577C212.663 135.351 212.993 135.092 213.287 134.798C213.463 134.623 213.627 134.438 213.79 134.253C213.93 134.094 214.115 133.94 214.193 133.74C214.229 133.648 214.115 133.592 214.044 133.625Z" fill="#B44E50"/>
<path d="M215.004 135.163C214.676 135.441 214.376 135.744 214.03 136.004C213.687 136.261 213.321 136.487 212.941 136.686C212.182 137.088 211.355 137.36 210.517 137.541C210.404 137.566 210.454 137.728 210.563 137.711C211.437 137.572 212.268 137.281 213.056 136.883C213.45 136.685 213.828 136.456 214.191 136.205C214.546 135.96 214.922 135.693 215.214 135.373C215.344 135.23 215.149 135.04 215.004 135.163Z" fill="#B44E50"/>
<path d="M215.006 136.491C214.723 136.582 214.495 136.826 214.253 136.995C213.991 137.177 213.72 137.345 213.439 137.495C213.157 137.645 212.869 137.778 212.572 137.894C212.266 138.014 211.944 138.096 211.642 138.222C211.555 138.258 211.551 138.423 211.667 138.407C211.985 138.366 212.309 138.246 212.607 138.129C212.912 138.008 213.212 137.872 213.502 137.718C213.792 137.564 214.074 137.395 214.345 137.211C214.595 137.04 214.929 136.851 215.069 136.574C215.09 136.533 215.055 136.475 215.006 136.491Z" fill="#B44E50"/>
<path d="M200.859 122.522C200.714 122.517 200.615 122.664 200.529 122.766C200.42 122.896 200.321 123.038 200.225 123.178C200.017 123.478 199.833 123.795 199.671 124.123C199.516 124.435 199.375 124.756 199.255 125.083C199.194 125.25 199.138 125.419 199.087 125.59C199.044 125.738 198.952 125.944 199.012 126.095C199.047 126.181 199.142 126.214 199.215 126.148C199.326 126.049 199.34 125.87 199.377 125.731C199.424 125.56 199.476 125.39 199.533 125.221C199.647 124.888 199.782 124.562 199.944 124.249C200.098 123.951 200.271 123.662 200.457 123.382C200.555 123.234 200.664 123.093 200.766 122.948C200.845 122.838 200.96 122.719 200.931 122.576C200.925 122.544 200.89 122.522 200.859 122.522Z" fill="#B44E50"/>
<path d="M202.13 123.311C201.984 123.31 201.887 123.427 201.79 123.523C201.675 123.637 201.569 123.76 201.469 123.889C201.273 124.142 201.108 124.417 200.969 124.706C200.822 125.013 200.696 125.334 200.603 125.661C200.554 125.838 200.509 126.017 200.467 126.195C200.427 126.368 200.367 126.553 200.367 126.732C200.367 126.814 200.487 126.852 200.527 126.775C200.601 126.633 200.632 126.47 200.677 126.317C200.724 126.16 200.772 126.004 200.824 125.849C200.936 125.519 201.051 125.188 201.201 124.872C201.33 124.603 201.481 124.343 201.659 124.103C201.748 123.983 201.846 123.868 201.951 123.76C202.045 123.661 202.195 123.571 202.221 123.43C202.232 123.371 202.196 123.311 202.13 123.311Z" fill="#B44E50"/>
<path d="M202.905 124.714C202.77 124.701 202.681 124.81 202.596 124.899C202.498 125.002 202.413 125.115 202.333 125.232C202.159 125.483 202.02 125.757 201.9 126.037C201.783 126.309 201.684 126.587 201.593 126.869C201.51 127.129 201.334 127.485 201.455 127.754C201.494 127.841 201.621 127.79 201.623 127.708C201.628 127.55 201.639 127.418 201.688 127.266C201.733 127.129 201.778 126.994 201.825 126.859C201.917 126.59 202.014 126.322 202.13 126.062C202.239 125.819 202.364 125.583 202.514 125.364C202.596 125.244 202.686 125.13 202.781 125.019C202.854 124.935 202.937 124.865 202.937 124.745C202.937 124.727 202.923 124.716 202.905 124.714Z" fill="#B44E50"/>
<path d="M211.223 102.524C210.809 103.03 210.628 103.712 210.425 104.323C210.194 105.017 210.013 105.73 209.86 106.445C209.718 107.115 209.604 107.79 209.527 108.471C209.458 109.086 209.262 109.91 209.519 110.499C209.541 110.55 209.623 110.544 209.647 110.499C209.784 110.241 209.8 109.95 209.824 109.664C209.853 109.31 209.886 108.956 209.929 108.603C210.016 107.896 210.129 107.189 210.273 106.491C210.412 105.817 210.587 105.152 210.773 104.49C210.951 103.856 211.247 103.217 211.295 102.556C211.299 102.519 211.246 102.496 211.223 102.524Z" fill="#2E344B"/>
<path d="M226.319 98.5329C226.931 97.9139 227.413 97.1843 227.748 96.3824C227.914 95.9853 228.061 95.5701 228.12 95.142C228.133 95.0425 228.151 94.9382 228.169 94.8323C228.066 94.8119 227.961 94.7927 227.856 94.7734C227.835 94.8835 227.811 94.993 227.774 95.1007C227.641 95.4944 227.522 95.8886 227.346 96.2671C227.004 97.0002 226.539 97.681 225.964 98.2511C225.39 98.82 224.707 99.2864 223.972 99.6207C223.609 99.7855 223.233 99.9072 222.849 100.012C222.65 100.067 222.449 100.117 222.246 100.156C222.155 100.173 222.072 100.183 221.996 100.207C221.915 100.201 221.83 100.238 221.795 100.336C221.154 102.171 220.393 103.942 219.454 105.642C219.109 104.772 218.859 103.875 218.615 102.969C218.478 102.46 218.354 101.947 218.236 101.433C218.128 100.961 218.067 100.403 217.851 99.9683C217.847 99.9596 217.839 99.959 217.834 99.952C217.84 99.9218 217.841 99.8886 217.827 99.8501C217.754 99.63 217.342 99.5869 217.151 99.5223C216.099 99.1665 215.128 98.5807 214.328 97.8103C213.572 97.0812 212.948 96.1803 212.487 95.2241C212.426 95.2434 212.367 95.2626 212.305 95.2835C212.857 97.1749 214.31 98.7274 216.075 99.5992C216.309 99.715 216.55 99.8164 216.796 99.9043C217.014 99.9817 217.272 100.088 217.512 100.103C217.51 100.35 217.579 100.6 217.625 100.84C217.678 101.118 217.735 101.395 217.796 101.672C217.91 102.186 218.027 102.702 218.163 103.211C218.441 104.243 218.819 105.254 219.25 106.231C219.314 106.376 219.536 106.355 219.606 106.231C220.634 104.423 221.515 102.504 222.138 100.516C222.41 100.529 222.749 100.434 222.954 100.391C223.376 100.304 223.79 100.156 224.185 99.9852C224.981 99.6393 225.709 99.1513 226.319 98.5329Z" fill="#2E344B"/>
<path d="M228.774 105.531C228.766 105.511 228.731 105.499 228.72 105.524C228.454 106.13 228.501 106.9 228.442 107.552C228.371 108.342 228.269 109.128 228.153 109.913C227.928 111.431 227.541 112.908 227.246 114.412C227.209 114.598 227.462 114.666 227.528 114.49C228.066 113.043 228.342 111.479 228.571 109.956C228.68 109.228 228.758 108.494 228.816 107.76C228.846 107.39 228.868 107.021 228.875 106.65C228.882 106.263 228.912 105.899 228.774 105.531Z" fill="#2E344B"/>
<path d="M224.264 118.836C223.82 118.988 223.432 119.242 223.021 119.464C222.56 119.711 222.084 119.933 221.595 120.122C220.647 120.485 219.656 120.743 218.641 120.819C216.743 120.96 214.724 120.467 213.187 119.326C213.168 119.312 213.145 119.342 213.162 119.358C214.648 120.702 216.601 121.265 218.582 121.157C219.624 121.1 220.661 120.871 221.636 120.499C222.115 120.315 222.584 120.103 223.039 119.864C223.507 119.618 223.986 119.366 224.341 118.969C224.389 118.914 224.343 118.81 224.264 118.836Z" fill="#2E344B"/>
<path d="M224.869 117.504C224.511 117.749 224.158 118 223.778 118.211C223.564 118.329 223.343 118.427 223.127 118.538C222.925 118.643 222.682 118.717 222.512 118.871C222.502 118.88 222.511 118.892 222.521 118.894C222.726 118.922 222.94 118.843 223.133 118.786C223.334 118.728 223.527 118.646 223.718 118.56C224.112 118.383 224.503 118.18 224.854 117.928C224.98 117.838 225.279 117.675 225.261 117.491C225.24 117.272 224.958 117.442 224.869 117.504Z" fill="#2E344B"/>
<path d="M220.901 145.825C220.896 145.501 220.896 145.177 220.896 144.853C220.896 144.561 220.972 144.171 220.83 143.908C220.766 143.789 220.602 143.804 220.534 143.908C220.446 144.043 220.444 144.21 220.436 144.368C220.427 144.542 220.42 144.716 220.415 144.89C220.405 145.214 220.405 145.538 220.409 145.862C220.419 146.526 220.419 147.202 220.587 147.848C220.636 148.038 220.892 147.98 220.91 147.804C220.976 147.146 220.911 146.484 220.901 145.825Z" fill="#2E344B"/>
<path d="M217.538 156.207C217.811 154.867 218.106 153.531 218.43 152.202C218.762 150.834 219.182 149.465 219.415 148.077C219.424 148.029 219.352 147.987 219.329 148.04C218.855 149.153 218.566 150.349 218.25 151.514C217.922 152.723 217.637 153.946 217.373 155.17C216.844 157.621 216.41 160.093 216.074 162.577C215.409 167.503 215.081 172.515 215.198 177.486C215.262 180.18 215.414 182.891 215.795 185.561C213.177 185.554 210.56 185.546 207.941 185.551C207.563 185.552 207.184 185.55 206.805 185.548C206.827 185.718 206.848 185.88 206.869 186.036C209.865 186.041 212.861 186.033 215.858 186.023C216.431 186.021 217.004 186.02 217.577 186.019C217.565 185.872 217.553 185.722 217.54 185.564C217.095 185.563 216.65 185.564 216.205 185.562C215.991 183.191 215.773 180.823 215.685 178.442C215.594 175.965 215.579 173.476 215.677 170.998C215.874 166.036 216.544 161.071 217.538 156.207Z" fill="#2E344B"/>
<path d="M237.465 185.538C236.845 185.54 236.225 185.541 235.605 185.543C235.63 185.513 235.647 185.474 235.645 185.423C235.511 182.135 235.343 178.852 235.319 175.56C235.308 173.941 235.319 172.32 235.377 170.702C235.436 169.069 235.594 167.44 235.639 165.806C235.726 162.592 235.124 159.423 234.981 156.22C234.91 154.621 234.984 153.021 234.993 151.421C235.002 149.826 234.947 148.23 234.822 146.639C234.544 143.121 234.004 139.547 232.916 136.182C232.879 136.066 232.707 136.113 232.734 136.232C233.439 139.358 234.09 142.477 234.389 145.672C234.536 147.236 234.62 148.807 234.63 150.378C234.641 151.973 234.556 153.568 234.576 155.164C234.615 158.371 235.249 161.537 235.272 164.744C235.284 166.352 235.139 167.956 235.048 169.559C234.957 171.176 234.898 172.796 234.894 174.416C234.885 178.085 235.039 181.759 235.254 185.421C235.257 185.473 235.278 185.512 235.307 185.543C233.293 185.549 231.278 185.555 229.265 185.559C228.486 185.561 227.708 185.563 226.93 185.565C226.97 185.725 227.009 185.878 227.047 186.025C229.944 186.031 232.841 186.036 235.739 186.042C236.321 186.043 236.903 186.045 237.485 186.046C237.477 185.883 237.471 185.714 237.465 185.538Z" fill="#2E344B"/>
<path d="M216.832 85.6824C216.799 85.2684 216.628 84.8677 216.311 84.7047C216.218 84.6569 216.12 84.6348 216.017 84.6377C215.948 84.6249 215.879 84.6301 215.812 84.6528C215.71 84.6651 215.617 84.7012 215.532 84.7617C215.483 84.8043 215.434 84.8468 215.385 84.8893C215.297 84.9888 215.238 85.1024 215.211 85.2305C215.084 85.8239 215.169 87.0299 216.052 86.9268C216.253 86.9029 216.458 86.8238 216.589 86.6659C216.779 86.4348 216.861 86.0533 216.832 85.6824Z" fill="#2E344B"/>
<path d="M222.52 85.8269C222.487 85.4129 222.315 85.0123 221.998 84.8492C221.906 84.8015 221.808 84.7793 221.705 84.7822C221.635 84.7694 221.567 84.7747 221.5 84.7974C221.397 84.8096 221.304 84.8457 221.22 84.9063C221.17 84.9488 221.121 84.9913 221.072 85.0338C220.984 85.1334 220.926 85.2469 220.898 85.375C220.771 85.9684 220.856 87.1744 221.739 87.0714C221.941 87.0475 222.146 86.9689 222.276 86.8105C222.466 86.5793 222.549 86.1979 222.52 85.8269Z" fill="#2E344B"/>
<path d="M218.878 88.847C218.796 88.7689 218.717 88.6979 218.624 88.6327C218.539 88.5739 218.448 88.5255 218.372 88.4545C218.219 88.3136 218.128 88.1225 218.28 87.9478C218.459 87.744 218.596 87.5274 218.687 87.2712C218.765 87.0505 218.859 86.7151 218.743 86.4961C218.693 86.4012 218.553 86.4088 218.5 86.4961C218.428 86.6184 218.424 86.7797 218.384 86.916C218.346 87.0487 218.291 87.1739 218.22 87.2927C218.15 87.4109 218.07 87.5169 217.976 87.6171C217.861 87.7405 217.763 87.8663 217.746 88.0399C217.717 88.3147 217.862 88.5837 218.068 88.7579C218.169 88.8435 218.281 88.9221 218.402 88.9762C218.53 89.0333 218.652 89.0496 218.79 89.0572C218.898 89.0648 218.953 88.9192 218.878 88.847Z" fill="#B44E50"/>
<path d="M221.578 85.0108C221.559 84.9438 221.525 84.885 221.475 84.8355L221.395 84.7732C221.333 84.7371 221.266 84.719 221.195 84.719C221.14 84.7167 221.089 84.7284 221.042 84.7534C220.992 84.7691 220.95 84.7971 220.914 84.8355C220.875 84.8716 220.848 84.9141 220.831 84.9636C220.806 85.0108 220.795 85.062 220.797 85.1168C220.802 85.1523 220.806 85.1872 220.811 85.2222C220.83 85.2897 220.864 85.3479 220.913 85.3974L220.993 85.4598C221.055 85.4959 221.122 85.5139 221.194 85.5139C221.248 85.5162 221.3 85.5046 221.347 85.4796C221.396 85.4633 221.439 85.4359 221.474 85.3974C221.513 85.3613 221.541 85.3188 221.556 85.2699C221.581 85.2228 221.593 85.1715 221.591 85.1168C221.587 85.0807 221.583 85.0457 221.578 85.0108Z" fill="white"/>
<path d="M215.509 87.439C215.509 87.8646 214.98 88.21 214.329 88.21C213.677 88.21 213.148 87.8646 213.148 87.439C213.148 87.0133 213.677 86.668 214.329 86.668C214.981 86.668 215.509 87.0133 215.509 87.439Z" fill="#A2185A"/>
<path d="M224.775 87.6069C224.775 88.0326 224.247 88.3779 223.594 88.3779C222.943 88.3779 222.414 88.0326 222.414 87.6069C222.414 87.1813 222.942 86.8359 223.594 86.8359C224.247 86.8359 224.775 87.1813 224.775 87.6069Z" fill="#A2185A"/>
<path d="M222.753 84.3123C222.711 84.2709 222.64 84.2465 222.583 84.2674C222.569 84.2721 222.557 84.2773 222.543 84.2831C222.527 84.2878 222.514 84.2954 222.502 84.307C222.495 84.3128 222.487 84.3187 222.48 84.3251C222.477 84.3274 222.475 84.3303 222.472 84.3332C222.461 84.3449 222.449 84.3565 222.438 84.3687L222.371 84.4398C222.352 84.4607 222.333 84.4835 222.321 84.5097C222.314 84.5242 222.308 84.5382 222.301 84.5528C222.297 84.5597 222.294 84.5673 222.291 84.5743C222.289 84.5784 222.287 84.5824 222.285 84.5865C222.282 84.5929 222.279 84.5993 222.277 84.6063C222.271 84.6174 222.267 84.6296 222.267 84.643C222.262 84.6762 222.269 84.7088 222.285 84.7385C222.295 84.7566 222.312 84.7764 222.33 84.7851C222.337 84.7886 222.344 84.7915 222.352 84.7944C222.388 84.8101 222.428 84.8101 222.465 84.7944C222.485 84.7863 222.504 84.7769 222.522 84.7676C222.536 84.7612 222.549 84.7542 222.562 84.7478C222.589 84.7344 222.611 84.7152 222.633 84.6943C222.654 84.6727 222.676 84.6512 222.698 84.6296C222.71 84.618 222.721 84.6069 222.733 84.5953C222.735 84.5929 222.738 84.59 222.741 84.5877C222.75 84.5755 222.76 84.5627 222.77 84.5504L222.773 84.5463C222.784 84.5271 222.791 84.505 222.798 84.484C222.817 84.4241 222.795 84.3542 222.753 84.3123Z" fill="#A2185A"/>
<path d="M223.061 85.0012C223.058 84.9924 223.054 84.9837 223.05 84.975C223.043 84.9622 223.034 84.9517 223.022 84.9441C223.015 84.9371 223.007 84.9325 222.998 84.9301C222.984 84.9231 222.971 84.9202 222.955 84.9208L222.902 84.9144C222.894 84.9132 222.885 84.9121 222.876 84.9109C222.857 84.9086 222.838 84.9121 222.82 84.9156C222.803 84.9185 222.786 84.9208 222.77 84.9255C222.747 84.9319 222.726 84.9459 222.706 84.9575C222.65 84.9884 222.65 85.074 222.706 85.1048C222.725 85.1159 222.746 85.1281 222.767 85.1357C222.784 85.1415 222.803 85.1433 222.82 85.1462C222.838 85.1497 222.855 85.1532 222.873 85.1508C222.882 85.1497 222.891 85.1485 222.9 85.1473L222.955 85.1403C222.965 85.1392 222.975 85.1374 222.984 85.1363C222.999 85.1328 223.011 85.1264 223.022 85.1165C223.04 85.1025 223.056 85.0821 223.061 85.0594C223.064 85.0501 223.066 85.039 223.066 85.0303C223.065 85.0204 223.064 85.0105 223.061 85.0012Z" fill="#A2185A"/>
<path d="M215.711 84.8741C215.692 84.8065 215.658 84.7483 215.608 84.6988L215.528 84.6365C215.466 84.6004 215.399 84.5823 215.328 84.5823C215.273 84.58 215.222 84.5916 215.174 84.6167C215.125 84.6324 215.082 84.6598 215.046 84.6988C215.008 84.7349 214.981 84.7774 214.964 84.8269C214.939 84.8741 214.928 84.9253 214.93 84.98C214.935 85.0156 214.939 85.0505 214.944 85.0855C214.962 85.153 214.997 85.2112 215.046 85.2607L215.126 85.323C215.188 85.3591 215.255 85.3772 215.326 85.3772C215.381 85.3795 215.432 85.3679 215.48 85.3428C215.529 85.3271 215.572 85.2997 215.607 85.2607C215.646 85.2246 215.673 85.1821 215.689 85.1332C215.714 85.086 215.725 85.0348 215.724 84.98C215.72 84.9445 215.715 84.9096 215.711 84.8741Z" fill="white"/>
<path d="M214.82 84.3452C214.815 84.3347 214.808 84.3248 214.799 84.3172C214.784 84.3021 214.765 84.2916 214.744 84.2852L214.762 84.2928C214.746 84.2858 214.731 84.2759 214.717 84.266C214.712 84.2625 214.709 84.2596 214.705 84.2555C214.694 84.2445 214.682 84.2328 214.668 84.2252C214.663 84.2229 214.658 84.22 214.654 84.2177C214.637 84.2078 214.624 84.195 214.604 84.1903C214.59 84.1874 214.576 84.1874 214.562 84.1856C214.565 84.1862 214.566 84.1862 214.569 84.1862C214.547 84.1833 214.526 84.1897 214.51 84.2054C214.508 84.2072 214.506 84.2089 214.505 84.2107C214.498 84.2188 214.491 84.227 214.485 84.2357C214.479 84.2445 214.475 84.2514 214.473 84.2643C214.47 84.2747 214.468 84.2875 214.469 84.298C214.471 84.319 214.474 84.34 214.48 84.3603C214.48 84.3633 214.481 84.3656 214.482 84.3685C214.489 84.3912 214.499 84.4093 214.516 84.4279C214.52 84.4325 214.524 84.4372 214.529 84.4419C214.554 84.4663 214.583 84.4885 214.613 84.5048C214.619 84.5077 214.624 84.51 214.63 84.5123C214.654 84.5234 214.68 84.5368 214.708 84.5356C214.743 84.5339 214.778 84.5216 214.802 84.4954C214.822 84.4733 214.841 84.4448 214.838 84.4133C214.835 84.3895 214.833 84.3679 214.82 84.3452Z" fill="#A2185A"/>
<path d="M214.554 84.958C214.536 84.9463 214.517 84.9341 214.495 84.9294C214.473 84.9242 214.449 84.923 214.426 84.9207C214.399 84.9178 214.372 84.9166 214.346 84.9161C214.272 84.9155 214.194 84.9213 214.128 84.958C214.079 84.9859 214.05 85.0523 214.068 85.107C214.086 85.1647 214.135 85.2008 214.195 85.2043C214.207 85.2049 214.219 85.2026 214.23 85.202C214.254 85.2002 214.277 85.1985 214.3 85.1938C214.318 85.1897 214.336 85.1874 214.353 85.1845C214.375 85.1822 214.397 85.1798 214.42 85.1787C214.434 85.1781 214.448 85.1787 214.461 85.1781C214.486 85.1775 214.505 85.1711 214.527 85.1635C214.57 85.1484 214.601 85.117 214.607 85.0704C214.613 85.0244 214.592 84.983 214.554 84.958Z" fill="#A2185A"/>
<path d="M216.014 82.4423C216.063 82.3811 216.098 82.3246 216.109 82.2443C216.119 82.1721 216.111 82.0865 216.069 82.0242C216.041 81.9834 216.01 81.938 215.977 81.9042C215.908 81.8337 215.826 81.8017 215.735 81.7679C215.612 81.7225 215.461 81.7464 215.337 81.7697C215.167 81.8017 215.001 81.8669 214.85 81.9502C214.706 82.03 214.555 82.133 214.446 82.2571C214.307 82.4172 214.154 82.6467 214.156 82.865C214.16 83.1725 214.488 83.3484 214.752 83.2069C214.871 83.1434 214.956 83.0234 215.062 82.9407C215.031 82.9646 215 82.9885 214.97 83.0118C215.018 82.9751 215.065 82.9372 215.112 82.9C215.195 82.8382 215.285 82.7893 215.378 82.7456C215.456 82.7165 215.533 82.688 215.616 82.6705C215.698 82.6531 215.776 82.6257 215.85 82.5849C215.911 82.5517 215.964 82.5086 216.006 82.4539C216.006 82.4539 216.01 82.4492 216.01 82.4481C216.005 82.4539 216.004 82.4551 216.014 82.4423Z" fill="#5F2A3D"/>
<path d="M216.008 82.4467C216.02 82.4327 216.061 82.3826 216.046 82.3972C216.035 82.4071 216.013 82.4386 216.008 82.4467Z" fill="#5F2A3D"/>
<path d="M222.748 83.0117C222.716 83.025 222.723 83.0227 222.748 83.0117V83.0117Z" fill="#5F2A3D"/>
<path d="M221.084 82.3579C221.082 82.3568 221.081 82.3556 221.08 82.3545C221.074 82.3499 221.069 82.347 221.062 82.3418C221.064 82.3429 221.074 82.3504 221.084 82.3579Z" fill="#5F2A3D"/>
<path d="M222.856 82.3572C222.684 82.0736 222.376 81.8919 222.066 81.7958C221.913 81.7487 221.751 81.7201 221.591 81.7207C221.388 81.7219 221.18 81.7434 221.03 81.8942C220.888 82.0387 220.937 82.2401 221.083 82.3531C221.127 82.3857 221.162 82.4084 221.216 82.4277C221.242 82.437 221.269 82.4445 221.297 82.4504C221.357 82.4638 221.417 82.476 221.475 82.494C221.527 82.5103 221.578 82.5301 221.63 82.5488C221.658 82.5587 221.685 82.5709 221.713 82.5802C221.584 82.5365 221.685 82.5692 221.72 82.5872C221.827 82.6408 221.931 82.7066 222.029 82.7747C222.033 82.7776 222.037 82.7811 222.041 82.7846C222.035 82.7788 222.033 82.7776 222.025 82.7701C222.068 82.8114 222.119 82.8481 222.168 82.8813C222.216 82.9127 222.262 82.9477 222.313 82.971C222.362 82.9937 222.411 83.0199 222.461 83.0362C222.496 83.0472 222.542 83.0548 222.578 83.0548C222.642 83.0548 222.69 83.0321 222.747 83.0111C222.754 83.0077 222.758 83.0059 222.772 83.0007L222.748 83.0106C222.747 83.0106 222.747 83.0106 222.747 83.0111C222.754 83.0088 222.759 83.0065 222.766 83.0042C222.769 83.003 222.772 83.0007 222.775 82.9995C222.777 82.9989 222.776 82.9989 222.778 82.9983C222.796 82.9867 222.816 82.9704 222.832 82.9558C223 82.7992 222.966 82.5371 222.856 82.3572Z" fill="#5F2A3D"/>
<path d="M222.039 82.7871C222.071 82.8126 222.1 82.8446 222.039 82.7871V82.7871Z" fill="#5F2A3D"/>
<path d="M221.086 82.3555C221.087 82.3566 221.088 82.3584 221.089 82.359C221.116 82.3787 221.102 82.3677 221.086 82.3555Z" fill="#5F2A3D"/>
<path d="M219.429 89.8703C219.204 89.7357 218.9 89.6868 218.642 89.7078C218.329 89.734 218.036 89.8359 217.8 90.0479C217.64 90.1917 217.845 90.4421 218.025 90.3396C218.221 90.2284 218.441 90.1591 218.666 90.1579C218.726 90.1574 218.786 90.162 218.846 90.1684C218.851 90.169 218.9 90.1737 218.874 90.1707C218.851 90.1678 218.891 90.1737 218.891 90.1737C218.926 90.1801 218.961 90.1865 218.996 90.1952C219.137 90.2296 219.229 90.2802 219.341 90.3198C219.412 90.3449 219.497 90.3746 219.569 90.3431C219.58 90.3384 219.608 90.3157 219.619 90.3082C219.638 90.2901 219.651 90.2779 219.663 90.2517C219.732 90.0904 219.551 89.9436 219.429 89.8703Z" fill="#B44E50"/>
<path d="M219.616 90.307C219.613 90.3096 219.613 90.3123 219.609 90.3149C219.623 90.3028 219.622 90.3033 219.616 90.307Z" fill="#B44E50"/>
<path d="M179.299 92.2747C179.181 91.3983 178.344 90.4677 177.374 90.5749C176.607 90.6593 175.975 90.8649 175.294 91.2352C174.962 91.4163 174.637 91.6137 174.322 91.8228C173.539 92.3422 172.784 92.9298 172.115 93.5913C171.467 94.233 170.858 94.9557 170.454 95.7762C170.225 96.2409 170.034 96.7236 169.899 97.2238C169.784 97.6466 169.755 98.0606 169.87 98.4898C170.049 99.156 170.664 99.8146 171.418 99.757C171.933 99.7174 172.363 99.5339 172.736 99.1775C172.948 98.9755 173.088 98.7268 173.246 98.4863C173.425 98.2155 173.621 97.9541 173.818 97.6955C174.013 97.4486 174.209 97.2029 174.401 96.9525C174.297 97.087 174.193 97.2215 174.089 97.356C174.608 96.6928 175.209 96.1058 175.864 95.5788C176.394 95.1863 176.958 94.8183 177.548 94.523C177.662 94.4857 177.774 94.4444 177.895 94.4258C178.329 94.3594 178.867 93.9017 179.067 93.5249C179.275 93.1283 179.358 92.7207 179.299 92.2747Z" fill="white"/>
<path d="M185.736 91.2832C185.736 91.13 185.697 90.9874 185.621 90.8552C185.58 90.7114 185.508 90.5867 185.402 90.4808C185.361 90.4027 185.307 90.3369 185.24 90.2845C185.124 90.1954 185.009 90.1063 184.894 90.0172C184.871 90.0015 184.848 89.9858 184.825 89.9706C184.658 89.8623 184.469 89.7872 184.277 89.7354C184.154 89.7022 184.031 89.6748 183.907 89.6533C183.653 89.6084 183.396 89.5747 183.139 89.549C183.014 89.5368 182.888 89.5257 182.763 89.5397C182.514 89.5677 182.263 89.5997 182.018 89.6527C181.958 89.6661 181.898 89.6806 181.839 89.6964C181.744 89.722 181.67 89.7563 181.573 89.7971C181.386 89.8763 181.187 89.9869 181.051 90.1436C180.793 90.4377 180.584 90.8179 180.603 91.225C180.62 91.6035 180.74 92.06 181.051 92.3063C181.273 92.4828 181.469 92.6581 181.76 92.7239C181.807 92.7344 181.856 92.7396 181.905 92.7466C182.03 92.7664 182.155 92.7879 182.277 92.8194C182.419 92.8555 182.563 92.8729 182.706 92.9032C182.85 92.9335 182.992 92.9714 183.132 93.0168C183.199 93.0383 183.266 93.0616 183.331 93.0867C183.403 93.1146 183.481 93.1251 183.557 93.1385C183.55 93.1373 183.542 93.1367 183.535 93.1356C183.545 93.1373 183.556 93.1391 183.567 93.1408C183.632 93.1519 183.695 93.1658 183.761 93.1723C183.852 93.1874 183.944 93.2002 184.031 93.2025C184.12 93.2101 184.208 93.2008 184.295 93.1746C184.448 93.174 184.591 93.1356 184.723 93.0587C184.867 93.0185 184.992 92.9457 185.098 92.8409C185.163 92.8019 185.222 92.7559 185.275 92.7023C185.285 92.693 185.295 92.6843 185.303 92.675C185.593 92.3716 185.762 91.961 185.766 91.5412C185.768 91.4521 185.751 91.3909 185.736 91.2832Z" fill="white"/>
<path d="M190.791 114.75C190.734 114.509 190.623 114.299 190.459 114.121C190.121 113.683 189.581 113.358 189.005 113.391C188.948 113.394 188.889 113.396 188.832 113.398C188.415 113.414 188.072 113.517 187.712 113.71C187.576 113.783 187.454 113.858 187.329 113.946C187.213 114.027 187.095 114.104 186.973 114.175C186.825 114.263 186.688 114.367 186.552 114.473C186.07 114.822 185.479 115.071 185.197 115.623C185.062 115.888 185.003 116.152 185.044 116.45C185.084 116.75 185.205 116.961 185.401 117.195C185.811 117.686 186.409 117.747 186.996 117.805C187.256 117.831 187.519 117.839 187.779 117.825C188.214 117.8 188.606 117.684 189.005 117.523C189.319 117.396 189.543 117.306 189.794 117.115C190.103 116.881 190.385 116.68 190.549 116.313C190.634 116.123 190.714 115.929 190.791 115.735C190.879 115.406 190.879 115.079 190.791 114.75Z" fill="white"/>
<path d="M219.401 257.926H213.13L200.172 205.117H206.442L219.401 257.926Z" fill="#8EADD5"/>
<path d="M257.705 257.926H251.435L238.477 205.117H244.746L257.705 257.926Z" fill="#8EADD5"/>
<path d="M217.643 257.926H211.373L198.414 205.117H204.685L217.643 257.926Z" fill="#B9CFE6"/>
<path d="M184.211 257.926H190.481L203.439 205.117H197.169L184.211 257.926Z" fill="#8EADD5"/>
<path d="M256.112 257.926H249.841L236.883 205.117H243.153L256.112 257.926Z" fill="#B9CFE6"/>
<path d="M206.772 224.068H243.836V218.634H206.772V224.068Z" fill="#B9CFE6"/>
<path d="M212.631 243.436H249.695V238.001H212.631V243.436Z" fill="#B9CFE6"/>
<path d="M181.789 257.926H188.06L201.018 205.117H194.748L181.789 257.926Z" fill="white"/>
<path d="M222.578 257.926H228.848L241.806 205.117H235.537L222.578 257.926Z" fill="#8EADD5"/>
<path d="M220.25 257.926H226.52L239.478 205.117H233.208L220.25 257.926Z" fill="white"/>
<path d="M231.119 218.633H194.055V224.067H231.119V218.633Z" fill="white"/>
<path d="M225.275 238.002H188.211V243.436H225.275V238.002Z" fill="white"/>
<path d="M244.175 206.511H193.268C192.037 206.511 191.039 205.514 191.039 204.282V204.188C191.039 202.957 192.037 201.959 193.268 201.959H244.175C245.405 201.959 246.404 202.957 246.404 204.188V204.282C246.404 205.514 245.405 206.511 244.175 206.511Z" fill="white"/>
<path d="M54.7792 159.072H96.3013C97.6843 159.072 98.9928 159.616 99.8604 160.55L105.722 166.865C106.3 167.488 107.173 167.85 108.095 167.85H172.913C175.209 167.85 177.07 169.465 177.07 171.458V250.143C177.07 254.44 173.055 257.925 168.102 257.925H56.8272C53.3589 257.925 50.5469 255.485 50.5469 252.475V162.745C50.5475 160.717 52.4418 159.072 54.7792 159.072Z" fill="#9E5800"/>
<path d="M85.2035 112.08L67.7344 129.549V196.491H153.368V112.08H85.2035Z" fill="white"/>
<path d="M85.2035 129.549V112.08L67.7344 129.549H85.2035Z" fill="#B9CFE6"/>
<path d="M40.2002 178.797H155.254C157.966 178.797 160.293 180.472 160.794 182.785L175.804 252.133C176.456 255.143 173.795 257.927 170.265 257.927H55.2113C52.4994 257.927 50.1725 256.251 49.6717 253.939L34.6611 184.59C34.0095 181.58 36.6707 178.797 40.2002 178.797Z" fill="#FFD780"/>
<path d="M114.047 147.931C116.236 145.712 118.421 143.489 120.607 141.265C121.894 139.956 122.01 137.595 120.607 136.307C119.217 135.031 117.023 134.91 115.649 136.307C113.431 138.488 111.215 140.667 109.001 142.85C106.81 140.659 104.612 138.477 102.387 136.319C101.093 134.985 98.6538 134.923 97.3721 136.319C96.0561 137.753 95.992 139.91 97.3721 141.333C99.5238 143.553 101.701 145.746 103.887 147.931C101.702 150.114 99.5267 152.306 97.3756 154.525C96.0415 155.818 95.9792 158.257 97.3756 159.539C98.8093 160.855 100.967 160.919 102.39 159.539C104.614 157.383 106.812 155.201 109.001 153.011C111.213 155.193 113.429 157.371 115.645 159.551C116.955 160.838 119.315 160.954 120.603 159.551C121.879 158.161 122 155.967 120.603 154.593C118.419 152.371 116.235 150.149 114.047 147.931Z" fill="#A2185A"/>
<path d="M43.4075 117.757H42.6575C42.541 117.398 42.3966 117.052 42.2266 116.72L42.7576 116.189C43.2602 115.686 43.2602 114.872 42.7576 114.369L41.4911 113.102C40.9885 112.6 40.1744 112.6 39.6725 113.102L39.1414 113.633C38.8095 113.464 38.463 113.319 38.1037 113.202V112.452C38.1037 111.742 37.5278 111.166 36.8173 111.166H35.0255C34.3151 111.166 33.7392 111.742 33.7392 112.452V113.202C33.3799 113.319 33.0334 113.463 32.7015 113.633L32.1704 113.102C31.6684 112.6 30.8538 112.6 30.3518 113.102L29.0847 114.369C28.5827 114.872 28.5827 115.686 29.0847 116.189L29.6157 116.72C29.4457 117.052 29.3013 117.397 29.1848 117.757H28.4348C27.7244 117.757 27.1484 118.333 27.1484 119.044V120.836C27.1484 121.546 27.7244 122.122 28.4348 122.122H29.1848C29.3013 122.481 29.4457 122.828 29.6157 123.16L29.0847 123.691C28.5827 124.193 28.5827 125.007 29.0847 125.509L30.3518 126.776C30.8538 127.278 31.6684 127.278 32.1704 126.776L32.7015 126.245C33.0334 126.415 33.3799 126.56 33.7392 126.676V127.426C33.7392 128.137 34.3151 128.713 35.0255 128.713H36.8173C37.5278 128.713 38.1037 128.137 38.1037 127.426V126.676C38.463 126.56 38.8095 126.415 39.1414 126.245L39.6725 126.776C40.175 127.278 40.9891 127.278 41.4911 126.776L42.7576 125.509C43.2602 125.007 43.2602 124.193 42.7576 123.691L42.2266 123.16C42.396 122.828 42.541 122.482 42.6575 122.122H43.4075C44.118 122.122 44.6939 121.546 44.6939 120.836V119.044C44.6933 118.333 44.1174 117.757 43.4075 117.757ZM35.9212 124.44C33.4358 124.44 31.4204 122.425 31.4204 119.939C31.4204 117.454 33.4352 115.439 35.9212 115.439C38.4071 115.439 40.4219 117.453 40.4219 119.939C40.4219 122.425 38.4065 124.44 35.9212 124.44Z" fill="#FFC94F"/>
<path d="M189.229 148.165H188.479C188.362 147.806 188.218 147.459 188.048 147.127L188.579 146.596C189.081 146.094 189.081 145.28 188.579 144.777L187.312 143.51C186.809 143.008 185.995 143.008 185.493 143.51L184.962 144.042C184.63 143.871 184.284 143.727 183.924 143.611V142.861C183.924 142.15 183.348 141.574 182.638 141.574H180.846C180.135 141.574 179.559 142.15 179.559 142.861V143.611C179.2 143.727 178.854 143.871 178.522 144.042L177.991 143.51C177.489 143.008 176.674 143.008 176.172 143.51L174.905 144.777C174.402 145.28 174.402 146.094 174.905 146.596L175.436 147.127C175.266 147.459 175.122 147.806 175.005 148.165H174.255C173.545 148.165 172.969 148.741 172.969 149.451V151.243C172.969 151.954 173.545 152.529 174.255 152.529H175.005C175.122 152.889 175.266 153.235 175.436 153.567L174.905 154.098C174.402 154.601 174.402 155.415 174.905 155.917L176.172 157.185C176.674 157.687 177.489 157.687 177.991 157.185L178.522 156.654C178.854 156.824 179.2 156.968 179.559 157.084V157.834C179.559 158.545 180.135 159.121 180.846 159.121H182.638C183.348 159.121 183.924 158.545 183.924 157.834V157.084C184.283 156.968 184.63 156.824 184.962 156.654L185.493 157.185C185.995 157.687 186.809 157.687 187.312 157.185L188.579 155.917C189.081 155.415 189.081 154.601 188.579 154.098L188.048 153.567C188.217 153.235 188.362 152.889 188.479 152.529H189.229C189.939 152.529 190.515 151.954 190.515 151.243V149.451C190.515 148.74 189.939 148.165 189.229 148.165ZM181.743 154.847C179.257 154.847 177.242 152.832 177.242 150.346C177.242 147.86 179.257 145.846 181.743 145.846C184.229 145.846 186.243 147.86 186.243 150.346C186.243 152.832 184.228 154.847 181.743 154.847Z" fill="#FFC94F"/>
<path d="M63.6291 104.455L62.6409 104.08C62.6671 103.548 62.649 103.02 62.5914 102.498L63.5563 102.063C64.4688 101.652 64.8753 100.579 64.4641 99.6667L63.427 97.3654C63.0159 96.4529 61.9433 96.0464 61.0308 96.4575L60.0658 96.8925C59.7135 96.5035 59.3292 96.1402 58.914 95.8071L59.2884 94.8189C59.6431 93.8831 59.1714 92.8366 58.2356 92.4826L55.8749 91.5887C54.9391 91.2341 53.8932 91.7058 53.5386 92.6416L53.1641 93.6298C52.6325 93.6035 52.1037 93.6216 51.582 93.6793L51.147 92.7143C50.7358 91.8018 49.6626 91.3954 48.7507 91.8065L46.4494 92.8436C45.5369 93.2547 45.1304 94.3274 45.5415 95.2399L45.9765 96.2048C45.5875 96.5571 45.2236 96.9414 44.8911 97.3566L43.9028 96.9822C42.9671 96.6276 41.9212 97.0992 41.5666 98.035L40.6727 100.396C40.3181 101.332 40.7897 102.378 41.7255 102.732L42.7137 103.107C42.6875 103.638 42.7056 104.167 42.7632 104.689L41.7983 105.124C40.8858 105.535 40.4794 106.607 40.8905 107.52L41.9276 109.821C42.3387 110.734 43.4114 111.14 44.3239 110.729L45.2888 110.294C45.6411 110.683 46.0254 111.047 46.4406 111.38L46.0662 112.368C45.7115 113.304 46.1832 114.349 47.119 114.704L49.4798 115.598C50.4156 115.953 51.4614 115.481 51.8161 114.545L52.1905 113.557C52.7222 113.583 53.2509 113.565 53.7727 113.507L54.2077 114.472C54.6188 115.385 55.6914 115.791 56.6039 115.38L58.9053 114.343C59.8178 113.932 60.2242 112.859 59.8131 111.947L59.3781 110.982C59.7671 110.63 60.1311 110.245 60.4636 109.83L61.4518 110.204C62.3876 110.559 63.4334 110.087 63.7881 109.152L64.6819 106.791C65.036 105.855 64.5649 104.809 63.6291 104.455ZM50.4307 109.523C47.1557 108.283 45.5066 104.622 46.7469 101.347C47.9873 98.0723 51.6478 96.4232 54.9228 97.6635C58.1977 98.9039 59.8469 102.564 58.6065 105.839C57.3662 109.114 53.7057 110.763 50.4307 109.523Z" fill="#FFC94F"/>
<path d="M74.5514 60.7495L69.8281 70.766L79.9693 99.0076L106.512 89.4767L93.7244 53.8652L74.5514 60.7495Z" fill="white"/>
<path d="M77.198 68.1199L74.5514 60.75L69.8281 70.7666L77.198 68.1199Z" fill="#FFC94F"/>
<path d="M89.5341 75.4723C90.1898 74.0567 90.8431 72.6399 91.4965 71.2231C91.8814 70.3886 91.5367 69.2571 90.6579 68.8879C89.788 68.5222 88.7334 68.8361 88.3228 69.7265C87.6473 71.1287 86.9712 72.5304 86.2981 73.9332C84.8958 73.2717 83.4907 72.6154 82.0774 71.9754C81.2423 71.5661 80.0829 71.9492 79.7155 72.8239C79.3381 73.7218 79.673 74.749 80.5639 75.1858C81.9528 75.8671 83.3492 76.5321 84.7485 77.1913C84.0887 78.5895 83.4348 79.99 82.7971 81.3986C82.3872 82.2337 82.7709 83.3931 83.645 83.7605C84.5429 84.1379 85.5702 83.803 86.0069 82.9126C86.69 81.5203 87.3562 80.121 88.0171 78.7193C89.4281 79.3733 90.8408 80.0243 92.2535 80.6759C93.088 81.0609 94.2194 80.7161 94.5886 79.8374C94.9543 78.9668 94.6405 77.9128 93.7501 77.5023C92.3444 76.8244 90.9398 76.1472 89.5341 75.4723Z" fill="#A2185A"/>
<path d="M130.046 41.8926L121.204 45.5024L111.18 69.3591L133.602 78.7805L146.242 48.6982L130.046 41.8926Z" fill="white"/>
<path d="M127.429 48.1182L130.045 41.8926L121.203 45.5024L127.429 48.1182Z" fill="#FFC94F"/>
<path d="M130.983 59.9843C132.225 59.4672 133.466 58.9483 134.707 58.4289C135.438 58.1232 135.879 57.2031 135.536 56.456C135.197 55.7158 134.344 55.3006 133.564 55.6267C132.317 56.1235 131.07 56.6202 129.824 57.1187C129.319 55.8806 128.809 54.6444 128.285 53.4139C127.993 52.6668 127.033 52.2341 126.289 52.5754C125.526 52.9259 125.14 53.7738 125.451 54.571C125.936 55.8137 126.435 57.0505 126.94 58.2851C125.705 58.7888 124.473 59.2971 123.246 59.8201C122.499 60.1118 122.066 61.0721 122.407 61.8151C122.758 62.5785 123.606 62.9646 124.402 62.6536C125.648 62.1674 126.887 61.6666 128.125 61.1611C128.64 62.3992 129.158 63.6366 129.675 64.8746C129.981 65.6055 130.901 66.0469 131.648 65.7039C132.388 65.3644 132.803 64.5113 132.477 63.7309C131.98 62.4819 131.482 61.2322 130.983 59.9843Z" fill="#A2185A"/>
<path d="M215.885 55.2007C215.796 54.8411 215.84 54.5146 216.017 54.2212C216.19 53.914 216.457 53.7159 216.816 53.6269C217.383 53.4865 217.875 53.2768 218.29 52.9978C218.702 52.705 218.991 52.3324 219.158 51.8801C219.339 51.4243 219.351 50.8782 219.193 50.2419C219.077 49.7716 218.856 49.3858 218.532 49.0844C218.222 48.7795 217.841 48.573 217.388 48.4648C216.949 48.3532 216.481 48.359 215.983 48.4823C215.596 48.5782 215.246 48.7381 214.935 48.962C214.637 49.1825 214.379 49.4446 214.161 49.7482C213.987 49.9967 213.753 50.2087 213.459 50.3843C213.175 50.5426 212.845 50.5436 212.469 50.3872C212.075 50.2204 211.822 49.9675 211.709 49.6285C211.595 49.2896 211.648 48.9389 211.867 48.5765C212.238 47.9414 212.721 47.4034 213.317 46.9624C213.923 46.5041 214.606 46.1808 215.367 45.9925C216.321 45.7562 217.234 45.7652 218.104 46.0195C218.985 46.2566 219.744 46.6852 220.382 47.3053C221.02 47.9254 221.454 48.6988 221.683 49.6256C221.854 50.3172 221.903 50.9584 221.829 51.5492C221.752 52.1262 221.567 52.6563 221.276 53.1395C220.995 53.6054 220.627 54.0193 220.174 54.3812C219.731 54.7257 219.224 55.0201 218.653 55.2641C218.629 55.2848 218.604 55.3055 218.58 55.3262C218.57 55.3434 218.568 55.3659 218.575 55.3936L218.765 56.1613C218.854 56.5209 218.812 56.8543 218.638 57.1615C218.461 57.4549 218.193 57.6461 217.833 57.7351C217.474 57.8241 217.147 57.7802 216.854 57.6032C216.557 57.4125 216.364 57.1373 216.275 56.7776L215.885 55.2007ZM218.649 61.4748C218.248 61.5741 217.911 61.5474 217.638 61.3947C217.376 61.2247 217.195 60.9392 217.096 60.538L217.008 60.1853C216.909 59.7842 216.938 59.4542 217.094 59.1953C217.26 58.9192 217.544 58.7315 217.945 58.6322L218.215 58.5654C218.616 58.4661 218.948 58.5015 219.21 58.6714C219.483 58.8241 219.669 59.101 219.768 59.5022L219.855 59.8549C219.955 60.256 219.921 60.5947 219.755 60.8708C219.598 61.1296 219.32 61.3087 218.919 61.408L218.649 61.4748Z" fill="white"/>
<path d="M206.082 63.0863C205.868 62.8393 205.772 62.5651 205.793 62.2638C205.807 61.9529 205.937 61.6905 206.184 61.4767C206.573 61.1394 206.876 60.778 207.09 60.3926C207.297 59.9976 207.375 59.589 207.326 59.1666C207.285 58.7361 207.076 58.3023 206.697 57.8653C206.418 57.5423 206.09 57.3272 205.715 57.2201C205.349 57.1047 204.967 57.095 204.568 57.191C204.178 57.2789 203.813 57.4709 203.471 57.767C203.205 57.9973 202.994 58.2628 202.839 58.5635C202.693 58.8559 202.595 59.1651 202.545 59.4912C202.508 59.7558 202.409 60.016 202.248 60.2717C202.088 60.5096 201.829 60.6425 201.471 60.6702C201.095 60.6966 200.795 60.5993 200.57 60.3782C200.345 60.1571 200.246 59.8605 200.273 59.4882C200.311 58.8406 200.475 58.2243 200.767 57.6395C201.06 57.0369 201.467 56.5094 201.99 56.0569C202.645 55.4893 203.366 55.1313 204.152 54.9829C204.939 54.8167 205.707 54.8497 206.457 55.0817C207.206 55.3138 207.856 55.7481 208.408 56.3846C208.819 56.8596 209.114 57.3441 209.292 57.838C209.462 58.3224 209.529 58.8128 209.494 59.3091C209.459 59.7877 209.336 60.26 209.124 60.7259C208.914 61.174 208.633 61.6082 208.282 62.0284C208.272 62.0544 208.261 62.0803 208.25 62.1063C208.249 62.124 208.256 62.1424 208.273 62.1614L208.729 62.6886C208.943 62.9357 209.044 63.2146 209.03 63.5254C209.008 63.8268 208.874 64.0844 208.627 64.2983C208.38 64.5122 208.106 64.6083 207.805 64.5866C207.495 64.5554 207.233 64.4164 207.019 64.1693L206.082 63.0863ZM210.765 66.9108C210.489 67.1494 210.214 67.2632 209.938 67.2523C209.664 67.2237 209.408 67.0717 209.169 66.7961L208.959 66.5539C208.721 66.2784 208.611 66.0077 208.63 65.7418C208.651 65.4581 208.799 65.1971 209.074 64.9585L209.259 64.7981C209.535 64.5595 209.81 64.4546 210.084 64.4832C210.359 64.4941 210.616 64.6373 210.855 64.9128L211.065 65.155C211.303 65.4305 211.412 65.7101 211.392 65.9937C211.373 66.2596 211.225 66.5119 210.95 66.7504L210.765 66.9108Z" fill="white"/>
<path d="M228.627 56.9395C228.763 56.6425 228.973 56.4414 229.256 56.3363C229.545 56.2197 229.837 56.2295 230.134 56.3657C230.603 56.5805 231.057 56.7057 231.497 56.7415C231.942 56.7658 232.346 56.6678 232.71 56.4475C233.085 56.2324 233.393 55.8622 233.634 55.3367C233.812 54.9483 233.872 54.5611 233.814 54.1751C233.767 53.7942 233.618 53.4422 233.365 53.119C233.124 52.801 232.798 52.5477 232.386 52.3591C232.066 52.2125 231.738 52.1308 231.4 52.1141C231.073 52.1026 230.751 52.1416 230.434 52.231C230.177 52.3071 229.9 52.3249 229.6 52.2844C229.318 52.2377 229.089 52.0571 228.916 51.7424C228.736 51.4111 228.7 51.0974 228.808 50.8013C228.916 50.5053 229.145 50.2923 229.495 50.1624C230.1 49.9283 230.729 49.8228 231.382 49.8457C232.052 49.8625 232.701 50.0149 233.329 50.303C234.117 50.6644 234.742 51.1719 235.202 51.8255C235.68 52.4729 235.968 53.1858 236.067 53.9641C236.167 54.7423 236.041 55.5141 235.69 56.2795C235.428 56.8506 235.109 57.3197 234.734 57.6866C234.363 58.0421 233.945 58.3065 233.478 58.4797C233.029 58.6467 232.548 58.7304 232.036 58.7308C231.541 58.725 231.03 58.6494 230.502 58.5042C230.474 58.5051 230.446 58.5061 230.418 58.507C230.401 58.5132 230.387 58.5277 230.377 58.5506L230.086 59.1846C229.95 59.4816 229.738 59.6883 229.449 59.8049C229.166 59.9101 228.876 59.8945 228.579 59.7584C228.282 59.6222 228.081 59.4125 227.976 59.1292C227.876 58.8346 227.894 58.5388 228.03 58.2418L228.627 56.9395ZM227.087 62.7862C226.756 62.6343 226.538 62.4308 226.434 62.1756C226.346 61.9143 226.378 61.618 226.53 61.2867L226.664 60.9954C226.816 60.6641 227.017 60.4521 227.266 60.3593C227.533 60.2604 227.832 60.2868 228.163 60.4387L228.386 60.5409C228.717 60.6928 228.927 60.8994 229.014 61.1607C229.118 61.4159 229.095 61.7091 228.943 62.0403L228.809 62.3316C228.657 62.6629 228.448 62.878 228.181 62.977C227.931 63.0698 227.641 63.0402 227.31 62.8883L227.087 62.7862Z" fill="white"/>
</svg>
