<svg width="240" height="240" viewBox="0 0 240 240" fill="none" xmlns="http://www.w3.org/2000/svg">
<path d="M215.953 191.277H200.055V191.397H215.953V191.277Z" fill="#EBEBEB"/>
<path d="M158.985 192.58H154.812V192.7H158.985V192.58Z" fill="#EBEBEB"/>
<path d="M199.572 186.82H190.359V186.94H199.572V186.82Z" fill="#EBEBEB"/>
<path d="M45.9123 187.626H25.1797V187.746H45.9123V187.626Z" fill="#EBEBEB"/>
<path d="M53.2273 187.626H50.1875V187.746H53.2273V187.626Z" fill="#EBEBEB"/>
<path d="M108.074 189.653H63.1094V189.773H108.074V189.653Z" fill="#EBEBEB"/>
<path d="M114.435 162.144H21.7477C20.2371 162.144 19.0078 160.915 19.0078 159.404V29.1168C19.0078 27.6062 20.2371 26.377 21.7477 26.377H114.435C115.945 26.377 117.175 27.6062 117.175 29.1168V159.404C117.175 160.915 115.945 162.144 114.435 162.144ZM21.7477 26.4974C20.3029 26.4974 19.1278 27.6725 19.1278 29.1173V159.405C19.1278 160.849 20.3029 162.024 21.7477 162.024H114.435C115.88 162.024 117.055 160.849 117.055 159.405V29.1168C117.055 27.6725 115.88 26.497 114.435 26.497L21.7477 26.4974Z" fill="#EBEBEB"/>
<path d="M218.255 162.144H125.567C124.057 162.144 122.828 160.915 122.828 159.404V29.1168C122.828 27.6062 124.057 26.377 125.567 26.377H218.255C219.766 26.377 220.995 27.6062 220.995 29.1168V159.404C220.995 160.915 219.766 162.144 218.255 162.144ZM125.567 26.4974C124.123 26.4974 122.948 27.6725 122.948 29.1173V159.405C122.948 160.849 124.123 162.024 125.567 162.024H218.255C219.7 162.024 220.875 160.849 220.875 159.405V29.1168C220.875 27.6725 219.7 26.497 218.255 26.497L125.567 26.4974Z" fill="#EBEBEB"/>
<path d="M240 183.551H0V183.671H240V183.551Z" fill="#EBEBEB"/>
<path d="M35.3626 131.464C36.4268 130.278 37.9609 128.986 39.5751 128.729C44.5253 127.941 43.9724 138.094 43.9244 140.692C43.9157 141.156 44.6357 141.156 44.6444 140.692C44.7005 137.629 45.2449 128.024 40.1141 127.961C38.1092 127.937 36.1292 129.533 34.8538 130.955C34.5452 131.299 35.0525 131.81 35.3626 131.464Z" fill="#E0E0E0"/>
<path d="M50.7536 125.221C49.7322 125.382 48.9277 126.572 48.4554 127.369C46.1797 131.209 46.0285 136.381 45.8831 140.692C45.8672 141.155 46.5872 141.155 46.6031 140.692C46.7423 136.558 46.8728 131.705 48.9392 127.978C49.3338 127.266 50.0216 126.061 50.9447 125.915C51.4011 125.843 51.2072 125.149 50.7536 125.221Z" fill="#E0E0E0"/>
<path d="M35.1063 131.209C35.1063 131.209 30.6476 123.84 27.3754 130.483C26.8431 131.564 26.5215 132.69 26.3516 133.818C27.7205 133.217 30.6389 132.113 30.6797 133.612C30.7124 134.819 29.0069 136.807 27.6922 138.156C26.9482 138.919 26.6717 140.024 26.9588 141.051C27.6917 143.669 28.6896 145.491 28.6896 145.491C28.6896 145.491 29.6703 145.119 31.1103 144.434C32.0199 144.001 32.666 143.155 32.8527 142.165C33.0562 141.083 33.4047 139.936 33.9874 139.597C34.574 139.254 35.0381 139.892 35.3578 140.627C35.6213 141.232 36.3663 141.445 36.901 141.058C37.6167 140.541 38.3141 139.984 38.9616 139.391C39.3504 139.035 39.4047 138.436 39.0802 138.022C38.3708 137.114 37.7108 136.034 37.9815 135.41C38.2412 134.812 39.4522 134.802 40.6186 134.946C41.5853 135.065 42.4637 134.375 42.5775 133.407L42.5799 133.388C43.4103 126.227 35.1063 131.209 35.1063 131.209Z" fill="#EBEBEB"/>
<path d="M52.446 123.639C52.446 123.639 56.9048 116.269 60.1769 122.912C60.7092 123.993 61.0308 125.119 61.2008 126.248C59.8318 125.647 56.9134 124.543 56.8726 126.042C56.84 127.248 58.5454 129.236 59.8601 130.585C60.6041 131.349 60.8806 132.454 60.5936 133.481C59.8606 136.099 58.8627 137.921 58.8627 137.921C58.8627 137.921 57.882 137.549 56.442 136.864C55.5324 136.43 54.8864 135.585 54.6996 134.595C54.4961 133.513 54.1476 132.366 53.5649 132.026C52.9784 131.684 52.5142 132.322 52.1945 133.057C51.931 133.662 51.186 133.875 50.6513 133.488C49.9356 132.97 49.2382 132.414 48.5907 131.821C48.2019 131.465 48.1476 130.866 48.4721 130.451C49.1816 129.544 49.842 128.464 49.5708 127.84C49.3107 127.242 48.1001 127.231 46.9337 127.375C45.967 127.495 45.0886 126.804 44.9748 125.837L44.9724 125.818C44.142 118.657 52.446 123.639 52.446 123.639Z" fill="#E6E6E6"/>
<path d="M33.7578 156.547C33.7578 152.46 40.1639 154.157 41.7786 147.817C42.3906 145.415 37.1802 139.978 37.1802 139.978H53.4258C53.4258 139.978 48.2154 145.415 48.8274 147.817C50.4421 154.157 56.8482 152.46 56.8482 156.547C56.8482 161.047 47.8113 170.42 47.3759 180.97C47.337 181.913 49.0756 183.868 49.0756 183.868H41.5309C41.5309 183.868 43.2695 181.913 43.2306 180.97C42.7948 170.421 33.7578 161.047 33.7578 156.547Z" fill="#F0F0F0"/>
<path d="M48.5831 137.983C48.5831 137.983 53.2084 134.494 54.0321 139.366C54.166 140.159 54.1459 140.93 54.0215 141.666C53.2123 140.971 51.4492 139.599 51.1017 140.513C50.8219 141.25 51.5659 142.88 52.1779 144.023C52.5244 144.67 52.4779 145.417 52.0622 145.982C51.0019 147.423 49.9295 148.31 49.9295 148.31C49.9295 148.31 49.3372 147.848 48.4977 147.085C47.9673 146.602 47.7052 145.928 47.7887 145.273C47.8799 144.557 47.8862 143.767 47.5598 143.42C47.231 143.07 46.7774 143.354 46.4015 143.731C46.0919 144.042 45.5366 143.997 45.2529 143.631C44.8732 143.143 44.5147 142.634 44.1974 142.115C44.0073 141.804 44.0975 141.422 44.4086 141.243C45.0878 140.851 45.7703 140.341 45.718 139.893C45.6676 139.462 44.8406 139.169 44.0116 138.981C43.3243 138.826 42.8697 138.192 42.9983 137.568L43.0007 137.556C43.9593 132.943 48.5831 137.983 48.5831 137.983Z" fill="#E0E0E0"/>
<path d="M205.619 136.511H128.055V178.254H205.619V136.511Z" fill="#E6E6E6"/>
<path d="M134.273 179.987H129.398V183.67H134.273V179.987Z" fill="#E6E6E6"/>
<path d="M211.539 133.406H206.664V183.67H211.539V133.406Z" fill="#E6E6E6"/>
<path d="M205.422 133.406H204.122H129.397H128.097H126.797V183.671H129.397V180.854H204.122V183.671H206.722V133.406H205.422ZM204.122 155.414H168.059V137.956H204.122V155.414ZM129.397 137.956H165.459V176.304H129.397V137.956ZM168.059 176.304V158.014H204.122V176.304H168.059Z" fill="#F0F0F0"/>
<path d="M165.461 139.833H131.836V176.304H165.461V139.833Z" fill="#F5F5F5"/>
<path d="M163.937 156.975C163.937 157.839 163.238 158.538 162.375 158.538C161.512 158.538 160.812 157.839 160.812 156.975C160.812 156.113 161.512 155.413 162.375 155.413C163.238 155.414 163.937 156.113 163.937 156.975Z" fill="#FAFAFA"/>
<path d="M162.374 158.538C161.744 158.538 161.205 158.163 160.958 157.626C160.867 157.824 160.812 158.043 160.812 158.276C160.812 159.138 161.512 159.838 162.375 159.838C163.238 159.838 163.937 159.139 163.937 158.276C163.937 158.043 163.883 157.824 163.792 157.626C163.544 158.163 163.005 158.538 162.374 158.538Z" fill="#E0E0E0"/>
<path d="M144.875 176.304H152.897L156.73 139.833H148.708L144.875 176.304Z" fill="#FAFAFA"/>
<path d="M154.953 176.304H156.55L160.383 139.833H158.786L154.953 176.304Z" fill="#FAFAFA"/>
<path d="M176.185 139.797H173.008V155.396H176.185V139.797Z" fill="#FAFAFA"/>
<path d="M189.365 139.797H186.188V155.396H189.365V139.797Z" fill="#F5F5F5"/>
<path d="M179.365 140.893H176.188V155.396H179.365V140.893Z" fill="#F5F5F5"/>
<path d="M186.185 140.893H183.008V155.396H186.185V140.893Z" fill="#FAFAFA"/>
<path d="M183.007 139.797H180.953V155.396H183.007V139.797Z" fill="#EBEBEB"/>
<path d="M180.956 140.893H179.367V155.396H180.956V140.893Z" fill="#FAFAFA"/>
<path d="M192.537 139.797H189.359V155.396H192.537V139.797Z" fill="#EBEBEB"/>
<path d="M195.717 140.893H192.539V155.396H195.717V140.893Z" fill="#E6E6E6"/>
<path d="M202.537 140.893H199.359V155.396H202.537V140.893Z" fill="#E6E6E6"/>
<path d="M199.358 139.797H197.305V155.396H199.358V139.797Z" fill="#FAFAFA"/>
<path d="M197.308 140.893H195.719V155.396H197.308V140.893Z" fill="#EBEBEB"/>
<path d="M204.128 140.167H202.539V155.396H204.128V140.167Z" fill="#EBEBEB"/>
<path d="M200.947 176.304H204.125V160.705H200.947V176.304Z" fill="#EBEBEB"/>
<path d="M187.776 176.304H190.953V160.705H187.776V176.304Z" fill="#FAFAFA"/>
<path d="M197.768 176.304H200.945V161.801H197.768V176.304Z" fill="#FAFAFA"/>
<path d="M190.947 176.304H194.125V161.801H190.947V176.304Z" fill="#EBEBEB"/>
<path d="M194.126 176.304H196.18V160.705H194.126V176.304Z" fill="#FAFAFA"/>
<path d="M196.185 176.304H197.773V161.801H196.185V176.304Z" fill="#F5F5F5"/>
<path d="M184.596 176.304H187.773V160.705H184.596V176.304Z" fill="#EBEBEB"/>
<path d="M181.416 176.304H184.594V161.801H181.416V176.304Z" fill="#F5F5F5"/>
<path d="M174.596 176.304H177.773V161.801H174.596V176.304Z" fill="#E6E6E6"/>
<path d="M177.775 176.304H179.828V160.705H177.775V176.304Z" fill="#FAFAFA"/>
<path d="M170.954 176.304H173.008V160.705H170.954V176.304Z" fill="#FAFAFA"/>
<path d="M179.825 176.304H181.414V161.801H179.825V176.304Z" fill="#EBEBEB"/>
<path d="M173.005 176.304H174.594V161.074H173.005V176.304Z" fill="#EBEBEB"/>
<path d="M79.5421 51.029L87.3488 38.4165L82.3554 52.384L97.0837 50.6239L83.0504 55.4282L93.6094 65.8461L81.103 57.8699L79.5421 72.6208L77.9806 57.8699L65.4742 65.8461L76.0333 55.4282L62 50.6239L76.7283 52.384L71.7349 38.4165L79.5421 51.029Z" fill="#F0F0F0"/>
<path d="M97.9123 138.437L104.747 127.396L100.376 139.623L113.27 138.083L100.984 142.289L110.228 151.409L99.2793 144.426L97.9123 157.34L96.5457 144.426L85.5969 151.409L94.8408 142.289L82.5547 138.083L95.4494 139.623L91.0776 127.396L97.9123 138.437Z" fill="#F0F0F0"/>
<path d="M145.184 58.3904L150.675 49.5181L147.163 59.3437L157.523 58.1057L147.652 61.4854L155.08 68.8136L146.282 63.2029L145.184 73.5795L144.085 63.2029L135.288 68.8136L142.716 61.4854L132.844 58.1057L143.205 59.3437L139.692 49.5181L145.184 58.3904Z" fill="#F0F0F0"/>
<path d="M117.684 203.383C169.083 203.383 210.751 200.949 210.751 197.948C210.751 194.946 169.083 192.513 117.684 192.513C66.2846 192.513 24.6172 194.946 24.6172 197.948C24.6172 200.949 66.2846 203.383 117.684 203.383Z" fill="#F5F5F5"/>
<path d="M117.094 90.0443L103.809 94.8851C103.58 94.9686 103.326 94.8505 103.242 94.6211L96.769 76.8558C96.6855 76.6263 96.8036 76.3729 97.033 76.2894L105.217 73.3076L112.76 76.8596L117.358 89.4779C117.442 89.7068 117.324 89.9607 117.094 90.0443Z" fill="#FFC94F"/>
<path opacity="0.5" d="M117.094 90.0443L103.809 94.8851C103.58 94.9686 103.326 94.8505 103.242 94.6211L96.769 76.8558C96.6855 76.6263 96.8036 76.3729 97.033 76.2894L105.217 73.3076L112.76 76.8596L117.358 89.4779C117.442 89.7068 117.324 89.9607 117.094 90.0443Z" fill="white"/>
<path opacity="0.1" d="M112.746 76.814L107.229 78.8243L105.219 73.3076L112.746 76.814Z" fill="black"/>
<path d="M110.912 78.4248L101.086 82.0054L103.355 88.2329L113.181 84.6523L110.912 78.4248Z" fill="#FFC94F"/>
<path opacity="0.7" d="M110.912 78.4248L101.086 82.0054L103.355 88.2329L113.181 84.6523L110.912 78.4248Z" fill="white"/>
<path d="M105.321 85.0908L103.961 88.0092L108.239 86.4507L105.321 85.0908Z" fill="#FFC94F"/>
<path opacity="0.2" d="M105.321 85.0908L103.961 88.0092L108.239 86.4507L105.321 85.0908Z" fill="white"/>
<path d="M107.273 86.8009L113.167 84.6534L112.96 84.0855L109.327 82.3931L107.273 86.8009Z" fill="#FFC94F"/>
<path opacity="0.4" d="M107.273 86.8009L113.167 84.6534L112.96 84.0855L109.327 82.3931L107.273 86.8009Z" fill="white"/>
<path d="M106.863 82.4049C107.074 82.9848 106.775 83.6261 106.195 83.8373C105.616 84.0485 104.974 83.7499 104.763 83.1701C104.552 82.5902 104.85 81.9489 105.43 81.7377C106.01 81.5265 106.651 81.8251 106.863 82.4049Z" fill="white"/>
<path d="M127.495 101.024C124.732 96.7685 119.022 95.5555 114.767 98.3184L114.141 97.3541C118.928 94.2451 125.352 95.6112 128.46 100.398L127.495 101.024Z" fill="#FFC94F"/>
<path d="M116.275 100.646L115.648 99.682C119.151 97.4068 123.853 98.4062 126.128 101.91L125.163 102.536C123.234 99.5649 119.247 98.7167 116.275 100.646Z" fill="#FFC94F"/>
<g opacity="0.6">
<path d="M127.495 101.024C124.732 96.7685 119.022 95.5555 114.767 98.3184L114.141 97.3541C118.928 94.2451 125.352 95.6112 128.46 100.398L127.495 101.024Z" fill="white"/>
</g>
<g opacity="0.6">
<path d="M116.275 100.646L115.648 99.682C119.151 97.4068 123.853 98.4062 126.128 101.91L125.163 102.536C123.234 99.5649 119.247 98.7167 116.275 100.646Z" fill="white"/>
</g>
<path d="M123.042 103.915C121.873 102.116 119.458 101.602 117.658 102.77L117.031 101.806C119.363 100.292 122.492 100.957 124.007 103.289L123.042 103.915Z" fill="#FFC94F"/>
<path d="M121.866 104.682C121.12 103.533 119.578 103.205 118.428 103.951L118.188 104.108L119.698 106.433L122.023 104.923L121.866 104.682Z" fill="#FFC94F"/>
<path d="M130.268 100.134C129.993 101.427 128.722 102.253 127.428 101.978C126.135 101.703 125.309 100.432 125.584 99.1387C125.859 97.8451 127.13 97.0195 128.424 97.2946C129.717 97.5696 130.542 98.8411 130.268 100.134Z" fill="#FFC94F"/>
<path opacity="0.8" d="M129.524 98.9626L129.192 98.4509L128.015 99.2146L127.252 98.0386L126.74 98.3707L127.504 99.5467L126.328 100.31L126.66 100.822L127.836 100.058L128.6 101.234L129.112 100.902L128.348 99.7263L129.524 98.9626Z" fill="white"/>
<path d="M119.736 126.581C119.446 126.581 119.211 126.346 119.211 126.056V121.553C119.211 121.263 119.446 121.028 119.736 121.028C120.026 121.028 120.261 121.263 120.261 121.553V126.056C120.261 126.346 120.026 126.581 119.736 126.581Z" fill="#FFC94F"/>
<path d="M119.736 136.187C119.446 136.187 119.211 135.952 119.211 135.662V131.159C119.211 130.869 119.446 130.634 119.736 130.634C120.026 130.634 120.261 130.869 120.261 131.159V135.662C120.261 135.952 120.026 136.187 119.736 136.187Z" fill="#FFC94F"/>
<path d="M126.794 129.133H122.291C122.001 129.133 121.766 128.898 121.766 128.608C121.766 128.318 122.001 128.083 122.291 128.083H126.794C127.084 128.083 127.319 128.318 127.319 128.608C127.319 128.897 127.084 129.133 126.794 129.133Z" fill="#FFC94F"/>
<path d="M117.184 129.133H112.681C112.391 129.133 112.156 128.898 112.156 128.608C112.156 128.318 112.391 128.083 112.681 128.083H117.184C117.474 128.083 117.709 128.318 117.709 128.608C117.71 128.897 117.475 129.133 117.184 129.133Z" fill="#FFC94F"/>
<path d="M121.169 127.174C120.964 126.969 120.964 126.637 121.169 126.431L124.353 123.247C124.558 123.043 124.891 123.043 125.096 123.247C125.301 123.452 125.301 123.785 125.096 123.99L121.912 127.174C121.707 127.38 121.374 127.38 121.169 127.174Z" fill="#FFC94F"/>
<g opacity="0.5">
<path d="M126.794 129.133H122.291C122.001 129.133 121.766 128.898 121.766 128.608C121.766 128.318 122.001 128.083 122.291 128.083H126.794C127.084 128.083 127.319 128.318 127.319 128.608C127.319 128.897 127.084 129.133 126.794 129.133Z" fill="white"/>
</g>
<g opacity="0.5">
<path d="M121.169 127.174C120.964 126.969 120.964 126.637 121.169 126.431L124.353 123.247C124.558 123.043 124.891 123.043 125.096 123.247C125.301 123.452 125.301 123.785 125.096 123.99L121.912 127.174C121.707 127.38 121.374 127.38 121.169 127.174Z" fill="white"/>
</g>
<path d="M114.373 133.967C114.167 133.761 114.167 133.429 114.373 133.224L117.557 130.04C117.762 129.835 118.094 129.835 118.3 130.04C118.505 130.245 118.505 130.578 118.3 130.783L115.116 133.967C114.911 134.172 114.578 134.172 114.373 133.967Z" fill="#FFC94F"/>
<path d="M124.353 133.967L121.169 130.783C120.964 130.578 120.964 130.245 121.169 130.04C121.374 129.835 121.707 129.835 121.912 130.04L125.096 133.224C125.301 133.429 125.301 133.761 125.096 133.967C124.891 134.172 124.558 134.172 124.353 133.967Z" fill="#FFC94F"/>
<g opacity="0.3">
<path d="M119.736 136.187C119.446 136.187 119.211 135.952 119.211 135.662V131.159C119.211 130.869 119.446 130.634 119.736 130.634C120.026 130.634 120.261 130.869 120.261 131.159V135.662C120.261 135.952 120.026 136.187 119.736 136.187Z" fill="white"/>
</g>
<g opacity="0.3">
<path d="M124.353 133.967L121.169 130.783C120.964 130.578 120.964 130.245 121.169 130.04C121.374 129.835 121.707 129.835 121.912 130.04L125.096 133.224C125.301 133.429 125.301 133.761 125.096 133.967C124.891 134.172 124.558 134.172 124.353 133.967Z" fill="white"/>
</g>
<path d="M117.556 127.174L114.372 123.99C114.168 123.786 114.168 123.453 114.372 123.247C114.577 123.043 114.91 123.043 115.116 123.247L118.299 126.431C118.504 126.636 118.504 126.969 118.299 127.174C118.094 127.38 117.762 127.38 117.556 127.174Z" fill="#FFC94F"/>
<g opacity="0.7">
<path d="M119.736 126.581C119.446 126.581 119.211 126.346 119.211 126.056V121.553C119.211 121.263 119.446 121.028 119.736 121.028C120.026 121.028 120.261 121.263 120.261 121.553V126.056C120.261 126.346 120.026 126.581 119.736 126.581Z" fill="white"/>
</g>
<g opacity="0.7">
<path d="M117.556 127.174L114.372 123.99C114.168 123.786 114.168 123.453 114.372 123.247C114.577 123.043 114.91 123.043 115.116 123.247L118.299 126.431C118.504 126.636 118.504 126.969 118.299 127.174C118.094 127.38 117.762 127.38 117.556 127.174Z" fill="white"/>
</g>
<path d="M96.2439 95.4638C95.6218 98.3914 92.7442 100.26 89.8167 99.6374C86.8892 99.0154 85.0205 96.1378 85.6431 93.2102C86.2652 90.2827 89.1428 88.4141 92.0703 89.0366C94.9973 89.6592 96.866 92.5363 96.2439 95.4638Z" fill="#FFC94F"/>
<path opacity="0.6" d="M96.2439 95.4638C95.6218 98.3914 92.7442 100.26 89.8167 99.6374C86.8892 99.0154 85.0205 96.1378 85.6431 93.2102C86.2652 90.2827 89.1428 88.4141 92.0703 89.0366C94.9973 89.6592 96.866 92.5363 96.2439 95.4638Z" fill="white"/>
<path opacity="0.8" d="M94.5612 92.8116L93.8091 91.6538L91.1475 93.3828L89.419 90.7207L88.2612 91.4729L89.9897 94.1345L87.3281 95.8629L88.0798 97.0207L90.7414 95.2922L92.4704 97.9538L93.6276 97.2021L91.8992 94.5401L94.5612 92.8116Z" fill="white"/>
<path d="M106.772 137.518C104.205 138.064 102.567 140.586 103.113 143.153C103.658 145.719 109.808 151.8 109.808 151.8C109.808 151.8 112.952 143.744 112.407 141.177C111.861 138.611 109.339 136.972 106.772 137.518ZM108.108 143.805C107.203 143.997 106.312 143.419 106.12 142.513C105.927 141.608 106.505 140.717 107.411 140.525C108.317 140.332 109.208 140.911 109.4 141.816C109.593 142.722 109.014 143.612 108.108 143.805Z" fill="#FFC94F"/>
<path opacity="0.5" d="M106.772 137.518C104.205 138.064 102.567 140.586 103.113 143.153C103.658 145.719 109.808 151.8 109.808 151.8C109.808 151.8 112.952 143.744 112.407 141.177C111.861 138.611 109.339 136.972 106.772 137.518ZM108.108 143.805C107.203 143.997 106.312 143.419 106.12 142.513C105.927 141.608 106.505 140.717 107.411 140.525C108.317 140.332 109.208 140.911 109.4 141.816C109.593 142.722 109.014 143.612 108.108 143.805Z" fill="white"/>
<path d="M146.679 97.0391C143.857 98.6255 136.055 97.3065 133.912 94.8811C132.722 93.5351 133.645 88.8369 135.109 87.7962C137.748 85.9209 146.001 87.3158 147.876 89.9543C148.917 91.4183 148.244 96.1588 146.679 97.0391Z" fill="#FFC94F"/>
<path opacity="0.4" d="M146.679 97.0391C143.857 98.6255 136.055 97.3065 133.912 94.8811C132.722 93.5351 133.645 88.8369 135.109 87.7962C137.748 85.9209 146.001 87.3158 147.876 89.9543C148.917 91.4183 148.244 96.1588 146.679 97.0391Z" fill="white"/>
<path d="M144.022 92.8495L138.422 94.8314L139.384 89.1372L144.022 92.8495Z" fill="white"/>
<path d="M151.006 182.29L146.041 189.194L142.805 187.319L146.266 179.593L151.006 182.29Z" fill="#B55B52"/>
<path d="M144.123 184.591L147.346 187.536C147.463 187.643 147.491 187.817 147.412 187.955L145.649 191.023C145.466 191.341 145.029 191.402 144.763 191.15C143.655 190.102 143.168 189.537 141.751 188.242C140.878 187.445 137.732 184.737 136.528 183.637C135.35 182.561 136.254 181.202 136.845 181.545C139.498 183.081 142.207 184.332 143.496 184.342C143.728 184.344 143.951 184.434 144.123 184.591Z" fill="#263238"/>
<path d="M142.279 183.577C142.347 184.089 143.105 184.578 143.551 184.823C143.59 184.844 143.637 184.841 143.672 184.813C143.707 184.785 143.72 184.741 143.709 184.698C143.636 184.434 143.245 183.111 142.78 182.984C142.703 182.963 142.587 182.962 142.471 183.074C142.448 183.096 142.428 183.118 142.409 183.141C142.302 183.272 142.257 183.418 142.279 183.577ZM142.496 183.548C142.48 183.433 142.523 183.328 142.623 183.232C142.668 183.188 142.699 183.188 142.723 183.195C142.942 183.255 143.234 183.922 143.419 184.494C142.871 184.157 142.531 183.812 142.496 183.548Z" fill="#E6CCD9"/>
<path d="M143.501 184.763C143.514 184.801 143.547 184.828 143.586 184.836C143.626 184.842 143.666 184.829 143.691 184.795C143.72 184.757 144.412 183.86 144.327 183.276C144.304 183.121 144.232 182.999 144.11 182.913C143.92 182.778 143.778 182.843 143.711 182.894C143.687 182.912 143.665 182.933 143.644 182.958C143.353 183.312 143.36 184.356 143.501 184.763ZM143.842 183.069C143.859 183.056 143.896 183.028 143.983 183.091C144.054 183.142 144.096 183.213 144.111 183.308C144.159 183.635 143.868 184.154 143.656 184.469C143.58 183.982 143.65 183.211 143.842 183.069Z" fill="#E6CCD9"/>
<path d="M145.602 180.961C149.499 171.906 153.207 160.603 156.502 152.468C160.955 141.476 176.647 120.746 176.647 120.746L177.786 119.367L191.284 118.615V123.589C191.284 123.589 167.394 151.413 164.712 158.869C161.78 167.021 155.539 176.379 149.896 184.064L145.602 180.961Z" fill="#E6CCD9"/>
<path d="M150.198 183.874L149.389 184.711C149.389 184.711 144.988 181.633 145.024 181.582C145.06 181.531 145.594 180.502 145.594 180.502L150.198 183.874Z" fill="#E6CCD9"/>
<path opacity="0.4" d="M150.198 183.874L149.389 184.711C149.389 184.711 144.988 181.633 145.024 181.582C145.06 181.531 145.594 180.502 145.594 180.502L150.198 183.874Z" fill="white"/>
<path opacity="0.2" d="M176.141 142.058C178.681 130.118 183.26 123.504 183.26 123.504L185.683 125.26L186.457 129.318C183.57 132.784 179.77 137.416 176.141 142.058Z" fill="black"/>
<path d="M190.204 187.131L189.368 195.594H185.627L184.75 187.173L190.204 187.131Z" fill="#B55B52"/>
<path d="M185.233 194.544L189.598 194.458C189.757 194.454 189.897 194.562 189.934 194.716L190.77 198.155C190.857 198.512 190.582 198.856 190.215 198.857C188.691 198.862 187.949 198.787 186.029 198.825C184.848 198.848 180.701 199.053 179.07 199.085C177.475 199.117 177.195 197.509 177.859 197.35C180.84 196.635 183.665 195.676 184.607 194.795C184.777 194.637 185 194.549 185.233 194.544Z" fill="#263238"/>
<path d="M183.199 195.079C183.602 195.403 184.488 195.235 184.981 195.105C185.023 195.094 185.055 195.059 185.061 195.015C185.068 194.971 185.047 194.929 185.009 194.906C184.774 194.765 183.579 194.075 183.155 194.303C183.085 194.341 183 194.42 182.993 194.581C182.992 194.613 182.992 194.643 182.994 194.672C183.006 194.842 183.075 194.979 183.199 195.079ZM183.337 194.909C183.246 194.836 183.206 194.73 183.211 194.591C183.214 194.528 183.236 194.508 183.258 194.496C183.459 194.388 184.13 194.671 184.658 194.958C184.028 195.091 183.544 195.075 183.337 194.909Z" fill="#E6CCD9"/>
<path d="M184.899 195.097C184.934 195.115 184.977 195.113 185.011 195.091C185.044 195.068 185.063 195.031 185.058 194.989C185.054 194.942 184.938 193.815 184.473 193.45C184.35 193.353 184.213 193.315 184.066 193.336C183.835 193.369 183.777 193.514 183.763 193.597C183.758 193.626 183.757 193.657 183.759 193.689C183.792 194.147 184.516 194.899 184.899 195.097ZM183.978 193.634C183.982 193.613 183.989 193.568 184.096 193.553C184.183 193.541 184.262 193.563 184.338 193.622C184.598 193.826 184.745 194.402 184.808 194.777C184.418 194.476 183.937 193.869 183.978 193.634Z" fill="#E6CCD9"/>
<path d="M191.261 159.883C192.362 166.829 191.254 180.606 190.132 190.542L184.998 190.415C183.764 180.096 181.841 165.487 180.983 158.227C179.593 146.449 182.697 119.101 182.697 119.101L196.726 118.807C196.726 118.807 196.74 121.128 196.034 124.719C193.961 135.247 190.336 154.047 191.261 159.883Z" fill="#E6CCD9"/>
<path d="M190.408 190.336L190.22 191.485C190.22 191.485 184.85 191.464 184.85 191.401C184.85 191.339 184.703 190.189 184.703 190.189L190.408 190.336Z" fill="#E6CCD9"/>
<path opacity="0.4" d="M190.408 190.336L190.22 191.485C190.22 191.485 184.85 191.464 184.85 191.401C184.85 191.339 184.703 190.189 184.703 190.189L190.408 190.336Z" fill="white"/>
<path d="M178.067 92.3604L174.916 98.9853C174.38 100.078 173.852 101.177 173.299 102.237C173.02 102.763 172.743 103.295 172.46 103.798C172.32 104.057 172.178 104.303 172.033 104.539L171.825 104.886C171.782 104.934 171.779 104.977 171.717 105.041C171.523 105.286 171.162 105.605 170.756 105.902C170.347 106.204 169.87 106.49 169.38 106.766C168.397 107.322 167.322 107.828 166.227 108.308C164.033 109.255 161.723 110.139 159.438 110.951L159.98 113.34C162.526 113.001 164.997 112.505 167.48 111.776C168.719 111.409 169.956 110.993 171.199 110.448C171.821 110.17 172.443 109.874 173.075 109.496C173.707 109.117 174.351 108.686 174.998 108.016C175.158 107.861 175.323 107.64 175.478 107.448L175.785 107.02C175.987 106.74 176.178 106.462 176.356 106.188C176.729 105.637 177.063 105.086 177.396 104.532C178.061 103.427 178.677 102.32 179.272 101.202C180.468 98.9661 181.554 96.7188 182.575 94.3936L178.067 92.3604Z" fill="#B55B52"/>
<path d="M185.401 92.0185C186.054 95.2993 178.019 104.918 178.019 104.918L172.305 101.686C172.305 101.686 173.994 96.8531 176.802 92.8206C179.76 88.574 184.675 88.371 185.401 92.0185Z" fill="#263238"/>
<path opacity="0.2" d="M185.452 92.4306C184.077 91.762 181.351 92.338 179.219 95.0418C177.112 97.7183 175.93 102.258 175.594 103.543L178.027 104.918C178.027 104.918 185.514 96.0129 185.452 92.4306Z" fill="black"/>
<path d="M159.739 110.887L157.459 110.683C156.262 110.576 155.226 111.506 155.204 112.707C155.174 114.305 156.888 115.332 158.285 114.555C158.984 114.166 159.684 113.705 160.242 113.188L159.739 110.887Z" fill="#B55B52"/>
<path d="M181.313 89.5484C181.313 89.5484 176.763 99.5895 177.553 120.073C183.674 120.038 193.574 119.051 196.553 119.034C197.166 116.193 197.178 104.831 201.832 91.4156C202.232 90.2631 201.49 89.0314 200.282 88.8634C199.061 88.694 197.504 88.5178 195.963 88.4544C193.387 88.3488 189.643 88.2903 187.327 88.5034C184.273 88.7842 181.313 89.5484 181.313 89.5484Z" fill="#263238"/>
<path d="M198.323 79.3086C196.843 81.9246 194.594 86.716 195.961 88.454C192.867 89.5273 191.939 92.1764 188.339 91.6811C186.731 91.4598 186.479 89.9104 187.104 88.576C190.513 87.8699 191.238 85.6144 191.406 83.5849L198.323 79.3086Z" fill="#B55B52"/>
<path opacity="0.2" d="M190.586 86.38C191.118 85.5174 191.321 84.5272 191.399 83.584L194.926 81.4038L196.246 83.6329C196.246 83.6329 194.284 86.8216 190.586 86.38Z" fill="black"/>
<path d="M191.106 70.1257C188.143 70.7852 188.106 77.2374 189.224 78.0831C191.315 79.6652 194.781 69.3078 191.106 70.1257Z" fill="#263238"/>
<path d="M199.032 77.0243C198.145 80.6079 197.808 82.7502 195.636 84.2752C192.37 86.5686 188.2 84.0884 187.999 80.3118C187.818 76.9124 189.299 71.6233 193.112 70.8313C196.867 70.0508 199.919 73.4406 199.032 77.0243Z" fill="#B55B52"/>
<path d="M202.487 74.7143C202.187 76.8623 198.739 82.0986 197.243 81.6844C195.746 81.2706 196.385 76.4409 197.699 73.5916C196.367 72.9157 185.44 72.2922 189.171 69.4674C189.171 69.4674 186.783 65.2122 191.169 67.3122C191.169 67.3122 192.55 61.8522 194.754 66.7722C194.754 66.7722 197.632 62.9322 198.592 67.9122C198.592 67.9122 201.446 66.4386 201.292 70.079C201.292 70.079 204.812 70.1322 202.372 72.5322C202.372 72.5322 205.493 73.9775 202.487 74.7143Z" fill="#263238"/>
<path d="M199.934 81.319C199.267 82.0582 198.322 82.4201 197.504 82.4489C196.274 82.4921 195.947 81.3224 196.531 80.3129C197.056 79.4043 198.328 78.2868 199.446 78.7236C200.548 79.1532 200.697 80.4742 199.934 81.319Z" fill="#B55B52"/>
<path d="M192.775 77.3138C192.72 77.609 192.52 77.8192 192.327 77.7842C192.134 77.7487 192.022 77.4808 192.076 77.1856C192.13 76.8904 192.331 76.6802 192.524 76.7152C192.716 76.7508 192.829 77.0186 192.775 77.3138Z" fill="#263238"/>
<path d="M189.439 76.702C189.384 76.9972 189.184 77.2074 188.991 77.1724C188.798 77.1369 188.686 76.869 188.74 76.5738C188.794 76.2786 188.995 76.0684 189.188 76.1034C189.38 76.1389 189.492 76.4073 189.439 76.702Z" fill="#263238"/>
<path d="M190.99 77.1577C190.99 77.1577 190.006 78.7374 189.117 79.4233C189.55 80.0065 190.478 79.9465 190.478 79.9465L190.99 77.1577Z" fill="#A02724"/>
<path d="M191.007 81.3152C190.965 81.3023 190.939 81.2596 190.947 81.2154C190.955 81.1674 191.001 81.1357 191.049 81.1444C192.345 81.382 193.115 80.588 193.123 80.5799C193.157 80.5444 193.212 80.5429 193.248 80.5765C193.283 80.6101 193.285 80.6658 193.251 80.7013C193.217 80.7368 192.406 81.5725 191.018 81.3176C191.014 81.3172 191.01 81.3167 191.007 81.3152Z" fill="#263238"/>
<path d="M194.359 76.2467C194.315 76.2328 194.277 76.202 194.254 76.1574C193.905 75.4628 193.275 75.3784 193.249 75.375C193.154 75.364 193.083 75.2761 193.095 75.1796C193.106 75.0832 193.192 75.014 193.289 75.0251C193.323 75.0289 194.13 75.1288 194.569 75.999C194.612 76.0859 194.577 76.192 194.49 76.2356C194.449 76.2568 194.402 76.2596 194.359 76.2467Z" fill="#263238"/>
<path d="M188.795 75.2834C188.777 75.2777 188.76 75.269 188.744 75.257C188.665 75.1994 188.649 75.089 188.706 75.0108C189.283 74.2255 190.096 74.2615 190.13 74.2634C190.228 74.2697 190.302 74.3522 190.296 74.4492C190.291 74.5462 190.208 74.6206 190.111 74.6153C190.082 74.6138 189.45 74.5937 188.99 75.2196C188.944 75.2815 188.865 75.305 188.795 75.2834Z" fill="#263238"/>
<path d="M192.413 71.4497C192.413 71.4497 189.805 71.73 190.225 72.7899C190.645 73.8497 194.929 72.3497 194.929 72.3497L192.413 71.4497Z" fill="#263238"/>
<path d="M195.234 71.9897C195.234 71.9897 192.626 72.2701 193.046 73.3299C193.466 74.3897 197.749 72.8897 197.749 72.8897L195.234 71.9897Z" fill="#263238"/>
<path d="M215.297 194.295C215.257 194.287 213.572 193.712 195.209 193.712C192.584 193.712 190.359 192.693 188.594 190.684C180.272 181.209 187.339 151.425 189.653 133.629C190.262 128.954 190.742 125.261 190.742 123.662C190.742 122.415 190.314 121.466 189.436 120.761C186.317 118.256 178.456 119.297 175.691 119.909L175.172 117.566C175.624 117.466 186.292 115.159 190.938 118.89C192.4 120.063 193.141 121.669 193.141 123.662C193.141 125.416 192.676 128.991 192.033 133.939C189.919 150.19 182.791 180.441 190.397 189.1C191.704 190.588 193.278 191.312 195.208 191.312C214.016 191.312 215.641 191.912 215.826 191.954L215.297 194.295Z" fill="#E6CCD9"/>
<g opacity="0.7">
<path d="M215.297 194.295C215.257 194.287 213.572 193.712 195.209 193.712C192.584 193.712 190.359 192.693 188.594 190.684C180.272 181.209 187.339 151.425 189.653 133.629C190.262 128.954 190.742 125.261 190.742 123.662C190.742 122.415 190.314 121.466 189.436 120.761C186.317 118.256 178.456 119.297 175.691 119.909L175.172 117.566C175.624 117.466 186.292 115.159 190.938 118.89C192.4 120.063 193.141 121.669 193.141 123.662C193.141 125.416 192.676 128.991 192.033 133.939C189.919 150.19 182.791 180.441 190.397 189.1C191.704 190.588 193.278 191.312 195.208 191.312C214.016 191.312 215.641 191.912 215.826 191.954L215.297 194.295Z" fill="white"/>
</g>
<path d="M146.5 107.672V116.421V120.858V129.607L179.484 124.437C181.062 124.19 182.224 122.83 182.224 121.233V120.858V116.421V116.047C182.224 114.449 181.061 113.09 179.484 112.843L146.5 107.672Z" fill="#FF4747"/>
<path opacity="0.4" d="M146.5 107.672V116.421V120.858V129.607L179.484 124.437C181.062 124.19 182.224 122.83 182.224 121.233V120.858V116.421V116.047C182.224 114.449 181.061 113.09 179.484 112.843L146.5 107.672Z" fill="white"/>
<path opacity="0.2" d="M179.484 121.603L146.5 126.773V129.606L179.484 124.436C181.061 124.189 182.224 122.829 182.224 121.232V120.858V118.399C182.224 119.997 181.061 121.356 179.484 121.603Z" fill="#263238"/>
<path d="M145.471 104.411H132.867V117.79H163.484V110.932L145.471 104.411Z" fill="#FF4747"/>
<path opacity="0.6" d="M145.471 104.411H132.867V117.79H163.484V110.932L145.471 104.411Z" fill="white"/>
<path d="M150.88 132.105L132.867 125.583V104.411L150.88 110.932V132.105Z" fill="#FF4747"/>
<path opacity="0.4" d="M150.88 132.105L132.867 125.583V104.411L150.88 110.932V132.105Z" fill="white"/>
<path d="M163.486 110.933H150.883V132.105H163.486V110.933Z" fill="#FF4747"/>
<path opacity="0.2" d="M163.486 110.933H150.883V132.105H163.486V110.933Z" fill="white"/>
<path d="M145.107 116.013V111.475L138.647 109.136V113.674L135.992 112.713V124.079L147.762 128.34V116.974L145.107 116.013Z" fill="#263238"/>
<path opacity="0.1" d="M145.107 116.013V111.475L138.647 109.136V113.674L135.992 112.713V124.079L147.762 128.34V116.974L145.107 116.013Z" fill="white"/>
<path d="M147.759 126.774V120.675H138.094V124.841L143.432 126.774H147.759Z" fill="#FF4747"/>
<path opacity="0.2" d="M147.759 126.774V120.675H138.094V124.841L143.432 126.774H147.759Z" fill="white"/>
<path d="M137.553 110.849L135.992 110.284V108.175L137.553 108.74V110.849Z" fill="white"/>
<path d="M147.756 114.546L146.195 113.98V111.871L147.756 112.437V114.546Z" fill="#FF4747"/>
<path d="M147.76 127.579V123.413H145.656V127.579H147.76Z" fill="#FF4747"/>
<path opacity="0.2" d="M147.76 127.579V123.413H145.656V127.579H147.76Z" fill="black"/>
<path d="M138.094 124.841L145.655 127.578V123.412L138.094 120.675V124.841Z" fill="#FF4747"/>
<path d="M199.231 93.2983C198.801 94.3198 198.33 95.4425 197.832 96.4899C197.34 97.5531 193.621 106.305 193.309 106.65C193 106.991 181.189 112.058 178.398 113.308L178.633 114.772C178.729 115.366 178.774 115.553 179.374 115.516C181.507 115.383 192.675 112.27 193.324 112.105C193.649 112.023 195.014 111.595 195.469 111.374C198.127 110.433 201.023 102.328 201.574 101.17C201.846 100.59 203.049 97.5252 203.303 96.9367C203.562 96.3415 203.79 95.7727 204.029 95.1209L199.231 93.2983Z" fill="#B55B52"/>
<path d="M178.623 113.342L175.191 114.244C174.063 114.464 173.458 115.751 173.874 117.046C174.427 118.769 176.36 119.392 177.349 118.167C177.769 117.647 178.94 116.237 179.247 115.642C179.351 115.44 179.338 115.198 179.228 115L178.623 113.342Z" fill="#B55B52"/>
<path d="M202.743 89.7035C207.947 91.6048 201.52 105.232 201.52 105.232L194.141 102.522C194.141 102.522 195.741 99.3947 197.154 95.1578C198.502 91.1094 199.438 88.4963 202.743 89.7035Z" fill="#263238"/>
<path d="M67.9768 117.445C67.9768 117.445 66.21 143.638 65.2941 155.805C64.3322 168.583 65.1799 186.323 66.3074 194.542C65.632 195.008 63.5268 194.921 62.0997 194.593C62.0997 194.593 53.7885 172.176 56.3176 157.72C54.3242 148.505 55.0312 141.402 54.2517 136.126C52.6404 125.224 56.2322 120.251 56.2322 120.251L67.9768 117.445Z" fill="#B55B52"/>
<path d="M70.3455 117.194C70.3455 117.194 79.5164 140.919 83.4351 152.474C87.5506 164.609 94.4266 179.557 98.6804 186.68C98.2412 187.373 96.3077 188.304 94.8668 188.562C94.8668 188.562 79.1607 171.215 76.3652 157.561C59.2983 133.407 60.1556 119.573 60.1556 119.573L70.3455 117.194Z" fill="#B55B52"/>
<path opacity="0.2" d="M80.1239 143.158C77.9395 143.821 73.6516 145.027 68.9486 145.84C66.2764 141.035 64.4068 136.832 63.1094 133.283L75.2687 130.11C76.8292 134.243 78.5553 138.861 80.1239 143.158Z" fill="black"/>
<path opacity="0.2" d="M66.9626 132.278C66.652 136.78 66.3074 141.737 65.9838 146.287C61.9946 146.793 57.964 146.891 54.8589 146.045C54.6606 142.205 54.6606 138.909 54.2493 136.126C54.2234 135.953 54.2027 135.784 54.1797 135.613L66.9626 132.278Z" fill="black"/>
<path d="M61.846 98.2036C62.8516 100.308 63.9249 102.285 65.1215 104.269C66.3455 106.241 67.5858 108.168 69.3316 110.076C69.7895 110.554 70.2681 111.033 70.953 111.524C71.1258 111.647 71.3058 111.768 71.5204 111.883C71.7345 112.007 71.9044 112.073 72.0988 112.166C72.4569 112.314 72.7996 112.436 73.1255 112.526C74.4244 112.889 75.5966 113.054 76.7754 113.168C79.1212 113.386 81.3887 113.379 83.7014 113.195C84.4362 113.137 84.9844 112.494 84.9258 111.759C84.8783 111.164 84.4473 110.691 83.8943 110.564L83.8578 110.556C81.7228 110.069 79.5489 109.595 77.5002 109.054C76.4855 108.775 75.4684 108.481 74.6553 108.125C74.4532 108.035 74.2794 107.947 74.1297 107.865C74.0788 107.826 73.99 107.783 73.9703 107.755C73.941 107.733 73.895 107.691 73.845 107.646C73.6391 107.467 73.3377 107.139 73.0554 106.785C72.4761 106.067 71.8905 105.204 71.3399 104.32C70.786 103.43 70.2378 102.514 69.7156 101.572C68.6582 99.7084 67.6218 97.7539 66.645 95.8641L66.6258 95.8272C65.949 94.5177 64.3386 94.0051 63.0292 94.6819C61.7447 95.3448 61.2287 96.9086 61.846 98.2036Z" fill="#B55B52"/>
<path d="M61.9297 94.0908C61.9297 94.0908 66.9116 91.9058 70.5126 101.651C70.5126 101.651 69.3131 104.115 65.1131 104.815C65.1131 104.815 61.9268 98.9258 61.9297 94.0908Z" fill="#E6CCD9"/>
<path opacity="0.2" d="M61.9297 94.0908C61.9297 94.0908 66.9116 91.9058 70.5126 101.651C70.5126 101.651 69.3131 104.115 65.1131 104.815C65.1131 104.815 61.9268 98.9258 61.9297 94.0908Z" fill="black"/>
<path d="M65.193 105.576C65.193 105.576 68.7531 105.296 71.2731 101.896L70.8565 101.045L69.7194 100.287C69.7194 100.287 68.433 102.591 63.9531 103.603L65.193 105.576Z" fill="#E6CCD9"/>
<path opacity="0.7" d="M65.193 105.576C65.193 105.576 68.7531 105.296 71.2731 101.896L70.8565 101.045L69.7194 100.287C69.7194 100.287 68.433 102.591 63.9531 103.603L65.193 105.576Z" fill="white"/>
<path d="M70.3779 198.375C67.3582 198.609 66.9555 198.593 65.2549 198.668C63.7981 198.729 63.4645 198.938 62.2952 199.002C61.3179 199.058 61.2819 198.121 61.4993 197.023C61.6078 196.472 61.7513 195.314 61.891 194.426L66.2897 193.761C67.0045 194.901 68.5409 196.487 70.2603 196.583C71.9009 196.674 71.5817 198.281 70.3779 198.375Z" fill="#263238"/>
<path d="M104.191 188.878C101.504 190.275 101.128 190.419 99.5918 191.153C98.2751 191.78 98.05 192.102 96.9988 192.619C96.1209 193.052 95.7215 192.205 95.4921 191.109C95.3764 190.56 95.0548 189.437 94.8359 188.566L98.6236 186.233C99.7276 187.002 101.762 187.86 103.382 187.275C104.927 186.717 105.262 188.32 104.191 188.878Z" fill="#263238"/>
<path d="M70.7999 116.975L80.0797 140.855C80.0797 140.855 67.1912 146.055 53.8352 144.615C53.8352 144.615 54.477 140.695 53.8352 137.575C53.1935 134.455 52.3395 127.655 55.5195 120.275L55.8992 119.615L70.0991 116.375L70.7999 116.975Z" fill="#E6CCD9"/>
<g opacity="0.5">
<path d="M69.147 143.857L68.5547 131.256L70.9158 143.506C70.3446 143.627 69.7547 143.745 69.147 143.857Z" fill="black"/>
<path d="M65.2011 139.976L65.4094 144.434C64.8464 144.504 64.2756 144.568 63.6953 144.623L65.2011 139.976Z" fill="black"/>
<path d="M74.3621 142.679L71.9141 131.255L76.0752 142.198C75.5477 142.354 74.9745 142.516 74.3621 142.679Z" fill="black"/>
<path d="M59.9439 136.776L60.0581 144.848C59.4322 144.865 58.7996 144.868 58.1641 144.861L59.9439 136.776Z" fill="black"/>
</g>
<path d="M88.4267 110.481L87.3659 109.879C86.9671 109.652 86.4832 109.632 86.0671 109.825L84.1231 110.729C83.3459 111.09 82.7915 111.805 82.6355 112.648L82.5391 113.169C84.2301 114.289 86.8821 114.253 86.8821 114.253L87.6391 114.326C88.3135 114.391 88.8885 113.94 88.9605 113.289L89.1256 111.791C89.1827 111.273 88.9048 110.752 88.4267 110.481Z" fill="#B55B52"/>
<path d="M70.3052 117.929L56.0704 120.769C55.4617 120.891 54.8766 120.466 54.8147 119.849C54.5924 117.642 53.3694 111.811 47.4688 98.3141C47.4688 98.3141 51.9188 93.948 61.1075 94.0224C63.1859 94.0392 65.0987 95.1826 66.0745 97.0181C67.6038 99.8943 69.6222 105.59 71.1452 116.752C71.2201 117.303 70.851 117.82 70.3052 117.929Z" fill="#263238"/>
<path d="M59.1582 94.0767C59.69 94.5317 60.7988 95.8056 59.9411 98.0352C59.9411 98.0352 55.6028 95.9386 52.4219 95.4691C54.1868 94.8077 56.4289 94.2471 59.1582 94.0767Z" fill="#B55B52"/>
<path d="M47.365 79.1757C47.365 79.1757 47.51 70.9989 45.4066 70.0557C43.4439 69.1759 43.9239 72.3755 43.9239 72.3755C43.9239 72.3755 41.4505 67.66 39.0438 68.2154C36.9639 68.6954 40.0038 71.8154 40.0038 71.8154C40.0038 71.8154 35.6838 69.8954 34.8039 71.2552C33.9241 72.6151 36.4038 74.2154 36.4038 74.2154C36.4038 74.2154 32.5638 74.3983 32.7236 76.0269C32.8834 77.6556 36.8838 77.7611 36.8838 77.7611C36.8838 77.7611 33.4988 78.4279 33.9236 80.3661C34.3234 82.1891 38.8834 81.3501 38.8834 81.3501C38.8834 81.3501 35.8254 82.0831 36.4033 83.7031C37.1233 85.7205 41.4433 83.8807 41.4433 83.8807C41.4433 83.8807 39.205 85.2247 40.0494 86.3752C41.5234 88.3835 46.5452 82.3696 46.5452 82.3696L47.365 79.1757Z" fill="#263238"/>
<path d="M49.3235 78.3758C49.3235 78.3758 46.5457 77.4158 45.6035 80.3659C44.5254 83.7431 48.2185 84.4732 48.2185 84.4732L49.3235 78.3758Z" fill="#E6CCD9"/>
<path d="M51.1094 88.3833C52.2143 90.4113 53.8838 94.2124 52.8206 95.9961C52.8206 95.9961 54.8006 95.1969 59.806 96.8519C60.6359 94.739 59.5603 94.3862 59.5603 94.3862C56.9611 94.3967 56.4614 92.6198 56.3543 90.8644L51.1094 88.3833Z" fill="#B55B52"/>
<path opacity="0.2" d="M53.2504 89.3955L56.3541 90.8624C56.3781 91.2781 56.4261 91.6942 56.5211 92.0869C55.5553 92.1766 53.9685 91.4835 53.5677 90.5571C53.367 90.0953 53.2422 89.635 53.2504 89.3955Z" fill="black"/>
<path d="M48.2217 84.4735C49.7164 87.8176 50.2771 89.2605 52.6761 90.4624C56.2852 92.2706 60.0945 89.9474 59.6361 86.2836C59.2238 82.986 56.8488 78.0712 52.9646 77.7775C49.138 77.4876 46.727 81.1293 48.2217 84.4735Z" fill="#B55B52"/>
<path d="M53.6825 83.9667C53.7958 84.2528 54.0387 84.4366 54.2249 84.3771C54.4112 84.3176 54.4707 84.0377 54.3574 83.7517C54.2441 83.4656 54.0013 83.2817 53.815 83.3413C53.6283 83.4008 53.5693 83.6806 53.6825 83.9667Z" fill="#263238"/>
<path d="M57.2762 82.7001C57.3895 82.9862 57.6324 83.17 57.8186 83.1105C58.0048 83.051 58.0639 82.7711 57.9506 82.4851C57.8373 82.199 57.5944 82.0151 57.4082 82.0747C57.2224 82.1342 57.1629 82.414 57.2762 82.7001Z" fill="#263238"/>
<path d="M57.3359 82.1173L57.9422 81.7012C57.9422 81.7012 57.8035 82.3496 57.3359 82.1173Z" fill="#263238"/>
<path d="M56.0781 83.5747C56.0781 83.5747 57.0496 84.6523 57.8176 85.0771C57.581 85.5494 56.8773 85.5921 56.8773 85.5921L56.0781 83.5747Z" fill="#A02724"/>
<path d="M56.6568 87.5771C56.8152 87.5564 56.9804 87.5204 57.1512 87.4662C57.1973 87.4513 57.2199 87.4019 57.2016 87.3553C57.1834 87.3092 57.132 87.2833 57.0845 87.2982C55.8346 87.6971 54.902 87.0054 54.8924 86.9987C54.8516 86.9675 54.7954 86.9732 54.7666 87.0107C54.7378 87.0481 54.7474 87.1038 54.7882 87.1345C54.8247 87.1619 55.5754 87.7192 56.6568 87.5771Z" fill="#263238"/>
<path d="M51.5833 82.3657C51.6289 82.3557 51.6692 82.3273 51.6927 82.2846C52.0566 81.6107 52.7142 81.579 52.7219 81.579C52.8193 81.5747 52.8923 81.4936 52.8812 81.3961C52.8707 81.2987 52.7819 81.2229 52.6825 81.2267C52.6479 81.2281 51.8223 81.267 51.3711 82.1037C51.326 82.1872 51.3615 82.2952 51.4503 82.3456C51.4931 82.3691 51.5406 82.3753 51.5833 82.3657Z" fill="#263238"/>
<path d="M57.1618 80.3653C57.2059 80.3614 57.2477 80.3413 57.2765 80.3058C57.3365 80.2323 57.3202 80.121 57.241 80.0571C56.4451 79.4163 55.6598 79.629 55.6267 79.6386C55.5331 79.665 55.4846 79.7624 55.5187 79.856C55.5523 79.9496 55.6555 80.0038 55.7491 79.9779C55.7798 79.9693 56.3918 79.8133 57.0245 80.3226C57.0653 80.3557 57.1147 80.3696 57.1618 80.3653Z" fill="#263238"/>
<path d="M53.7422 83.3834L54.3484 82.9673C54.3484 82.9673 54.2097 83.6158 53.7422 83.3834Z" fill="#263238"/>
<path d="M50.1972 87.3222C50.1972 87.3222 52.0846 86.6689 49.3251 81.722C49.3251 81.722 51.5691 82.0666 50.8275 79.981C50.8275 79.981 53.444 81.255 52.8848 78.9351C52.8848 78.9351 54.8859 80.0559 54.8854 78.3356C54.8854 78.3356 56.6355 78.5353 56.4804 77.0151C56.3254 75.495 47.9753 75.015 46.9904 80.9353C46.9904 80.9353 44.7891 84.1892 50.1972 87.3222Z" fill="#263238"/>
<path d="M48.1384 87.6432C48.7878 88.212 49.6019 88.4304 50.2614 88.3752C51.2536 88.2926 51.3328 87.2578 50.7088 86.4485C50.1467 85.7203 48.9534 84.8856 48.1254 85.369C47.3094 85.8456 47.3958 86.9928 48.1384 87.6432Z" fill="#B55B52"/>
<path d="M58.315 94.021C58.315 94.021 60.3358 94.7852 59.7857 97.7501C59.7857 97.7501 58.8488 95.9832 52.0976 95.1749L50.1953 96.4652C50.1953 96.4652 54.0344 98.9784 56.875 99.7268C56.875 99.7268 56.4756 98.4658 57.7356 97.3402C57.7356 97.3402 59.2851 97.7746 60.0704 98.8546C60.0704 98.8546 60.6761 98.1317 60.5576 96.2712C60.5576 96.2712 61.7556 96.4546 62.2356 98.2546C62.2356 98.2546 62.9724 97.0479 61.1038 94.0215L58.315 94.021Z" fill="#E6CCD9"/>
<path opacity="0.7" d="M58.315 94.021C58.315 94.021 60.3358 94.7852 59.7857 97.7501C59.7857 97.7501 58.8488 95.9832 52.0976 95.1749L50.1953 96.4652C50.1953 96.4652 54.0344 98.9784 56.875 99.7268C56.875 99.7268 56.4756 98.4658 57.7356 97.3402C57.7356 97.3402 59.2851 97.7746 60.0704 98.8546C60.0704 98.8546 60.6761 98.1317 60.5576 96.2712C60.5576 96.2712 61.7556 96.4546 62.2356 98.2546C62.2356 98.2546 62.9724 97.0479 61.1038 94.0215L58.315 94.021Z" fill="white"/>
<path d="M22.921 194.017C22.9604 194.008 27.5881 193.047 45.9509 193.047C48.5751 193.047 56.5325 192.028 58.2975 190.019C66.6197 180.544 62.7462 150.76 60.4321 132.964C59.8239 128.289 59.3434 124.596 59.3434 122.996C59.3434 121.75 59.7706 120.801 60.649 120.096C63.7681 117.591 71.629 118.632 74.3943 119.244L74.9132 116.901C74.4615 116.801 63.793 114.494 59.1466 118.225C57.685 119.398 56.9439 121.004 56.9439 122.996C56.9439 124.751 57.409 128.326 58.0522 133.274C60.1657 149.526 64.1002 179.776 56.4946 188.435C55.1871 189.923 47.881 190.647 45.9509 190.647C27.1426 190.647 22.5754 191.634 22.3906 191.675L22.921 194.017Z" fill="#E6CCD9"/>
<g opacity="0.7">
<path d="M22.921 194.017C22.9604 194.008 27.5881 193.047 45.9509 193.047C48.5751 193.047 56.5325 192.028 58.2975 190.019C66.6197 180.544 62.7462 150.76 60.4321 132.964C59.8239 128.289 59.3434 124.596 59.3434 122.996C59.3434 121.75 59.7706 120.801 60.649 120.096C63.7681 117.591 71.629 118.632 74.3943 119.244L74.9132 116.901C74.4615 116.801 63.793 114.494 59.1466 118.225C57.685 119.398 56.9439 121.004 56.9439 122.996C56.9439 124.751 57.409 128.326 58.0522 133.274C60.1657 149.526 64.1002 179.776 56.4946 188.435C55.1871 189.923 47.881 190.647 45.9509 190.647C27.1426 190.647 22.5754 191.634 22.3906 191.675L22.921 194.017Z" fill="white"/>
</g>
<path d="M87.2137 109.625V115.643V118.695V124.713L64.5261 121.157C63.4408 120.987 62.6406 120.051 62.6406 118.953V118.695V115.643V115.385C62.6406 114.286 63.4408 113.351 64.5261 113.181L87.2137 109.625Z" fill="#E81313"/>
<path opacity="0.4" d="M87.2137 109.625V115.643V118.695V124.713L64.5261 121.157C63.4408 120.987 62.6406 120.051 62.6406 118.953V118.695V115.643V115.385C62.6406 114.286 63.4408 113.351 64.5261 113.181L87.2137 109.625Z" fill="white"/>
<path opacity="0.2" d="M64.5261 119.208L87.2137 122.764V124.713L64.5261 121.156C63.4408 120.986 62.6406 120.051 62.6406 118.953V118.695V117.004C62.6411 118.102 63.4408 119.038 64.5261 119.208Z" fill="#263238"/>
<path d="M88.1714 108.341H100.667V116.349H77.3906V112.245L88.1714 108.341Z" fill="#E81313"/>
<path opacity="0.6" d="M88.1714 108.341H100.667V116.349H77.3906V112.245L88.1714 108.341Z" fill="white"/>
<path d="M89.8828 124.916L100.664 121.013V108.341L89.8828 112.245V124.916Z" fill="#E81313"/>
<path opacity="0.4" d="M89.8828 124.916L100.664 121.013V108.341L89.8828 112.245V124.916Z" fill="white"/>
<path d="M77.387 124.917H89.8828V112.244H77.387V124.917Z" fill="#E81313"/>
<path opacity="0.2" d="M77.387 124.917H89.8828V112.244H77.387V124.917Z" fill="white"/>
<path d="M98.2782 109.211C97.9033 107.714 96.7743 106.626 95.4394 106.626H93.1748C91.5337 106.626 90.2031 108.27 90.2031 110.297C90.2031 110.636 90.243 110.962 90.3126 111.273H92.5839L98.2782 109.211Z" fill="#E81313"/>
<path opacity="0.6" d="M98.2782 109.211C97.9033 107.714 96.7743 106.626 95.4394 106.626H93.1748C91.5337 106.626 90.2031 108.27 90.2031 110.297C90.2031 110.636 90.243 110.962 90.3126 111.273H92.5839L98.2782 109.211Z" fill="white"/>
<path d="M92.5844 111.273L98.2791 109.211C97.9043 107.714 96.7753 106.626 95.4404 106.626C93.7993 106.626 92.4688 108.27 92.4688 110.297C92.4688 110.636 92.5086 110.962 92.5782 111.273H92.5844V111.273Z" fill="#E81313"/>
<path opacity="0.4" d="M92.5844 111.273L98.2791 109.211C97.9043 107.714 96.7753 106.626 95.4404 106.626C93.7993 106.626 92.4688 108.27 92.4688 110.297C92.4688 110.636 92.5086 110.962 92.5782 111.273H92.5844V111.273Z" fill="white"/>
<path d="M97.3025 110.963V109.454C97.0534 108.458 96.3026 107.735 95.4151 107.735C94.3241 107.735 93.4399 108.828 93.4399 110.176V112.361L91.2031 113.171V123.033L99.3425 120.087V110.224L97.3025 110.963Z" fill="#263238"/>
<path d="M91.2031 113.784H107.92V118.154H91.2031V115.914V113.784Z" fill="#263238"/>
<path opacity="0.8" d="M91.2031 113.784H107.92V118.154H91.2031V115.914V113.784Z" fill="white"/>
<path d="M102.039 122.829L107.922 120.699V113.784L102.039 115.914V122.829Z" fill="#263238"/>
<path d="M91.2059 122.83H102.039V115.914H91.2059V122.83Z" fill="#263238"/>
<path opacity="0.4" d="M91.2059 122.83H102.039V115.914H91.2059V122.83Z" fill="white"/>
<path opacity="0.6" d="M102.039 122.829L107.922 120.699V113.784L102.039 115.914V122.829Z" fill="white"/>
<path d="M102.969 122.492L106.988 121.037V119.09L102.969 120.545V122.492Z" fill="#E81313"/>
<path d="M93.8269 108.738C93.5879 109.142 93.4453 109.638 93.4453 110.176V111.402L101.89 114.142L105.004 113.325V112.365L93.8269 108.738Z" fill="#263238"/>
<path opacity="0.8" d="M93.8269 108.738C93.5879 109.142 93.4453 109.638 93.4453 110.176V111.402L101.89 114.142L105.004 113.325V112.365L93.8269 108.738Z" fill="white"/>
<path d="M105.001 112.365L101.617 113.591V115.203L105.001 113.977V112.365Z" fill="#263238"/>
<path opacity="0.6" d="M105.001 112.365L101.617 113.591V115.203L105.001 113.977V112.365Z" fill="white"/>
<path d="M93.4396 110.939V112.361L93.1641 112.462L101.615 115.203V113.591L93.4396 110.939Z" fill="#263238"/>
<path opacity="0.4" d="M93.4396 110.939V112.361L93.1641 112.462L101.615 115.203V113.591L93.4396 110.939Z" fill="white"/>
<path d="M65.3845 112.951L64.435 112.185C64.0779 111.897 63.6037 111.8 63.1621 111.923L61.0976 112.5C60.2725 112.731 59.6101 113.348 59.3201 114.154L59.1406 114.654C60.6286 116.031 63.2518 116.423 63.2518 116.423L63.9872 116.618C64.6419 116.792 65.2827 116.439 65.4584 115.809L65.863 114.357C66.0027 113.855 65.8121 113.296 65.3845 112.951Z" fill="#B55B52"/>
<path d="M45.7455 102.606C45.2429 104.765 44.9213 106.824 44.8416 109.086C44.8066 110.221 44.8244 111.363 45.0826 112.723C45.156 113.067 45.2492 113.426 45.396 113.823C45.5501 114.222 45.7388 114.656 46.1064 115.144C46.513 115.679 46.9599 116.01 47.3626 116.252C47.7701 116.493 48.1479 116.648 48.5036 116.768C49.2168 116.999 49.8485 117.098 50.4557 117.166C51.062 117.23 51.6389 117.257 52.2053 117.254C53.3348 117.241 54.4152 117.165 55.4789 117.025C57.6087 116.753 59.6424 116.331 61.6896 115.723C62.3943 115.514 62.796 114.773 62.5868 114.068C62.4125 113.482 61.8701 113.105 61.2864 113.116L61.2442 113.117C59.2632 113.155 57.2362 113.187 55.2908 113.121C54.3173 113.077 53.3549 113.031 52.4472 112.907C51.9951 112.846 51.5549 112.782 51.1532 112.688C50.7538 112.598 50.3832 112.482 50.1384 112.359C49.8903 112.261 49.7962 112.083 50.0295 112.304C50.1394 112.443 50.0324 112.187 50.0208 111.872C49.9474 111.216 50.0007 110.303 50.0813 109.405C50.1716 108.495 50.3016 107.551 50.4576 106.605C50.5906 105.665 50.7927 104.677 50.952 103.786L50.9712 103.679C51.2309 102.228 50.2652 100.842 48.8146 100.582C47.4116 100.333 46.0676 101.235 45.7455 102.606Z" fill="#B55B52"/>
<path d="M51.1039 107.725C51.1039 107.725 47.3388 107.766 44.5159 106.028C44.5159 106.028 44.4165 99.807 48.0377 97.7867C51.6583 95.7659 51.1039 107.725 51.1039 107.725Z" fill="#E6CCD9"/>
<path opacity="0.2" d="M51.1039 107.725C51.1039 107.725 47.3388 107.766 44.5159 106.028C44.5159 106.028 44.4165 99.807 48.0377 97.7867C51.6583 95.7659 51.1039 107.725 51.1039 107.725Z" fill="black"/>
<path d="M45.9685 105.455L46.5109 107.134L47.1359 105.729C48.3071 105.967 49.8176 106.169 51.7319 106.235L51.7386 108.424C51.7386 108.424 47.8098 108.656 43.8594 106.54L43.8819 104.668C43.8819 104.668 44.5203 105.06 45.9685 105.455Z" fill="#E6CCD9"/>
<path opacity="0.7" d="M45.9685 105.455L46.5109 107.134L47.1359 105.729C48.3071 105.967 49.8176 106.169 51.7319 106.235L51.7386 108.424C51.7386 108.424 47.8098 108.656 43.8594 106.54L43.8819 104.668C43.8819 104.668 44.5203 105.06 45.9685 105.455Z" fill="white"/>
</svg>
