<svg width="346" height="229" viewBox="0 0 346 229" fill="none" xmlns="http://www.w3.org/2000/svg">
<path d="M307.684 68.8237L303.269 90.052L300.427 87.2994L295.592 90.7252L291.897 86.1681L283.612 92.1496L276.53 80.3928L268.632 84.9865L265.5 80.6996L255.47 86.3101L252.453 79.8935L259.484 46.0886L297.175 53.815L307.684 68.8237Z" fill="#EBEBEB"/>
<path d="M297.174 53.815L307.684 68.8237L294.609 66.1444L297.174 53.815Z" fill="#DBDBDB"/>
<path d="M302.328 94.2931L295.856 125.437L245.086 115.031L251.512 84.1392L254.529 90.5512L264.563 84.9407L267.691 89.2276L275.594 84.6384L282.671 96.3953L290.961 90.4138L294.652 94.9663L299.491 91.5451L302.328 94.2931Z" fill="#EBEBEB"/>
<path d="M229.669 90.6428L177.931 93.8213L173.82 27.8876L212.24 25.5244L226.343 37.2721L229.669 90.6428Z" fill="#EBEBEB"/>
<path d="M212.234 25.5244L226.337 37.2721L213.014 38.0919L212.234 25.5244Z" fill="#DBDBDB"/>
<path d="M197.914 69.8908L197.711 68.4023C197.19 65.32 198.039 61.8712 200.738 58.2668C203.174 55.0608 204.493 52.7708 204.345 50.1693C204.179 47.2381 202.219 45.3878 198.57 45.5344C196.484 45.6419 194.481 46.3767 192.826 47.6412L191.234 44.1008C193.08 42.6123 196.309 41.5131 199.377 41.3528C206.034 40.9864 209.273 44.8977 209.526 49.2625C209.748 53.1692 207.709 56.105 205.116 59.5354C202.735 62.6636 201.956 65.2421 202.293 68.1596L202.436 69.6526L197.914 69.8908ZM197.093 78.002C196.973 75.8769 198.334 74.3013 200.36 74.1914C202.385 74.0815 203.861 75.4921 203.981 77.6218C204.092 79.6325 202.851 81.2538 200.71 81.3729C198.666 81.4874 197.19 80.0126 197.075 78.002H197.093Z" fill="#DBDBDB"/>
<path d="M68.4976 58.6744L63.2938 56.334L62.5695 57.9141C62.4625 58.1399 62.2957 58.3325 62.0868 58.4713C61.8779 58.6101 61.6349 58.6898 61.3838 58.7018C61.0979 58.7111 60.8128 58.7387 60.5304 58.7843C60.2825 58.8208 60.0292 58.7899 59.7977 58.6947C59.5661 58.5995 59.3649 58.4437 59.2156 58.2438L58.196 56.8286L53.5504 60.1354L54.57 61.5506C54.7118 61.7549 54.7952 61.9934 54.8115 62.241C54.8277 62.4886 54.7761 62.7359 54.6622 62.9567C54.5307 63.2085 54.4121 63.4669 54.307 63.7307C54.2156 63.9633 54.0621 64.1668 53.8629 64.3193C53.6638 64.4718 53.4266 64.5676 53.1767 64.5963L51.4375 64.7658L51.9957 70.4129L53.7442 70.2389C53.9949 70.219 54.2464 70.2673 54.4715 70.3787C54.6967 70.49 54.887 70.6602 55.0221 70.8709C55.0959 70.99 55.1743 71.1045 55.2573 71.219C55.3404 71.3335 55.4234 71.4434 55.5111 71.5533C55.6703 71.7456 55.7727 71.978 55.8069 72.2246C55.8411 72.4712 55.8057 72.7224 55.7048 72.9502L54.9759 74.5441L60.1844 76.889L60.9087 75.2998C61.0166 75.0741 61.1845 74.882 61.3942 74.744C61.6039 74.606 61.8476 74.5274 62.0989 74.5166C62.3817 74.505 62.6635 74.4775 62.9432 74.4341C63.1911 74.3976 63.4443 74.4286 63.6759 74.5238C63.9074 74.6189 64.1086 74.7748 64.2579 74.9746L65.2775 76.3898L69.9277 73.083L68.9082 71.6678C68.762 71.4654 68.6759 71.2264 68.6596 70.9779C68.6433 70.7294 68.6974 70.4813 68.8159 70.2618C68.9444 70.0113 69.0599 69.7545 69.1619 69.4923C69.2506 69.258 69.4034 69.0529 69.6031 68.9C69.8027 68.747 70.0414 68.6524 70.2922 68.6267L72.0406 68.4527L71.4778 62.8055L69.7294 62.975C69.4802 62.9967 69.2298 62.9496 69.0059 62.8389C68.782 62.7281 68.5933 62.5581 68.4607 62.3475C68.3823 62.2284 68.3038 62.1139 68.2208 61.9994C68.1378 61.8849 68.0547 61.7704 67.9671 61.6651C67.8089 61.4704 67.7073 61.2366 67.6732 60.9888C67.639 60.7411 67.6737 60.4887 67.7733 60.259L68.4976 58.6744ZM65.5451 63.9001C66.0846 64.6475 66.3887 65.537 66.4189 66.456C66.4492 67.375 66.2043 68.2822 65.7151 69.063C65.226 69.8438 64.5146 70.4631 63.6709 70.8425C62.8273 71.2219 61.8892 71.3443 60.9755 71.1944C60.0617 71.0445 59.2132 70.6289 58.5373 70.0002C57.8615 69.3716 57.3886 68.558 57.1785 67.6625C56.9683 66.767 57.0305 65.8297 57.3569 64.9693C57.6834 64.1088 58.2596 63.3638 59.0126 62.8284C60.0221 62.1107 61.2773 61.8205 62.5024 62.0214C63.7274 62.2224 64.8218 62.8982 65.5451 63.9001Z" fill="#EBEBEB"/>
<path d="M303.734 133.603L300.265 135.591L300.879 136.644C300.97 136.795 301.016 136.97 301.01 137.146C301.004 137.322 300.948 137.493 300.846 137.638C300.74 137.803 300.639 137.973 300.547 138.151C300.471 138.309 300.351 138.442 300.201 138.535C300.052 138.627 299.879 138.675 299.702 138.673H298.484V142.653H299.712C299.888 142.651 300.061 142.699 300.211 142.792C300.36 142.884 300.48 143.017 300.556 143.175C300.648 143.354 300.75 143.523 300.856 143.688C300.957 143.833 301.014 144.004 301.019 144.181C301.025 144.357 300.98 144.531 300.888 144.682L300.274 145.736L303.744 147.723L304.362 146.665C304.451 146.515 304.581 146.393 304.737 146.312C304.892 146.231 305.068 146.195 305.243 146.207H305.833C306.009 146.195 306.184 146.232 306.339 146.313C306.495 146.394 306.625 146.516 306.715 146.665L307.333 147.728L310.797 145.74L310.184 144.682C310.097 144.53 310.054 144.357 310.06 144.182C310.067 144.008 310.122 143.838 310.221 143.693C310.327 143.528 310.428 143.354 310.521 143.18C310.596 143.022 310.716 142.889 310.866 142.796C311.015 142.704 311.189 142.656 311.365 142.658H312.592V138.678H311.356C311.179 138.68 311.006 138.632 310.857 138.539C310.707 138.447 310.587 138.314 310.511 138.156C310.419 137.982 310.318 137.808 310.211 137.643C310.113 137.498 310.058 137.328 310.051 137.153C310.044 136.979 310.087 136.805 310.175 136.653L310.788 135.596L307.324 133.608L306.705 134.652C306.616 134.802 306.486 134.924 306.33 135.005C306.175 135.086 305.999 135.122 305.824 135.11H305.529H305.234C305.058 135.122 304.882 135.085 304.726 135.004C304.57 134.924 304.439 134.802 304.348 134.652L303.734 133.603ZM305.529 137.405C306.179 137.404 306.815 137.594 307.356 137.952C307.896 138.31 308.318 138.819 308.567 139.416C308.816 140.012 308.882 140.668 308.755 141.301C308.629 141.934 308.316 142.515 307.856 142.971C307.397 143.428 306.811 143.738 306.173 143.864C305.536 143.99 304.875 143.925 304.274 143.677C303.674 143.43 303.161 143.011 302.801 142.474C302.44 141.937 302.248 141.306 302.249 140.661C302.248 140.233 302.333 139.809 302.497 139.413C302.662 139.018 302.903 138.658 303.208 138.355C303.513 138.053 303.874 137.812 304.273 137.648C304.671 137.484 305.098 137.4 305.529 137.4V137.405Z" fill="#EBEBEB"/>
<path d="M79.0281 41.7513L75.8496 44.1695L76.5831 45.1359C76.6925 45.2736 76.7598 45.4396 76.7769 45.6141C76.7941 45.7887 76.7605 45.9645 76.68 46.1206C76.5917 46.2989 76.5146 46.4824 76.4493 46.6702C76.3924 46.8356 76.2902 46.982 76.1541 47.0928C76.018 47.2037 75.8534 47.2746 75.6789 47.2976L74.4609 47.4534L74.9776 51.3967L76.1956 51.241C76.3728 51.2165 76.5535 51.2422 76.7167 51.3151C76.88 51.388 77.0191 51.5052 77.1182 51.6532C77.2293 51.8125 77.3495 51.9655 77.4781 52.1112C77.5969 52.241 77.6757 52.4019 77.7052 52.5748C77.7346 52.7477 77.7134 52.9254 77.6441 53.0868L77.1828 54.2134L80.8735 55.7386L81.3348 54.6119C81.4035 54.4503 81.5163 54.311 81.6607 54.2098C81.805 54.1086 81.975 54.0496 82.1514 54.0394L82.4466 54.0073L82.7373 53.9615C82.908 53.9296 83.0843 53.9447 83.2469 54.0053C83.4096 54.0659 83.5525 54.1695 83.6599 54.305L84.4119 55.2806L87.5905 52.8623L86.8477 51.896C86.7405 51.7563 86.6746 51.5898 86.6574 51.415C86.6403 51.2402 86.6727 51.0642 86.7509 50.9067C86.8383 50.7296 86.9153 50.5476 86.9815 50.3617C87.0384 50.1962 87.1406 50.0499 87.2767 49.939C87.4129 49.8282 87.5774 49.7572 87.752 49.7342L88.9699 49.5785L88.4532 45.6351L87.2353 45.7908C87.0584 45.8158 86.8781 45.7909 86.7149 45.7188C86.5517 45.6467 86.4123 45.5304 86.3126 45.3832C86.1973 45.2183 86.0773 45.0626 85.9481 44.9252C85.8407 44.7927 85.7711 44.6339 85.7468 44.4654C85.7224 44.297 85.7442 44.1252 85.8097 43.968L86.2711 42.8413L82.5804 41.3162L82.1191 42.4428C82.0495 42.6038 81.9364 42.7426 81.7923 42.8436C81.6481 42.9447 81.4786 43.0041 81.3025 43.0153L81.0073 43.0428L80.7351 43.052C80.5643 43.0839 80.3881 43.0688 80.2254 43.0082C80.0627 42.9477 79.9199 42.844 79.8124 42.7085L79.0281 41.7513ZM81.3025 45.2916C81.9451 45.2096 82.5978 45.3184 83.1783 45.6042C83.7587 45.89 84.2409 46.3401 84.5639 46.8977C84.887 47.4552 85.0365 48.0953 84.9936 48.7371C84.9507 49.379 84.7172 49.9938 84.3228 50.504C83.9283 51.0143 83.3904 51.3972 82.777 51.6043C82.1636 51.8115 81.5022 51.8336 80.8761 51.668C80.25 51.5023 79.6874 51.1563 79.2592 50.6736C78.8309 50.1909 78.5563 49.5931 78.4699 48.9556C78.4123 48.5302 78.4399 48.0977 78.5513 47.6829C78.6626 47.2681 78.8554 46.8793 79.1187 46.5388C79.3819 46.1983 79.7104 45.9128 80.0852 45.6987C80.46 45.4847 80.8737 45.3463 81.3025 45.2916Z" fill="#EBEBEB"/>
<path d="M55.2815 145.085C55.4548 140.658 55.3932 136.224 55.097 131.803C54.4369 122.674 53.0345 113.613 50.9035 104.708C49.7317 99.6974 48.2923 94.7694 46.7884 89.8459C46.7422 89.6947 46.5023 89.7359 46.5439 89.8917C51.1895 107.25 55.0001 125.158 54.7371 143.203C54.6633 148.241 54.0728 153.21 53.593 158.23C53.593 158.363 53.8006 158.418 53.8329 158.28C54.7879 153.97 55.1016 149.473 55.2815 145.085Z" fill="#EBEBEB"/>
<path d="M46.5386 89.8779C46.5386 89.8779 39.5079 107.603 41.081 111.752C42.6542 115.901 45.902 116.79 45.902 116.79C45.902 116.79 41.5977 122.891 44.6056 128.611C47.6135 134.331 54.2936 134.061 54.755 140.546C54.7411 140.579 55.1102 113.46 46.5386 89.8779Z" fill="#EBEBEB"/>
<path d="M53.9782 129.38C53.9896 129.351 53.9896 129.318 53.9782 129.289C53.0554 117.188 50.7683 105.228 47.1597 93.6335C47.1597 93.6015 47.0905 93.6106 47.0997 93.6335C48.493 98.8242 49.7232 104.036 50.7904 109.27C49.8452 108.381 48.6904 107.741 47.4319 107.41C47.4319 107.41 47.395 107.438 47.4319 107.447C48.754 107.928 49.9428 108.713 50.9011 109.737C51.1041 110.767 51.3071 111.793 51.4962 112.824C49.9231 111.079 47.7456 110.213 45.5635 109.389C45.5586 109.391 45.5544 109.394 45.5514 109.399C45.5484 109.403 45.5469 109.409 45.5469 109.414C45.5469 109.419 45.5484 109.425 45.5514 109.429C45.5544 109.433 45.5586 109.437 45.5635 109.439C47.8379 110.355 50.0984 111.537 51.6393 113.483C52.1744 116.424 52.645 119.375 53.0509 122.336C51.9151 121.155 50.4583 120.326 48.8574 119.95C48.8067 119.95 48.779 120.01 48.8297 120.024C50.4743 120.504 51.9425 121.45 53.0555 122.744H53.0832C53.2216 123.782 53.3539 124.825 53.48 125.872C52.6013 125.134 51.6091 124.54 50.5413 124.113C50.5136 124.113 50.4951 124.145 50.5413 124.155C51.631 124.623 52.629 125.279 53.4892 126.092C53.4892 126.092 53.5123 126.092 53.5261 126.092C53.6414 127.086 53.7568 128.08 53.8583 129.074C52.2741 127.172 50.2182 125.714 47.8932 124.842C47.8834 124.842 47.8741 124.846 47.8671 124.852C47.8602 124.859 47.8563 124.869 47.8563 124.878C47.8563 124.888 47.8602 124.897 47.8671 124.904C47.8741 124.911 47.8834 124.915 47.8932 124.915C50.189 125.92 52.2056 127.461 53.7706 129.408C53.7878 129.429 53.8111 129.445 53.8374 129.453C53.8637 129.461 53.8918 129.462 53.9182 129.454C54.0705 130.979 54.2089 132.504 54.3196 134.034C54.3196 134.057 54.3565 134.057 54.3565 134.034C54.2366 132.498 54.1105 130.947 53.9782 129.38Z" fill="white"/>
<path d="M48.3238 105.665C47.0505 104.879 45.596 104.428 44.098 104.355C44.0907 104.355 44.0836 104.358 44.0784 104.363C44.0732 104.369 44.0703 104.376 44.0703 104.383C44.0703 104.39 44.0732 104.397 44.0784 104.402C44.0836 104.407 44.0907 104.41 44.098 104.41C45.5462 104.683 46.9517 105.145 48.2777 105.784C48.333 105.798 48.3746 105.702 48.3238 105.665Z" fill="white"/>
<path d="M49.18 124.429C48.2013 123.872 47.1237 123.506 46.006 123.353C45.9691 123.353 45.9645 123.404 46.006 123.413C47.0975 123.63 48.1533 123.997 49.1431 124.503C49.1846 124.526 49.2215 124.452 49.18 124.429Z" fill="white"/>
<path d="M73.7708 112.059C70.7965 114.1 68.0649 116.469 65.6283 119.121C63.1154 121.929 61.1771 125.196 59.9216 128.739C57.2495 136.121 55.8126 143.888 55.6681 151.731C55.5785 156.074 55.998 160.413 56.9183 164.66C56.9258 164.691 56.9449 164.718 56.9717 164.735C56.9986 164.752 57.0311 164.759 57.0625 164.753C57.0939 164.747 57.1219 164.729 57.1405 164.704C57.1592 164.678 57.1672 164.646 57.1628 164.614C56.0177 157.12 56.0612 149.493 57.292 142.012C58.5007 134.684 60.3967 126.706 65.0931 120.747C67.6489 117.5 70.8367 114.949 73.9876 112.311C74.1537 112.164 73.9415 111.94 73.7708 112.059Z" fill="#EBEBEB"/>
<path d="M56.6953 146.445C58.3883 143.727 60.3779 141.202 62.6281 138.916C66.148 135.421 69.1098 132.939 69.5711 130.631C70.0325 128.322 66.0465 126.619 66.0465 126.619C66.0465 126.619 70.9136 127.489 72.2469 125.46C73.5801 123.431 74.2214 111.679 74.2214 111.679C74.2214 111.679 65.3638 117.958 61.2348 126.761C57.1059 135.563 56.6953 146.445 56.6953 146.445Z" fill="#EBEBEB"/>
<path d="M71.0469 122.703C70.4636 122.617 69.8724 122.597 69.2846 122.643C69.2154 122.643 69.22 122.762 69.2846 122.767C69.8658 122.767 70.4517 122.739 71.033 122.767C71.0397 122.765 71.0457 122.762 71.0504 122.757C71.0552 122.752 71.0585 122.746 71.0599 122.739C71.0614 122.732 71.0609 122.726 71.0586 122.719C71.0563 122.713 71.0522 122.707 71.0469 122.703Z" fill="white"/>
<path d="M64.6842 134.102C63.7489 134.121 62.8243 134.304 61.9531 134.643C61.9531 134.643 61.9531 134.689 61.9531 134.684C62.8758 134.469 63.7662 134.382 64.6796 134.226C64.6915 134.221 64.7017 134.212 64.7091 134.202C64.7164 134.191 64.7205 134.179 64.721 134.166C64.7215 134.153 64.7183 134.14 64.7118 134.129C64.7053 134.118 64.6957 134.108 64.6842 134.102Z" fill="white"/>
<path d="M62.7758 130.164C62.3874 130.161 61.9997 130.194 61.6178 130.264C61.6107 130.267 61.6047 130.272 61.6004 130.278C61.5961 130.284 61.5938 130.291 61.5938 130.299C61.5938 130.306 61.5961 130.314 61.6004 130.32C61.6047 130.326 61.6107 130.33 61.6178 130.333C62.0045 130.355 62.3925 130.338 62.7758 130.283C62.7917 130.283 62.8069 130.276 62.8182 130.265C62.8294 130.254 62.8357 130.239 62.8357 130.223C62.8357 130.207 62.8294 130.192 62.8182 130.181C62.8069 130.17 62.7917 130.164 62.7758 130.164Z" fill="white"/>
<path d="M30.7275 124.526C33.6104 125.496 36.3731 126.788 38.9623 128.377C41.6488 130.072 43.9785 132.268 45.8223 134.844C49.7016 140.205 52.6718 146.16 54.6153 152.473C55.6992 155.968 56.3681 159.577 56.6083 163.227C56.6032 163.25 56.5902 163.271 56.5713 163.287C56.5524 163.302 56.5288 163.31 56.5045 163.31C56.4801 163.31 56.4566 163.302 56.4377 163.287C56.4188 163.271 56.4057 163.25 56.4007 163.227C55.5863 156.899 53.7775 150.737 51.04 144.966C48.3504 139.31 44.9596 133.292 39.7742 129.545C36.9509 127.507 33.7769 126.17 30.6121 124.759C30.4461 124.704 30.5614 124.471 30.7275 124.526Z" fill="#EBEBEB"/>
<path d="M52.5512 148.438C50.547 146.627 48.3486 145.041 45.9957 143.707C42.3327 141.687 39.3571 140.359 38.4483 138.595C37.5394 136.832 40.3674 134.542 40.3674 134.542C40.3674 134.542 36.6306 136.374 35.0805 135.023C33.5304 133.672 30.2734 124.329 30.2734 124.329C30.2734 124.329 38.905 127.374 44.2887 133.553C49.6725 139.731 52.5512 148.438 52.5512 148.438Z" fill="#EBEBEB"/>
<path d="M45.3847 139.837C44.536 139.778 43.6839 139.882 42.875 140.143C42.875 140.143 42.875 140.185 42.875 140.18C43.7003 140.04 44.5341 139.954 45.3708 139.924C45.4308 139.924 45.4446 139.841 45.3847 139.837Z" fill="white"/>
<path d="M37.856 130.035C37.4689 130.004 37.0793 130.026 36.6981 130.1C36.6566 130.1 36.6704 130.173 36.6981 130.168C37.081 130.127 37.4547 130.141 37.833 130.132C37.8447 130.132 37.8563 130.128 37.8656 130.121C37.875 130.114 37.8816 130.104 37.8843 130.093C37.8871 130.082 37.8857 130.07 37.8806 130.059C37.8754 130.049 37.8667 130.04 37.856 130.035Z" fill="white"/>
<path d="M63.6852 175.038H44.2031L46.9804 154.836L47.6908 149.656H60.1975L60.908 154.836L63.6852 175.038Z" fill="#DBDBDB"/>
<path d="M60.9042 154.836H46.9766L47.687 149.656H60.1938L60.9042 154.836Z" fill="#C7C7C7"/>
<path d="M61.9805 147.861H45.8984V152.248H61.9805V147.861Z" fill="#DBDBDB"/>
<path d="M31.8125 175.038L66.8784 174.929L101.944 174.887L172.076 174.809L242.208 174.887L277.274 174.929L312.34 175.038L277.274 175.153L242.208 175.19L172.076 175.267L101.944 175.19L66.8784 175.148L31.8125 175.038Z" fill="#263238"/>
<path d="M173.001 209.173C246.059 209.173 305.284 202.73 305.284 194.783C305.284 186.835 246.059 180.392 173.001 180.392C99.9437 180.392 40.7188 186.835 40.7188 194.783C40.7188 202.73 99.9437 209.173 173.001 209.173Z" fill="#EBEBEB"/>
<path d="M142.209 192.401C141.134 192.763 110.313 192.859 109.132 192.136C108.67 191.861 108.407 187.404 108.209 182.009C108.167 180.846 108.135 179.641 108.107 178.423L105.648 162.1L126.256 161.967L128.198 178.295L128.12 181.886C128.12 181.886 139.939 187.084 141.148 188.027C142.357 188.971 143.284 192.039 142.209 192.401Z" fill="#EB9481"/>
<path d="M142.208 192.401C141.133 192.763 110.312 192.859 109.131 192.136C108.586 191.797 108.291 185.288 108.125 178.423L128.175 178.295L128.096 181.886C128.096 181.886 139.915 187.084 141.124 188.027C142.333 188.971 143.283 192.039 142.208 192.401Z" fill="white"/>
<path d="M142.211 192.401C141.136 192.763 110.315 192.859 109.134 192.136C108.672 191.861 108.409 187.404 108.211 182.009L128.081 181.885C128.081 181.885 139.9 187.084 141.109 188.027C142.317 188.971 143.286 192.039 142.211 192.401Z" fill="#A6A6A6"/>
<path d="M141.76 191.178C136.593 191.068 115.741 191.119 110.625 191.403C110.583 191.403 110.583 191.43 110.625 191.435C115.746 191.65 136.598 191.435 141.76 191.261C141.871 191.256 141.871 191.178 141.76 191.178Z" fill="#263238"/>
<path d="M139.137 186.933C138.562 186.92 137.991 187.026 137.46 187.243C136.929 187.461 136.449 187.785 136.05 188.197C135.324 188.931 134.914 189.916 134.906 190.945C134.906 190.977 134.962 190.977 134.966 190.945C135.138 189.931 135.635 189 136.383 188.291C137.131 187.581 138.091 187.13 139.118 187.006C139.128 187.008 139.138 187.007 139.147 187.002C139.156 186.997 139.162 186.988 139.164 186.978C139.167 186.969 139.165 186.958 139.16 186.95C139.155 186.941 139.146 186.935 139.137 186.933Z" fill="#263238"/>
<path d="M130.1 182.389C128.033 182.366 125.639 183.099 124.356 184.785C124.31 184.849 124.402 184.917 124.462 184.885C126.268 183.939 128.17 183.187 130.137 182.641C130.167 182.633 130.193 182.614 130.211 182.588C130.228 182.562 130.235 182.53 130.23 182.499C130.226 182.468 130.21 182.44 130.186 182.42C130.162 182.399 130.131 182.389 130.1 182.389Z" fill="#263238"/>
<path d="M131.704 182.998C129.632 182.998 127.238 183.713 125.96 185.394C125.909 185.463 126.001 185.531 126.066 185.499C127.869 184.55 129.77 183.796 131.736 183.25C131.766 183.242 131.792 183.224 131.809 183.198C131.826 183.172 131.834 183.141 131.83 183.111C131.826 183.08 131.811 183.052 131.788 183.031C131.765 183.01 131.735 182.999 131.704 182.998Z" fill="#263238"/>
<path d="M133.303 183.612C131.236 183.612 128.842 184.322 127.559 186.007C127.513 186.072 127.605 186.14 127.665 186.108C129.471 185.162 131.373 184.41 133.34 183.864C133.37 183.856 133.397 183.837 133.414 183.811C133.431 183.784 133.438 183.753 133.434 183.722C133.429 183.691 133.413 183.663 133.389 183.642C133.365 183.622 133.334 183.611 133.303 183.612Z" fill="#263238"/>
<path d="M134.898 184.226C132.827 184.203 130.433 184.936 129.155 186.621C129.104 186.685 129.201 186.754 129.261 186.722C131.066 185.775 132.969 185.023 134.935 184.478C134.966 184.47 134.992 184.451 135.009 184.424C135.027 184.398 135.034 184.367 135.029 184.336C135.025 184.305 135.009 184.276 134.985 184.256C134.961 184.236 134.93 184.225 134.898 184.226Z" fill="#263238"/>
<path d="M111.925 186.525C109.619 186.525 109.619 190.12 111.925 190.107C114.232 190.093 114.25 186.511 111.925 186.525Z" fill="#263238"/>
<path d="M132.314 176.902C131.267 176.041 129.948 176.902 129.306 177.786C128.239 179.349 127.603 181.162 127.461 183.044C127.461 183.085 127.493 183.104 127.526 183.104C127.534 183.143 127.551 183.179 127.576 183.209C127.602 183.24 127.634 183.264 127.671 183.28C127.707 183.296 127.747 183.303 127.787 183.3C127.827 183.297 127.865 183.285 127.899 183.264C129.366 182.252 131.064 181.345 132.176 179.912C132.808 179.078 133.324 177.704 132.314 176.902ZM129.795 181.272C129.085 181.789 128.351 182.27 127.659 182.815C128.028 181.789 128.347 180.754 128.817 179.765C129.035 179.291 129.284 178.832 129.565 178.391C130.026 177.709 132.037 175.986 132.25 178.217C132.37 179.44 130.64 180.658 129.795 181.272Z" fill="#263238"/>
<path d="M122.316 183.823C124.116 184.089 125.975 183.576 127.742 183.296C127.78 183.286 127.816 183.268 127.845 183.242C127.875 183.216 127.898 183.183 127.913 183.146C127.928 183.11 127.934 183.071 127.931 183.031C127.927 182.992 127.915 182.954 127.894 182.921C127.901 182.915 127.906 182.909 127.91 182.901C127.914 182.894 127.915 182.886 127.915 182.877C127.915 182.869 127.914 182.86 127.91 182.853C127.906 182.845 127.901 182.839 127.894 182.834C126.474 181.577 124.746 180.713 122.884 180.328C121.795 180.122 120.254 180.42 120.116 181.762C119.95 183.026 121.265 183.658 122.316 183.823ZM121.062 182.66C119.678 180.901 122.321 180.75 123.115 180.933C123.629 181.061 124.135 181.223 124.628 181.418C125.637 181.834 126.624 182.3 127.585 182.815C126.708 182.902 125.846 183.058 124.974 183.177C123.931 183.315 121.837 183.626 121.062 182.66Z" fill="#263238"/>
<path d="M75.3438 86.6536C75.3438 86.6536 99.2731 127.067 99.9144 129.907C100.897 134.267 106.105 177.324 106.105 177.324L131.017 176.866C131.017 176.866 126.727 138.902 122.663 126.394C119.738 117.385 98.618 87.5054 98.618 87.5054L75.3438 86.6536Z" fill="#37474F"/>
<path d="M128.754 173.092C125.179 173.064 112.506 172.922 107.745 173.362C107.708 173.362 107.712 173.426 107.745 173.431C109.382 173.664 125.174 173.303 128.749 173.188C128.757 173.191 128.765 173.192 128.773 173.191C128.78 173.19 128.788 173.187 128.795 173.183C128.801 173.178 128.807 173.172 128.811 173.166C128.815 173.159 128.817 173.151 128.817 173.143C128.818 173.135 128.816 173.127 128.813 173.12C128.81 173.113 128.805 173.107 128.799 173.102C128.792 173.097 128.785 173.093 128.777 173.092C128.77 173.09 128.762 173.09 128.754 173.092Z" fill="#263238"/>
<path d="M79.4295 90.3634C80.9981 92.8045 82.6589 95.1953 84.2551 97.6181C85.8513 100.041 87.4567 102.464 89.0391 104.882C92.1946 109.767 95.2702 114.685 98.2658 119.634C99.7277 121.928 100.978 124.349 102.003 126.866C102.937 129.384 103.64 131.981 104.102 134.625C104.591 137.276 104.914 139.956 105.213 142.635C105.521 145.484 105.842 148.334 106.178 151.186C106.833 157.021 107.489 162.856 108.148 168.691C108.226 169.405 108.304 170.12 108.378 170.839C108.378 170.944 108.198 170.962 108.184 170.839C107.451 165.045 106.842 159.228 106.178 153.435C105.845 150.543 105.515 147.653 105.186 144.765C104.877 142.076 104.581 139.383 104.162 136.713C103.776 134.077 103.19 131.475 102.409 128.927C101.547 126.289 100.393 123.755 98.967 121.37C96.0837 116.428 93.0296 111.573 89.9756 106.714C86.9216 101.855 83.7845 96.954 80.5644 92.1542C80.1677 91.5634 79.7663 90.9725 79.3511 90.3909C79.3188 90.3588 79.4018 90.3176 79.4295 90.3634Z" fill="#263238"/>
<path d="M83.1901 194.783C82.0553 194.714 52.7421 182.925 51.9302 181.808C51.894 181.742 51.878 181.667 51.8841 181.592C51.8841 180.589 53.9185 177.09 55.6163 172.492C55.7224 172.199 56.4789 170.834 57.5262 168.997C60.4372 163.964 65.5119 155.294 65.5119 155.294L84.671 162.851L75.4997 176.477L74.0742 179.774C74.0742 179.774 83.0656 189.003 83.8222 190.308C84.5788 191.613 84.3204 194.847 83.1901 194.783Z" fill="#EB9481"/>
<path d="M83.1902 194.783C82.0553 194.714 52.7421 182.925 51.9302 181.808C51.894 181.742 51.878 181.667 51.8841 181.592C51.8841 180.589 53.9185 177.09 55.6163 172.492C55.7224 172.199 56.4789 170.834 57.5262 168.997L75.5182 176.477L74.0927 179.774C74.0927 179.774 83.084 189.003 83.8406 190.308C84.5972 191.613 84.3204 194.847 83.1902 194.783Z" fill="white"/>
<path d="M83.1884 194.783C82.0536 194.714 52.7404 182.925 51.9285 181.808C51.6148 181.382 52.925 177.411 55.6191 172.492L74.0725 179.779C74.0725 179.779 83.0639 188.998 83.8251 190.313C84.5863 191.627 84.3187 194.847 83.1884 194.783Z" fill="#A6A6A6"/>
<path d="M83.2365 193.482C78.4894 191.458 59.1411 183.736 54.2925 182.096C54.251 182.096 54.2418 182.096 54.2925 182.124C58.9566 184.23 78.3649 191.797 83.2181 193.574C83.3104 193.597 83.338 193.523 83.2365 193.482Z" fill="#263238"/>
<path d="M82.4033 188.568C81.8769 188.338 81.3082 188.22 80.7332 188.22C80.1583 188.22 79.5896 188.338 79.0632 188.568C78.1167 188.979 77.3665 189.737 76.9688 190.684C76.9688 190.711 77.0103 190.734 77.0241 190.707C77.568 189.828 78.3839 189.149 79.3495 188.77C80.3151 188.391 81.3785 188.333 82.3802 188.604C82.3879 188.602 82.3946 188.597 82.3989 188.59C82.4031 188.584 82.4047 188.576 82.4033 188.568Z" fill="#263238"/>
<path d="M75.7491 180.992C73.8438 180.2 71.3434 179.989 69.5211 181.075C69.4519 181.116 69.5211 181.212 69.5811 181.208C71.6125 181.003 73.66 181.014 75.6891 181.24C75.7203 181.243 75.7517 181.235 75.7774 181.217C75.8031 181.199 75.8213 181.173 75.8287 181.142C75.836 181.112 75.832 181.08 75.8173 181.052C75.8027 181.025 75.7784 181.003 75.7491 180.992Z" fill="#263238"/>
<path d="M76.9991 182.156C75.0938 181.363 72.5934 181.153 70.7711 182.238C70.7019 182.279 70.7711 182.376 70.8311 182.371C72.8623 182.164 74.9102 182.175 76.9391 182.403C76.9703 182.406 77.0017 182.398 77.0274 182.38C77.0531 182.363 77.0713 182.336 77.0787 182.306C77.086 182.275 77.082 182.243 77.0673 182.216C77.0527 182.188 77.0284 182.167 76.9991 182.156Z" fill="#263238"/>
<path d="M78.2512 183.319C76.3413 182.527 73.8409 182.316 72.0232 183.401C71.9494 183.443 72.0232 183.539 72.0786 183.534C74.1099 183.327 76.1577 183.338 78.1867 183.566C78.2185 183.572 78.2512 183.565 78.2783 183.547C78.3054 183.53 78.3249 183.503 78.3331 183.472C78.3412 183.441 78.3373 183.408 78.3221 183.38C78.307 183.351 78.2817 183.33 78.2512 183.319Z" fill="#263238"/>
<path d="M79.5012 184.482C77.5913 183.69 75.0955 183.479 73.2732 184.56C73.1994 184.606 73.2732 184.702 73.3286 184.698C75.3599 184.491 77.4077 184.502 79.4367 184.73C79.4685 184.735 79.5012 184.728 79.5283 184.711C79.5554 184.693 79.5749 184.666 79.583 184.635C79.5912 184.604 79.5873 184.571 79.5721 184.543C79.557 184.515 79.5317 184.493 79.5012 184.482Z" fill="#263238"/>
<path d="M57.3355 178.057C55.1811 177.205 53.8432 180.534 56.0069 181.386C58.1706 182.238 59.513 178.909 57.3355 178.057Z" fill="#263238"/>
<path d="M79.8743 176.733C79.2238 175.547 77.6876 175.84 76.7511 176.431C75.1735 177.48 73.9009 178.922 73.0604 180.612C73.0567 180.62 73.0548 180.628 73.0547 180.636C73.0546 180.644 73.0564 180.653 73.06 180.66C73.0635 180.668 73.0687 180.674 73.0752 180.679C73.0817 180.685 73.0892 180.688 73.0973 180.69C73.0973 180.841 73.1988 181.02 73.3787 180.983C75.1272 180.585 77.0417 180.379 78.6103 179.463C79.5099 178.931 80.4879 177.855 79.8743 176.733ZM75.8838 179.843C75.0303 180.058 74.1722 180.232 73.328 180.479C74.0263 179.644 74.7669 178.845 75.547 178.084C75.931 177.721 76.3395 177.385 76.7696 177.077C77.4385 176.619 79.9666 175.771 79.3207 177.919C78.9655 179.106 76.9033 179.586 75.8838 179.843Z" fill="#263238"/>
<path d="M67.9901 179.421C69.5587 180.337 71.4732 180.553 73.2171 180.956C73.397 180.997 73.5169 180.818 73.5031 180.663C73.5117 180.662 73.52 180.659 73.5271 180.654C73.5342 180.649 73.5399 180.642 73.5436 180.634C73.5473 180.626 73.5489 180.618 73.5483 180.609C73.5476 180.6 73.5448 180.592 73.54 180.585C72.7008 178.891 71.4281 177.446 69.8493 176.394C68.9266 175.799 67.3812 175.501 66.7261 176.683C66.071 177.864 67.0721 178.886 67.9901 179.421ZM67.2705 177.873C66.6292 175.725 69.1527 176.577 69.8216 177.04C70.2512 177.348 70.6582 177.687 71.0396 178.052C71.8181 178.814 72.5572 179.615 73.254 180.452C72.4097 180.205 71.5516 180.026 70.6982 179.811C69.6648 179.536 67.6211 179.078 67.2705 177.873Z" fill="#263238"/>
<path d="M76.9865 175.716L55.5391 167.12C55.5391 167.12 82.1303 128.304 82.3241 125.414C82.4994 122.858 70.8184 100.591 70.3617 94.1007C69.8635 87.0933 73.2589 81.6751 76.9957 78.3088L99.1166 87.6475C99.1166 87.6475 96.7823 91.3527 93.1193 93.4183C93.1193 93.4183 104.463 119.158 103.818 127.072C103.172 134.986 76.9865 175.716 76.9865 175.716Z" fill="#37474F"/>
<path d="M77.9384 171.668C74.8382 170.344 75.747 170.678 72.6284 169.378C71.106 168.746 61.0951 164.61 59.5542 164.266C59.522 164.266 59.4989 164.312 59.5312 164.33C60.8644 165.141 70.9584 169.103 72.4946 169.707C75.6363 170.935 74.746 170.55 77.9015 171.741C77.9062 171.747 77.9124 171.752 77.9196 171.755C77.9268 171.758 77.9347 171.76 77.9425 171.759C77.9504 171.758 77.9579 171.756 77.9644 171.751C77.9709 171.747 77.9761 171.741 77.9796 171.734C77.9832 171.727 77.9848 171.719 77.9845 171.711C77.9841 171.704 77.9818 171.696 77.9776 171.689C77.9735 171.683 77.9677 171.677 77.9608 171.673C77.954 171.67 77.9462 171.668 77.9384 171.668Z" fill="#263238"/>
<path d="M96.7519 92.9465C94.4489 93.4795 92.1956 94.2057 90.0164 95.1174C90.0077 95.1204 89.9996 95.1251 89.9926 95.1312C89.9856 95.1374 89.98 95.1448 89.9759 95.1531C89.9718 95.1614 89.9694 95.1704 89.9689 95.1796C89.9683 95.1888 89.9696 95.198 89.9726 95.2067C89.9756 95.2154 89.9804 95.2235 89.9865 95.2304C89.9927 95.2373 90.0002 95.2429 90.0085 95.247C90.0169 95.251 90.026 95.2534 90.0352 95.2539C90.0445 95.2545 90.0538 95.2532 90.0626 95.2502C92.3231 94.5953 94.6206 93.9816 96.8442 93.2076C97.0149 93.148 96.9272 92.9099 96.7519 92.9465Z" fill="#263238"/>
<path d="M94.1159 92.058C93.9009 92.4376 93.7114 92.8308 93.5485 93.2351C93.3892 93.5419 93.2906 93.8761 93.2578 94.2198C93.2578 94.2885 93.3501 94.3022 93.3916 94.261C93.6231 93.9861 93.8098 93.6771 93.9452 93.345C94.1343 92.9832 94.3281 92.6259 94.508 92.255C94.6326 91.9847 94.2589 91.8107 94.1159 92.058Z" fill="#263238"/>
<path d="M94.3909 89.9787C94.5293 89.6397 94.6631 89.3054 94.8061 88.9665C94.9491 88.6276 95.129 88.2795 95.2674 87.9222C95.2674 87.8673 95.3782 87.9222 95.3551 87.9635C95.2167 88.3024 95.129 88.6596 95.0229 89.0077C94.9168 89.3558 94.7969 89.7039 94.6815 90.0519C94.4647 90.6977 94.2202 91.3389 93.9203 91.9664C94.2834 91.9844 94.6458 91.9218 94.9814 91.7832C95.3242 91.5654 95.5877 91.2444 95.7334 90.8672C95.9271 90.4916 96.1071 90.1069 96.3054 89.7313C96.5496 89.3253 96.755 88.8975 96.919 88.4535C96.919 88.3986 97.0297 88.4535 97.0067 88.4947C96.7059 89.4335 96.3118 90.3402 95.8303 91.2015C95.6227 91.5359 95.4612 91.8885 95.0829 92.0168C94.6734 92.1304 94.2449 92.1601 93.8235 92.1038C93.7681 92.1038 93.7035 92.1038 93.722 92.0213C93.9109 91.3299 94.1341 90.6482 94.3909 89.9787Z" fill="#263238"/>
<path d="M93.4498 94.2564C94.2387 95.9098 94.9307 97.5586 95.6642 99.2074C96.3977 100.856 97.0482 102.45 97.7079 104.09C99.0273 107.396 100.208 110.767 101.246 114.166C101.758 115.851 102.234 117.55 102.658 119.263C103.126 120.971 103.468 122.71 103.682 124.466C103.867 126.22 103.711 127.992 103.221 129.687C102.712 131.363 102.059 132.991 101.269 134.556C100.785 135.545 100.624 135.412 100.854 134.913C101.514 133.493 103.244 129.193 103.119 125.579C103.018 123.849 102.75 122.133 102.317 120.454C101.914 118.723 101.46 117.005 100.956 115.301C99.9731 111.94 98.8059 108.647 97.6064 105.358C96.9329 103.526 96.2224 101.694 95.5304 99.8623C94.8384 98.0303 94.1464 96.3449 93.3714 94.3205C93.3483 94.2381 93.4267 94.206 93.4498 94.2564Z" fill="#263238"/>
<path d="M77.1687 88.7924C77.5517 88.6505 78.0914 88.8841 78.4789 88.9482C78.9808 89.0327 79.4879 89.0832 79.9967 89.0993C80.5001 89.1169 81.0042 89.1001 81.5053 89.0489C82.0099 89.036 82.5045 88.9058 82.9493 88.6688C83.679 88.141 84.3046 87.4843 84.7946 86.7314C85.3785 85.9622 85.8607 85.1218 86.2293 84.2308C86.2293 84.1758 86.3262 84.2308 86.3078 84.2674C86.1463 84.7758 86.0263 85.2887 85.8464 85.788C85.6475 86.257 85.4099 86.7089 85.136 87.1391C84.6918 88.0046 84.0349 88.745 83.2261 89.2917C82.3357 89.7955 81.1916 89.7497 80.1997 89.7084C79.6244 89.6751 79.0524 89.6001 78.4882 89.484C78.0822 89.397 77.3994 89.3329 77.1411 88.9802C77.1289 88.9667 77.1199 88.9508 77.1147 88.9334C77.1094 88.9161 77.108 88.8978 77.1107 88.8799C77.1133 88.862 77.1199 88.8449 77.1299 88.8298C77.14 88.8147 77.1532 88.8019 77.1687 88.7924Z" fill="#263238"/>
<path d="M61.6626 163.048C65.1872 157.747 68.6472 152.404 72.0426 147.018C75.438 141.632 78.7873 136.205 82.0905 130.736C82.8793 129.431 83.7882 128.13 84.2956 126.683C84.8492 125.112 84.5355 123.587 84.0373 122.048C83.0965 119.24 81.9967 116.488 80.7434 113.804C79.507 111.097 78.1737 108.436 76.8635 105.766C75.5534 103.096 74.1832 100.458 73.1729 97.673C72.2502 95.0121 71.8765 92.2549 72.5962 89.4977C73.3159 86.7406 74.866 84.304 76.4852 82.0094C76.9097 81.4049 77.3479 80.8049 77.777 80.1774C77.8093 80.1316 77.8785 80.1774 77.8462 80.2324C76.0608 82.6232 74.3216 85.1559 73.2744 87.9634C72.7391 89.3473 72.4398 90.81 72.3886 92.2915C72.3799 93.7954 72.6151 95.2908 73.0852 96.7204C73.9525 99.505 75.3227 102.139 76.6006 104.758C77.8785 107.378 79.244 110.089 80.5035 112.787C81.8028 115.502 82.9577 118.283 83.9635 121.118C84.3925 122.378 84.8861 123.697 84.8492 125.048C84.8169 126.527 84.1065 127.86 83.3683 129.106C80.139 134.533 76.8313 139.896 73.4635 145.227C70.0958 150.558 66.6312 155.889 63.125 161.166L61.7964 163.158C61.7272 163.24 61.6073 163.144 61.6626 163.048Z" fill="#263238"/>
<path d="M100.346 62.9612C102.343 67.3122 112.433 73.3074 117.157 73.9532C120.552 74.4112 130.877 74.5761 134.415 74.0402C138.567 73.4082 135.393 62.3017 132.944 62.5902C126.208 63.3688 120.488 64.239 118.688 64.239C116.493 64.239 104.613 60.456 103.183 59.9201C99.6769 58.624 99.2156 60.4926 100.346 62.9612Z" fill="#EB9481"/>
<path d="M100.409 64.12C102.937 67.8344 111.338 73.9074 111.338 73.9074L112.505 71.3426L116.367 62.8605C116.367 62.8605 108.648 60.456 103.569 59.3568C102.971 59.2217 102.363 59.1359 101.752 59.1003C98.5083 58.9263 98.2269 60.914 100.409 64.12Z" fill="#D099B3"/>
<path d="M100.409 64.12C102.937 67.8343 111.338 73.9074 111.338 73.9074L112.505 71.3426C109.373 67.729 104.533 62.2559 101.752 59.1094C98.5083 58.9262 98.2269 60.914 100.409 64.12Z" fill="#263238"/>
<path d="M109.826 72.1854C110.468 70.6236 113.319 64.3353 114.029 63.0254C114.075 62.9338 114.149 62.943 114.108 63.0254C112.871 66.1526 111.463 69.2104 109.891 72.1854C109.873 72.2404 109.799 72.222 109.826 72.1854Z" fill="#263238"/>
<path d="M131.711 62.7048C135.808 62.1735 140.878 61.2621 145.173 63.0712C145.655 63.259 146.06 63.6026 146.321 64.0467C148.259 64.8253 148.471 65.9657 148.471 65.9657C150.054 67.239 150.109 68.4389 150.109 68.4389C150.109 68.4389 152.379 69.3549 152.033 70.8297C151.654 72.4601 148.545 70.8297 146.284 70.9625C141.094 71.2831 133.828 73.1746 132.329 73.4128L131.711 62.7048Z" fill="#EB9481"/>
<path d="M140.61 67.5046C142.128 67.4016 143.65 67.4016 145.168 67.5046C146.821 67.7104 148.455 68.0396 150.058 68.4893C150.069 68.4929 150.08 68.4923 150.09 68.4876C150.1 68.4829 150.108 68.4744 150.111 68.4641C150.115 68.4538 150.114 68.4424 150.11 68.4326C150.105 68.4227 150.096 68.4151 150.086 68.4114C147.075 67.2386 143.797 66.909 140.61 67.4588C140.536 67.4496 140.536 67.5092 140.61 67.5046Z" fill="#263238"/>
<path d="M139.647 62.746C142.179 62.8742 143.762 63.2773 146.308 64.0375V64.01C143.503 62.8467 142.355 62.7368 139.633 62.636C139.545 62.6727 139.55 62.746 139.647 62.746Z" fill="#263238"/>
<path d="M140.055 71.7411C139.396 72.0479 139.557 72.3915 140.817 72.68C142.076 72.9685 147.312 73.0555 147.128 74.8692C146.943 76.6829 139.557 76.4539 137.495 75.8127C135.433 75.1715 132.328 73.4128 132.328 73.4128C133.791 73.17 137.223 72.2495 140.055 71.7411Z" fill="#EB9481"/>
<path d="M105.832 69.8954C105.8 70.6785 105.726 71.4755 105.615 72.2678C105.615 72.2357 105.615 72.2083 105.647 72.1808C105.8 71.7686 105.952 71.3472 106.136 70.9488C106.136 70.9488 106.182 70.9488 106.178 70.9488C106.089 71.3854 105.956 71.812 105.781 72.222C105.698 72.4189 105.62 72.6113 105.532 72.8037C105.477 73.1563 105.412 73.5044 105.343 73.8525C105.204 74.5074 104.582 77.2921 104.42 77.7638C104.392 77.86 104.273 77.8371 104.282 77.7272C104.314 77.2142 104.835 74.3151 104.941 73.6555C105.148 72.3821 105.423 71.1208 105.767 69.877C105.79 69.8541 105.836 69.8725 105.832 69.8954Z" fill="#263238"/>
<path d="M101.033 90.7206C99.8013 91.3481 98.2143 92.3236 91.0637 90.9267C90.6023 90.8351 90.1687 90.7252 89.7166 90.5924C83.0134 88.5955 74.9539 80.7683 74.5156 80.2141C74.5156 80.2141 85.1678 63.0712 98.791 57.6805C100.475 57.0164 103.261 58.2988 104.788 59.8972C105.337 60.4697 106.532 64.6787 106.075 68.0863C105.619 71.4938 102.26 90.0932 101.033 90.7206Z" fill="#D099B3"/>
<path d="M100.074 67.9305C100.125 68.655 100.023 69.382 99.7738 70.0648C99.7153 69.3402 99.8177 68.6116 100.074 67.9305Z" fill="white"/>
<path d="M95.4264 79.605C95.4558 79.9655 95.4434 80.3282 95.3895 80.6859C95.3451 81.0463 95.2568 81.4 95.1265 81.7393C95.0948 81.3773 95.1072 81.0128 95.1634 80.6538C95.2106 80.2954 95.2988 79.9435 95.4264 79.605Z" fill="white"/>
<path d="M87.5344 70.7793C87.5863 71.5052 87.4842 72.2339 87.2345 72.9182C87.1765 72.192 87.2789 71.4621 87.5344 70.7793Z" fill="white"/>
<path d="M103.114 79.0096C103.143 79.3716 103.131 79.7358 103.077 80.095C103.033 80.4554 102.944 80.8092 102.814 81.1484C102.782 80.7865 102.795 80.422 102.851 80.063C102.898 79.703 102.986 79.3495 103.114 79.0096Z" fill="white"/>
<path d="M92.9766 69.2679C93.3395 69.2372 93.7048 69.248 94.0653 69.2999C94.4285 69.3456 94.7848 69.4348 95.1264 69.5656C94.3967 69.6176 93.6641 69.5162 92.9766 69.2679Z" fill="white"/>
<path d="M84.0234 77.6997C84.7531 77.6486 85.4855 77.75 86.1733 77.9974C85.4433 78.0555 84.7095 77.9538 84.0234 77.6997Z" fill="white"/>
<path d="M94.5781 86.8276C95.3078 86.7756 96.0404 86.877 96.7279 87.1253C95.9981 87.1825 95.2644 87.0809 94.5781 86.8276Z" fill="white"/>
<path d="M81.2578 83.5117C81.9875 83.4606 82.7199 83.562 83.4076 83.8094C82.6777 83.8666 81.9441 83.765 81.2578 83.5117Z" fill="white"/>
<path d="M100.008 59.7232C100.738 59.6721 101.47 59.7735 102.158 60.0209C101.428 60.072 100.696 59.9705 100.008 59.7232Z" fill="white"/>
<path d="M97.3958 62.6452C97.1626 62.9235 96.8962 63.1727 96.6024 63.3872C96.3165 63.6066 96.0071 63.794 95.6797 63.9459C95.9114 63.6694 96.1746 63.4204 96.464 63.204C96.7525 62.9837 97.0651 62.7962 97.3958 62.6452Z" fill="white"/>
<path d="M83.1973 70.9488C82.9612 71.2247 82.6934 71.4722 82.3992 71.6862C82.1163 71.9098 81.8063 72.0975 81.4766 72.2449C81.7139 71.9702 81.9816 71.7228 82.2747 71.5076C82.5583 71.2849 82.8681 71.0973 83.1973 70.9488Z" fill="white"/>
<path d="M100.932 74.6952C100.696 74.9725 100.428 75.2216 100.134 75.4372C99.85 75.6598 99.5401 75.8474 99.2109 75.9959C99.4469 75.7186 99.7148 75.4695 100.009 75.254C100.294 75.0335 100.604 74.8461 100.932 74.6952Z" fill="white"/>
<path d="M89.4473 81.8766C89.2113 82.154 88.9435 82.403 88.6492 82.6186C88.3651 82.8406 88.0554 83.0282 87.7266 83.1774C87.9626 82.9 88.2304 82.651 88.5247 82.4354C88.8099 82.215 89.1194 82.0275 89.4473 81.8766Z" fill="white"/>
<path d="M105.338 64.8848C105.102 65.1622 104.834 65.4112 104.54 65.6268C104.254 65.8462 103.945 66.0336 103.617 66.1855C103.853 65.9082 104.121 65.6592 104.415 65.4436C104.699 65.2216 105.009 65.034 105.338 64.8848Z" fill="white"/>
<path d="M105.091 73.2067C104.812 72.9724 104.561 72.7065 104.344 72.4144C104.12 72.1329 103.931 71.8253 103.781 71.4984C104.062 71.7299 104.313 71.9944 104.529 72.2861C104.749 72.572 104.938 72.8806 105.091 73.2067Z" fill="white"/>
<path d="M79.4899 78.9409C79.2105 78.7066 78.9597 78.4407 78.7425 78.1485C78.5205 77.8654 78.3317 77.5581 78.1797 77.2325C78.4591 77.4668 78.7099 77.7328 78.927 78.0249C79.1507 78.3069 79.3396 78.6144 79.4899 78.9409Z" fill="white"/>
<path d="M101.982 85.7605C101.702 85.5289 101.451 85.2644 101.235 84.9727C101.014 84.6889 100.825 84.3817 100.672 84.0567C100.951 84.291 101.202 84.5569 101.419 84.849C101.642 85.1301 101.831 85.436 101.982 85.7605Z" fill="white"/>
<path d="M90.7086 66.3184C90.4293 66.0857 90.1785 65.8213 89.9613 65.5306C89.7411 65.2462 89.5524 64.9391 89.3984 64.6146C89.6788 64.8462 89.9298 65.1107 90.1458 65.4024C90.3659 65.6868 90.5546 65.9939 90.7086 66.3184Z" fill="white"/>
<path d="M90.9117 89.6443C90.6324 89.41 90.3815 89.1441 90.1644 88.852C89.9431 88.5684 89.7543 88.2611 89.6016 87.936C89.8819 88.1675 90.1329 88.432 90.3489 88.7237C90.5709 89.0085 90.7597 89.3174 90.9117 89.6443Z" fill="white"/>
<path d="M92.8212 75.886C92.5445 75.6504 92.2953 75.3846 92.0785 75.0937C91.8532 74.8128 91.6642 74.505 91.5156 74.1777C91.7936 74.4121 92.0428 74.678 92.2584 74.97C92.4826 75.2516 92.6716 75.5592 92.8212 75.886Z" fill="white"/>
<path d="M102.291 64.4635C100.552 64.1429 98.9185 60.575 98.7109 58.1751C98.7109 58.0102 99.5229 56.7049 100.45 55.0699C101.013 54.076 101.608 52.9539 102.083 51.8914C102.18 51.6761 102.748 52.4043 102.748 52.4043L103.984 53.3203L108.067 56.4301C107.095 57.5884 106.269 58.8604 105.608 60.2178C105.543 60.3649 105.493 60.5184 105.46 60.6758C105.458 60.7017 105.458 60.7277 105.46 60.7537C105.207 61.6605 103.966 64.7703 102.291 64.4635Z" fill="#EB9481"/>
<path d="M105.467 60.6987C105.465 60.7246 105.465 60.7506 105.467 60.7766C105.224 60.706 104.988 60.6156 104.761 60.5063C100.291 58.427 102.26 52.4822 102.26 52.4822L104.013 53.3432L108.096 56.453C107.124 57.6113 106.298 58.8833 105.637 60.2407C105.564 60.3869 105.507 60.5404 105.467 60.6987Z" fill="#263238"/>
<path d="M112.758 43.7756C112.758 43.7756 114.802 45.0626 114.811 47.3526C114.82 49.6426 113.888 51.8822 113.694 51.9647C113.501 52.0471 112.758 43.7756 112.758 43.7756Z" fill="#263238"/>
<path d="M102.622 44.9664C101.395 47.3709 101.459 54.9508 102.991 56.9019C105.215 59.7323 109.496 60.7079 112.084 57.9095C114.589 55.1981 114.331 45.3236 112.545 43.4825C109.948 40.762 104.44 41.4077 102.622 44.9664Z" fill="#EB9481"/>
<path d="M109.132 51.0349C109.132 51.0349 109.091 51.0624 109.095 51.0807C109.123 51.5983 109.068 52.1937 108.602 52.3769C108.602 52.3769 108.602 52.4089 108.602 52.4043C109.178 52.3127 109.243 51.5204 109.132 51.0349Z" fill="#263238"/>
<path d="M108.66 50.5083C107.82 50.4625 107.792 52.1296 108.572 52.1708C109.352 52.212 109.361 50.5449 108.66 50.5083Z" fill="#263238"/>
<path d="M111.979 51.0166C111.979 51.0166 112.02 51.0166 112.02 51.0624C111.993 51.5799 112.053 52.1753 112.523 52.354C112.523 52.354 112.523 52.386 112.523 52.3814C111.942 52.2944 111.873 51.5021 111.979 51.0166Z" fill="#263238"/>
<path d="M112.457 50.4853C113.292 50.4349 113.334 52.102 112.559 52.1478C111.783 52.1936 111.756 50.5265 112.457 50.4853Z" fill="#263238"/>
<path d="M108.134 49.2396C108.354 49.1773 108.572 49.1039 108.784 49.0197C109.027 48.9762 109.248 48.8537 109.412 48.6716C109.452 48.605 109.468 48.5271 109.459 48.4501C109.45 48.3731 109.416 48.3013 109.361 48.2457C109.236 48.1515 109.088 48.092 108.933 48.0735C108.777 48.055 108.619 48.0781 108.475 48.1404C108.164 48.2231 107.895 48.4172 107.719 48.6854C107.684 48.7492 107.668 48.8216 107.673 48.8941C107.678 48.9667 107.704 49.0362 107.748 49.0945C107.791 49.1528 107.851 49.1975 107.919 49.2232C107.988 49.2489 108.062 49.2546 108.134 49.2396Z" fill="#263238"/>
<path d="M113.031 49.977C112.807 49.9271 112.585 49.866 112.367 49.7938C112.124 49.7618 111.898 49.6507 111.726 49.4777C111.681 49.414 111.66 49.3373 111.665 49.26C111.67 49.1827 111.701 49.1093 111.753 49.0518C111.872 48.9508 112.017 48.8835 112.171 48.8569C112.325 48.8303 112.484 48.8454 112.63 48.9007C112.945 48.9656 113.225 49.1453 113.414 49.4045C113.454 49.4658 113.474 49.5372 113.474 49.61C113.473 49.6829 113.451 49.7539 113.411 49.8146C113.37 49.8753 113.313 49.9229 113.245 49.9517C113.178 49.9806 113.104 49.9893 113.031 49.977Z" fill="#263238"/>
<path d="M107.951 55.931C108.076 56.0546 108.196 56.2195 108.385 56.2378C108.579 56.2377 108.771 56.1972 108.948 56.1187C108.948 56.1187 108.98 56.1187 108.948 56.1462C108.872 56.2469 108.77 56.3252 108.653 56.3728C108.536 56.4204 108.408 56.4355 108.283 56.4165C108.178 56.3879 108.083 56.3293 108.011 56.2479C107.939 56.1665 107.893 56.0659 107.878 55.9585C107.874 55.9487 107.874 55.938 107.879 55.9285C107.883 55.9191 107.891 55.9117 107.901 55.9081C107.91 55.9044 107.921 55.9048 107.931 55.9091C107.94 55.9134 107.948 55.9213 107.951 55.931Z" fill="#263238"/>
<path d="M110.975 53.7234C110.975 53.7234 110.998 54.4928 110.975 54.8546C110.266 54.7799 109.55 54.8046 108.848 54.9279C108.682 54.9645 108.7 54.8317 108.889 54.7447C109.455 54.4881 110.084 54.4052 110.698 54.5065C110.735 54.4104 110.638 53.3157 110.698 53.3203C110.977 53.3747 111.247 53.4672 111.5 53.5951C111.5 51.983 111.242 50.3891 111.265 48.777C111.265 48.722 111.353 48.7128 111.362 48.777C111.69 50.4824 111.844 52.2162 111.823 53.9524C111.828 54.1493 111.113 53.7966 110.975 53.7234Z" fill="#263238"/>
<path d="M109.937 54.5799C109.753 55.0601 109.412 55.465 108.968 55.7294C108.272 56.0088 108.046 55.3814 108.747 54.8134C109.115 54.6289 109.526 54.5481 109.937 54.5799Z" fill="#263238"/>
<path d="M109.212 55.5874C109.138 55.647 109.056 55.6948 108.967 55.7294C108.326 55.9859 108.072 55.4775 108.589 54.9645C108.94 54.992 109.341 55.1203 109.212 55.5874Z" fill="#FF99BA"/>
<path d="M102.267 51.4471C103.111 51.7036 104.08 49.1846 104.357 48.2411C104.597 47.3892 104.874 44.6825 104.915 44.4947C104.957 44.3069 108.606 46.89 110.719 46.2763C112.832 45.6626 114.266 43.7619 114.299 42.8779C114.331 41.994 111.687 39.7498 109.404 39.6353C107.12 39.5208 104.025 42.3833 104.025 42.3833C104.399 41.962 104.738 41.5118 105.04 41.0368C105.003 40.936 103.527 41.5223 103.254 42.5665C103.254 42.5665 103.55 41.252 103.439 41.2291C103.328 41.2062 102.179 42.3283 102.438 43.1802C102.438 43.1802 101.109 44.3206 100.989 45.571C100.869 46.8213 101.275 51.1448 102.267 51.4471Z" fill="#263238"/>
<path d="M112.233 45.8C111.605 46.1383 110.928 46.3792 110.227 46.5145C109.439 46.5842 108.646 46.4583 107.92 46.1481C107.188 45.8675 106.509 45.4681 105.909 44.9664C105.378 44.5359 104.903 44.0092 104.335 43.6245C104.192 43.5237 104.031 43.7298 104.119 43.8581C105.065 45.1856 106.418 46.175 107.975 46.6794C108.699 46.9135 109.471 46.9573 110.217 46.8064C110.962 46.6554 111.656 46.315 112.229 45.8183C112.229 45.8183 112.243 45.8 112.233 45.8Z" fill="#263238"/>
<path d="M103.156 51.2227C103.156 51.2227 101.846 48.5846 100.665 49.0106C99.4837 49.4365 100.203 53.0868 101.417 53.7555C101.565 53.8509 101.732 53.9156 101.906 53.9456C102.081 53.9757 102.259 53.9704 102.432 53.9302C102.604 53.89 102.766 53.8157 102.909 53.7117C103.052 53.6077 103.172 53.4761 103.262 53.3249L103.156 51.2227Z" fill="#EB9481"/>
<path d="M100.895 50.0502C100.895 50.0502 100.867 50.0502 100.895 50.0869C101.735 50.5815 102.076 51.4609 102.279 52.3769C102.241 52.2799 102.182 52.1923 102.106 52.1202C102.031 52.0481 101.94 51.9932 101.841 51.9592C101.742 51.9252 101.636 51.913 101.532 51.9235C101.428 51.9339 101.327 51.9667 101.237 52.0196C101.209 52.0196 101.237 52.07 101.237 52.07C101.402 52.0445 101.57 52.0705 101.72 52.1443C101.87 52.2181 101.992 52.3362 102.072 52.4822C102.204 52.7268 102.309 52.9847 102.385 53.2517C102.413 53.3387 102.565 53.3158 102.551 53.2196C102.75 52.0792 102.104 50.3525 100.895 50.0502Z" fill="#263238"/>
<path d="M94.4985 63.0024C93.5759 68.1916 99.2411 85.6734 102.872 88.939C108.274 93.7938 118.262 96.986 121.883 98.0257C123.461 98.4837 127.825 87.4596 126.229 86.7314C122.811 85.188 112.191 81.8904 111.18 81.066C110.17 80.2416 104.08 71.5075 101.368 66.4787C97.7371 59.7094 94.9553 60.3781 94.4985 63.0024Z" fill="#EB9481"/>
<path d="M123.546 85.7605C123.546 85.7605 128.261 86.9559 131.301 87.8765C132.999 88.394 135.832 89.5344 136.907 90.4779C138.512 91.8931 144.316 98.8181 142.655 100.252C141.151 101.552 136.925 94.9709 136.925 94.9709C136.925 94.9709 141.778 101.236 139.693 102.468C137.608 103.7 133.793 95.635 133.793 95.635C133.793 95.635 138.632 102.184 136.265 103.114C134.475 103.815 130.637 96.7021 130.637 96.7021C130.637 96.7021 134.761 102.358 132.944 103.16C130.942 104.048 126.988 97.7006 126.988 97.7006C122.043 98.9692 119.145 97.5632 117.24 96.3266C116.793 96.0243 123.546 85.7605 123.546 85.7605Z" fill="#EB9481"/>
<path d="M135.383 92.6946C135.983 93.4091 136.592 94.1327 137.122 94.8976C137.653 95.6624 138.156 96.4502 138.612 97.2609C139.231 98.3094 139.726 99.4251 140.089 100.586C139.295 98.5707 137.436 95.7998 136.905 95.035C136.375 94.2701 135.881 93.4778 135.355 92.7129C135.341 92.6946 135.369 92.6763 135.383 92.6946Z" fill="#263238"/>
<path d="M132.559 94.5495C133.583 95.3556 135.728 98.3509 136.554 100.362C136.591 100.444 136.554 100.439 136.494 100.362C135.848 99.3677 133.228 95.5205 132.536 94.5633C132.522 94.5495 132.545 94.5358 132.559 94.5495Z" fill="#263238"/>
<path d="M129.852 95.722C131.125 97.0471 132.13 98.6017 132.814 100.302C132.846 100.384 132.782 100.371 132.731 100.302C131.776 98.7585 131.038 97.554 129.801 95.7632C129.783 95.722 129.825 95.6807 129.852 95.722Z" fill="#263238"/>
<path d="M99.6506 63.3826C95.4386 57.4698 92.9197 59.6591 93.764 66.0802C94.5575 72.0846 96.675 79.2386 96.675 79.2386L107.286 74.1273C107.286 74.1273 102.331 67.1703 99.6506 63.3826Z" fill="#D099B3"/>
<path d="M102.21 65.7092C102.349 66.0432 102.45 66.3921 102.509 66.7489C102.574 67.1069 102.597 67.4711 102.579 67.8343C102.44 67.4986 102.341 67.1483 102.283 66.7901C102.215 66.4341 102.19 66.0712 102.21 65.7092Z" fill="white"/>
<path d="M95.9219 69.3045C96.599 69.0311 97.3276 68.9061 98.0579 68.9381C97.7213 69.0755 97.3699 69.1738 97.0106 69.2313C96.652 69.2992 96.2864 69.3238 95.9219 69.3045Z" fill="white"/>
<path d="M96.1955 60.1079C95.9098 60.7773 95.4836 61.3784 94.9453 61.8712C95.231 61.2019 95.6572 60.6007 96.1955 60.1079Z" fill="white"/>
<path d="M105.188 72.0663C105.048 72.4013 104.87 72.7193 104.657 73.0143C104.45 73.3131 104.209 73.5867 103.938 73.8296C104.223 73.1602 104.649 72.5591 105.188 72.0663Z" fill="white"/>
<path d="M97.8074 75.6524C97.4692 75.515 97.1486 75.3382 96.8524 75.1257C96.5513 74.9205 96.2757 74.6807 96.0312 74.4113C96.7055 74.6949 97.311 75.118 97.8074 75.6524Z" fill="white"/>
<path d="M101.032 65.1642C101.6 65.9383 102.186 66.694 102.767 67.4542C102.619 67.0695 102.49 66.6802 102.379 66.2863H102.407C102.522 66.5886 102.656 66.8863 102.767 67.2023L102.933 67.6603C102.947 67.6916 102.96 67.7237 102.97 67.7565C103.431 68.3473 103.893 68.9382 104.317 69.5427C104.838 70.2664 105.341 70.9992 105.849 71.732C106.356 72.4648 106.868 73.3762 107.417 74.1136C107.468 74.1777 106.494 74.5716 106.388 74.6219C106.282 74.6723 106.227 74.5853 106.328 74.5532C106.43 74.5212 107.205 74.0494 107.214 74.0403C106.707 73.2983 106.121 72.6159 105.59 71.8968C105.06 71.1778 104.534 70.4587 104.022 69.7305C102.984 68.2466 102.033 66.7077 101 65.2192L101.032 65.1642Z" fill="#263238"/>
<path d="M94.0159 70.3305C94.1774 70.6419 94.3527 70.9488 94.4773 71.2694L94.6526 71.6678C94.4081 70.5274 94.1912 69.3778 93.9375 68.2374C94.4265 70.0694 94.9201 71.9426 95.3722 73.8021C95.8013 75.5792 96.3226 77.3745 96.5717 79.1882C96.8934 79.0481 97.2268 78.9362 97.5682 78.8539C97.2256 79.074 96.8568 79.2509 96.4702 79.3806C95.9141 77.5363 95.4522 75.6652 95.0862 73.7746C94.9709 73.2617 94.8648 72.7487 94.7541 72.2358C94.6341 71.9243 94.4911 71.6266 94.3481 71.3198C94.2051 71.0129 94.0759 70.6694 93.9467 70.3442C93.9744 70.3259 94.0067 70.3076 94.0159 70.3305Z" fill="#263238"/>
<path d="M96.8308 77.4707C98.3071 76.6463 104.475 73.4769 105.855 72.8907C105.951 72.8495 106.002 72.8907 105.905 72.9548C102.977 74.6438 99.9589 76.1727 96.8631 77.5348C96.8262 77.544 96.7893 77.4936 96.8308 77.4707Z" fill="#263238"/>
<path d="M265.872 197.879H125.312L145.634 83.4476H286.193L265.872 197.879Z" fill="#FFC94F"/>
<path d="M193.748 71.5945H147.749L145.641 83.4476H194.87L193.748 71.5945Z" fill="#FFC94F"/>
<g opacity="0.1">
<path d="M265.872 197.879H125.312L145.634 83.4476H286.193L265.872 197.879Z" fill="black"/>
<path d="M193.741 71.5945H147.741L145.633 83.4476H194.862L193.741 71.5945Z" fill="black"/>
</g>
<path d="M142.785 76.431C142.478 75.1204 142.478 73.7571 142.785 72.4464C143.093 73.7571 143.093 75.1204 142.785 76.431Z" fill="#263238"/>
<path d="M138.691 77.6035C138.221 77.12 137.817 76.5781 137.487 75.9914C137.141 75.4169 136.87 74.8013 136.68 74.1594C137.151 74.6401 137.556 75.1806 137.884 75.7669C138.229 76.3434 138.5 76.9604 138.691 77.6035Z" fill="#263238"/>
<path d="M135.739 80.6492C134.443 80.2579 133.255 79.5763 132.266 78.6569C132.912 78.8435 133.532 79.1113 134.111 79.4538C134.702 79.7832 135.249 80.1848 135.739 80.6492Z" fill="#263238"/>
<path d="M134.709 84.7529C133.389 85.0583 132.015 85.0583 130.695 84.7529C132.015 84.4475 133.389 84.4475 134.709 84.7529Z" fill="#263238"/>
<path d="M135.907 88.8107C135.418 89.2746 134.872 89.6762 134.283 90.0061C133.704 90.3486 133.084 90.6164 132.438 90.803C132.925 90.3367 133.47 89.9349 134.061 89.6076C134.639 89.2635 135.259 88.9956 135.907 88.8107Z" fill="#263238"/>
<path d="M138.968 91.7374C138.575 93.0263 137.888 94.208 136.961 95.1907C137.149 94.5478 137.42 93.932 137.768 93.3587C138.097 92.7699 138.5 92.2251 138.968 91.7374Z" fill="#263238"/>
<path d="M143.107 92.7496C143.268 93.4014 143.345 94.0708 143.338 94.7419C143.348 95.4131 143.27 96.0827 143.107 96.7342C142.942 96.0831 142.864 95.4132 142.876 94.7419C142.869 94.0708 142.946 93.4014 143.107 92.7496Z" fill="#263238"/>
<path d="M147.195 91.6C147.665 92.0835 148.07 92.6254 148.399 93.2121C148.746 93.7856 149.016 94.4014 149.202 95.0441C148.275 94.0614 147.588 92.8797 147.195 91.5908V91.6Z" fill="#263238"/>
<path d="M150.141 88.5314C150.788 88.7163 151.408 88.9842 151.986 89.3283C152.577 89.6555 153.123 90.0573 153.61 90.5237C152.962 90.3388 152.342 90.0709 151.765 89.7268C151.174 89.3995 150.628 88.9977 150.141 88.5314Z" fill="#263238"/>
<path d="M151.156 84.4277C152.478 84.1224 153.853 84.1224 155.174 84.4277C153.853 84.733 152.478 84.733 151.156 84.4277Z" fill="#263238"/>
<path d="M149.978 80.3698C150.466 79.9063 151.012 79.5061 151.602 79.179C152.178 78.8316 152.799 78.562 153.447 78.3775C152.457 79.2982 151.267 79.9799 149.969 80.3698H149.978Z" fill="#263238"/>
<path d="M146.914 77.4432C147.104 76.8018 147.374 76.1864 147.717 75.6112C148.046 75.0245 148.451 74.4826 148.921 73.999C148.735 74.6417 148.465 75.2576 148.118 75.831C147.789 76.4177 147.384 76.9596 146.914 77.4432Z" fill="#263238"/>
<path d="M265.667 197.879H124.808L104.805 87.6016H245.668L265.667 197.879Z" fill="#FFC94F"/>
<path d="M153.62 155.015C156.853 155.015 159.474 152.413 159.474 149.203C159.474 145.993 156.853 143.391 153.62 143.391C150.387 143.391 147.766 145.993 147.766 149.203C147.766 152.413 150.387 155.015 153.62 155.015Z" fill="#263238"/>
<path d="M199.901 155.015C203.134 155.015 205.756 152.413 205.756 149.203C205.756 145.993 203.134 143.391 199.901 143.391C196.668 143.391 194.047 145.993 194.047 149.203C194.047 152.413 196.668 155.015 199.901 155.015Z" fill="#263238"/>
<path d="M185.17 155.944L184.847 155.335C184.819 155.28 181.793 149.729 175.708 149.729C170.172 149.729 168.788 154.955 168.751 155.18L168.585 155.844L167.242 155.523L167.404 154.854C167.404 154.79 169.055 148.355 175.708 148.355C182.628 148.355 185.935 154.438 186.074 154.699L186.397 155.303L185.17 155.944Z" fill="#263238"/>
<path d="M256.37 148.758L256.273 148.3C256.573 148.236 256.869 148.168 257.164 148.09L257.279 148.548C256.965 148.626 256.675 148.694 256.37 148.758Z" fill="#263238"/>
<path d="M259.063 148.021L258.916 147.59C259.492 147.394 260.069 147.178 260.627 146.945L260.807 147.366C260.24 147.604 259.654 147.824 259.063 148.021ZM262.5 146.56L262.293 146.157C262.832 145.878 263.372 145.575 263.884 145.241L264.124 145.63C263.598 145.992 263.049 146.299 262.5 146.56ZM265.674 144.623L265.402 144.252C265.9 143.89 266.38 143.51 266.832 143.12L267.137 143.464C266.652 143.881 266.191 144.27 265.67 144.641L265.674 144.623ZM268.488 142.186L268.152 141.87C268.576 141.412 268.977 140.954 269.347 140.496L269.711 140.775C269.328 141.279 268.917 141.751 268.498 142.204L268.488 142.186ZM270.772 139.255L270.38 139.012C270.699 138.5 270.982 137.968 271.229 137.418L271.653 137.606C271.392 138.179 271.097 138.736 270.767 139.273L270.772 139.255ZM272.299 135.856L271.838 135.728C272.006 135.154 272.131 134.567 272.211 133.974L272.673 134.034C272.596 134.656 272.47 135.272 272.294 135.875L272.299 135.856ZM272.811 132.193H272.35V132.06C272.35 131.506 272.317 130.942 272.262 130.388L272.723 130.342C272.784 130.913 272.815 131.486 272.816 132.06L272.811 132.193ZM271.981 128.606C271.857 128.016 271.703 127.432 271.519 126.857L271.981 126.719C272.17 127.315 272.331 127.919 272.442 128.51L271.981 128.606ZM270.887 125.158C270.666 124.617 270.426 124.063 270.131 123.504L270.546 123.298C270.827 123.866 271.086 124.434 271.312 124.984L270.887 125.158ZM269.273 121.892C268.987 121.393 268.673 120.866 268.35 120.326L268.742 120.083C269.079 120.628 269.397 121.159 269.665 121.668L269.273 121.892ZM267.344 118.782C267.008 118.278 266.666 117.77 266.316 117.262L266.698 117.005C267.049 117.514 267.39 118.022 267.727 118.535L267.344 118.782ZM265.268 115.75C264.922 115.246 264.572 114.738 264.23 114.234L264.613 113.978C264.955 114.482 265.301 114.99 265.647 115.489L265.268 115.75ZM263.206 112.7C262.869 112.187 262.542 111.665 262.219 111.143L262.611 110.905C262.934 111.427 263.262 111.94 263.594 112.453L263.206 112.7ZM261.282 109.554C260.969 108.999 260.678 108.45 260.415 107.923L260.83 107.717C261.089 108.239 261.379 108.78 261.684 109.329L261.282 109.554ZM259.645 106.256C259.4 105.683 259.183 105.102 258.98 104.534L259.442 104.387C259.635 104.941 259.852 105.514 260.092 106.077L259.645 106.256ZM258.445 102.761C258.293 102.166 258.159 101.557 258.058 100.929L258.519 100.856C258.621 101.442 258.745 102.038 258.897 102.624L258.445 102.761ZM257.827 99.0974C257.781 98.5341 257.758 97.9662 257.758 97.3982V97.2471H258.219V97.3937C258.219 97.9478 258.219 98.5066 258.288 99.0562L257.827 99.0974ZM258.288 95.4334L257.827 95.3876C257.827 95.264 257.85 95.1357 257.864 95.0029C257.919 94.5128 257.989 94.0228 258.072 93.5556L258.533 93.6335C258.454 94.0915 258.385 94.5724 258.33 95.0533C258.348 95.1953 258.348 95.3189 258.311 95.4472L258.288 95.4334ZM258.93 91.8702L258.468 91.7465C258.639 91.142 258.837 90.5511 259.059 89.9878L259.488 90.1527C259.278 90.7198 259.1 91.2977 258.953 91.8839L258.93 91.8702ZM281.918 89.2C281.66 89.2 281.392 89.1634 281.129 89.1268C280.769 89.0764 280.409 89.0168 280.054 88.9481L280.146 88.4901C280.488 88.5543 280.843 88.6138 281.194 88.6642C281.443 88.6962 281.696 88.7191 281.941 88.7329L281.918 89.2ZM283.814 89.0581L283.717 88.6001C284.296 88.4814 284.851 88.2678 285.359 87.968L285.599 88.3573C285.056 88.6911 284.46 88.9326 283.837 89.0718L283.814 89.0581ZM260.258 88.513L259.848 88.2978C260.141 87.7516 260.466 87.2225 260.821 86.7131L261.199 86.9742C260.862 87.4729 260.556 87.9914 260.281 88.5268L260.258 88.513ZM278.25 88.4856C277.655 88.298 277.07 88.0794 276.497 87.8306L276.686 87.4093C277.241 87.6539 277.809 87.8665 278.389 88.0459L278.25 88.4856ZM287.016 87.0566L286.633 86.8001C286.961 86.327 287.156 85.775 287.196 85.2017L287.657 85.2338C287.618 85.8908 287.401 86.5252 287.029 87.0703L287.016 87.0566ZM274.836 86.9879C274.296 86.6763 273.774 86.3354 273.272 85.9666L273.545 85.6002C274.033 85.9578 274.541 86.2881 275.067 86.5894L274.836 86.9879ZM262.334 85.5589L261.993 85.2521C262.411 84.7909 262.856 84.355 263.326 83.9468L263.631 84.2903C263.178 84.6923 262.75 85.1205 262.348 85.5727L262.334 85.5589ZM271.833 84.7849C271.374 84.3647 270.938 83.9198 270.528 83.4521L270.874 83.1499C271.273 83.6041 271.696 84.0368 272.142 84.446L271.833 84.7849ZM286.85 83.5437C286.585 83.0203 286.22 82.5535 285.775 82.1697L286.079 81.8262C286.569 82.2472 286.972 82.759 287.265 83.3331L286.85 83.5437ZM265.065 83.1819L264.802 82.8064C265.319 82.4566 265.853 82.134 266.403 81.84L266.62 82.243C266.09 82.5338 265.576 82.8517 265.079 83.1957L265.065 83.1819ZM269.374 81.9911C269.199 81.7438 269.028 81.4919 268.867 81.2308L268.267 81.4644L268.092 81.0431L268.622 80.8324C268.539 80.695 268.456 80.5576 268.378 80.4202L268.779 80.1958C268.871 80.3561 268.964 80.5164 269.06 80.6538C269.319 80.5622 269.582 80.4751 269.849 80.3927L269.983 80.8507C269.757 80.9194 269.522 80.9927 269.31 81.0705C269.453 81.295 269.6 81.5285 269.771 81.7255L269.374 81.9911ZM284.289 81.2034C283.843 80.9825 283.38 80.7957 282.905 80.6446L282.601 80.5484L282.734 80.0904L283.048 80.1912C283.542 80.3476 284.024 80.542 284.487 80.7728L284.289 81.2034ZM271.75 80.3835L271.653 79.9255C272.248 79.7927 272.867 79.6828 273.499 79.5958L273.568 80.0538C272.959 80.15 272.354 80.2645 271.764 80.3973L271.75 80.3835ZM280.838 80.1362C280.262 80.0355 279.653 79.9576 279.03 79.9026L279.067 79.4446C279.708 79.4996 280.331 79.5775 280.912 79.6828L280.838 80.1362ZM275.372 79.8706L275.339 79.4126C275.888 79.3805 276.437 79.3622 276.982 79.3622H277.208V79.8202H276.986C276.465 79.8339 275.921 79.8477 275.385 79.8843L275.372 79.8706ZM267.575 78.776C267.326 78.2172 267.114 77.6355 266.906 77.0447L267.367 76.9027C267.561 77.4798 267.778 78.0477 268.018 78.5928L267.575 78.776ZM266.408 75.2585C266.269 74.6677 266.154 74.054 266.066 73.4265L266.528 73.3624C266.615 73.967 266.726 74.5669 266.86 75.1486L266.408 75.2585ZM265.891 71.5945C265.868 71.1823 265.854 70.761 265.854 70.3396C265.854 70.1427 265.854 69.9411 265.854 69.7442H266.316C266.316 69.9411 266.316 70.1335 266.316 70.3304C266.316 70.7426 266.316 71.1594 266.348 71.5579L265.891 71.5945ZM266.44 67.9305L265.979 67.8847C266.043 67.2802 266.131 66.6619 266.237 66.0527L266.698 66.1306C266.574 66.7397 266.486 67.326 266.426 67.9397L266.44 67.9305ZM267.072 64.3535L266.611 64.2436C266.758 63.6528 266.929 63.0574 267.118 62.462L267.58 62.604C267.372 63.204 267.201 63.7856 267.058 64.3627L267.072 64.3535ZM268.179 60.8865L267.75 60.7216C267.976 60.1491 268.212 59.5766 268.493 59.0224L268.908 59.2239C268.631 59.7735 268.387 60.3323 268.166 60.914L268.179 60.8865ZM269.766 57.6209L269.365 57.3874C269.679 56.8607 270.015 56.334 270.366 55.8302L270.744 56.0912C270.385 56.595 270.057 57.108 269.752 57.6301L269.766 57.6209ZM271.847 54.6394L271.487 54.3508C271.875 53.8928 272.29 53.4073 272.719 52.9768L273.051 53.2928C272.617 53.7234 272.211 54.1814 271.833 54.6485L271.847 54.6394ZM274.357 52.0013L274.048 51.6624C274.509 51.2547 274.97 50.8517 275.464 50.4624L275.75 50.8242C275.256 51.2135 274.786 51.612 274.343 52.0104L274.357 52.0013ZM277.221 49.7388L276.959 49.3586C277.461 49.0151 277.987 48.6762 278.522 48.3556L278.758 48.7449C278.223 49.0701 277.724 49.4044 277.208 49.7479L277.221 49.7388ZM280.354 47.8472L280.137 47.4442C280.681 47.1556 281.244 46.8808 281.807 46.6244L282.001 47.0411C281.415 47.3022 280.875 47.577 280.34 47.8564L280.354 47.8472ZM283.689 46.3267L283.519 45.8961C284.1 45.6717 284.686 45.4381 285.267 45.2687L285.415 45.7267C284.829 45.9007 284.248 46.1114 283.676 46.3358L283.689 46.3267Z" fill="#263238"/>
<path d="M287.248 45.1679L287.133 44.7099C287.705 44.5634 288.055 44.4993 288.055 44.4993L288.139 44.9573C288.139 44.9573 287.806 45.026 287.248 45.1679Z" fill="#263238"/>
<path d="M295.405 42.2092C294.229 38.591 286.349 39.8918 287.885 44.6229C289.422 49.354 296.581 45.832 295.405 42.2092Z" fill="#263238"/>
<path d="M283.595 40.762C283.655 39.1727 285.879 37.9499 289.025 38.5132C292.171 39.0765 295.128 41.1833 295.128 41.1833C295.128 41.1833 292.024 43.052 288.845 43.3955C285.666 43.739 283.535 42.3467 283.595 40.762Z" fill="#EBEBEB"/>
<path d="M295.132 41.1742C293.499 41.1742 291.87 41.1284 290.242 41.078C288.613 41.0276 286.98 40.9452 285.352 40.817C286.985 40.817 288.618 40.8582 290.246 40.9086C291.875 40.9589 293.508 41.0414 295.132 41.1742Z" fill="#263238"/>
<path d="M286.758 39.3467C287.685 39.7871 288.559 40.3294 289.364 40.9635C288.9 40.7473 288.45 40.5026 288.017 40.2307C287.58 39.9606 287.16 39.6655 286.758 39.3467Z" fill="#263238"/>
<path d="M291.035 41.0231C290.2 41.6945 289.295 42.275 288.336 42.7543C289.175 42.082 290.084 41.5016 291.049 41.0231H291.035Z" fill="#263238"/>
<path d="M291.508 40.1299C291.973 40.3519 292.381 40.6779 292.698 41.0826C292.465 40.9735 292.247 40.8366 292.048 40.675C291.847 40.5143 291.666 40.3315 291.508 40.1299Z" fill="#263238"/>
<path d="M286.594 50.1739C287.577 51.4288 290.1 51.1265 292.319 48.8457C294.538 46.5648 295.715 43.1344 295.715 43.1344C295.715 43.1344 292.079 43.4092 289.307 44.9664C286.534 46.5236 285.607 48.9144 286.594 50.1739Z" fill="#EBEBEB"/>
<path d="M295.715 43.1344C294.386 44.0504 293.095 45.0672 291.798 46.0519C290.502 47.0366 289.233 48.0533 287.992 49.1021C289.321 48.1861 290.613 47.174 291.904 46.1893C293.196 45.2046 294.455 44.1878 295.715 43.1344Z" fill="#263238"/>
<path d="M289.984 49.464C290.231 49.0191 290.451 48.5603 290.644 48.09C290.84 47.6183 291.007 47.135 291.142 46.6427C290.895 47.0872 290.675 47.546 290.483 48.0167C290.288 48.4891 290.122 48.9723 289.984 49.464Z" fill="#263238"/>
<path d="M292.487 45.6351C291.408 45.5778 290.325 45.6346 289.258 45.8046C289.796 45.8366 290.335 45.8366 290.872 45.8046C291.413 45.7784 291.953 45.7218 292.487 45.6351Z" fill="#263238"/>
<path d="M293.375 46.0885C293.498 45.8623 293.594 45.6225 293.661 45.374C293.729 45.1274 293.77 44.8739 293.781 44.6183C293.536 45.0717 293.397 45.5743 293.375 46.0885Z" fill="#263238"/>
<path d="M295.405 42.2093C295.145 42.2933 294.865 42.2986 294.601 42.2246C294.338 42.1506 294.102 42.0007 293.924 41.7937C293.747 41.5867 293.635 41.332 293.603 41.0619C293.571 40.7918 293.621 40.5184 293.746 40.2763C293.871 40.0342 294.065 39.8344 294.304 39.7021C294.544 39.5697 294.817 39.5109 295.09 39.533C295.363 39.5551 295.623 39.6571 295.838 39.8262C296.053 39.9952 296.212 40.2237 296.296 40.4826C296.407 40.8288 296.377 41.2049 296.21 41.5286C296.043 41.8522 295.754 42.097 295.405 42.2093Z" fill="#455A64"/>
<path d="M296.255 44.8245C295.995 44.9081 295.716 44.9132 295.452 44.8392C295.189 44.7651 294.954 44.6153 294.776 44.4085C294.598 44.2017 294.487 43.9473 294.455 43.6774C294.423 43.4076 294.472 43.1344 294.597 42.8924C294.721 42.6504 294.915 42.4505 295.154 42.3179C295.393 42.1853 295.666 42.126 295.939 42.1475C296.212 42.169 296.472 42.2703 296.687 42.4386C296.902 42.607 297.061 42.8348 297.146 43.0932C297.202 43.2649 297.223 43.4459 297.209 43.6259C297.195 43.8058 297.145 43.9812 297.062 44.142C296.979 44.3028 296.865 44.4458 296.727 44.5629C296.589 44.68 296.428 44.7689 296.255 44.8245Z" fill="#455A64"/>
<path d="M145.002 43.6566C144.781 45.7602 143.975 47.7615 142.675 49.4371C141.375 51.1128 139.632 52.3968 137.639 53.1459C135.647 53.895 133.484 54.0797 131.392 53.6795C129.3 53.2792 127.361 52.3098 125.792 50.8792L120.039 51.7174L122.918 46.7801C122.259 45.1736 121.979 43.4393 122.096 41.7089C122.214 39.9786 122.728 38.2976 123.598 36.7938C124.468 35.2899 125.672 34.0027 127.119 33.03C128.565 32.0573 130.216 31.4246 131.945 31.18C133.675 30.9353 135.438 31.0852 137.1 31.6183C138.762 32.1513 140.281 33.0534 141.539 34.2562C142.798 35.4589 143.764 36.9306 144.364 38.5595C144.964 40.1883 145.182 41.9315 145.002 43.6566Z" fill="white"/>
<path d="M145.004 43.6566C144.787 45.7592 143.989 47.7612 142.697 49.4411C142.066 50.2907 141.305 51.0371 140.441 51.6533C139.596 52.2925 138.664 52.8091 137.673 53.1876C136.681 53.5754 135.639 53.8221 134.578 53.9204C134.047 53.9676 133.514 53.9784 132.981 53.9524C132.447 53.9388 131.915 53.8837 131.39 53.7875C129.27 53.4003 127.3 52.4344 125.702 50.9983L125.835 51.0395L120.092 51.9143L119.672 51.9784L119.884 51.612L122.744 46.6656V46.8626C122.069 45.2264 121.782 43.4581 121.906 41.6943C122.029 39.9305 122.559 38.2184 123.455 36.6904C124.35 35.1672 125.58 33.8645 127.053 32.8798C128.524 31.9082 130.198 31.2799 131.948 31.0419C133.699 30.804 135.481 30.9626 137.161 31.5058C138.823 32.0672 140.338 32.9905 141.594 34.208C142.848 35.4225 143.807 36.9046 144.397 38.5417C144.988 40.1788 145.195 41.928 145.004 43.6566ZM145.004 43.6566C145.19 41.9366 144.976 40.197 144.378 38.5722C143.779 36.9474 142.813 35.4809 141.553 34.2858C140.293 33.0908 138.773 32.1992 137.111 31.6798C135.449 31.1605 133.689 31.0273 131.966 31.2906C130.261 31.5411 128.637 32.1773 127.219 33.1501C125.813 34.1304 124.639 35.4025 123.778 36.8782C122.93 38.3571 122.43 40.0074 122.315 41.7055C122.203 43.415 122.481 45.1277 123.127 46.716L123.169 46.8168L123.113 46.913L120.216 51.841L120.013 51.5388L125.771 50.7373H125.849L125.904 50.7876C127.444 52.2097 129.351 53.1787 131.413 53.586C131.927 53.69 132.448 53.7528 132.972 53.7738C133.496 53.8104 134.022 53.8104 134.545 53.7738C135.596 53.6898 136.629 53.4633 137.618 53.1005C138.608 52.7425 139.541 52.2426 140.386 51.6166C141.246 51.0055 142.008 50.269 142.646 49.432C143.955 47.7602 144.771 45.7611 145.004 43.6566Z" fill="#263238"/>
<path d="M127.947 47.7923C127.938 47.6407 127.961 47.4889 128.014 47.3463C128.066 47.2037 128.148 47.0734 128.254 46.9635C128.359 46.8535 128.486 46.7663 128.627 46.7072C128.768 46.6481 128.92 46.6184 129.073 46.6199C129.386 46.6199 129.686 46.7434 129.908 46.9633C130.129 47.1832 130.254 47.4814 130.254 47.7923C130.254 48.1033 130.129 48.4015 129.908 48.6214C129.686 48.8413 129.386 48.9648 129.073 48.9648C128.92 48.9663 128.768 48.9366 128.627 48.8775C128.486 48.8184 128.359 48.7312 128.254 48.6212C128.148 48.5113 128.066 48.381 128.014 48.2384C127.961 48.0958 127.938 47.944 127.947 47.7923ZM128.409 45.0856L128.141 35.9988H129.986L129.719 45.0856H128.409Z" fill="#FFC727"/>
<path d="M132.338 47.7923C132.329 47.6411 132.351 47.4897 132.404 47.3474C132.456 47.2051 132.538 47.075 132.643 46.9652C132.748 46.8553 132.874 46.7679 133.015 46.7086C133.155 46.6492 133.306 46.619 133.459 46.6199C133.772 46.6199 134.072 46.7434 134.294 46.9633C134.515 47.1832 134.64 47.4814 134.64 47.7923C134.64 48.1033 134.515 48.4015 134.294 48.6214C134.072 48.8413 133.772 48.9648 133.459 48.9648C133.306 48.9657 133.155 48.9355 133.015 48.8761C132.874 48.8167 132.748 48.7294 132.643 48.6195C132.538 48.5097 132.456 48.3796 132.404 48.2373C132.351 48.095 132.329 47.9436 132.338 47.7923ZM132.799 45.0856L132.545 35.9988H134.391L134.123 45.0856H132.799Z" fill="#FFC727"/>
<path d="M136.721 47.7923C136.712 47.6407 136.734 47.4889 136.787 47.3463C136.84 47.2037 136.921 47.0734 137.027 46.9635C137.133 46.8535 137.26 46.7663 137.401 46.7072C137.542 46.6481 137.693 46.6184 137.846 46.6199C138.16 46.6199 138.46 46.7434 138.681 46.9633C138.903 47.1832 139.027 47.4814 139.027 47.7923C139.027 48.1033 138.903 48.4015 138.681 48.6214C138.46 48.8413 138.16 48.9648 137.846 48.9648C137.693 48.9663 137.542 48.9366 137.401 48.8775C137.26 48.8184 137.133 48.7312 137.027 48.6212C136.921 48.5113 136.84 48.381 136.787 48.2384C136.734 48.0958 136.712 47.944 136.721 47.7923ZM137.182 45.0856L136.914 35.9988H138.76L138.497 45.0856H137.182Z" fill="#FFC727"/>
</svg>
