<svg width="240" height="240" viewBox="0 0 240 240" fill="none" xmlns="http://www.w3.org/2000/svg">
<path d="M79.8134 16.9634H77.7734V26.0978H79.8134V16.9634Z" fill="#E0E0E0"/>
<path d="M74.2266 20.5108V22.5508H83.361V20.5108H74.2266Z" fill="#E0E0E0"/>
<path d="M129.648 61.9585H126.523V75.9649H129.648V61.9585Z" fill="#E0E0E0"/>
<path d="M121.078 67.4016V70.5264H135.085V67.4016H121.078Z" fill="#E0E0E0"/>
<path d="M167.11 21.1826H165.07V30.317H167.11V21.1826Z" fill="#E0E0E0"/>
<path d="M161.523 24.7251V26.7651H170.658V24.7251H161.523Z" fill="#E0E0E0"/>
<path d="M213.851 38.064H210.727V52.0704H213.851V38.064Z" fill="#E0E0E0"/>
<path d="M205.281 43.5027V46.6274H219.288V43.5027H205.281Z" fill="#E0E0E0"/>
<path d="M229.555 106.176H166.094V223.57H229.555V106.176Z" fill="#F5F5F5"/>
<path d="M222.284 219.672H225.438V153.024H222.284V219.672Z" fill="#E0E0E0"/>
<path d="M216.628 219.672H219.781V153.024H216.628V219.672Z" fill="#E0E0E0"/>
<path d="M210.964 219.672H214.117V153.024H210.964V219.672Z" fill="#E0E0E0"/>
<path d="M205.3 219.672H208.453V153.024H205.3V219.672Z" fill="#E0E0E0"/>
<path d="M199.925 219.672H203.078V153.024H199.925V219.672Z" fill="#E0E0E0"/>
<path d="M194.385 219.672H197.539V153.024H194.385V219.672Z" fill="#E0E0E0"/>
<path d="M188.729 219.672H191.883V153.024H188.729V219.672Z" fill="#E0E0E0"/>
<path d="M182.721 219.672H185.875V153.024H182.721V219.672Z" fill="#E0E0E0"/>
<path d="M177.057 219.672H180.211V153.024H177.057V219.672Z" fill="#E0E0E0"/>
<path d="M171.55 219.672H174.703V153.024H171.55V219.672Z" fill="#E0E0E0"/>
<path d="M222.081 149.021H225.234V113.89H222.081V149.021Z" fill="#E0E0E0"/>
<path d="M216.425 149.021H219.578V113.89H216.425V149.021Z" fill="#E0E0E0"/>
<path d="M210.768 149.021H213.922V113.89H210.768V149.021Z" fill="#E0E0E0"/>
<path d="M205.112 149.021H208.266V113.89H205.112V149.021Z" fill="#E0E0E0"/>
<path d="M199.729 149.021H202.883V113.89H199.729V149.021Z" fill="#E0E0E0"/>
<path d="M194.182 149.021H197.336V113.89H194.182V149.021Z" fill="#E0E0E0"/>
<path d="M188.526 149.021H191.68V113.89H188.526V149.021Z" fill="#E0E0E0"/>
<path d="M182.19 149.021H185.344V113.89H182.19V149.021Z" fill="#E0E0E0"/>
<path d="M176.534 149.021H179.688V113.89H176.534V149.021Z" fill="#E0E0E0"/>
<path d="M171.167 149.021H174.32V113.89H171.167V149.021Z" fill="#E0E0E0"/>
<path d="M164.42 138.533H119.555V223.57H164.42V138.533Z" fill="#F5F5F5"/>
<path d="M157.151 219.672H160.305V153.024H157.151V219.672Z" fill="#E0E0E0"/>
<path d="M151.487 219.672H154.641V153.024H151.487V219.672Z" fill="#E0E0E0"/>
<path d="M145.831 219.672H148.984V153.024H145.831V219.672Z" fill="#E0E0E0"/>
<path d="M140.175 219.672H143.328V153.024H140.175V219.672Z" fill="#E0E0E0"/>
<path d="M134.792 219.672H137.945V153.024H134.792V219.672Z" fill="#E0E0E0"/>
<path d="M129.253 219.672H132.406V153.024H129.253V219.672Z" fill="#E0E0E0"/>
<path d="M123.589 219.672H126.742L126.742 153.024H123.589L123.589 219.672Z" fill="#E0E0E0"/>
<path d="M156.956 149.021H160.109V142.719H156.956V149.021Z" fill="#E0E0E0"/>
<path d="M151.292 149.021H154.445V142.719H151.292V149.021Z" fill="#E0E0E0"/>
<path d="M145.628 149.021H148.781V142.719H145.628V149.021Z" fill="#E0E0E0"/>
<path d="M139.971 149.021H143.125V142.719H139.971V149.021Z" fill="#E0E0E0"/>
<path d="M134.596 149.021H137.75V142.719H134.596V149.021Z" fill="#E0E0E0"/>
<path d="M129.057 149.021H132.211V142.719H129.057V149.021Z" fill="#E0E0E0"/>
<path d="M123.393 149.021H126.547V142.719H123.393V149.021Z" fill="#E0E0E0"/>
<path d="M166.203 224.126C166.136 224.126 166.078 197.774 166.078 165.278C166.078 132.782 166.136 106.421 166.203 106.421C166.27 106.421 166.328 132.768 166.328 165.278C166.328 197.789 166.275 224.126 166.203 224.126Z" fill="#E0E0E0"/>
<path d="M223.664 68.9619H175.516V106.421H223.664V68.9619Z" fill="#F5F5F5"/>
<path d="M187.214 101.112H190.367V76.9011H187.214V101.112Z" fill="#E0E0E0"/>
<path d="M181.557 101.112H184.711V76.9011H181.557V101.112Z" fill="#E0E0E0"/>
<path d="M198.964 101.112H202.117V76.9011H198.964V101.112Z" fill="#E0E0E0"/>
<path d="M193.3 101.112H196.453V76.9011H193.3V101.112Z" fill="#E0E0E0"/>
<path d="M210.706 101.112H213.859V76.9011H210.706V101.112Z" fill="#E0E0E0"/>
<path d="M205.05 101.112H208.203V76.9011H205.05V101.112Z" fill="#E0E0E0"/>
<path d="M216.8 101.112H219.953V76.9011H216.8V101.112Z" fill="#E0E0E0"/>
<path d="M102.6 147.312H57.7344V223.848H102.6V147.312Z" fill="#F5F5F5"/>
<path d="M65.0052 167.991H61.8516V220.767H65.0052V167.991Z" fill="#E0E0E0"/>
<path d="M70.6614 167.991H67.5078V220.767H70.6614V167.991Z" fill="#E0E0E0"/>
<path d="M76.3255 167.991H73.1719V220.767H76.3255V167.991Z" fill="#E0E0E0"/>
<path d="M81.9817 167.991H78.8281V220.767H81.9817V167.991Z" fill="#E0E0E0"/>
<path d="M87.3645 167.991H84.2109V220.767H87.3645V167.991Z" fill="#E0E0E0"/>
<path d="M92.9036 167.991H89.75V220.767H92.9036V167.991Z" fill="#E0E0E0"/>
<path d="M98.5599 167.991H95.4062V220.767H98.5599V167.991Z" fill="#E0E0E0"/>
<path d="M65.2005 152.088H62.0469V164.818H65.2005V152.088Z" fill="#E0E0E0"/>
<path d="M70.8567 152.088H67.7031V164.818H70.8567V152.088Z" fill="#E0E0E0"/>
<path d="M76.5208 152.088H73.3672V164.818H76.5208V152.088Z" fill="#E0E0E0"/>
<path d="M82.177 152.088H79.0234V164.818H82.177V152.088Z" fill="#E0E0E0"/>
<path d="M87.5599 152.088H84.4062V164.818H87.5599V152.088Z" fill="#E0E0E0"/>
<path d="M93.0989 152.088H89.9453V164.818H93.0989V152.088Z" fill="#E0E0E0"/>
<path d="M98.7552 152.088H95.6016V164.818H98.7552V152.088Z" fill="#E0E0E0"/>
<path d="M60.1168 77.8369H12.2656V223.848H60.1168V77.8369Z" fill="#F5F5F5"/>
<path d="M42.7083 34.3779H30.9531V36.5763H42.7083V34.3779Z" fill="#F5F5F5"/>
<path d="M37.7001 16.9634H35.8281V35.021H37.7001V16.9634Z" fill="#F5F5F5"/>
<path d="M53.433 36.5762H20.2266V78.5522H53.433V36.5762Z" fill="#F5F5F5"/>
<path d="M27.6648 41.7456H24.3672V75.6624H27.6648V41.7456Z" fill="#E0E0E0"/>
<path d="M33.5788 41.7456H30.2812V75.6624H33.5788V41.7456Z" fill="#E0E0E0"/>
<path d="M39.4929 41.7456H36.1953V75.6624H39.4929V41.7456Z" fill="#E0E0E0"/>
<path d="M45.407 41.7456H42.1094V75.6624H45.407V41.7456Z" fill="#E0E0E0"/>
<path d="M51.032 41.7456H47.7344V75.6624H51.032V41.7456Z" fill="#E0E0E0"/>
<path d="M20.021 83.8271H16.6562V217.963H20.021V83.8271Z" fill="#E0E0E0"/>
<path d="M26.0601 83.8271H22.6953V217.963H26.0601V83.8271Z" fill="#E0E0E0"/>
<path d="M32.0914 83.8271H28.7266V217.963H32.0914V83.8271Z" fill="#E0E0E0"/>
<path d="M38.1304 83.8271H34.7656V217.963H38.1304V83.8271Z" fill="#E0E0E0"/>
<path d="M43.8726 83.8271H40.5078V217.963H43.8726V83.8271Z" fill="#E0E0E0"/>
<path d="M49.7789 83.8271H46.4141V217.963H49.7789V83.8271Z" fill="#E0E0E0"/>
<path d="M55.8101 83.8271H52.4453V217.963H55.8101V83.8271Z" fill="#E0E0E0"/>
<path d="M230.963 224.295C230.963 224.362 181.043 224.419 119.522 224.419C57.9999 224.419 8.07031 224.362 8.07031 224.295C8.07031 224.227 57.9615 224.16 119.517 224.16C181.072 224.16 230.963 224.227 230.963 224.295Z" fill="#263238"/>
<path d="M162.389 54.5234L157.848 55.3346C155.567 57.9103 152.406 59.5397 148.985 59.9027C145.564 60.2656 142.131 59.3359 139.36 57.2961C136.59 55.2563 134.683 52.2541 134.013 48.8795C133.344 45.5049 133.961 42.0021 135.744 39.0594C137.526 36.1168 140.344 33.9472 143.645 32.9772C146.946 32.0071 150.49 32.3067 153.581 33.8171C156.672 35.3274 159.086 37.9394 160.349 41.1394C161.612 44.3395 161.633 47.8962 160.407 51.1106L162.389 54.5234Z" fill="white"/>
<path d="M162.387 54.5234C162.387 54.5234 162.334 54.4466 162.243 54.2978L161.854 53.6402L160.361 51.1298H160.443C160.433 51.1389 160.42 51.1439 160.407 51.1439C160.393 51.1439 160.381 51.1389 160.371 51.1298C160.364 51.1207 160.361 51.1098 160.361 51.0986C160.361 51.0873 160.364 51.0764 160.371 51.0674C161.162 48.9548 161.424 46.6805 161.134 44.4434C161.042 43.74 160.894 43.0451 160.692 42.365C160.462 41.6431 160.177 40.9402 159.838 40.2626C159.113 38.7539 158.113 37.3932 156.891 36.2498C155.484 34.9371 153.817 33.9343 151.998 33.3059C150.179 32.6775 148.248 32.4377 146.331 32.6018C144.21 32.8121 142.165 33.5067 140.355 34.6322C138.453 35.8113 136.877 37.4484 135.771 39.3938C134.095 42.3237 133.563 45.7701 134.277 49.069C134.991 52.368 136.9 55.286 139.638 57.2608C142.375 59.2357 145.746 60.1277 149.102 59.7649C152.458 59.4022 155.56 57.8103 157.812 55.2962C157.812 55.2962 157.812 55.2962 157.841 55.2962L161.201 54.7346L162.08 54.5906L162.387 54.5426L162.104 54.605L161.249 54.7682L157.856 55.4066H157.889C156.377 57.1356 154.454 58.4562 152.297 59.2466C149.621 60.2271 146.708 60.3587 143.954 59.6234C141.201 58.8881 138.741 57.3216 136.91 55.1374C135.079 52.9533 133.966 50.2577 133.722 47.4181C133.479 44.5784 134.117 41.7328 135.55 39.269L135.996 38.525C136.16 38.2898 136.332 38.045 136.5 37.829C136.843 37.3733 137.212 36.9374 137.604 36.5234C137.792 36.3122 138.017 36.1346 138.219 35.9426C138.418 35.7442 138.63 35.5583 138.852 35.3858C139.287 35.0363 139.744 34.7156 140.22 34.4258C142.063 33.2821 144.144 32.5776 146.302 32.3666C148.254 32.2024 150.219 32.4504 152.068 33.0946C153.918 33.7388 155.612 34.7647 157.04 36.1058C158.274 37.2699 159.282 38.6534 160.011 40.1858C160.346 40.8823 160.626 41.6046 160.846 42.3458C161.047 43.0353 161.191 43.74 161.278 44.453C161.559 46.7146 161.274 49.0106 160.448 51.1346L160.361 51.0866C160.371 51.0784 160.384 51.0739 160.397 51.0739C160.41 51.0739 160.423 51.0784 160.433 51.0866L161.873 53.6642L162.243 54.317L162.387 54.5234Z" fill="#263238"/>
<path d="M147.389 51.8355L140.641 47.3235L142.215 44.9715L146.741 47.9955L152.367 40.5459L154.628 42.2547L147.389 51.8355Z" fill="#FF725E"/>
<path d="M84.2812 53.1936L86.5421 48.744C85.6097 46.2245 85.3673 43.5018 85.8398 40.8572C86.3123 38.2127 87.4826 35.7424 89.2296 33.7016C90.9767 31.6609 93.2372 30.1239 95.7773 29.2495C98.3174 28.3751 101.045 28.195 103.678 28.7279C106.032 29.1987 108.239 30.2243 110.117 31.7196C111.995 33.2148 113.489 35.1366 114.475 37.3252C115.461 39.5137 115.91 41.906 115.786 44.3032C115.661 46.7003 114.967 49.0332 113.759 51.108C112.552 53.1828 110.868 54.9396 108.845 56.2325C106.823 57.5254 104.521 58.317 102.131 58.5416C99.7412 58.7662 97.3322 58.4173 95.1043 57.5239C92.8764 56.6305 90.8938 55.2183 89.3212 53.4048L84.2812 53.1936Z" fill="white"/>
<path d="M84.2812 53.1936H84.6172L85.5772 53.2224L89.3021 53.3472L89.2541 53.424C89.2464 53.4119 89.2439 53.3972 89.247 53.3833C89.2502 53.3693 89.2588 53.3572 89.2709 53.3496C89.2829 53.3419 89.2976 53.3394 89.3115 53.3426C89.3255 53.3457 89.3376 53.3543 89.3453 53.3664C91.0001 55.2516 93.0985 56.695 95.4509 57.5664C96.1795 57.8397 96.9292 58.0532 97.6925 58.2048C98.5118 58.3578 99.3412 58.4508 100.174 58.4832C102.25 58.5641 104.32 58.2113 106.253 57.447C108.185 56.6828 109.936 55.524 111.395 54.0446C112.854 52.5653 113.989 50.798 114.726 48.8555C115.464 46.913 115.788 44.838 115.678 42.7632C115.654 42.4704 115.654 42.1728 115.62 41.88C115.587 41.5872 115.529 41.2944 115.481 41.0016L115.414 40.56C115.385 40.416 115.342 40.272 115.308 40.128L115.083 39.2544C115.006 38.9664 114.881 38.688 114.785 38.4048C114.691 38.1176 114.583 37.8356 114.459 37.56C114.211 37.0029 113.931 36.4611 113.619 35.9376C113.456 35.6784 113.312 35.4096 113.139 35.1552L112.596 34.4208L112.318 34.08L112.016 33.744L111.411 33.0672C110.569 32.2236 109.634 31.4795 108.622 30.8496C106.661 29.6371 104.45 28.8839 102.156 28.6464C100.075 28.4522 97.9758 28.6933 95.9925 29.3544C94.0092 30.0155 92.1852 31.0821 90.6365 32.4864C89.2823 33.7125 88.1646 35.1768 87.3389 36.8064C87.1613 37.1952 86.9405 37.5648 86.8061 37.9584L86.3837 39.1152C86.1672 39.863 85.9941 40.6226 85.8653 41.3904C85.4928 43.8719 85.7503 46.4072 86.6141 48.7632C86.6188 48.7772 86.6188 48.7923 86.6141 48.8064C85.8701 50.2464 85.2988 51.3312 84.91 52.0848L84.4637 52.9344C84.3629 53.1264 84.3053 53.2272 84.3053 53.2272L84.4397 52.9488C84.5357 52.7472 84.6748 52.4688 84.8572 52.0992L86.5181 48.7392V48.7824C85.6238 46.414 85.3447 43.8575 85.7069 41.352C85.8323 40.5749 86.0022 39.8056 86.2156 39.048L86.6428 37.8768C86.7979 37.4772 86.9741 37.0863 87.1709 36.7056C88.0025 35.0523 89.1299 33.5654 90.4972 32.3184C93.4134 29.6747 97.2373 28.2586 101.172 28.365C105.107 28.4714 108.848 30.0922 111.617 32.8896L112.232 33.576L112.544 33.9168L112.817 34.2864L113.326 35.04C113.499 35.2944 113.652 35.568 113.806 35.8368C114.126 36.3526 114.413 36.888 114.665 37.44C114.809 37.7136 114.886 38.016 115.001 38.2992C115.116 38.5824 115.227 38.8704 115.304 39.1632L115.529 40.0512C115.563 40.1952 115.611 40.344 115.64 40.4928L115.707 40.9392C115.755 41.2368 115.798 41.5344 115.846 41.832C115.894 42.1296 115.884 42.432 115.904 42.7296C116.013 44.833 115.682 46.9361 114.933 48.9047C114.183 50.8732 113.032 52.6639 111.552 54.1625C110.072 55.6611 108.296 56.8347 106.337 57.6084C104.378 58.3821 102.279 58.7388 100.174 58.656C99.3309 58.6242 98.4915 58.5263 97.6637 58.3632C94.3998 57.6966 91.45 55.9642 89.2781 53.4384L89.3644 53.3808C89.3726 53.391 89.3771 53.4037 89.3771 53.4168C89.3771 53.4298 89.3726 53.4425 89.3644 53.4528H89.3356L85.5772 53.256L84.6172 53.2032L84.2812 53.1936Z" fill="#263238"/>
<path d="M101.299 50.6785H93.9219V35.6401H101.299V50.6785ZM94.4019 50.1985H100.819V36.1201H94.4019V50.1985Z" fill="#263238"/>
<path d="M97.0559 37.8574H95.5391V39.691H97.0559V37.8574Z" fill="#263238"/>
<path d="M99.6887 37.8574H98.1719V39.691H99.6887V37.8574Z" fill="#263238"/>
<path d="M97.0559 40.7183H95.5391V42.5519H97.0559V40.7183Z" fill="#263238"/>
<path d="M99.6887 40.7183H98.1719V42.5519H99.6887V40.7183Z" fill="#263238"/>
<path d="M97.0559 43.584H95.5391V45.4176H97.0559V43.584Z" fill="#263238"/>
<path d="M99.6887 43.584H98.1719V45.4176H99.6887V43.584Z" fill="#263238"/>
<path d="M97.0559 46.5361H95.5391V48.3697H97.0559V46.5361Z" fill="#263238"/>
<path d="M99.6887 46.5361H98.1719V48.3697H99.6887V46.5361Z" fill="#263238"/>
<path d="M103.845 44.8848H102.328V46.7184H103.845V44.8848Z" fill="#263238"/>
<path d="M106.478 44.8848H104.961V46.7184H106.478V44.8848Z" fill="#263238"/>
<path d="M103.845 47.4526H102.328V49.2862H103.845V47.4526Z" fill="#263238"/>
<path d="M106.478 47.4526H104.961V49.2862H106.478V47.4526Z" fill="#263238"/>
<path d="M107.997 50.6786H100.797V43.2002H107.997V50.6786ZM101.277 50.1986H107.517V43.6802H101.277V50.1986Z" fill="#263238"/>
<path d="M106.65 37.416H103.266V42.2304H106.65V37.416Z" fill="#455A64"/>
<path d="M104.953 38.2368H102.539L103.749 36.72L104.953 35.208L106.163 36.72L107.373 38.2368H104.953Z" fill="#455A64"/>
<path d="M182.225 217.785V218.333C182.225 218.333 173.043 222.12 172.961 223.872L191.259 223.603L190.923 217.517C189.577 218.183 188.104 218.552 186.603 218.598C185.102 218.645 183.609 218.368 182.225 217.785Z" fill="#263238"/>
<path d="M191.259 223.603L191.178 222.163L173.672 222.955C173.672 222.955 172.861 223.32 172.962 223.915L191.259 223.603Z" fill="#455A64"/>
<path d="M182.165 218.4C182.165 218.486 182.616 218.52 183.058 218.803C183.499 219.086 183.739 219.456 183.821 219.417C183.902 219.379 183.763 218.865 183.221 218.539C182.678 218.213 182.141 218.304 182.165 218.4Z" fill="white"/>
<path d="M180.25 219.207C180.25 219.293 180.62 219.437 180.932 219.811C181.244 220.186 181.33 220.584 181.412 220.579C181.493 220.575 181.551 220.066 181.157 219.619C180.764 219.173 180.25 219.12 180.25 219.207Z" fill="white"/>
<path d="M179.194 221.52C179.275 221.52 179.395 221.088 179.155 220.603C178.915 220.118 178.498 219.926 178.464 220.003C178.43 220.08 178.69 220.334 178.877 220.738C179.064 221.141 179.107 221.51 179.194 221.52Z" fill="white"/>
<path d="M195.309 212.271L187.519 214.45L189.463 218.866L187.442 230.045C187.387 230.352 187.446 230.668 187.609 230.934C187.772 231.199 188.027 231.395 188.325 231.485C188.557 231.55 188.803 231.549 189.035 231.482C189.266 231.415 189.475 231.285 189.636 231.106C191.354 229.186 197.642 222.053 197.493 221.184L197.244 218.861C197.191 218.381 196.725 217.234 196.725 217.128L195.309 212.271Z" fill="#263238"/>
<path d="M188.555 231.542L197.42 220.387L197.463 220.896C197.495 221.105 197.479 221.318 197.417 221.52C197.354 221.722 197.247 221.908 197.103 222.062C196.407 223.186 194.43 225.734 189.668 231.12C189.53 231.275 189.357 231.394 189.163 231.467C188.969 231.541 188.761 231.567 188.555 231.542Z" fill="#455A64"/>
<path d="M190.888 226.042C190.556 225.692 190.16 225.408 189.721 225.207C189.254 225.074 188.765 225.028 188.281 225.072C188.281 225.043 188.416 224.933 188.704 224.871C189.077 224.793 189.465 224.823 189.822 224.957C190.179 225.087 190.491 225.317 190.72 225.619C190.878 225.85 190.916 226.027 190.888 226.042Z" fill="white"/>
<path d="M190.157 227.726C189.786 227.565 189.406 227.426 189.019 227.309C188.615 227.274 188.21 227.261 187.805 227.27C187.985 227.137 188.194 227.048 188.415 227.009C188.635 226.971 188.862 226.985 189.077 227.05C189.821 227.194 190.219 227.688 190.157 227.726Z" fill="white"/>
<path d="M192.339 223.829C191.787 223.535 191.214 223.284 190.625 223.075C190.009 222.948 189.385 222.864 188.758 222.825C189.379 222.606 190.057 222.606 190.678 222.825C191.333 222.952 191.922 223.307 192.339 223.829Z" fill="white"/>
<path d="M189.371 217.349C189.449 217.845 189.479 218.348 189.462 218.851C189.366 219.499 189.227 220.329 189.073 221.227C188.886 222.288 188.704 223.248 188.56 223.944C188.505 224.324 188.412 224.697 188.281 225.057C188.283 224.674 188.323 224.291 188.401 223.915C188.502 223.214 188.656 222.249 188.843 221.184C189.001 220.286 189.155 219.461 189.284 218.822C189.273 218.33 189.302 217.837 189.371 217.349Z" fill="#455A64"/>
<path d="M200.451 145.382C201.065 142.421 202.62 137.064 202.011 134.597C200.571 128.88 198.099 125.573 194.696 118.315H192.166L167.888 117.893L165.9 122.299C163.692 128.237 162.185 131.779 161.58 136.123C160.865 141.125 162.118 148.373 164.902 155.693C170.902 171.489 174.252 184.123 174.502 187.526C174.752 190.929 175.092 194.443 178.251 205.219C180.55 213.086 182.254 217.785 182.254 217.785C184.654 219.139 187.184 219.504 189.492 218.189L196.539 215.472C196.539 215.472 194.379 196.92 191.859 191.995C190.044 188.453 187.059 186.773 188.46 182.155C189.862 177.537 198.569 154.478 200.451 145.382Z" fill="#263238"/>
<path d="M172.039 130.401C172.075 130.44 172.107 130.482 172.135 130.526L172.404 130.896L173.431 132.36L177.271 137.894V137.918V137.942C177.084 140.016 177.012 142.421 176.882 145.104C176.753 147.787 176.613 150.734 176.465 153.902C176.316 157.07 176.119 160.459 175.937 164.006C175.754 167.553 175.543 171.269 175.188 175.085C174.818 178.257 174.492 181.377 174.761 184.373C174.833 185.121 174.924 185.861 175.063 186.585C175.186 187.303 175.362 188.011 175.591 188.702C176.071 190.046 176.676 191.352 177.228 192.619C179.469 197.693 181.548 202.219 183.314 206.035L187.5 215.04L188.628 217.497C188.748 217.771 188.844 217.977 188.916 218.136C188.988 218.294 189.007 218.357 189.007 218.357C189.007 218.357 188.964 218.289 188.892 218.145L188.585 217.517C188.311 216.95 187.922 216.129 187.418 215.083L183.189 206.093C181.423 202.291 179.306 197.765 177.055 192.696C176.498 191.424 175.913 190.137 175.399 188.765C175.168 188.064 174.99 187.346 174.866 186.619C174.722 185.885 174.626 185.141 174.554 184.387C174.281 181.358 174.607 178.219 174.977 175.046C175.332 171.249 175.514 167.529 175.73 164.006C175.946 160.483 176.109 157.07 176.277 153.902C176.445 150.734 176.589 147.782 176.729 145.104C176.868 142.425 176.954 140.016 177.156 137.942V137.985C175.533 135.585 174.247 133.709 173.359 132.413L172.361 130.929L172.111 130.545C172.082 130.5 172.058 130.452 172.039 130.401Z" fill="#455A64"/>
<path d="M175.272 78.5375L176.765 74.7696L185.65 74.2896L189.278 74.7696L189.677 75.8159L192.139 119.39C192.139 119.39 183.533 121.128 179.232 120.523C174.931 119.918 169.867 117.955 169.867 117.955V93.1728L175.272 78.5375Z" fill="#F5F5F5"/>
<path d="M188.647 80.3086C188.647 80.3086 188.647 80.3374 188.585 80.3854L188.393 80.6014C188.225 80.7886 187.97 81.0814 187.634 81.3886C186.719 82.2976 185.747 83.1489 184.726 83.9374L184.682 83.971L184.649 83.9278C183.688 82.875 182.796 81.7606 181.98 80.5918C181.889 80.4622 181.802 80.3278 181.716 80.2078H181.826C181.063 81.2302 180.343 82.1998 179.69 83.0878C179.606 83.2011 179.506 83.3013 179.393 83.3854C179.335 83.4312 179.269 83.4649 179.198 83.4847C179.127 83.5045 179.053 83.5099 178.98 83.5006C178.844 83.471 178.72 83.4007 178.625 83.299C178.529 83.203 178.457 83.1022 178.38 83.011L177.535 81.955L176.326 80.4238L176.004 80.0062C175.965 79.9594 175.93 79.9097 175.898 79.8574L176.023 79.9918L176.364 80.395L177.607 81.8974L178.462 82.9438C178.615 83.1262 178.769 83.347 178.999 83.3854C179.23 83.4238 179.436 83.2222 179.594 83.0158L181.721 80.1358L181.774 80.059L181.826 80.1358L182.086 80.515C182.901 81.6792 183.786 82.7932 184.735 83.851H184.654C185.677 83.0732 186.657 82.2383 187.586 81.3502C187.927 81.0238 188.186 80.7646 188.369 80.587L188.575 80.3854C188.596 80.357 188.62 80.3313 188.647 80.3086Z" fill="#263238"/>
<g opacity="0.3">
<path d="M178.492 83.0736C178.492 83.0736 179.62 84.4608 179.932 84.1104C180.244 83.76 181.919 81.1776 182.116 81.072C182.313 80.9664 184.334 84.5856 185.126 84.336C185.918 84.0864 188.74 81.2592 188.74 81.2592L188.793 80.1504L184.684 83.8896L181.771 80.16L179.313 83.352C179.313 83.352 178.795 83.7744 178.492 83.0736Z" fill="black"/>
</g>
<path d="M180.384 120.787C180.372 120.651 180.372 120.515 180.384 120.379C180.384 120.091 180.384 119.698 180.422 119.208C180.465 118.171 180.523 116.707 180.595 114.888C180.748 111.254 180.955 106.248 181.147 100.694C181.339 95.1408 181.478 90.1344 181.579 86.496C181.627 84.696 181.67 83.232 181.699 82.176C181.718 81.6864 181.732 81.2976 181.742 81.0096C181.742 80.8729 181.753 80.7364 181.776 80.6016C181.787 80.7373 181.787 80.8738 181.776 81.0096V82.1808C181.776 83.2224 181.752 84.6864 181.732 86.5008C181.68 90.1344 181.564 95.1408 181.377 100.704C181.19 106.267 180.95 111.264 180.753 114.898C180.648 116.693 180.561 118.157 180.499 119.218C180.465 119.698 180.436 120.096 180.412 120.389C180.412 120.522 180.402 120.655 180.384 120.787Z" fill="#263238"/>
<g opacity="0.3">
<path d="M172.556 103.2L167.891 133.829L168.251 137.146C168.659 137.626 169.479 137.458 169.892 136.997C170.266 136.497 170.489 135.901 170.535 135.279C172.326 124.685 173.286 113.914 172.556 103.2Z" fill="black"/>
</g>
<path d="M165.99 78.6526C165.134 78.9286 164.357 79.4082 163.727 80.0502C163.096 80.6923 162.631 81.4777 162.371 82.339L156.812 101.947L161.372 115.387L166.134 107.285L169.494 77.9614L165.99 78.6526Z" fill="#FFD780"/>
<path d="M172.408 77.3952L167.128 78.4272L165.649 106.454C165.649 106.8 165.995 112.214 165.995 112.214L156.875 132.576C158.91 136.205 164.411 137.909 168.289 138.816C168.289 138.816 172.216 110.976 172.47 104.842C172.725 98.7072 176.665 74.856 176.665 74.856L172.408 77.3952Z" fill="#FFD780"/>
<path d="M158.023 130.267L158.057 130.176L158.172 129.907L158.614 128.88C159.003 127.982 159.574 126.686 160.275 125.069L165.958 112.166V112.195C165.915 110.808 165.862 109.368 165.795 107.875C165.641 104.558 165.459 101.395 165.339 98.5199C165.219 95.6447 165.142 93.0479 165.118 90.8687C165.094 88.6895 165.118 86.9279 165.118 85.7135C165.118 85.1087 165.142 84.6383 165.151 84.3119C165.151 84.1535 165.151 84.0335 165.151 83.9471C165.151 83.8607 165.151 83.8223 165.151 83.8223C165.151 83.8223 165.151 83.8655 165.151 83.9471V84.3119C165.151 84.6383 165.151 85.1087 165.151 85.7135C165.151 86.9279 165.151 88.6943 165.185 90.8687C165.219 93.0431 165.3 95.6351 165.435 98.5151C165.569 101.395 165.732 104.553 165.915 107.87C165.982 109.344 166.035 110.789 166.073 112.19V112.219L160.351 125.107C159.631 126.715 159.055 127.987 158.652 128.899C158.455 129.341 158.297 129.681 158.172 129.917C158.119 130.032 158.081 130.118 158.047 130.181C158.043 130.21 158.035 130.239 158.023 130.267Z" fill="#263238"/>
<path d="M172.222 101.798C172.222 101.798 172.222 101.774 172.198 101.731L172.15 101.534C172.107 101.352 172.049 101.102 171.977 100.781C171.838 100.123 171.646 99.1679 171.463 97.9727C171.281 96.7775 171.108 95.3615 170.983 93.7727C170.859 92.1839 170.734 90.4415 170.647 88.6079C170.619 87.9215 170.585 87.2495 170.556 86.5919L170.513 85.6319C170.513 85.4735 170.513 85.3151 170.513 85.1519V84.9119V84.7919C170.513 84.7919 170.513 84.7535 170.513 84.7295C170.513 84.7055 170.513 84.7295 170.513 84.6863V84.6575C170.513 84.6575 170.571 84.6335 170.58 84.6575C170.59 84.6815 170.614 84.6575 170.628 84.6959H170.537L171.948 83.7071V83.8127L170.403 83.0399H170.359V82.9967C170.59 82.1279 170.868 81.3503 171.108 80.6687C171.348 79.9871 171.588 79.3919 171.766 78.9071C171.943 78.4223 172.107 78.0479 172.212 77.7887C172.265 77.6687 172.308 77.5727 172.337 77.4959C172.366 77.4191 172.385 77.3999 172.385 77.3999C172.378 77.4364 172.367 77.4719 172.351 77.5055L172.246 77.8031C172.145 78.0719 172.006 78.4511 171.823 78.9311C171.641 79.4111 171.43 80.0111 171.195 80.6975C170.959 81.3839 170.691 82.1375 170.465 83.0255L170.436 82.9631L171.972 83.6687L172.068 83.7119L171.982 83.7743L170.575 84.7631H170.484C170.484 84.7631 170.532 84.7295 170.527 84.7295C170.531 84.7316 170.535 84.7327 170.539 84.7327C170.544 84.7327 170.548 84.7316 170.551 84.7295H170.575V84.9071V85.1423L170.599 85.6223C170.599 85.9391 170.628 86.2655 170.643 86.5823C170.671 87.2399 170.705 87.9119 170.734 88.5983C170.82 90.4319 170.926 92.1743 171.06 93.7583C171.195 95.3423 171.358 96.7679 171.54 97.9583C171.723 99.1487 171.891 100.104 172.02 100.766C172.083 101.088 172.135 101.342 172.169 101.525C172.169 101.606 172.198 101.674 172.207 101.722C172.217 101.77 172.222 101.798 172.222 101.798Z" fill="#263238"/>
<path d="M198.366 114.754L201.726 80.8416L192.284 77.3808C192.284 77.3808 190.071 75.3456 188.895 74.2944L188.478 79.6128C188.478 79.6128 187.201 101.381 189.212 112.344C191.223 123.307 190.94 122.933 192.409 130.066C193.479 135.254 193.657 139.786 195.289 140.242C196.921 140.698 205.062 137.717 205.062 137.717L198.366 114.754Z" fill="#FFD780"/>
<path d="M201.721 80.8418C201.721 80.8418 205.417 82.2482 205.974 87.005C206.382 90.5186 208.542 110.587 206.281 113.088C203.577 115.995 200.62 118.655 197.444 121.037L192.164 114.168L197.175 108.658L200.002 84.3458L201.721 80.8418Z" fill="#FFD780"/>
<path d="M191.244 100.632C191.242 100.609 191.242 100.587 191.244 100.565C191.244 100.517 191.244 100.454 191.278 100.377C191.313 100.205 191.361 99.9645 191.422 99.6573C191.537 99.0333 191.71 98.1261 191.868 96.9981C192.204 94.7421 192.492 91.6077 192.655 88.1325C192.694 87.3133 192.732 86.5133 192.77 85.7325C192.77 85.3437 192.804 84.9645 192.823 84.5901L192.852 84.0381C192.852 83.9469 192.852 83.8557 192.852 83.7645V83.6349C192.855 83.6142 192.855 83.5933 192.852 83.5725C192.864 83.5766 192.878 83.5766 192.89 83.5725H192.929H192.842L191.436 82.5789L191.354 82.5261L191.446 82.4829L192.982 81.7773L192.953 81.8349C192.818 81.2165 192.713 80.5917 192.641 79.9629C192.569 79.4061 192.502 78.9309 192.425 78.5469C192.348 78.1629 192.266 77.8653 192.209 77.6637L192.132 77.4381C192.132 77.3901 192.108 77.3613 192.132 77.3613C192.145 77.3845 192.156 77.4086 192.166 77.4333C192.166 77.4861 192.218 77.5581 192.252 77.6541C192.354 77.9409 192.435 78.2344 192.497 78.5325C192.583 78.9213 192.66 79.3965 192.742 79.9485C192.821 80.5745 192.931 81.1961 193.073 81.8109V81.8493H193.034L191.522 82.6029V82.5069L192.934 83.4909H192.842C192.856 83.4789 192.873 83.4707 192.89 83.4669C192.906 83.4631 192.923 83.4631 192.938 83.4669C192.938 83.4669 192.938 83.4957 192.938 83.5101V83.7213C192.938 83.8125 192.938 83.9037 192.938 83.9949C192.938 84.1773 192.938 84.3597 192.914 84.5469C192.914 84.9213 192.881 85.3005 192.866 85.6893C192.828 86.4621 192.794 87.2637 192.756 88.0893C192.633 91.0601 192.356 94.0225 191.926 96.9645C191.753 98.0925 191.566 98.9949 191.446 99.6189C191.374 99.9213 191.321 100.161 191.278 100.334C191.258 100.411 191.244 100.473 191.234 100.521C191.254 100.613 191.249 100.632 191.244 100.632Z" fill="#263238"/>
<path d="M204.247 109.469C204.247 109.469 203.916 109.248 203.35 108.989C203.016 108.827 202.669 108.694 202.313 108.59C201.875 108.469 201.426 108.389 200.974 108.35C200.52 108.321 200.066 108.334 199.615 108.389C199.247 108.436 198.884 108.517 198.53 108.629C197.926 108.816 197.57 109.013 197.57 108.989C197.643 108.928 197.724 108.878 197.81 108.84C197.905 108.788 198.003 108.742 198.103 108.701C198.234 108.639 198.369 108.584 198.506 108.538C198.863 108.414 199.232 108.324 199.606 108.269C200.525 108.135 201.462 108.206 202.351 108.475C202.71 108.586 203.059 108.729 203.393 108.902C203.522 108.968 203.647 109.042 203.767 109.123C203.862 109.178 203.953 109.239 204.041 109.306C204.116 109.352 204.185 109.407 204.247 109.469Z" fill="#263238"/>
<g opacity="0.3">
<path d="M192.29 77.8174C192.29 77.8174 193.994 81.7918 193.73 82.1374C193.466 82.483 192.597 82.7038 192.597 82.7038C192.597 82.7038 194.066 83.3422 194.066 83.9038C194.066 85.027 192.486 91.6702 192.486 91.6702L192.875 83.5534L191.469 82.5934L193.005 81.8782L192.29 77.8174Z" fill="black"/>
</g>
<path d="M199.086 89.0063C199.098 89.0987 199.098 89.1924 199.086 89.2847C199.086 89.4911 199.057 89.7648 199.038 90.0768C198.985 90.8016 198.908 91.7855 198.817 92.9903C198.601 95.4815 198.313 98.8607 197.991 102.59C197.881 103.752 197.78 104.88 197.679 105.95C197.628 106.488 197.57 107.011 197.506 107.52C197.46 108.017 197.373 108.51 197.247 108.994L193.585 112.8L192.548 113.837C192.432 113.968 192.304 114.087 192.164 114.192C192.263 114.049 192.376 113.916 192.5 113.794L193.489 112.709L197.06 108.912V108.95C197.173 108.477 197.252 107.995 197.295 107.51C197.353 107.006 197.406 106.483 197.458 105.946C197.554 104.87 197.655 103.742 197.761 102.586C198.111 98.856 198.428 95.4768 198.658 92.9856C198.783 91.7808 198.889 90.7968 198.961 90.0768C198.999 89.76 199.033 89.496 199.057 89.2896C199.054 89.1943 199.064 89.0992 199.086 89.0063Z" fill="#263238"/>
<path d="M157.809 98.4287L154.147 106.589L150.691 102.715L146.078 105.97L151.497 114.662C153.201 116.846 154.829 118.334 156.681 118.099C157.054 118.048 157.421 117.959 157.776 117.835C160.32 116.966 162.072 115.258 162.734 112.651L164.832 102.134L157.809 98.4287Z" fill="#FFD780"/>
<path d="M158.185 113.001C158.153 112.888 158.129 112.772 158.113 112.656C158.074 112.435 158.007 112.113 157.916 111.72C157.825 111.326 157.7 110.865 157.537 110.357C157.374 109.848 157.167 109.301 156.922 108.739C156.678 108.177 156.404 107.654 156.145 107.189C155.886 106.723 155.622 106.32 155.396 105.989C155.17 105.657 154.974 105.389 154.839 105.211C154.764 105.121 154.695 105.027 154.633 104.928C154.719 105.007 154.798 105.094 154.868 105.187C155.017 105.36 155.218 105.619 155.454 105.945C155.689 106.272 155.934 106.68 156.226 107.141C156.516 107.645 156.781 108.164 157.018 108.696C157.263 109.262 157.465 109.819 157.628 110.328C157.791 110.837 157.906 111.288 157.988 111.705C158.07 112.123 158.122 112.425 158.151 112.665C158.172 112.776 158.183 112.889 158.185 113.001Z" fill="#263238"/>
<path d="M178.38 46.459L178.352 46.5838C178.376 46.5598 178.376 46.5022 178.38 46.459Z" fill="#263238"/>
<path d="M169.509 69.936C169.572 68.6304 169.082 67.368 168.669 66.1248C168.256 64.8816 167.916 63.5376 168.266 62.2848C168.708 60.7008 170.133 59.5968 170.901 58.1376C171.669 56.6784 171.727 54.9552 171.861 53.3088C171.996 51.6624 172.274 49.9152 173.368 48.672C174.751 47.0976 178.37 46.8144 180.088 48.0288C180.352 57.3984 180.271 66.6768 178.264 75.8352C173.69 76.032 171.372 75.1392 167.383 72.9024C168.655 72.6288 169.447 71.2464 169.509 69.936Z" fill="#263238"/>
<path d="M189.125 75.8733L190.781 53.1213C190.804 52.6191 190.639 52.1261 190.317 51.7397C189.996 51.3532 189.541 51.1012 189.043 51.0333L178.483 48.0429C175.085 47.5629 172.699 51.7197 172.387 55.1325C172.041 58.9245 171.768 63.5709 172.137 66.4173C172.881 72.1437 177.23 72.9933 177.23 72.9933C177.139 75.8157 177.173 75.8733 177.173 75.8733L181.833 80.1357L189.125 75.8733Z" fill="#FFBF9D"/>
<path d="M173.93 60.0862C173.922 60.2766 173.989 60.4625 174.117 60.6042C174.244 60.746 174.422 60.8322 174.612 60.8446C174.705 60.8545 174.799 60.8458 174.888 60.8189C174.978 60.792 175.061 60.7475 175.133 60.6881C175.205 60.6286 175.264 60.5553 175.307 60.4726C175.351 60.3898 175.377 60.2993 175.385 60.2062C175.391 60.0161 175.324 59.8309 175.197 59.6894C175.07 59.548 174.893 59.4614 174.703 59.4478C174.61 59.4379 174.516 59.4466 174.427 59.4735C174.338 59.5004 174.254 59.5449 174.182 59.6044C174.11 59.6638 174.051 59.7371 174.008 59.8198C173.964 59.9026 173.938 59.9932 173.93 60.0862Z" fill="#263238"/>
<path d="M173.32 57.6002C173.406 57.6962 173.973 57.3026 174.76 57.3266C175.547 57.3506 176.114 57.7634 176.2 57.6674C176.286 57.5714 176.157 57.4514 175.912 57.2594C175.577 57.0146 175.175 56.8789 174.76 56.8706C174.352 56.8577 173.95 56.9754 173.613 57.2066C173.363 57.365 173.286 57.5378 173.32 57.6002Z" fill="#263238"/>
<path d="M180.633 60.2254C180.626 60.4158 180.692 60.6017 180.82 60.7434C180.947 60.8852 181.125 60.9714 181.315 60.9838C181.408 60.9937 181.502 60.985 181.591 60.9581C181.681 60.9312 181.764 60.8867 181.836 60.8273C181.908 60.7678 181.967 60.6945 182.01 60.6118C182.054 60.529 182.08 60.4385 182.088 60.3454C182.096 60.155 182.029 59.9691 181.902 59.8274C181.774 59.6856 181.596 59.5994 181.406 59.587C181.313 59.5764 181.219 59.5847 181.129 59.6113C181.04 59.6379 180.956 59.6823 180.884 59.7419C180.812 59.8015 180.753 59.8751 180.71 59.9581C180.666 60.0412 180.641 60.1321 180.633 60.2254Z" fill="#263238"/>
<path d="M181.042 57.9454C181.133 58.0414 181.699 57.6478 182.482 57.6718C183.264 57.6958 183.835 58.1086 183.922 58.0126C184.008 57.9166 183.878 57.7966 183.634 57.6094C183.299 57.3623 182.897 57.2248 182.482 57.2158C182.073 57.2029 181.671 57.3206 181.334 57.5518C181.09 57.7294 180.998 57.9022 181.042 57.9454Z" fill="#263238"/>
<path d="M178.028 63.7007C177.617 63.5559 177.19 63.4656 176.756 63.4319C176.554 63.4079 176.367 63.3599 176.338 63.2207C176.325 63.0132 176.377 62.8069 176.487 62.6303C176.688 62.1503 176.904 61.6703 177.125 61.1183C178.013 58.9631 178.661 57.1919 178.565 57.1535C178.469 57.1151 177.687 58.8383 176.799 60.9935C176.588 61.5215 176.381 62.0303 176.189 62.5151C176.054 62.7538 176.008 63.0328 176.06 63.3023C176.088 63.3731 176.131 63.4368 176.187 63.489C176.243 63.5413 176.309 63.5807 176.381 63.6047C176.492 63.6378 176.607 63.6572 176.722 63.6623C177.154 63.7278 177.592 63.7407 178.028 63.7007Z" fill="#263238"/>
<path d="M177.223 72.9934C179.902 73.108 182.56 72.4783 184.903 71.1742C185.244 70.387 183.376 74.0206 177.18 74.4862L177.223 72.9934Z" fill="#FF9A6C"/>
<path d="M178.082 65.5729C178.265 65.3169 178.508 65.1099 178.791 64.9702C179.073 64.8304 179.385 64.7621 179.699 64.7713C179.905 64.7803 180.106 64.8392 180.284 64.9428C180.462 65.0465 180.612 65.1919 180.722 65.3665C180.829 65.5636 180.881 65.7863 180.871 66.0106C180.86 66.2348 180.789 66.452 180.664 66.6385C180.516 66.8301 180.314 66.9728 180.083 67.0481C179.853 67.1234 179.606 67.1279 179.373 67.0609C178.94 66.905 178.55 66.6484 178.235 66.3121C178.135 66.2292 178.053 66.1262 177.995 66.0097C177.967 65.9454 177.956 65.8747 177.963 65.8047C177.971 65.7347 177.997 65.668 178.039 65.6113" fill="#FF9A6C"/>
<path d="M180.326 64.3198C180.197 64.3198 180.173 65.1598 179.424 65.7598C178.675 66.3598 177.773 66.2398 177.758 66.3454C177.744 66.451 177.96 66.5182 178.344 66.5374C178.843 66.5582 179.334 66.4036 179.731 66.1006C180.112 65.8067 180.363 65.3764 180.432 64.9006C180.485 64.5214 180.384 64.3198 180.326 64.3198Z" fill="#263238"/>
<path d="M180.792 54.7202C180.864 54.9362 181.651 54.8594 182.573 54.9938C183.495 55.1282 184.234 55.4066 184.359 55.2194C184.416 55.1282 184.291 54.9218 183.999 54.7058C183.604 54.4436 183.154 54.2791 182.683 54.2258C182.213 54.1547 181.733 54.1958 181.282 54.3458C180.936 54.4322 180.763 54.5954 180.792 54.7202Z" fill="#E0E0E0"/>
<path d="M173.675 54.8785C173.809 55.0609 174.356 54.8785 175.004 54.8785C175.652 54.8785 176.204 55.0321 176.339 54.8497C176.396 54.7585 176.315 54.5809 176.079 54.4033C175.764 54.1852 175.388 54.0711 175.004 54.0769C174.62 54.075 174.245 54.1906 173.929 54.4081C173.694 54.6097 173.617 54.7921 173.675 54.8785Z" fill="#263238"/>
<path d="M177.211 48C178.171 45.6576 180.307 45.1632 182.577 44.9184C184.848 44.6736 188.217 45.6144 190.094 46.8384C191.655 47.789 193.057 48.9778 194.251 50.3616C195.259 51.6624 195.691 53.1456 196.334 54.6432C197.294 56.976 197.246 59.5536 197.381 62.0592C197.555 65.2071 198.058 68.3282 198.883 71.3712C199.181 72.4656 199.483 73.7712 197.923 74.4C197.633 74.5123 197.33 74.5865 197.021 74.6208C194.621 74.9088 192.297 75.6912 189.624 75.8592H187.977C185.889 75.8592 184.819 74.5152 184.891 72.8112C185.107 67.6608 187.617 59.2032 187.896 57.5808C187.91 57.6 188.779 46.4832 177.211 48Z" fill="#263238"/>
<path d="M177.969 47.9518C178.317 48.2425 178.603 48.6008 178.809 49.005C179.016 49.4093 179.138 49.8511 179.169 50.3038C179.294 51.2014 179.241 52.123 179.409 53.011C179.584 53.9034 179.972 54.7404 180.54 55.4514C181.107 56.1624 181.837 56.7264 182.668 57.0958C183.201 57.3214 183.926 57.4174 184.257 56.9422C184.237 57.5751 184.41 58.199 184.753 58.7313C185.096 59.2636 185.592 59.6792 186.177 59.923C187.022 60.2638 187.967 60.2062 188.855 60.403C189.743 60.5998 190.674 61.2094 190.722 62.1214L191.097 55.7902L189.316 50.1934L183.844 46.9438L177.969 47.9518Z" fill="#263238"/>
<path d="M187.685 58.3873C187.501 58.2593 187.326 58.1182 187.162 57.9649C186.751 57.5089 186.454 56.9608 186.298 56.3665C186.08 55.4844 185.953 54.582 185.919 53.6737C185.876 52.5533 185.747 51.4379 185.53 50.3377C185.31 49.2262 184.796 48.1938 184.042 47.3473C183.705 46.9845 183.299 46.6924 182.847 46.4881C182.452 46.3133 182.03 46.2094 181.599 46.1809C180.975 46.1306 180.351 46.2802 179.818 46.6081C179.734 46.6561 179.656 46.7124 179.583 46.7761C179.525 46.8181 179.472 46.8664 179.425 46.9201C179.382 46.9621 179.341 47.007 179.305 47.0545C179.469 46.9011 179.648 46.763 179.837 46.6417C180.369 46.3356 180.983 46.2015 181.594 46.2577C182.512 46.3237 183.371 46.7374 183.994 47.4145C184.724 48.2537 185.221 49.2701 185.434 50.3617C185.648 51.456 185.779 52.5647 185.828 53.6785C185.865 54.5946 186.002 55.5039 186.236 56.3905C186.4 56.9923 186.712 57.5435 187.143 57.9937C187.3 58.1546 187.484 58.2877 187.685 58.3873Z" fill="white"/>
<path d="M192.415 57.6238C192.129 57.5902 191.848 57.5192 191.58 57.4126C190.869 57.0683 190.265 56.5374 189.833 55.8766C189.52 55.4335 189.252 54.9608 189.031 54.4654C188.795 53.889 188.644 53.2808 188.585 52.6606C188.503 52.0078 188.479 51.3118 188.403 50.5918C188.359 50.2366 188.311 49.867 188.23 49.5022C188.143 49.1313 188.021 48.7697 187.865 48.4222C187.25 47.0904 186.157 46.0384 184.802 45.475C183.7 45.0236 182.481 44.9411 181.327 45.2398C180.553 45.4309 179.826 45.7824 179.196 46.2718C178.966 46.449 178.754 46.6483 178.562 46.867C178.579 46.857 178.594 46.844 178.606 46.8286L178.731 46.7182C178.783 46.6654 178.85 46.603 178.932 46.5358C179.014 46.4686 179.11 46.3822 179.225 46.3054C179.857 45.834 180.579 45.4975 181.346 45.3166C182.483 45.0351 183.68 45.1225 184.764 45.5662C186.085 46.123 187.154 47.1488 187.764 48.4462C187.915 48.7882 188.034 49.1433 188.119 49.507C188.195 49.8638 188.253 50.2243 188.292 50.587C188.369 51.2974 188.398 51.9934 188.479 52.6558C188.548 53.2842 188.71 53.899 188.959 54.4798C189.185 54.9854 189.46 55.4677 189.78 55.9198C190.227 56.5849 190.848 57.1145 191.575 57.451C191.776 57.5272 191.986 57.5787 192.199 57.6046H192.367L192.415 57.6238Z" fill="#455A64"/>
<path d="M184.258 56.9426C184.258 56.9426 184.258 56.9426 184.258 56.9954C184.258 57.0482 184.258 57.0866 184.258 57.149C184.258 57.2114 184.258 57.3074 184.291 57.4082C184.325 57.509 184.335 57.6242 184.363 57.7538C184.441 58.0698 184.562 58.3735 184.723 58.6562C184.943 59.032 185.237 59.3588 185.587 59.6162C186.558 60.2512 187.716 60.5373 188.871 60.4274C189.558 60.3938 190.24 60.2876 190.906 60.1106C191.632 59.9286 192.33 59.6476 192.979 59.2754L193.109 59.1986H192.96C192.126 59.0808 191.316 58.8313 190.56 58.4594H190.517L190.483 58.5602C192.179 58.8336 193.918 58.5222 195.413 57.677L195.514 57.6194L195.403 57.5858C194.349 57.2685 193.359 56.7663 192.48 56.1026C191.794 55.5796 191.265 54.8769 190.954 54.0722C190.773 53.541 190.689 52.9818 190.704 52.421C190.704 52.2338 190.728 52.085 190.738 51.9746V51.8402V51.8018C190.739 51.8145 190.739 51.8274 190.738 51.8402V51.9554C190.738 52.061 190.709 52.2098 190.685 52.4018C190.657 52.9692 190.734 53.537 190.911 54.077C191.23 54.9051 191.775 55.627 192.485 56.1602C193.371 56.8335 194.369 57.3453 195.432 57.6722V57.581C193.955 58.4094 192.242 58.714 190.57 58.445L190.2 58.3826L190.536 58.5458H190.579C191.335 58.9197 192.145 59.1724 192.979 59.2946V59.1938C192.336 59.561 191.647 59.8403 190.93 60.0242C190.273 60.2015 189.598 60.3077 188.919 60.341C187.784 60.4557 186.644 60.1834 185.683 59.5682C185.333 59.3113 185.041 58.9844 184.824 58.6082C184.664 58.3286 184.538 58.0303 184.45 57.7202C184.421 57.5906 184.392 57.4802 184.373 57.3794C184.354 57.2786 184.344 57.1922 184.33 57.125C184.315 57.0578 184.33 57.0098 184.306 56.9714C184.291 56.9604 184.275 56.9507 184.258 56.9426Z" fill="#455A64"/>
<path d="M195.962 72.5231C195.991 72.5231 195.646 69.4703 195.19 65.7167C194.734 61.9631 194.335 58.9199 194.306 58.9199C194.278 58.9199 194.623 61.9727 195.079 65.7263C195.535 69.4799 195.929 72.5231 195.962 72.5231Z" fill="#455A64"/>
<path d="M184.4 115.599C183.948 115.505 183.482 115.507 183.031 115.604C182.58 115.7 182.154 115.89 181.78 116.16C180.589 117.034 178.549 118.195 176.5 117.792C173.317 117.163 171.589 114.178 172.3 110.592C173.01 107.007 175.732 104.866 178.919 105.495C180.978 105.898 182.428 107.741 183.2 109.003C183.445 109.393 183.768 109.729 184.147 109.989C184.527 110.249 184.956 110.428 185.408 110.515C185.845 110.601 186.293 110.6 186.729 110.513C187.165 110.425 187.579 110.252 187.949 110.004C188.318 109.757 188.634 109.438 188.88 109.068C189.126 108.698 189.297 108.283 189.383 107.847L192.916 86.6017L159.642 80.7889L136.9 76.8481L133.348 97.0081C132.988 98.8417 134.528 100.469 136.362 100.848C136.813 100.941 137.279 100.938 137.73 100.841C138.18 100.743 138.605 100.553 138.978 100.282C140.168 99.4081 142.213 98.2465 144.258 98.6497C147.445 99.2785 149.173 102.264 148.463 105.874C147.752 109.483 145.026 111.6 141.839 110.971C139.784 110.568 138.33 108.725 137.557 107.463C137.313 107.072 136.991 106.736 136.611 106.475C136.231 106.214 135.802 106.034 135.349 105.946C134.913 105.857 134.464 105.856 134.027 105.943C133.591 106.03 133.176 106.202 132.806 106.45C132.437 106.699 132.121 107.018 131.876 107.389C131.631 107.761 131.462 108.177 131.38 108.615L127.117 132.355L160.583 138.245L180.215 141.701L182.615 142.128L187.055 119.602C187.148 119.164 187.154 118.712 187.07 118.273C186.987 117.833 186.817 117.415 186.569 117.042C186.322 116.669 186.003 116.349 185.631 116.101C185.258 115.854 184.84 115.683 184.4 115.599Z" fill="#455A64"/>
<path d="M151.256 102.106C151.26 101.986 151.24 101.866 151.196 101.754C151.152 101.643 151.085 101.541 151 101.457C150.915 101.372 150.813 101.307 150.7 101.264C150.588 101.221 150.468 101.202 150.348 101.208C150.07 101.208 149.71 101.242 149.268 101.285C148.121 101.4 144.728 103.071 144.636 103.743C144.575 103.983 144.577 104.235 144.641 104.475C144.706 104.715 144.832 104.934 145.006 105.111C145.006 105.111 144.344 105.989 144.584 106.719C144.795 107.338 145.793 107.554 145.793 107.554C145.793 107.554 145.054 108.413 145.793 109.027C146.057 109.239 146.59 109.647 146.71 109.786C146.758 109.97 146.829 110.147 146.921 110.314C147.088 110.548 147.302 110.743 147.551 110.887C147.799 111.031 148.076 111.121 148.361 111.149H148.553C148.921 111.185 149.289 111.079 149.58 110.851C150.905 109.839 154.659 106.901 154.731 106.085C154.731 106.085 155.446 105.528 155.168 104.947C154.889 104.367 153.819 104.616 153.819 104.616C153.964 104.499 154.069 104.339 154.117 104.159C154.166 103.978 154.155 103.787 154.088 103.613C153.843 102.999 151.947 103.051 151.088 103.167C150.401 103.253 148.491 103.565 148.491 103.565C148.491 103.565 151.035 102.691 151.184 102.259C151.214 102.212 151.238 102.16 151.256 102.106Z" fill="#FFBF9D"/>
<path d="M154.767 106.104C154.687 106.164 154.602 106.217 154.513 106.262C154.345 106.354 154.1 106.483 153.788 106.637C153.173 106.944 152.3 107.328 151.321 107.707C150.341 108.086 149.434 108.389 148.777 108.6C148.45 108.706 148.186 108.782 147.999 108.84C147.905 108.871 147.809 108.895 147.711 108.912C147.801 108.868 147.894 108.832 147.989 108.802L148.757 108.538C149.41 108.312 150.303 107.995 151.287 107.621C152.271 107.246 153.135 106.867 153.759 106.579L154.498 106.229C154.585 106.181 154.675 106.14 154.767 106.104Z" fill="#FF9A6C"/>
<path d="M153.973 104.611C153.883 104.643 153.79 104.663 153.695 104.674C153.517 104.707 153.258 104.755 152.937 104.827C152.298 104.967 151.429 105.207 150.479 105.509C149.999 105.658 149.548 105.792 149.14 105.931C148.732 106.071 148.372 106.224 148.074 106.349C147.777 106.474 147.537 106.594 147.369 106.671C147.286 106.717 147.199 106.756 147.109 106.786L147.172 106.743L147.354 106.637C147.513 106.551 147.748 106.426 148.045 106.291C148.343 106.157 148.703 105.999 149.111 105.85C149.519 105.701 149.975 105.567 150.45 105.418C151.264 105.156 152.091 104.936 152.927 104.76C153.244 104.698 153.508 104.659 153.69 104.635L153.973 104.611Z" fill="#FF9A6C"/>
<path d="M148.531 103.584C148.404 103.67 148.267 103.743 148.123 103.8C147.864 103.92 147.499 104.074 147.096 104.242C146.693 104.41 146.338 104.568 146.079 104.688C145.942 104.759 145.801 104.822 145.656 104.875C145.777 104.777 145.909 104.695 146.05 104.63C146.378 104.451 146.716 104.29 147.063 104.15C147.466 103.982 147.831 103.838 148.095 103.733C148.236 103.671 148.382 103.621 148.531 103.584Z" fill="#FF9A6C"/>
<path d="M153.572 107.592C153.521 107.664 153.463 107.732 153.399 107.793C153.279 107.913 153.101 108.086 152.876 108.273C152.424 108.691 151.772 109.233 151.061 109.824C150.888 109.973 150.72 110.131 150.543 110.265C150.378 110.4 150.205 110.523 150.024 110.635C149.72 110.83 149.386 110.976 149.036 111.067C148.8 111.131 148.554 111.152 148.311 111.129C148.245 111.126 148.179 111.118 148.114 111.105H148.047C148.135 111.1 148.223 111.1 148.311 111.105C148.55 111.111 148.788 111.079 149.016 111.009C149.356 110.912 149.68 110.765 149.976 110.573C150.153 110.459 150.323 110.336 150.485 110.203C150.658 110.069 150.821 109.915 150.999 109.761C151.709 109.157 152.372 108.633 152.832 108.235L153.37 107.755C153.433 107.696 153.501 107.641 153.572 107.592Z" fill="#FF9A6C"/>
<path d="M191.211 115.517C191.211 115.517 190.02 114.24 189.017 114.034C188.014 113.827 186.617 114.005 186.382 113.832C186.147 113.659 185.619 112.978 185.143 113.4C184.668 113.822 183.9 115.507 185.931 116.333L187.371 116.568C187.18 117.247 186.891 117.894 186.511 118.488C186.07 119.002 180.132 124.406 180.132 124.406C180.132 124.406 179.417 124.925 179.623 125.592C179.83 126.259 181.207 126.12 181.207 126.12C181.437 126.398 181.734 126.614 182.07 126.747C182.405 126.879 182.769 126.925 183.127 126.878C183.682 126.781 184.223 126.62 184.74 126.398C185.039 126.714 185.433 126.923 185.863 126.994C186.292 127.064 186.732 126.991 187.116 126.787C188.499 126.062 194.393 120.802 194.393 120.802L192.91 115.574L191.211 115.517Z" fill="#FFBF9D"/>
<path d="M192.588 114.49L191.109 115.522C192.943 117.37 194.335 119.011 193.956 121.229L196.807 120.072C196.807 120.072 197.052 115.637 192.588 114.49Z" fill="#FFBF9D"/>
<path d="M185.685 123.177C185.127 123.88 184.445 124.475 183.674 124.934C182.949 125.459 182.136 125.851 181.274 126.091C181.245 126.019 182.325 125.529 183.54 124.723C184.754 123.917 185.632 123.125 185.685 123.177Z" fill="#FF9A6C"/>
<path d="M187.759 124.32C187.38 124.911 186.888 125.42 186.312 125.82C185.735 126.22 185.085 126.501 184.399 126.648C184.375 126.576 185.239 126.259 186.161 125.611C187.082 124.963 187.687 124.282 187.759 124.32Z" fill="#FF9A6C"/>
<path d="M103.039 88.2143L104.844 87.1343L107.22 93.5375L105.295 94.7279L103.039 88.2143Z" fill="#F5F5F5"/>
<path d="M71.4286 46.9151C71.3258 44.4335 70.2932 42.0813 68.536 40.3259C66.7788 38.5704 64.4256 37.5402 61.9438 37.4399H61.435C55.8958 37.5311 52.8862 42.2879 53.131 47.8175L53.8318 70.0895L62.5822 73.4495L65.9662 70.3391C65.9662 68.7791 65.9662 65.5391 65.9998 65.5391C66.0334 65.5391 71.3422 64.9343 71.6254 59.6303C71.7646 57.0143 71.6158 51.7103 71.4286 46.9151Z" fill="#FFBF9D"/>
<path d="M66.0023 65.4862C63.5493 65.3812 61.1783 64.5731 59.1719 63.1582C59.1719 63.1582 60.6695 67.219 65.9879 66.9598L66.0023 65.4862Z" fill="#FF9A6C"/>
<path d="M69.5979 51.4946C69.5929 51.6928 69.51 51.881 69.3671 52.0185C69.2243 52.1559 69.033 52.2316 68.8347 52.229C68.738 52.2335 68.6414 52.2184 68.5507 52.1845C68.46 52.1506 68.3772 52.0986 68.3072 52.0318C68.2371 51.9649 68.1814 51.8845 68.1434 51.7955C68.1054 51.7064 68.0858 51.6106 68.0859 51.5138C68.091 51.3164 68.1732 51.1289 68.315 50.9916C68.4569 50.8543 68.6469 50.7781 68.8443 50.7794C68.9411 50.7755 69.0377 50.7911 69.1283 50.8252C69.219 50.8593 69.3019 50.9112 69.3721 50.9779C69.4424 51.0445 69.4986 51.1246 69.5373 51.2134C69.5761 51.3021 69.5967 51.3977 69.5979 51.4946Z" fill="#263238"/>
<path d="M70.2002 49.2143C70.0994 49.3103 69.5426 48.8591 68.7266 48.8303C67.9106 48.8015 67.2866 49.1807 67.2146 49.0751C67.1426 48.9695 67.277 48.8543 67.5458 48.6767C67.9074 48.4462 68.3318 48.3338 68.7602 48.3551C69.185 48.3712 69.5937 48.5226 69.9266 48.7871C70.1714 48.9887 70.2482 49.1711 70.2002 49.2143Z" fill="#263238"/>
<path d="M62.5012 51.4946C62.4949 51.6924 62.4116 51.8799 62.269 52.0171C62.1264 52.1543 61.9359 52.2303 61.738 52.229C61.6412 52.2328 61.5446 52.2173 61.454 52.1832C61.3633 52.1491 61.2804 52.0972 61.2102 52.0305C61.1399 51.9638 61.0838 51.8837 61.045 51.795C61.0062 51.7062 60.9856 51.6106 60.9844 51.5138C60.9918 51.3164 61.0755 51.1296 61.2178 50.9926C61.3602 50.8557 61.5501 50.7792 61.7476 50.7794C61.8443 50.7755 61.9409 50.7911 62.0316 50.8252C62.1222 50.8593 62.2051 50.9112 62.2754 50.9779C62.3456 51.0445 62.4018 51.1246 62.4406 51.2134C62.4794 51.3021 62.5 51.3977 62.5012 51.4946Z" fill="#263238"/>
<path d="M62.1941 49.0751C62.0981 49.1663 61.5413 48.7199 60.7253 48.6863C59.9093 48.6527 59.2853 49.0415 59.2085 48.9359C59.1317 48.8303 59.2709 48.7151 59.5397 48.5375C59.9031 48.307 60.329 48.1946 60.7589 48.2159C61.1825 48.2346 61.5899 48.3838 61.9253 48.6431C62.1653 48.8495 62.2421 49.0319 62.1941 49.0751Z" fill="#263238"/>
<path d="M64.8678 55.4639C65.3028 55.3448 65.7513 55.2819 66.2022 55.2767C66.4134 55.2767 66.6102 55.2335 66.6534 55.0895C66.678 54.8762 66.6379 54.6605 66.5382 54.4703C66.3654 53.9567 66.1782 53.4191 65.9862 52.8575C65.223 50.5631 64.6806 48.6815 64.7766 48.6479C64.8726 48.6143 65.559 50.4527 66.3222 52.7471C66.5046 53.3135 66.6822 53.8511 66.8454 54.3695C66.9688 54.625 66.9961 54.9164 66.9222 55.1903C66.8884 55.2624 66.839 55.326 66.7776 55.3767C66.7161 55.4273 66.6442 55.4637 66.567 55.4831C66.4502 55.507 66.3311 55.5183 66.2118 55.5167C65.7633 55.5533 65.3121 55.5356 64.8678 55.4639Z" fill="#263238"/>
<path d="M62.5661 46.5311C62.4461 46.7375 61.6637 46.4831 60.7037 46.4255C59.7437 46.3679 58.9277 46.4783 58.8413 46.2623C58.8029 46.1567 58.9709 45.9743 59.3213 45.8207C59.7786 45.6367 60.272 45.5597 60.7636 45.5954C61.2553 45.6312 61.7322 45.7789 62.1581 46.0271C62.4797 46.2335 62.6189 46.4351 62.5661 46.5311Z" fill="#263238"/>
<path d="M70.3407 46.8189C70.1679 46.9965 69.5103 46.7901 68.7087 46.7565C67.9071 46.7229 67.2303 46.8429 67.0815 46.6461C67.0143 46.5501 67.1247 46.3677 67.4271 46.1997C67.8407 45.9988 68.2986 45.9062 68.7578 45.9306C69.2171 45.9549 69.6626 46.0954 70.0527 46.3389C70.3311 46.5597 70.4175 46.7277 70.3407 46.8189Z" fill="#263238"/>
<path d="M53.4043 51.7248C53.3131 51.6816 49.7995 50.496 49.7659 54.1248C49.7323 57.7536 53.3851 57.0432 53.3947 56.9376C53.4043 56.832 53.4043 51.7248 53.4043 51.7248Z" fill="#FFBF9D"/>
<path d="M52.3211 55.5554C52.3211 55.5554 52.2587 55.5986 52.1531 55.6466C52.0772 55.6788 51.9956 55.6954 51.9131 55.6954C51.8307 55.6954 51.7491 55.6788 51.6731 55.6466C51.4395 55.4963 51.2503 55.2861 51.1254 55.0379C51.0005 54.7897 50.9443 54.5126 50.9627 54.2354C50.9558 53.9248 51.0181 53.6165 51.1451 53.333C51.1813 53.2206 51.2437 53.1185 51.3272 53.035C51.4107 52.9516 51.5128 52.8892 51.6251 52.853C51.6978 52.8359 51.7741 52.8442 51.8413 52.8765C51.9086 52.9088 51.9627 52.9632 51.9947 53.0306C52.0427 53.1362 51.9947 53.2082 52.0379 53.213C52.0811 53.2178 52.1147 53.1506 52.0907 53.0018C52.0705 52.9108 52.0197 52.8295 51.9467 52.7714C51.8483 52.6959 51.7244 52.6615 51.6011 52.6754C51.451 52.7037 51.3107 52.7702 51.1939 52.8686C51.077 52.967 50.9875 53.0939 50.9339 53.237C50.7757 53.549 50.6966 53.8952 50.7035 54.245C50.7035 54.9794 51.0875 55.685 51.6107 55.8242C51.7082 55.8533 51.811 55.8602 51.9115 55.8444C52.012 55.8286 52.1077 55.7906 52.1915 55.733C52.2923 55.6418 52.3211 55.565 52.3211 55.5554Z" fill="#FF9A6C"/>
<path d="M62.3021 55.9679C62.4269 55.9679 62.4317 56.7935 63.1517 57.4079C63.8717 58.0223 64.7549 57.8879 64.7597 58.0175C64.7645 58.1471 64.5629 58.1807 64.1885 58.1903C63.6978 58.1947 63.2214 58.0246 62.8445 57.7103C62.4796 57.4155 62.2437 56.9903 62.1869 56.5247C62.1533 56.1599 62.2445 55.9631 62.3021 55.9679Z" fill="#263238"/>
<path d="M78.7627 42.1344C78.6982 41.9282 78.5551 41.7557 78.3643 41.6544C77.9425 41.4554 77.4752 41.3725 77.0107 41.4144C75.8527 41.3815 74.7178 41.0826 73.6939 40.5408C74.0549 40.3693 74.3869 40.1426 74.6779 39.8688C74.9913 39.5879 75.2209 39.2258 75.3412 38.8226C75.4615 38.4193 75.4678 37.9906 75.3595 37.584C75.345 37.5074 75.3121 37.4354 75.2636 37.3744C75.2151 37.3133 75.1525 37.265 75.0811 37.2336C74.8459 37.1568 74.6347 37.3872 74.4667 37.5696C74.2538 37.8515 73.969 38.071 73.6423 38.2052C73.3155 38.3395 72.9587 38.3835 72.6091 38.3328C72.1252 38.2955 71.6559 38.1495 71.2363 37.9056C71.2179 37.8904 71.2017 37.8726 71.1883 37.8528L70.6411 37.2864C69.2875 35.9136 68.1211 34.9632 66.9163 34.4592C65.1499 33.7248 62.1883 33.4032 60.3307 33.8688C58.4731 34.3344 56.7979 35.7888 56.5195 37.7088C55.4923 36.816 53.9323 36.8064 52.6795 37.3008H52.6459C51.2347 37.7808 50.4187 39.264 49.9867 40.6944C49.9867 40.7712 49.9435 40.8528 49.9195 40.9296C49.4355 41.6844 48.777 42.3117 47.9995 42.7584C47.8651 42.8352 47.7067 42.9312 47.6875 43.0896C47.6943 43.1667 47.7197 43.2411 47.7615 43.3063C47.8033 43.3714 47.8603 43.4256 47.9275 43.464C48.2657 43.7045 48.6523 43.8683 49.0603 43.944C48.9276 44.2769 48.767 44.598 48.5803 44.904C48.4219 45.1728 48.2299 45.4944 48.3643 45.7728C48.4207 45.8783 48.5078 45.9641 48.6141 46.019C48.7204 46.0738 48.8409 46.0951 48.9595 46.08C49.1963 46.0305 49.4202 45.9325 49.6171 45.792L49.1371 46.9152C49.6473 47.0048 50.1714 46.9752 50.6683 46.8288C50.9515 48.1728 51.1483 50.6688 51.4843 51.576C52.4443 51.6048 52.6843 51.504 53.1691 51.6672C53.7979 51.8832 53.5435 52.9968 54.3643 52.6896C54.7819 52.5312 55.4443 50.9616 55.5883 50.5344C56.5477 47.7153 56.8915 44.7232 56.5963 41.76C57.1903 41.1533 57.8939 40.6647 58.6699 40.32L58.6075 40.3776C60.1003 39.8976 61.7851 39.3888 63.1867 40.0992C64.2763 40.656 64.9051 41.7984 65.7115 42.7104C66.3913 43.545 67.2403 44.2259 68.2026 44.7083C69.1648 45.1907 70.2185 45.4635 71.2939 45.5088C71.4859 47.112 71.5147 49.7376 71.5771 51.2352L72.8923 48.2544C72.9979 48.0768 73.0843 47.8992 73.1707 47.7264L73.1995 47.6736C73.3275 47.3849 73.47 47.1029 73.6267 46.8288C73.8028 46.9491 74.014 47.0074 74.2269 46.9944C74.4398 46.9814 74.6423 46.8978 74.8024 46.7569C74.9625 46.6161 75.0712 46.4259 75.1112 46.2164C75.1513 46.0069 75.1204 45.79 75.0235 45.6C74.9003 45.418 74.7497 45.2561 74.5771 45.12C74.7581 45.3005 74.9829 45.4308 75.2295 45.4981C75.4761 45.5654 75.7359 45.5674 75.9835 45.504C76.2255 45.4287 76.4363 45.2763 76.5836 45.07C76.7309 44.8637 76.8068 44.615 76.7995 44.3616C76.7826 44.1891 76.7204 44.0241 76.6193 43.8833C76.5181 43.7426 76.3816 43.631 76.2235 43.56C76.8884 43.6225 77.5568 43.4855 78.1435 43.1664C78.5131 42.9552 78.8875 42.6096 78.7627 42.1344Z" fill="#263238"/>
<path d="M58.182 38.3374C57.9903 38.4827 57.8105 38.6432 57.6444 38.8174C57.2188 39.3209 56.931 39.9262 56.8092 40.5742C56.7109 41.0172 56.6594 41.4693 56.6556 41.923C56.6556 42.403 56.6845 42.9406 56.7133 43.4926C56.7495 44.0728 56.7495 44.6548 56.7133 45.235C56.6937 45.5451 56.6503 45.8532 56.5836 46.1566C56.5323 46.4802 56.4003 46.7856 56.1996 47.0446C56.106 47.1472 55.9873 47.2237 55.8552 47.2666C55.7231 47.3095 55.5821 47.3174 55.446 47.2894C55.1862 47.2352 54.9506 47.0989 54.7741 46.9006C54.4982 46.4975 54.3328 46.0291 54.2941 45.5422H54.4092C54.244 45.9408 54.0208 46.3128 53.7469 46.6462C53.4846 46.9585 53.111 47.1565 52.7052 47.1982C52.5171 47.2141 52.3282 47.1793 52.158 47.0974C52.0039 47.0113 51.8773 46.8831 51.7933 46.7278C51.7124 46.5812 51.6742 46.415 51.6828 46.2478C51.6921 46.0937 51.755 45.9477 51.8605 45.835L51.9133 45.8878C51.5934 46.2478 51.2008 46.5358 50.7613 46.7326C50.6125 46.7998 50.4876 46.8382 50.406 46.867C50.3653 46.8798 50.3235 46.8895 50.2812 46.8958L50.4013 46.843C50.4781 46.8142 50.5981 46.7662 50.7469 46.6942C51.1713 46.4865 51.55 46.196 51.8605 45.8398L51.9133 45.8878C51.8236 45.9985 51.7712 46.1346 51.7635 46.2768C51.7557 46.419 51.793 46.56 51.87 46.6798C51.9473 46.8178 52.0622 46.9309 52.2013 47.0062C52.3511 47.0758 52.5165 47.1056 52.6813 47.0926C53.056 47.0463 53.3992 46.8593 53.6413 46.5694C53.9048 46.241 54.1183 45.8754 54.2749 45.4846L54.3564 45.3166L54.39 45.499C54.432 45.9675 54.5976 46.4164 54.87 46.7998C55.0272 46.9772 55.2378 47.0985 55.47 47.1454C55.5859 47.1703 55.7064 47.1644 55.8192 47.1282C55.9321 47.092 56.0335 47.0267 56.1133 46.939C56.3005 46.697 56.4228 46.4111 56.4685 46.1086C56.5328 45.8128 56.5761 45.5129 56.598 45.211C56.6343 44.634 56.6343 44.0552 56.598 43.4782C56.5692 42.9262 56.5405 42.3982 56.5549 41.9038C56.5631 41.4432 56.6194 40.9847 56.7228 40.5358C56.855 39.8852 57.1564 39.2809 57.5964 38.7838C57.7637 38.6015 57.9619 38.4503 58.182 38.3374Z" fill="#455A64"/>
<path d="M74.5798 43.68L74.5366 43.7136L74.4022 43.8095C74.3298 43.8618 74.2544 43.9098 74.1766 43.9536C74.0708 44.0137 73.9618 44.0682 73.8502 44.1168C73.1343 44.4336 72.3504 44.5657 71.5702 44.5008C70.4089 44.4132 69.2981 43.9896 68.3734 43.2815C67.2568 42.4078 66.3307 41.315 65.6518 40.0704C65.2726 39.4224 64.9606 38.76 64.6246 38.1504C64.3129 37.554 63.9186 37.0046 63.4534 36.5184C63.0351 36.0754 62.5117 35.7452 61.9318 35.5584C61.6698 35.4833 61.3978 35.4493 61.1254 35.4576C60.8725 35.469 60.6223 35.5142 60.3814 35.592C59.9675 35.73 59.5867 35.9522 59.263 36.2448C59.0206 36.4676 58.8163 36.7287 58.6582 37.0176C58.529 37.2695 58.4338 37.5374 58.375 37.8143C58.375 37.8143 58.375 37.8144 58.375 37.7568C58.375 37.6992 58.375 37.6607 58.399 37.5935C58.4453 37.3859 58.5162 37.1844 58.6102 36.9936C58.7652 36.6956 58.9697 36.4261 59.215 36.1968C59.542 35.8932 59.9298 35.6625 60.3526 35.52C60.6012 35.4385 60.8594 35.3901 61.1206 35.3759C61.4042 35.3652 61.6876 35.3993 61.9606 35.4768C62.5572 35.6605 63.0984 35.9905 63.535 36.4368C64.0096 36.9295 64.412 37.4871 64.7302 38.0928C65.0758 38.7072 65.383 39.3696 65.7574 40.0128C66.4313 41.2428 67.3434 42.3263 68.4406 43.2C69.3467 43.8995 70.4346 44.3243 71.575 44.424C72.3435 44.4933 73.1173 44.3764 73.831 44.0831C74.0878 43.9626 74.3378 43.828 74.5798 43.68Z" fill="#455A64"/>
<path d="M75.0931 41.3663C75.0931 41.3663 75.0307 41.4191 74.9011 41.4959C74.72 41.6048 74.5306 41.6995 74.3347 41.7791C74.0439 41.8981 73.7436 41.9928 73.4371 42.0623C73.0593 42.1408 72.6756 42.1873 72.2899 42.2015C71.904 42.2045 71.5186 42.1739 71.1379 42.1103C70.829 42.053 70.5255 41.9695 70.2307 41.8607C70.0326 41.7904 69.8401 41.7054 69.6547 41.6063C69.5819 41.5745 69.514 41.5325 69.4531 41.4815C69.4531 41.4815 69.7555 41.6159 70.2595 41.7791C70.5545 41.8734 70.8562 41.9456 71.1619 41.9951C71.535 42.0532 71.9123 42.0805 72.2899 42.0767C72.6673 42.0653 73.0431 42.0219 73.4131 41.9471C73.7148 41.8855 74.0116 41.8021 74.3011 41.6975C74.7955 41.5103 75.0835 41.3471 75.0931 41.3663Z" fill="#455A64"/>
<path d="M69.3133 207.84L69.3902 218.136C69.3902 218.136 79.8782 221.496 80.0798 223.416L60.1214 224.28L59.3438 208.243L69.3133 207.84Z" fill="#263238"/>
<path d="M63.1776 217.55C62.9877 217.618 62.8294 217.753 62.7329 217.931C62.6364 218.108 62.6085 218.314 62.6544 218.51C62.7145 218.706 62.8483 218.87 63.0275 218.969C63.2067 219.067 63.4171 219.092 63.6144 219.038C63.815 218.967 63.9823 218.824 64.0842 218.638C64.186 218.451 64.2153 218.233 64.1664 218.026C64.0845 217.831 63.9298 217.676 63.7353 217.593C63.5408 217.511 63.3217 217.507 63.1248 217.584" fill="#E0E0E0"/>
<path d="M60.1172 224.294V222.677L79.2596 222.451C79.2596 222.451 80.162 222.802 80.09 223.411L60.1172 224.294Z" fill="#455A64"/>
<path d="M69.7014 218.035C69.7014 218.131 69.2214 218.198 68.7414 218.515C68.2614 218.832 68.0406 219.269 67.9494 219.235C67.8582 219.202 67.9782 218.63 68.5494 218.237C69.1206 217.843 69.7206 217.944 69.7014 218.035Z" fill="white"/>
<path d="M71.8373 218.808C71.8661 218.904 71.4485 219.087 71.1365 219.514C70.8245 219.941 70.7477 220.378 70.6565 220.378C70.5653 220.378 70.4741 219.831 70.8773 219.307C71.2805 218.784 71.8325 218.717 71.8373 218.808Z" fill="white"/>
<path d="M73.1286 221.28C73.0422 221.304 72.8886 220.824 73.1286 220.281C73.3686 219.739 73.8006 219.504 73.8486 219.581C73.8966 219.657 73.623 219.96 73.4406 220.411C73.2582 220.862 73.2294 221.246 73.1286 221.28Z" fill="white"/>
<path d="M69.4227 215.688C69.3891 215.779 68.9427 215.664 68.3859 215.726C67.8291 215.789 67.4259 215.981 67.3587 215.899C67.2915 215.817 67.7043 215.453 68.3523 215.385C69.0003 215.318 69.4707 215.611 69.4227 215.688Z" fill="white"/>
<path d="M46.1736 210.043L45.0888 222.456L47.0664 232.536C47.1 232.708 47.098 232.884 47.0603 233.055C47.0227 233.226 46.9503 233.388 46.8477 233.529C46.7451 233.671 46.6144 233.79 46.4637 233.88C46.3131 233.969 46.1457 234.026 45.972 234.048C45.7699 234.074 45.5646 234.05 45.3733 233.98C45.182 233.91 45.0104 233.795 44.8728 233.645C43.0968 231.725 36.5832 224.525 36.7128 223.627C36.8616 222.581 36.9816 210.465 36.9816 210.465L46.1736 210.043Z" fill="#263238"/>
<path d="M45.9708 234.029L36.7644 222.773L36.7308 223.296C36.7006 223.751 36.8333 224.202 37.1052 224.568C37.8348 225.528 39.9084 228.207 44.838 233.626C44.9787 233.782 45.1558 233.9 45.3535 233.97C45.5512 234.041 45.7633 234.061 45.9708 234.029Z" fill="#455A64"/>
<g opacity="0.6">
<path d="M39.5669 218.923C39.7128 219.046 39.8081 219.218 39.8347 219.407C39.8613 219.595 39.8172 219.787 39.7109 219.945C39.5948 220.096 39.4253 220.195 39.2376 220.224C39.05 220.252 38.8585 220.208 38.7029 220.099C38.5493 219.969 38.4492 219.787 38.4217 219.588C38.3942 219.388 38.4414 219.186 38.5541 219.019C38.6909 218.874 38.879 218.788 39.0781 218.78C39.2772 218.772 39.4716 218.842 39.6197 218.976" fill="white"/>
</g>
<path d="M43.4805 228.413C43.8068 228.043 44.2012 227.74 44.6421 227.52C45.1059 227.367 45.5948 227.305 46.0821 227.337C46.0821 227.304 45.9429 227.198 45.6549 227.141C45.2748 227.071 44.8826 227.115 44.5269 227.265C44.1654 227.416 43.8576 227.672 43.6437 228C43.4805 228.221 43.4469 228.403 43.4805 228.413Z" fill="white"/>
<path d="M44.2565 230.136C44.626 229.954 45.0059 229.794 45.3941 229.656C45.8004 229.608 46.209 229.583 46.6181 229.579C46.4344 229.447 46.2216 229.361 45.9977 229.329C45.7739 229.296 45.5454 229.318 45.3317 229.392C44.5829 229.574 44.1941 230.098 44.2565 230.136Z" fill="white"/>
<path d="M41.9688 226.176C42.5181 225.855 43.0909 225.575 43.6823 225.341C44.2977 225.19 44.9234 225.086 45.5544 225.029C44.9109 224.86 44.2328 224.879 43.5994 225.082C42.9661 225.285 42.4037 225.664 41.9783 226.176H41.9688Z" fill="white"/>
<path d="M41.9766 222.374C42.0054 222.451 42.711 222.211 43.6038 222.235C44.4966 222.259 45.1926 222.518 45.2262 222.446C44.7617 222.098 44.1878 221.928 43.6086 221.966C43.0337 221.908 42.4565 222.052 41.9766 222.374Z" fill="white"/>
<path d="M42.2047 218.727C42.756 218.583 43.3248 218.518 43.8943 218.535C44.4562 218.632 45.0021 218.807 45.5167 219.053C45.5167 219.029 45.4111 218.861 45.1375 218.679C44.771 218.446 44.355 218.303 43.9231 218.261C43.4914 218.216 43.0551 218.275 42.6511 218.434C42.3439 218.559 42.1855 218.698 42.2047 218.727Z" fill="white"/>
<path d="M43.9228 217.838C43.9718 217.683 43.9882 217.52 43.9708 217.358C43.9563 216.923 43.8552 216.496 43.6733 216.101C43.5672 215.8 43.3646 215.544 43.0972 215.371C43.0036 215.322 42.8971 215.303 42.7923 215.317C42.6875 215.331 42.5895 215.376 42.5116 215.448C42.3715 215.597 42.2897 215.791 42.2812 215.995C42.2819 216.414 42.429 216.821 42.6972 217.143C42.9654 217.466 43.3378 217.684 43.75 217.761C44.1591 217.831 44.5795 217.777 44.9575 217.606C45.3355 217.435 45.6538 217.155 45.8716 216.801C45.9272 216.713 45.9629 216.614 45.9761 216.51C45.9894 216.406 45.9799 216.301 45.9484 216.201C45.905 216.105 45.8327 216.025 45.7415 215.971C45.6504 215.918 45.5449 215.895 45.4397 215.904C45.1287 215.95 44.8356 216.077 44.59 216.273C44.2347 216.52 43.9272 216.829 43.6828 217.185C43.5818 217.308 43.5066 217.45 43.462 217.603C43.8172 217.157 44.2342 216.764 44.7005 216.437C44.9202 216.276 45.1754 216.171 45.4444 216.129C45.5024 216.122 45.5611 216.134 45.6115 216.164C45.6619 216.193 45.701 216.238 45.7228 216.293C45.7391 216.359 45.7412 216.428 45.7287 216.495C45.7163 216.562 45.6898 216.625 45.6508 216.681C45.4533 216.98 45.174 217.215 44.8463 217.359C44.5185 217.503 44.1563 217.549 43.8028 217.493C43.4548 217.427 43.1394 217.244 42.9084 216.976C42.6773 216.707 42.5442 216.368 42.5308 216.014C42.5342 215.87 42.5867 215.731 42.6797 215.621C42.7216 215.58 42.7755 215.554 42.8334 215.546C42.8912 215.538 42.95 215.549 43.0012 215.577C43.2193 215.727 43.3867 215.94 43.4812 216.187C43.7249 216.707 43.8744 217.266 43.9228 217.838Z" fill="white"/>
<path d="M79.8671 122.501C80.8268 126.766 81.1503 131.149 80.8271 135.509C80.6111 138.274 71.2847 214.752 71.2847 214.752H58.6943L62.2319 142.872L61.2047 143.098C61.2047 143.098 54.3263 173.76 53.7599 178.718C53.2799 183.178 47.0879 218.246 47.0879 218.246L35.2031 218.117L39.6239 172.853L43.9055 131.717L45.5135 119.717L79.8671 122.501Z" fill="#263238"/>
<path d="M103.053 87.1345L90.8183 93.1873L83.8967 75.1585C83.2666 73.6155 82.2705 72.249 80.9944 71.177C79.7183 70.1049 78.2004 69.3594 76.5719 69.0049C76.1542 68.9177 75.7307 68.8615 75.3047 68.8369L80.2535 97.6369C81.2255 99.9933 82.5177 102.205 84.0935 104.208C85.1255 105.451 87.1799 106.757 91.7255 105.331L106.346 95.5441L103.053 87.1345Z" fill="#263238"/>
<path d="M53.2107 65.3281L59.2683 70.3633L62.3595 72.7633L63.9243 72.5425L64.7883 70.1809L65.9547 65.5777L67.5867 67.7329L72.0027 77.1073L76.9611 122.453C76.9611 122.453 68.3211 124.987 63.8379 125.29C59.3547 125.592 52.2267 124.373 52.2267 124.373V100.512L49.6875 76.8817L52.7547 67.8289L53.2107 65.3281Z" fill="#F5F5F5"/>
<path d="M66.0116 124.987C66.0056 124.946 66.0056 124.904 66.0116 124.862C66.0116 124.766 66.0116 124.646 66.0116 124.488C66.0116 124.147 65.9828 123.667 65.9588 123.048C65.9156 121.785 65.858 119.985 65.7812 117.768C65.6276 113.304 65.3828 107.141 65.0324 100.339C64.682 93.5375 64.2836 87.3791 63.9764 82.9247L63.6116 77.6447C63.5684 77.0303 63.5348 76.5503 63.5156 76.2047C63.5156 76.0463 63.5156 75.9263 63.5156 75.8303C63.5156 75.7343 63.5156 75.7055 63.5156 75.7007C63.5208 75.7437 63.5208 75.7872 63.5156 75.8303C63.5156 75.9215 63.5156 76.0463 63.5588 76.1999C63.5876 76.5407 63.6308 77.0207 63.6884 77.6399C63.7988 78.8831 63.9476 80.6831 64.1156 82.9199C64.4564 87.3695 64.8692 93.5231 65.2196 100.329C65.57 107.136 65.7956 113.289 65.9156 117.763C65.978 119.995 66.0212 121.8 66.0356 123.043C66.0356 123.662 66.0356 124.142 66.0356 124.483V124.857C66.0164 124.944 66.0116 124.987 66.0116 124.987Z" fill="#263238"/>
<path d="M50.2083 69.9842L50.6403 69.7538L42.0003 74.2802L45.2643 96.629L47.0787 108.149L40.3203 135.471C40.3203 135.471 45.3987 138.787 47.9427 138.135C49.3011 137.784 50.4627 135.053 51.3603 132.903C53.1568 128.613 54.3225 124.086 54.8211 119.463C55.3011 114.811 55.7811 108.903 55.4499 104.861C54.8163 97.3394 53.8227 84.9314 53.7315 81.6674C53.6403 78.4034 52.8723 66.3794 52.8723 66.3794L50.2083 69.9842Z" fill="#263238"/>
<path d="M66.1562 65.3618L71.177 68.0834L75.5834 68.837L81.5258 81.845L80.393 105.365L86.3258 134.4C86.3258 134.4 81.977 135.941 80.2538 135.307C78.5306 134.674 76.1786 130.776 76.0874 128.419C75.9962 126.063 72.6458 103.234 72.6458 103.234L69.7946 76.397C69.525 73.8383 68.8103 71.3464 67.6826 69.0338L66.1562 65.3618Z" fill="#263238"/>
<path d="M71.1719 68.8369C71.2291 68.8937 71.2821 68.9547 71.3303 69.0193L71.7815 69.5665L73.4423 71.6497L73.4759 71.6929L73.4327 71.7265L72.0215 72.7969V72.6817L73.6775 73.2049H73.7255V73.2625C73.6967 76.2049 73.6583 79.9153 73.6151 83.9377C73.5431 88.8481 73.4759 93.2881 73.4279 96.5233C73.3991 98.1217 73.3703 99.4033 73.3511 100.335C73.3511 100.771 73.3511 101.122 73.3223 101.371C73.3223 101.482 73.3223 101.568 73.3223 101.64C73.3223 101.712 73.3223 101.731 73.3223 101.731C73.3223 101.731 73.3223 101.703 73.3223 101.64C73.3223 101.578 73.3223 101.482 73.3223 101.371C73.3223 101.117 73.3223 100.771 73.3223 100.335C73.3223 99.4177 73.3223 98.1169 73.3223 96.5185C73.3559 93.2881 73.3991 88.8385 73.4519 83.9329C73.5095 79.9153 73.5623 76.2049 73.6007 73.2577L73.6535 73.3297L72.0071 72.7921L71.8823 72.7537L71.9879 72.6769L73.4279 71.6209V71.7025L71.8055 69.5905L71.3783 69.0241C71.3049 68.967 71.2359 68.9044 71.1719 68.8369Z" fill="#455A64"/>
<path d="M55.0635 100.181C55.0478 100.154 55.0365 100.125 55.0299 100.094L54.9435 99.8303L54.6123 98.8127C54.3243 97.9343 53.8923 96.6623 53.3403 95.0975L52.4283 92.5439C52.0679 91.5687 51.7587 90.5754 51.5019 89.5679C50.9445 87.2566 50.5103 84.9173 50.2011 82.5599C49.7547 79.2959 49.4619 76.2143 49.2891 73.5695V73.5311L49.3179 73.5023L50.7579 72.1295V72.2447L49.4043 71.2175L49.3563 71.1743L49.3947 71.1215L51.8331 67.8143L52.5003 66.9215L52.6827 66.6959C52.7016 66.6689 52.7225 66.6432 52.7451 66.6191C52.7451 66.6191 52.7451 66.6527 52.6971 66.7055L52.5339 66.9455L51.8907 67.8623L49.4907 71.2223V71.1263L50.8491 72.1439L50.9211 72.1967L50.8587 72.2543L49.4187 73.6415L49.4427 73.5743C49.6347 76.2191 49.9227 79.2959 50.4027 82.5551C50.7084 84.9098 51.1346 87.2473 51.6795 89.5583C51.9547 90.6175 52.2571 91.6063 52.5867 92.5247L53.4795 95.0879C54.0171 96.6575 54.4395 97.9343 54.6939 98.8223C54.8283 99.2687 54.9291 99.6143 54.9915 99.8495C55.0203 99.9599 55.0443 100.051 55.0587 100.118C55.0731 100.186 55.0635 100.181 55.0635 100.181Z" fill="#455A64"/>
<path d="M77.2734 116.563L78.3534 119.918L84.4686 119.357L82.563 116.146L77.2734 116.563Z" fill="#263238"/>
<path d="M77.2812 116.563C77.2812 116.563 77.4012 116.563 77.646 116.515L78.7165 116.41C79.6429 116.323 80.9773 116.198 82.5565 116.064H82.6044L82.6332 116.112L84.5532 119.314L84.6253 119.438H84.4812L84.1644 119.467L78.366 120H78.3084V119.947C77.9772 118.896 77.7228 118.027 77.55 117.461C77.4732 117.187 77.406 116.981 77.3532 116.794C77.3291 116.72 77.3099 116.644 77.2956 116.568C77.3332 116.647 77.3653 116.729 77.3916 116.813L77.6269 117.49C77.8333 118.09 78.1068 118.93 78.4476 119.89L78.3709 119.837L84.1693 119.28L84.4812 119.251L84.4093 119.39L82.5132 116.179L82.59 116.222C81.0444 116.338 79.7101 116.419 78.7981 116.477L77.7037 116.539C77.4301 116.563 77.2812 116.568 77.2812 116.563Z" fill="#455A64"/>
<g opacity="0.3">
<path d="M73.6347 73.272L74.6427 74.664C74.6427 74.664 74.3595 95.7552 73.2891 100.992L73.6347 73.272Z" fill="black"/>
</g>
<path d="M53.2109 69.749C53.3166 69.9142 53.4442 70.0644 53.5901 70.1954C53.8493 70.469 54.2285 70.8578 54.7037 71.3378C55.6637 72.2978 56.9741 73.589 58.4525 75.0098L59.4125 75.9698L59.5757 76.1282L59.6525 75.917C60.1325 74.5826 60.6125 73.373 60.9581 72.3746L60.7805 72.413L62.0285 73.5362C62.1723 73.682 62.3335 73.8093 62.5085 73.9154C62.3942 73.7382 62.257 73.5768 62.1005 73.4354C61.8269 73.1522 61.4237 72.7442 60.9197 72.245L60.8045 72.1298L60.7421 72.2834C60.3581 73.277 59.8877 74.477 59.3693 75.8018L59.6093 75.749L58.6493 74.789C57.1709 73.349 55.8221 72.0914 54.8333 71.1794C54.3533 70.6994 53.9405 70.3538 53.6573 70.109C53.5247 69.9702 53.3747 69.8492 53.2109 69.749Z" fill="#263238"/>
<path d="M64.5312 73.4686C64.8817 72.8545 65.1803 72.2123 65.4241 71.5486L65.2272 71.5822C65.9441 72.5166 66.5348 73.5414 66.9841 74.6302C67.0657 74.8174 67.1328 75.0046 67.2 75.1822L67.3632 75.6238L67.4881 75.1726C67.8077 73.9966 67.9834 72.7861 68.0113 71.5678C68.0478 71.0729 68.0154 70.5753 67.9153 70.0894C67.8543 70.5768 67.8191 71.067 67.8097 71.5582C67.7214 72.7531 67.5156 73.9364 67.1953 75.091H67.4832C67.416 74.9086 67.3441 74.7166 67.2625 74.5246C66.8042 73.4096 66.1795 72.3706 65.4097 71.443L65.28 71.2894L65.2081 71.4718C64.9291 72.1181 64.7028 72.7858 64.5312 73.4686Z" fill="#263238"/>
<path d="M65.6223 74.6879L64.4271 76.4495H62.6319L61.6719 74.6879L62.5887 72.7535L64.1535 72.5327L65.6223 74.6879Z" fill="#FF725E"/>
<path d="M64.4932 75.5518L69.9076 116.433L65.2804 122.707L60.6484 116.054L62.698 75.5518H64.4932Z" fill="#FF725E"/>
<path d="M75.0326 120C75.0258 120.302 75.045 120.604 75.0902 120.902C75.1622 121.536 75.2534 122.342 75.3638 123.346C75.4742 124.349 75.6422 125.621 75.8102 126.97C76.0215 128.455 76.3866 129.914 76.8998 131.323C77.4614 132.797 78.191 134.246 79.4342 135.014C80.0213 135.339 80.6832 135.505 81.3542 135.494C81.927 135.499 82.499 135.45 83.063 135.35C83.877 135.216 84.6794 135.018 85.463 134.76C85.7559 134.681 86.0391 134.57 86.3078 134.429C86.0108 134.485 85.7174 134.558 85.4294 134.65C84.6393 134.856 83.838 135.016 83.0294 135.13C82.4767 135.213 81.9178 135.248 81.359 135.235C80.73 135.244 80.1096 135.088 79.559 134.784C78.431 134.078 77.7062 132.672 77.159 131.222C76.0406 128.27 75.8918 125.371 75.551 123.326C75.4022 122.338 75.2774 121.522 75.1814 120.893C75.1564 120.592 75.1066 120.293 75.0326 120Z" fill="#455A64"/>
<path d="M55.1438 121.2C55.1423 121.291 55.1277 121.382 55.1006 121.469L54.9134 122.237C54.7502 122.899 54.491 123.855 54.155 125.031C53.2991 128.099 52.2621 131.114 51.0494 134.059C50.6937 134.901 50.2849 135.718 49.8254 136.507C49.6052 136.887 49.3497 137.246 49.0622 137.578L48.8366 137.808C48.7502 137.88 48.659 137.943 48.5726 138.01C48.4775 138.071 48.3761 138.123 48.2702 138.163C48.1694 138.197 48.0638 138.207 47.963 138.231C47.1878 138.345 46.397 138.291 45.6446 138.072C44.988 137.901 44.346 137.678 43.7246 137.405C42.8386 137.019 41.9806 136.571 41.1566 136.066C40.8638 135.888 40.6382 135.739 40.4942 135.639C40.4143 135.591 40.3402 135.535 40.2734 135.471C40.36 135.502 40.4423 135.544 40.5182 135.595L41.2046 135.979C42.0428 136.45 42.9065 136.873 43.7918 137.247C44.4032 137.5 45.032 137.708 45.6734 137.871C46.3947 138.072 47.1507 138.118 47.891 138.005C48.2761 137.942 48.6208 137.73 48.851 137.415C49.1271 137.092 49.373 136.745 49.5854 136.378C50.0352 135.604 50.436 134.802 50.7854 133.978C51.9937 131.04 53.051 128.043 53.9534 124.997C54.299 123.855 54.5822 122.919 54.7886 122.227C54.8814 121.927 54.9582 121.677 55.019 121.479C55.0502 121.381 55.0921 121.288 55.1438 121.2Z" fill="#455A64"/>
<path d="M45.6504 72.48C45.6504 72.48 38.2248 74.1456 37.2792 80.5296C36.1896 87.8784 35.2344 104.698 35.2344 104.698L47.964 87.6528" fill="#263238"/>
<path d="M43.2812 73.9438C43.2812 73.9438 43.6077 74.2366 44.0973 74.7406C45.3777 76.0606 46.2652 77.7111 46.6605 79.507C46.8093 80.1934 46.8429 80.6302 46.8717 80.6302C46.8887 80.5269 46.8887 80.4216 46.8717 80.3182C46.8577 80.0378 46.8241 79.7587 46.7709 79.483C46.4338 77.6431 45.5271 75.9556 44.1789 74.659C43.9767 74.4627 43.7619 74.2799 43.5356 74.1118C43.4586 74.045 43.373 73.9885 43.2812 73.9438Z" fill="#263238"/>
<path d="M81.2816 77.6782C81.2 77.6782 80.9408 83.6158 80.7104 90.9454C80.48 98.275 80.3552 104.217 80.4416 104.217C80.528 104.217 80.7776 98.2846 81.0128 90.955C81.248 83.6254 81.3632 77.683 81.2816 77.6782Z" fill="#455A64"/>
<path d="M42.0135 74.2798C42.0135 74.2798 38.5575 76.6126 38.1735 78.499C37.8471 80.0254 35.1159 102.979 34.7655 105.83C34.4151 108.681 33.0567 114.624 36.5415 116.99C38.8839 118.579 46.2855 120.173 46.2855 120.173C45.5559 116.76 47.0487 114.264 50.6919 112.373L45.7431 107.702L47.9607 87.6526L42.0135 74.2798Z" fill="#263238"/>
<path d="M47.0911 108.139C47.0047 108.139 45.7951 101.899 44.3887 94.1762C42.9823 86.453 41.9071 80.1602 41.9887 80.1602C42.0703 80.1602 43.2847 86.4002 44.6959 94.1234C46.1071 101.847 47.1727 108.12 47.0911 108.139Z" fill="#455A64"/>
<path d="M46.1404 103.541C46.1649 103.938 46.1537 104.336 46.1068 104.731C46.0588 105.475 45.9724 106.517 45.8668 107.717L45.8332 107.616L46.7932 108.509C47.8924 109.551 48.8764 110.506 49.582 111.207C49.9808 111.565 50.35 111.955 50.686 112.373C50.2514 112.058 49.8422 111.71 49.462 111.331C48.7228 110.669 47.7196 109.733 46.6204 108.691L45.6604 107.794L45.6172 107.751V107.693C45.7372 106.498 45.8476 105.456 45.9388 104.717C45.9696 104.32 46.0371 103.926 46.1404 103.541Z" fill="#455A64"/>
<path d="M40.7969 110.664C41.304 109.821 42.0396 109.139 42.9185 108.696C43.7558 108.18 44.7238 107.915 45.7073 107.933C44.7849 108.153 43.8898 108.475 43.0385 108.893C42.2291 109.4 41.4775 109.994 40.7969 110.664Z" fill="#455A64"/>
<path d="M57.6218 90.9695C57.5955 91.4114 57.4821 91.8438 57.2882 92.2418C57.0943 92.6399 56.8236 92.9956 56.4918 93.2887C56.1599 93.5817 55.7734 93.8063 55.3544 93.9495C54.9355 94.0927 54.4924 94.1517 54.0506 94.1231C53.5885 94.0992 53.1364 93.9793 52.7232 93.7711C52.31 93.5628 51.9447 93.2707 51.6506 92.9135C50.7242 91.7711 49.049 90.1391 46.9658 90.0335C43.7402 89.8319 41.3258 92.2751 41.0954 95.9327C40.865 99.5903 42.9626 102.312 46.193 102.513C48.2762 102.643 50.1386 101.232 51.1994 100.214C51.5325 99.8979 51.9275 99.654 52.3596 99.4978C52.7916 99.3417 53.2514 99.2767 53.7098 99.3071C54.1517 99.3333 54.5841 99.4467 54.9821 99.6406C55.3802 99.8346 55.7359 100.105 56.029 100.437C56.322 100.769 56.5466 101.155 56.6898 101.574C56.833 101.993 56.892 102.436 56.8634 102.878L55.4234 125.697L106.203 127.857L107.302 103.857C107.328 103.416 107.441 102.983 107.635 102.585C107.829 102.187 108.1 101.831 108.432 101.538C108.764 101.245 109.15 101.021 109.569 100.877C109.988 100.734 110.431 100.675 110.873 100.704C111.335 100.728 111.787 100.848 112.2 101.056C112.614 101.264 112.979 101.556 113.273 101.913C114.199 103.056 115.875 104.688 117.958 104.817C121.183 105.019 123.603 102.576 123.828 98.9183C124.054 95.2607 121.961 92.5391 118.735 92.3375C116.652 92.2079 114.785 93.6191 113.724 94.6367C113.391 94.9535 112.996 95.1978 112.564 95.354C112.132 95.5101 111.672 95.5748 111.214 95.5439C109.356 95.4287 107.628 94.0223 107.743 92.1839L108.607 71.8127L58.3226 69.6719L57.6218 90.9695Z" fill="#A2185A"/>
<path d="M51.4281 114.033C51.4281 114.033 52.9257 112.872 54.0393 112.824C55.1529 112.776 56.6025 113.213 56.8905 113.069C57.1785 112.925 57.8505 112.286 58.2921 112.819C58.7337 113.352 59.2521 115.291 56.9385 115.824H55.3449C55.4265 116.59 55.6223 117.339 55.9257 118.046C56.3097 118.675 61.7242 125.491 61.7242 125.491C61.7242 125.491 62.4009 126.168 62.0649 126.845C61.7289 127.521 60.2746 127.133 60.2746 127.133C59.9824 127.39 59.6297 127.569 59.2493 127.653C58.869 127.737 58.4736 127.723 58.1002 127.613C57.5249 127.419 56.974 127.16 56.4585 126.84C56.0839 127.127 55.625 127.283 55.153 127.283C54.6809 127.283 54.222 127.127 53.8474 126.84C52.4938 125.827 47.0938 119.16 47.0938 119.16L49.5897 113.827L51.4281 114.033Z" fill="#FFBF9D"/>
<path d="M49.917 112.8L51.453 114.024C49.173 115.685 47.9874 117.72 48.0018 120.163L46.0386 118.805C46.0386 118.805 45.6834 113.793 49.917 112.8Z" fill="#F5F5F5"/>
<path d="M56.0938 122.707C56.1562 122.659 56.9673 123.744 58.1241 124.929C59.2809 126.115 60.3658 126.936 60.313 127.003C60.0414 126.88 59.7891 126.719 59.5641 126.523C58.9907 126.093 58.4501 125.622 57.9466 125.112C57.4463 124.599 56.9843 124.05 56.5641 123.47C56.3685 123.242 56.2097 122.984 56.0938 122.707Z" fill="#FF9A6C"/>
<path d="M53.4141 124.061C53.4765 124.008 54.0765 124.733 54.9645 125.448C55.549 125.841 56.0648 126.327 56.4909 126.888C55.8998 126.514 55.3382 126.095 54.8109 125.635C54.2357 125.219 53.7589 124.681 53.4141 124.061Z" fill="#FF9A6C"/>
<path d="M105.845 82.1903C105.845 82.1903 106.085 80.5487 109.536 81.1055C111.701 81.4559 110.568 82.8575 110.568 82.8575C110.73 82.9972 110.855 83.1741 110.934 83.373C111.012 83.5718 111.041 83.7868 111.018 83.9992C110.995 84.2117 110.92 84.4153 110.801 84.5927C110.682 84.7701 110.521 84.9158 110.333 85.0175L110.559 85.1855C110.559 85.1855 112.282 86.0495 110.794 87.5855C110.945 87.8591 111.007 88.1728 110.972 88.4832C110.936 88.7937 110.806 89.0855 110.597 89.3183C109.858 90.0623 108 89.0735 108 89.0735C108 89.0735 105.375 89.0303 105.226 88.3343C105.18 88.123 105.207 87.9024 105.301 87.7081C105.396 87.5138 105.554 87.3573 105.749 87.2639C106.354 87.1517 106.964 87.078 107.578 87.0431C107.578 87.0431 105.284 87.0191 105.077 86.5631C104.708 85.7615 104.804 84.9407 107.578 85.0463C107.578 85.0463 105.514 85.0031 105.279 84.5663C105.044 84.1295 105.332 83.4671 106.076 83.1263C106.514 82.9166 106.996 82.8161 107.482 82.8335C107.482 82.8335 105.552 83.2271 105.845 82.1903Z" fill="#FFBF9D"/>
<path d="M110.461 82.8674C109.841 82.9406 109.217 82.9631 108.594 82.9346C107.972 82.9802 107.348 82.9802 106.727 82.9346C107.325 82.7282 107.957 82.637 108.589 82.6658C109.22 82.6167 109.855 82.6851 110.461 82.8674Z" fill="#FF9A6C"/>
<path d="M110.367 85.0994C109.781 85.1465 109.192 85.1465 108.605 85.0994C108.018 85.1336 107.429 85.1207 106.844 85.061C107.413 84.8748 108.013 84.803 108.61 84.8498C109.207 84.8122 109.805 84.8971 110.367 85.0994Z" fill="#FF9A6C"/>
<path d="M110.835 87.7007C110.807 87.7679 110.024 87.4271 109.002 87.2639C107.979 87.1007 107.135 87.1631 107.125 87.0863C107.748 86.8963 108.41 86.8715 109.045 87.0143C109.692 87.0802 110.31 87.3171 110.835 87.7007Z" fill="#FF9A6C"/>
</svg>
