<svg width="240" height="240" viewBox="0 0 240 240" fill="none" xmlns="http://www.w3.org/2000/svg">
<path d="M240 183.551H0V183.671H240V183.551Z" fill="#E0E0E0"/>
<path d="M181.28 188.635H164.766V188.755H181.28V188.635Z" fill="#E0E0E0"/>
<path d="M53.3001 188.694H44.0078V188.814H53.3001V188.694Z" fill="#E0E0E0"/>
<path d="M120.483 188.413H101.648V188.533H120.483V188.413Z" fill="#E0E0E0"/>
<path d="M101.162 186.707H92.7422V186.827H101.162V186.707Z" fill="#E0E0E0"/>
<path d="M203.784 186.767H178.352V186.887H203.784V186.767Z" fill="#E0E0E0"/>
<path d="M113.763 162.144H21.0758C19.5652 162.144 18.3359 160.915 18.3359 159.404V29.1168C18.3359 27.6062 19.5652 26.377 21.0758 26.377H113.763C115.273 26.377 116.503 27.6062 116.503 29.1168V159.404C116.503 160.915 115.273 162.144 113.763 162.144ZM21.0758 26.4974C19.631 26.4974 18.4559 27.6725 18.4559 29.1173V159.405C18.4559 160.849 19.631 162.024 21.0758 162.024H113.763C115.208 162.024 116.383 160.849 116.383 159.405V29.1168C116.383 27.6725 115.208 26.497 113.763 26.497L21.0758 26.4974Z" fill="#E0E0E0"/>
<path d="M217.59 162.144H124.903C123.393 162.144 122.164 160.915 122.164 159.404V29.1168C122.164 27.6062 123.393 26.377 124.903 26.377H217.59C219.101 26.377 220.33 27.6062 220.33 29.1168V159.404C220.331 160.915 219.101 162.144 217.59 162.144ZM124.903 26.4974C123.459 26.4974 122.284 27.6725 122.284 29.1173V159.405C122.284 160.849 123.459 162.024 124.903 162.024H217.59C219.035 162.024 220.21 160.849 220.21 159.405V29.1168C220.21 27.6725 219.035 26.497 217.59 26.497L124.903 26.4974Z" fill="#E0E0E0"/>
<path d="M210.868 123.469C204.961 114.48 210.354 104.815 209.455 94.8152C208.556 84.8158 199.053 82.6328 200.851 74.1574C202.936 64.3304 197.384 54.8955 191.092 54.8955C184.8 54.8955 179.248 64.3304 181.333 74.1574C183.13 82.6328 173.628 84.8158 172.729 94.8152C171.83 104.815 177.223 114.479 171.316 123.469C165.409 132.458 166.959 144.365 170.289 150.273C171.206 151.901 172.286 153.343 173.463 154.617C182.91 164.848 199.275 164.848 208.721 154.617C209.898 153.343 210.978 151.902 211.896 150.273C215.225 144.365 216.775 132.458 210.868 123.469Z" fill="#E0E0E0"/>
<path d="M194.081 183.55H188.109V133.278C188.109 131.636 189.453 130.292 191.095 130.292C192.737 130.292 194.081 131.636 194.081 133.278V183.55Z" fill="#F0F0F0"/>
<path d="M153.559 183.551H145.43V133.282C145.43 131.047 147.259 129.218 149.494 129.218C151.73 129.218 153.559 131.047 153.559 133.282V183.551Z" fill="#E0E0E0"/>
<path d="M149.494 169.99C163.323 169.99 174.534 158.779 174.534 144.95C174.534 131.12 163.323 119.909 149.494 119.909C135.664 119.909 124.453 131.12 124.453 144.95C124.453 158.779 135.664 169.99 149.494 169.99Z" fill="#F0F0F0"/>
<path d="M178.915 137.442C180.229 132.153 177.007 126.8 171.718 125.486C166.429 124.172 161.076 127.395 159.762 132.684C158.448 137.973 161.67 143.326 166.96 144.64C172.249 145.954 177.601 142.731 178.915 137.442Z" fill="#F0F0F0"/>
<path d="M135.013 130.156C135.532 126.972 133.37 123.969 130.185 123.45C127 122.931 123.997 125.093 123.479 128.277C122.96 131.462 125.121 134.465 128.306 134.984C131.491 135.502 134.494 133.341 135.013 130.156Z" fill="#F0F0F0"/>
<path d="M135.593 130.293C137.858 130.293 139.693 128.457 139.693 126.192C139.693 123.928 137.858 122.092 135.593 122.092C133.328 122.092 131.492 123.928 131.492 126.192C131.492 128.457 133.328 130.293 135.593 130.293Z" fill="#F0F0F0"/>
<path d="M97.9053 153.548C93.7361 154.168 90.1221 155.679 87.0017 157.709C86.9719 153.909 86.2764 150.301 84.4908 147.387C81.7725 150.036 79.5708 153.462 77.7924 157.147C77.1261 150.219 75.3074 143.507 71.2797 139.265C65.2452 143.06 62.1348 149.387 60.6554 156.088C58.2511 151.794 54.9338 147.831 50.3532 144.95C46.661 148.839 45.4821 154.216 45.5801 159.723C41.3858 154.84 36.7274 151.027 32.1871 150.579C31.0692 158.314 33.45 165.607 36.4754 171.357C40.4441 178.9 48.3391 183.551 56.862 183.551H76.5828C84.9881 183.551 92.8682 179.067 96.8119 171.644C99.3093 166.943 100.497 160.889 97.9053 153.548Z" fill="#E0E0E0"/>
<path d="M92.2828 53.8263C94.7198 46.6882 92.7854 41.6064 86.8281 41.6064C83.0923 41.6064 78.4598 43.6066 73.9487 46.8634C73.439 45.0068 72.0038 43.8941 69.6945 43.8941C65.6308 43.8941 60.0292 47.3319 55.6348 52.1823C54.5716 51.1008 53.0327 50.4384 51.0556 50.3319C47.1667 50.113 42.4559 52.0882 38.3606 55.3013C38.0059 54.7637 37.3977 54.4263 36.5582 54.3764C34.3171 54.2516 31.2835 56.2455 29.7763 58.8269C29.6822 58.9896 29.5991 59.1456 29.5156 59.3021H34.1707H37.8743H50.7398H57.071H61.9939H69.5764H70.9526H89.7619H93.4655C93.6571 57.0514 93.2591 55.1698 92.2828 53.8263Z" fill="#F0F0F0"/>
<path d="M92.4798 97.1665C93.6702 93.6798 92.7251 91.1973 89.8154 91.1973C87.9904 91.1973 85.7277 92.1745 83.5245 93.7653C83.2758 92.8585 82.5746 92.3152 81.4466 92.3152C79.4613 92.3152 76.7253 93.9942 74.5787 96.364C74.0593 95.836 73.3077 95.512 72.3419 95.4601C70.4421 95.3531 68.1414 96.3184 66.1408 97.8875C65.9675 97.6249 65.6704 97.4598 65.2605 97.4358C64.1656 97.3749 62.6838 98.3488 61.9475 99.6097C61.9014 99.6889 61.8611 99.7653 61.8203 99.8421H64.0941H65.9032H72.1878H75.2805H77.6853H81.3894H82.0614H91.2491H93.0582C93.1509 98.7419 92.9565 97.8227 92.4798 97.1665Z" fill="#F0F0F0"/>
<path d="M164.525 70.7958C164.282 70.7603 164.034 70.742 163.784 70.742C164.014 67.2592 162.682 65.0353 159.838 65.0353C157.786 65.0353 155.269 66.1964 152.702 68.1611C153.437 61.4008 151.085 57.0068 145.76 57.0068C141.465 57.0068 136.027 59.8648 130.656 64.5265C130.186 61.874 128.603 60.2843 125.944 60.2843C121.273 60.2843 114.635 65.1961 109.313 72.1264C109.313 72.1264 109.311 72.1355 109.306 72.1264C108.157 70.5812 106.429 69.6256 104.158 69.4739C99.7101 69.1614 94.1872 71.9833 89.2907 76.5827C88.9183 75.8056 88.24 75.3236 87.2699 75.2608C84.8378 75.0908 81.4859 77.6272 79.5391 81.0212H85.2131H89.0599H103.853H110.78H116.949H125.711H142.265H148.718H151.014H160.199H168.439C170.527 75.8776 168.864 71.3766 164.525 70.7958Z" fill="#F0F0F0"/>
<path d="M119.996 205.229C171.396 205.229 213.063 202.796 213.063 199.794C213.063 196.793 171.396 194.359 119.996 194.359C68.5971 194.359 26.9297 196.793 26.9297 199.794C26.9297 202.796 68.5971 205.229 119.996 205.229Z" fill="#F5F5F5"/>
<path d="M23.4531 72.2695L132.879 88.0207L147.565 102.841L23.4531 72.2695Z" fill="#FFD780"/>
<path opacity="0.6" d="M23.4531 72.2695L132.879 88.0207L147.565 102.841L23.4531 72.2695Z" fill="white"/>
<path d="M23.4531 72.2695L132.879 88.0207L127.801 109.45L23.4531 72.2695Z" fill="#FFD780"/>
<path opacity="0.2" d="M23.4531 72.2695L132.879 88.0207L127.801 109.45L23.4531 72.2695Z" fill="black"/>
<path d="M125.552 47.4597L131.906 77.2327C132.25 78.845 131.212 80.4458 129.6 80.79L72.9223 92.8855C71.3099 93.2296 69.7091 92.1919 69.365 90.5796L63.0112 60.8066C62.8312 59.9637 63.0295 59.1218 63.4893 58.4618C63.9107 57.8637 64.5477 57.4135 65.3171 57.2493L121.995 45.1538C122.764 44.9896 123.53 45.1404 124.159 45.5143C124.848 45.929 125.373 46.6168 125.552 47.4597Z" fill="#A2185A"/>
<path opacity="0.4" d="M125.552 47.4597L131.906 77.2327C132.25 78.845 131.212 80.4458 129.6 80.79L72.9223 92.8855C71.3099 93.2296 69.7091 92.1919 69.365 90.5796L63.0112 60.8066C62.8312 59.9637 63.0295 59.1218 63.4893 58.4618C63.9107 57.8637 64.5477 57.4135 65.3171 57.2493L121.995 45.1538C122.764 44.9896 123.53 45.1404 124.159 45.5143C124.848 45.929 125.373 46.6168 125.552 47.4597Z" fill="black"/>
<path d="M124.162 45.5147L105.223 68.762C101.606 73.202 95.3858 74.5292 90.2714 71.9526L63.4922 58.4617C63.9136 57.8636 64.5506 57.4134 65.32 57.2492L121.998 45.1537C122.768 44.9896 123.533 45.1408 124.162 45.5147Z" fill="#A2185A"/>
<path d="M23.4531 72.2695L113.709 93.7183L127.801 109.45L23.4531 72.2695Z" fill="#FFD780"/>
<path opacity="0.6" d="M23.4531 72.2695L113.709 93.7183L127.801 109.45L23.4531 72.2695Z" fill="white"/>
<path d="M56.3757 92.9526L56.1328 93.3672L66.1746 99.2505L66.4174 98.8359L56.3757 92.9526Z" fill="#FFD780"/>
<path d="M70.8523 101.432L70.6094 101.847L74.2219 103.963L74.4648 103.549L70.8523 101.432Z" fill="#FFD780"/>
<path d="M23.4531 72.2695L113.709 93.7183L96.1654 114.865L23.4531 72.2695Z" fill="#FFD780"/>
<path d="M144.172 122.526C144.055 122.526 143.935 122.504 143.819 122.458L129.115 116.636C128.622 116.442 128.38 115.884 128.576 115.39C128.77 114.898 129.326 114.655 129.822 114.851L144.526 120.673C145.019 120.868 145.26 121.425 145.065 121.919C144.916 122.296 144.554 122.526 144.172 122.526Z" fill="#FFD780"/>
<path opacity="0.3" d="M144.172 122.526C144.055 122.526 143.935 122.504 143.819 122.458L129.115 116.636C128.622 116.442 128.38 115.884 128.576 115.39C128.77 114.898 129.326 114.655 129.822 114.851L144.526 120.673C145.019 120.868 145.26 121.425 145.065 121.919C144.916 122.296 144.554 122.526 144.172 122.526Z" fill="black"/>
<path d="M143.31 114.094C143.193 114.094 143.073 114.072 142.957 114.026L135.06 110.899C134.567 110.704 134.326 110.146 134.521 109.653C134.715 109.161 135.272 108.918 135.767 109.114L143.664 112.241C144.157 112.436 144.398 112.993 144.203 113.487C144.053 113.864 143.692 114.094 143.31 114.094Z" fill="#FFD780"/>
<path opacity="0.5" d="M143.31 114.094C143.193 114.094 143.073 114.072 142.957 114.026L135.06 110.899C134.567 110.704 134.326 110.146 134.521 109.653C134.715 109.161 135.272 108.918 135.767 109.114L143.664 112.241C144.157 112.436 144.398 112.993 144.203 113.487C144.053 113.864 143.692 114.094 143.31 114.094Z" fill="white"/>
<path d="M126.797 122.381C126.68 122.381 126.56 122.359 126.444 122.313L112.107 116.636C111.614 116.441 111.372 115.883 111.568 115.39C111.763 114.897 112.32 114.656 112.814 114.851L127.151 120.527C127.644 120.722 127.885 121.28 127.69 121.774C127.541 122.151 127.179 122.381 126.797 122.381Z" fill="#FFD780"/>
<path opacity="0.3" d="M126.797 122.381C126.68 122.381 126.56 122.359 126.444 122.313L112.107 116.636C111.614 116.441 111.372 115.883 111.568 115.39C111.763 114.897 112.32 114.656 112.814 114.851L127.151 120.527C127.644 120.722 127.885 121.28 127.69 121.774C127.541 122.151 127.179 122.381 126.797 122.381Z" fill="black"/>
<path d="M178.701 79.1143C179.972 81.5978 181.139 84.0818 182.247 86.6282C183.346 89.1746 184.39 91.7474 185.289 94.4479L185.618 95.4717C185.673 95.6536 185.758 95.9527 185.803 96.1653C185.848 96.3871 185.896 96.616 185.922 96.8191C186.049 97.6552 186.071 98.4107 186.086 99.1538C186.109 100.634 186.009 102.046 185.886 103.45C185.617 106.253 185.18 108.981 184.579 111.717L181.947 111.425C181.913 108.721 181.888 105.991 181.794 103.327C181.747 101.998 181.671 100.672 181.536 99.4216C181.468 98.8005 181.368 98.1914 181.251 97.6816C181.224 97.5467 181.188 97.444 181.157 97.3327C181.119 97.2136 181.103 97.1858 181.051 97.0432L180.689 96.1355C179.686 93.7067 178.557 91.2563 177.406 88.8184L173.922 81.5066L178.701 79.1143Z" fill="#E4897B"/>
<path d="M181.987 110.602L180.758 112.9L184.682 113.995C184.682 113.995 185.43 112.146 184.54 110.688L181.987 110.602Z" fill="#E4897B"/>
<path d="M179.25 116.214L182.859 116.499L184.68 113.996L180.755 112.9L179.25 116.214Z" fill="#E4897B"/>
<path d="M162.176 62.5273C162.119 62.8062 161.926 63.002 161.743 62.9651C161.561 62.9281 161.459 62.6723 161.516 62.3934C161.572 62.1145 161.766 61.9187 161.948 61.9557C162.131 61.9931 162.232 62.2489 162.176 62.5273Z" fill="#263238"/>
<path d="M161.949 63.0068C161.949 63.0068 160.988 64.4862 160.133 65.1198C160.532 65.6804 161.413 65.6406 161.413 65.6406L161.949 63.0068Z" fill="#DE5753"/>
<path d="M163.515 61.1864C163.469 61.1864 163.425 61.1681 163.392 61.1326C162.892 60.5912 162.298 60.6795 162.272 60.6824C162.184 60.6982 162.095 60.6358 162.08 60.5446C162.065 60.4539 162.126 60.368 162.217 60.3526C162.248 60.3468 163.01 60.2264 163.637 60.9051C163.7 60.9728 163.696 61.0784 163.628 61.1412C163.596 61.1715 163.555 61.1864 163.515 61.1864Z" fill="#263238"/>
<path d="M170.113 66.4473C169.607 69.0268 169.103 73.7538 170.907 75.4751C170.907 75.4751 170.202 78.0921 165.409 78.0921C160.138 78.0921 162.89 75.4756 162.89 75.4756C165.767 74.7887 165.692 72.6541 165.191 70.6501L170.113 66.4473Z" fill="#E4897B"/>
<path d="M171.632 77.105C172.012 75.8407 172.431 74.394 171.564 73.9409C170.611 73.4421 165.391 72.9338 163.591 73.8698C161.791 74.8058 162.301 77.37 162.301 77.37L171.632 77.105Z" fill="#263238"/>
<path d="M182.704 196.811C182.343 196.811 181.994 196.755 181.858 196.578C181.801 196.503 181.754 196.374 181.861 196.181C181.916 196.081 182.005 196.015 182.123 195.987C182.641 195.868 183.612 196.533 183.653 196.561C183.68 196.58 183.694 196.612 183.687 196.645C183.681 196.678 183.657 196.704 183.625 196.711C183.444 196.754 183.068 196.811 182.704 196.811ZM182.264 196.138C182.227 196.138 182.193 196.141 182.161 196.149C182.09 196.166 182.039 196.203 182.007 196.261C181.932 196.399 181.976 196.457 181.991 196.476C182.141 196.674 182.862 196.677 183.388 196.588C183.085 196.401 182.584 196.138 182.264 196.138Z" fill="#7F7F82"/>
<path d="M183.604 196.712C183.59 196.712 183.576 196.709 183.564 196.702C183.199 196.505 182.494 195.732 182.568 195.339C182.581 195.268 182.634 195.144 182.834 195.119C182.961 195.105 183.083 195.14 183.19 195.227C183.599 195.561 183.683 196.579 183.687 196.622C183.69 196.653 183.675 196.682 183.649 196.699C183.635 196.709 183.62 196.712 183.604 196.712ZM182.891 195.284C182.879 195.284 182.867 195.284 182.854 195.286C182.745 195.299 182.736 195.349 182.732 195.37C182.688 195.603 183.137 196.187 183.5 196.461C183.459 196.164 183.347 195.572 183.083 195.357C183.023 195.308 182.961 195.284 182.891 195.284Z" fill="#7F7F82"/>
<path d="M161.534 196.811C161.082 196.811 160.645 196.749 160.499 196.545C160.447 196.474 160.407 196.353 160.506 196.18C160.561 196.083 160.65 196.017 160.771 195.985C161.355 195.829 162.59 196.527 162.642 196.557C162.672 196.574 162.689 196.608 162.683 196.643C162.677 196.677 162.651 196.705 162.617 196.712C162.391 196.756 161.956 196.811 161.534 196.811ZM160.975 196.127C160.917 196.127 160.863 196.133 160.814 196.146C160.737 196.167 160.684 196.205 160.65 196.263C160.591 196.367 160.613 196.418 160.634 196.447C160.793 196.668 161.683 196.679 162.345 196.588C162.018 196.42 161.388 196.127 160.975 196.127Z" fill="#7F7F82"/>
<path d="M162.593 196.712C162.582 196.712 162.57 196.71 162.559 196.705C162.134 196.514 161.291 195.752 161.355 195.353C161.37 195.259 161.437 195.142 161.666 195.119C161.836 195.103 161.992 195.15 162.129 195.262C162.578 195.631 162.673 196.58 162.676 196.621C162.679 196.65 162.666 196.679 162.642 196.697C162.627 196.707 162.611 196.712 162.593 196.712ZM161.733 195.283C161.717 195.283 161.7 195.284 161.683 195.285C161.533 195.301 161.523 195.36 161.52 195.38C161.481 195.619 162.054 196.218 162.488 196.479C162.443 196.202 162.317 195.633 162.023 195.391C161.934 195.319 161.839 195.283 161.733 195.283Z" fill="#7F7F82"/>
<path d="M166.471 196.63H162.945L162.594 188.464H166.12L166.471 196.63Z" fill="#E4897B"/>
<path d="M187.642 196.63H184.116L182.344 188.464H185.87L187.642 196.63Z" fill="#E4897B"/>
<path d="M183.872 196.221H187.834C187.978 196.221 188.103 196.321 188.134 196.462L188.831 199.596C188.903 199.921 188.647 200.229 188.314 200.223C186.931 200.199 186.259 200.118 184.517 200.118C183.445 200.118 181.237 200.229 179.757 200.229C178.309 200.229 178.083 198.766 178.689 198.633C181.406 198.039 182.43 197.219 183.3 196.437C183.457 196.297 183.662 196.221 183.872 196.221Z" fill="#263238"/>
<path d="M162.969 196.221H166.82C166.964 196.221 167.089 196.321 167.121 196.462L167.817 199.596C167.889 199.921 167.642 200.229 167.31 200.223C165.921 200.2 163.913 200.118 162.167 200.118C160.126 200.118 158.363 200.23 155.969 200.23C154.521 200.23 154.119 198.766 154.726 198.634C157.484 198.03 159.736 197.966 162.12 196.496C162.379 196.336 162.665 196.221 162.969 196.221Z" fill="#263238"/>
<path d="M161.265 81.6696C158.275 81.4358 155.401 81.049 152.478 80.5013C151.023 80.2219 149.565 79.9094 148.109 79.5173C146.649 79.1261 145.188 78.6826 143.71 78.0658C143.341 77.9141 142.968 77.7437 142.596 77.5666C142.129 77.3357 141.74 77.0957 141.399 76.8682C140.705 76.4102 140.112 75.9379 139.521 75.467C138.347 74.5267 137.254 73.5494 136.176 72.5616C134.029 70.5763 131.993 68.5214 130.031 66.3595L131.797 64.3867L138.761 69.3917C139.911 70.2206 141.071 71.0299 142.213 71.7936C142.781 72.1714 143.363 72.5299 143.892 72.8285C144.16 72.9806 144.399 73.0944 144.583 73.1674C144.869 73.2792 145.157 73.3896 145.461 73.4909C147.899 74.304 150.655 74.8262 153.393 75.2674C156.135 75.7013 158.967 76.0584 161.702 76.3421L161.265 81.6696Z" fill="#E4897B"/>
<path d="M177.225 76.2729C180.529 77.0308 183.871 86.6937 183.871 86.6937L177.068 91.5733C177.068 91.5733 175.168 87.0729 173.298 83.1369C171.339 79.0127 173.845 75.4981 177.225 76.2729Z" fill="#7F7F82"/>
<path opacity="0.4" d="M177.225 76.2729C180.529 77.0308 183.871 86.6937 183.871 86.6937L177.068 91.5733C177.068 91.5733 175.168 87.0729 173.298 83.1369C171.339 79.0127 173.845 75.4981 177.225 76.2729Z" fill="black"/>
<path d="M175.318 81.5518L173.969 84.571C175.366 87.5854 176.642 90.571 176.983 91.3678C176.935 87.8014 176.258 83.3758 175.318 81.5518Z" fill="#7F7F82"/>
<path opacity="0.6" d="M175.318 81.5518L173.969 84.571C175.366 87.5854 176.642 90.571 176.983 91.3678C176.935 87.8014 176.258 83.3758 175.318 81.5518Z" fill="black"/>
<path d="M157.466 76.4542C157.466 76.4542 153.713 80.6936 157.257 106.933C162.94 106.933 173.353 106.933 176.118 106.933C176.248 104.037 174.429 89.9139 177.221 76.2723C177.221 76.2723 173.988 75.6233 170.907 75.475C168.497 75.3588 165.008 75.282 162.89 75.4755C160.097 75.7304 157.466 76.4542 157.466 76.4542Z" fill="#7F7F82"/>
<path opacity="0.4" d="M157.466 76.4542C157.466 76.4542 153.713 80.6936 157.257 106.933C162.94 106.933 173.353 106.933 176.118 106.933C176.248 104.037 174.429 89.9139 177.221 76.2723C177.221 76.2723 173.988 75.6233 170.907 75.475C168.497 75.3588 165.008 75.282 162.89 75.4755C160.097 75.7304 157.466 76.4542 157.466 76.4542Z" fill="black"/>
<path d="M156.072 81.5518C155.947 82.5454 155.851 83.7214 155.789 85.1086C157.349 84.6238 159.288 83.8462 161.04 82.6414L156.072 81.5518Z" fill="#7F7F82"/>
<path opacity="0.6" d="M156.072 81.5518C155.947 82.5454 155.851 83.7214 155.789 85.1086C157.349 84.6238 159.288 83.8462 161.04 82.6414L156.072 81.5518Z" fill="black"/>
<path d="M164.145 82.0663C161.621 84.3022 151.982 84.0785 151.982 84.0785L151.664 74.7598C151.664 74.7598 157.129 75.5609 161.489 75.4721C166.876 75.3631 166.914 79.6126 164.145 82.0663Z" fill="#7F7F82"/>
<path opacity="0.4" d="M164.145 82.0663C161.621 84.3022 151.982 84.0785 151.982 84.0785L151.664 74.7598C151.664 74.7598 157.129 75.5609 161.489 75.4721C166.876 75.3631 166.914 79.6126 164.145 82.0663Z" fill="black"/>
<path d="M131.887 64.4342L129.467 61.6084L126.883 64.4702C126.883 64.4702 128.474 67.1462 131.007 66.7238L131.887 64.4342Z" fill="#E4897B"/>
<path d="M126.048 58.3135L125.117 62.0008L126.882 64.4714L129.466 61.6092L126.048 58.3135Z" fill="#E4897B"/>
<path d="M162.594 188.466L162.774 192.675H166.302L166.121 188.466H162.594Z" fill="#CE6F64"/>
<path d="M185.872 188.466H182.344L183.259 192.675H186.787L185.872 188.466Z" fill="#CE6F64"/>
<path d="M164.722 59.022C161.559 57.5604 160.559 51.1802 169.659 52.7604C169.659 52.7604 168.287 54.2806 171.073 55.2406C173.859 56.2001 171.527 62.167 164.722 59.022Z" fill="#263238"/>
<path d="M171.593 63.826C170.687 67.2061 170.329 69.2308 168.243 70.6367C165.105 72.7511 161.198 70.3247 161.076 66.7415C160.966 63.5164 162.466 58.5301 166.093 57.849C169.667 57.178 172.499 60.4458 171.593 63.826Z" fill="#E4897B"/>
<path d="M169.533 54.4782C171.686 55.6825 174.606 56.4006 174.312 58.108C173.954 60.195 176.077 58.8894 175.583 61.9988C175.26 64.0292 171.515 70.1819 168.879 69.8814C164.916 69.4297 165.418 63.3764 165.405 60.1955C165.397 58.3206 165.309 52.1161 169.533 54.4782Z" fill="#263238"/>
<path d="M164.926 57.1738C163.966 57.4004 162.694 62.9338 166.412 63.4407C170.693 64.0239 164.926 57.1738 164.926 57.1738Z" fill="#263238"/>
<path d="M165.024 59.1374C163.847 59.2411 161.194 57.8251 161.51 55.6953C161.51 55.6953 163.201 58.1875 165.024 59.1374Z" fill="#263238"/>
<path d="M166.77 63.8829C166.402 64.7224 165.705 65.3829 165.031 65.7343C164.016 66.2622 163.446 65.4899 163.676 64.4752C163.882 63.5618 164.659 62.1861 165.702 62.0733C166.731 61.9619 167.191 62.9229 166.77 63.8829Z" fill="#E4897B"/>
<path d="M172.055 59.9755C172.767 59.6131 174.389 58.7913 174.831 56.46C174.831 56.46 176.416 60.8832 172.055 59.9755Z" fill="#263238"/>
<path d="M176.055 59.9295C175.699 59.7212 174.892 59.2465 173.758 59.703C173.758 59.703 175.236 57.7854 176.055 59.9295Z" fill="#263238"/>
<path d="M163.953 106.934C163.953 106.934 167.955 133.882 170.152 143.978C172.558 155.033 181.621 191.86 181.621 191.86H188.08C188.08 191.86 182.103 155.926 180.731 144.98C179.241 133.1 176.123 106.934 176.123 106.934H163.953Z" fill="#7F7F82"/>
<path opacity="0.5" d="M163.953 106.934C163.953 106.934 167.955 133.882 170.152 143.978C172.558 155.033 181.621 191.86 181.621 191.86H188.08C188.08 191.86 182.103 155.926 180.731 144.98C179.241 133.1 176.123 106.934 176.123 106.934H163.953Z" fill="white"/>
<path d="M180.587 189.48C180.559 189.48 181.253 191.961 181.253 191.961H188.52L188.386 189.747L180.587 189.48Z" fill="#7F7F82"/>
<path opacity="0.1" d="M180.587 189.48C180.559 189.48 181.253 191.961 181.253 191.961H188.52L188.386 189.747L180.587 189.48Z" fill="black"/>
<path d="M166.479 116.535C171.106 117.442 170.617 134.698 170.06 143.573C168.726 137.3 166.772 125.228 165.438 116.66C165.745 116.506 166.09 116.458 166.479 116.535Z" fill="#7F7F82"/>
<path opacity="0.4" d="M166.479 116.535C171.106 117.442 170.617 134.698 170.06 143.573C168.726 137.3 166.772 125.228 165.438 116.66C165.745 116.506 166.09 116.458 166.479 116.535Z" fill="white"/>
<path d="M157.258 106.934C157.258 106.934 156.772 133.299 157.155 144.052C157.554 155.237 161.461 191.86 161.461 191.86H167.434C167.434 191.86 167.654 155.891 167.919 144.906C168.209 132.93 169.655 106.934 169.655 106.934H157.258V106.934Z" fill="#7F7F82"/>
<path opacity="0.5" d="M157.258 106.934C157.258 106.934 156.772 133.299 157.155 144.052C157.554 155.237 161.461 191.86 161.461 191.86H167.434C167.434 191.86 167.654 155.891 167.919 144.906C168.209 132.93 169.655 106.934 169.655 106.934H157.258V106.934Z" fill="white"/>
<path d="M162.704 187.569C162.674 187.569 162.648 187.546 162.645 187.515C161.592 177.379 159.109 152.853 158.795 144.054C158.475 135.072 158.765 114.922 158.862 108.96C158.863 108.928 158.89 108.901 158.922 108.901H158.923C158.957 108.902 158.983 108.929 158.982 108.962C158.885 114.923 158.595 135.071 158.915 144.049C159.229 152.844 161.711 177.367 162.764 187.502C162.768 187.535 162.744 187.565 162.711 187.568C162.709 187.569 162.706 187.569 162.704 187.569Z" fill="#7F7F82"/>
<path opacity="0.4" d="M162.704 187.569C162.674 187.569 162.648 187.546 162.645 187.515C161.592 177.379 159.109 152.853 158.795 144.054C158.475 135.072 158.765 114.922 158.862 108.96C158.863 108.928 158.89 108.901 158.922 108.901H158.923C158.957 108.902 158.983 108.929 158.982 108.962C158.885 114.923 158.595 135.071 158.915 144.049C159.229 152.844 161.711 177.367 162.764 187.502C162.768 187.535 162.744 187.565 162.711 187.568C162.709 187.569 162.706 187.569 162.704 187.569Z" fill="white"/>
<path d="M160.314 189.48C160.287 189.48 160.651 191.961 160.651 191.961H167.918L168.114 189.747L160.314 189.48Z" fill="#7F7F82"/>
<path opacity="0.1" d="M160.314 189.48C160.287 189.48 160.651 191.961 160.651 191.961H167.918L168.114 189.747L160.314 189.48Z" fill="black"/>
</svg>
